# 3ds Max Wavefront OBJ Exporter v0.97b - (c)2007 guruware
# File Created: 02.03.2018 17:26:46

mtllib humanoid_quad_tri.mtl

#
# object Group001
#

v  4.3750 5.6000 4.6758
v  4.3750 5.6000 -0.2842
v  4.3750 10.5900 -0.2842
v  4.3750 10.5900 4.6758
v  1.8980 5.6000 4.6758
v  1.8980 10.5900 4.6758
v  1.8980 5.6000 -0.2842
v  1.8980 10.5900 -0.2842
v  4.5950 11.5900 3.4858
v  4.5950 11.5900 1.0058
v  4.5950 13.9900 1.0058
v  4.5950 13.9900 3.4858
v  1.7260 11.5900 3.4858
v  1.7260 13.9900 3.4858
v  1.7260 11.5900 1.0058
v  1.7260 13.9900 1.0058
v  4.2750 -0.3600 4.6658
v  4.2750 -0.3600 2.6818
v  4.2750 4.6000 2.6818
v  4.2750 4.6000 4.6658
v  2.0170 -0.3600 4.6658
v  2.0170 4.6000 4.6658
v  2.0170 -0.3600 2.6818
v  2.0170 4.6000 2.6818
v  4.3550 5.6000 6.1558
v  4.3550 5.6000 4.6758
v  4.3550 10.5900 4.6758
v  4.3550 10.5900 6.1558
v  1.8720 5.6000 6.1558
v  1.8720 10.5900 6.1558
v  1.8720 5.6000 4.6758
v  1.8720 10.5900 4.6758
v  4.3950 5.6000 -0.2642
v  4.3950 5.6000 -1.7542
v  4.3950 10.5900 -1.7542
v  4.3950 10.5900 -0.2642
v  1.9200 5.6000 -0.2642
v  1.9200 10.5900 -0.2642
v  1.9200 5.6000 -1.7542
v  1.9200 10.5900 -1.7542
v  3.6150 10.5900 2.6938
v  3.6150 10.5900 1.7028
v  3.6150 11.5900 1.7028
v  3.6150 11.5900 2.6938
v  2.6250 10.5900 2.6938
v  2.6250 11.5900 2.6938
v  2.6250 10.5900 1.7028
v  2.6250 11.5900 1.7028
v  4.3750 4.6000 4.6958
v  4.3750 4.6000 -0.2542
v  4.3750 5.6000 -0.2542
v  4.3750 5.6000 4.6958
v  1.8960 4.6000 4.6958
v  1.8960 5.6000 4.6958
v  1.8960 4.6000 -0.2542
v  1.8960 5.6000 -0.2542
v  4.3950 -0.3600 1.7308
v  4.3950 -0.3600 -0.2542
v  4.3950 4.6000 -0.2542
v  4.3950 4.6000 1.7308
v  1.9200 -0.3600 1.7308
v  1.9200 4.6000 1.7308
v  1.9200 -0.3600 -0.2542
v  1.9200 4.6000 -0.2542
# 64 vertices

vn 0.5774 -0.5774 0.5774
vn 0.5774 -0.5774 -0.5774
vn 0.5774 0.5774 -0.5774
vn 0.5774 0.5774 0.5774
vn -0.5774 -0.5774 0.5774
vn -0.5774 0.5774 0.5774
vn -0.5774 -0.5774 -0.5774
vn -0.5774 0.5774 -0.5774
# 8 vertex normals

vt 0.5846 0.1874 0.9229
vt 0.5846 0.8138 0.9229
vt 0.2372 0.8138 0.9229
vt 0.2372 0.1874 0.9229
vt 0.9396 0.5846 0.1874
vt 0.0771 0.5846 0.1874
vt 0.0771 0.2372 0.1874
vt 0.9396 0.2372 0.1874
vt 0.4154 0.8138 0.0604
vt 0.4154 0.1874 0.0604
vt 0.7628 0.1874 0.0604
vt 0.7628 0.8138 0.0604
vt 0.9229 0.5846 0.8138
vt 0.0604 0.5846 0.8138
vt 0.0604 0.2372 0.8138
vt 0.9229 0.2372 0.8138
vt 0.0604 0.1874 0.2372
vt 0.9229 0.1874 0.2372
vt 0.9229 0.8138 0.2372
vt 0.0604 0.8138 0.2372
vt 0.9396 0.1874 0.5846
vt 0.9396 0.8138 0.5846
vt 0.0771 0.8138 0.5846
vt 0.0771 0.1874 0.5846
vt 0.1676 0.3377 0.9995
vt 0.1676 0.6509 0.9995
vt 0.0005 0.6509 0.9995
vt 0.0005 0.3377 0.9995
vt 0.9995 0.1676 0.3377
vt 0.0005 0.1676 0.3377
vt 0.0005 0.0005 0.3377
vt 0.9995 0.0005 0.3377
vt 0.8324 0.6509 0.0005
vt 0.8324 0.3377 0.0005
vt 0.9995 0.3377 0.0005
vt 0.9995 0.6509 0.0005
vt 0.9995 0.1676 0.6509
vt 0.0005 0.1676 0.6509
vt 0.0005 0.0005 0.6509
vt 0.9995 0.0005 0.6509
vt 0.0005 0.3377 0.0005
vt 0.0005 0.6509 0.0005
vt 0.9995 0.3377 0.1676
vt 0.9995 0.6509 0.1676
vt 0.0005 0.6509 0.1676
vt 0.0005 0.3377 0.1676
vt 0.9995 0.1887 0.8881
vt 0.9995 0.4393 0.8881
vt 0.6542 0.4393 0.8881
vt 0.6542 0.1887 0.8881
vt 0.8982 0.9995 0.1887
vt 0.1119 0.9995 0.1887
vt 0.1119 0.6542 0.1887
vt 0.8982 0.6542 0.1887
vt 0.0005 0.4393 0.1018
vt 0.0005 0.1887 0.1018
vt 0.3458 0.1887 0.1018
vt 0.3458 0.4393 0.1018
vt 0.8881 0.9995 0.4393
vt 0.1018 0.9995 0.4393
vt 0.1018 0.6542 0.4393
vt 0.8881 0.6542 0.4393
vt 0.1018 0.1887 0.6542
vt 0.8881 0.1887 0.6542
vt 0.8881 0.4393 0.6542
vt 0.1018 0.4393 0.6542
vt 0.8982 0.1887 0.9995
vt 0.8982 0.4393 0.9995
vt 0.1119 0.4393 0.9995
vt 0.1119 0.1887 0.9995
vt 0.5846 0.0005 0.9159
vt 0.5846 0.1874 0.9159
vt 0.2372 0.1874 0.9159
vt 0.2372 0.0005 0.9159
vt 0.9487 0.5846 0.0005
vt 0.0841 0.5846 0.0005
vt 0.0841 0.2372 0.0005
vt 0.9487 0.2372 0.0005
vt 0.4154 0.1874 0.0513
vt 0.4154 0.0005 0.0513
vt 0.7628 0.0005 0.0513
vt 0.7628 0.1874 0.0513
vt 0.9159 0.5846 0.1874
vt 0.0513 0.5846 0.1874
vt 0.0513 0.2372 0.1874
vt 0.9159 0.2372 0.1874
vt 0.0513 0.0005 0.2372
vt 0.9159 0.0005 0.2372
vt 0.9159 0.1874 0.2372
vt 0.0513 0.1874 0.2372
vt 0.9487 0.0005 0.5846
vt 0.9487 0.1874 0.5846
vt 0.0841 0.1874 0.5846
vt 0.0841 0.0005 0.5846
vt 0.5846 0.8113 0.9299
vt 0.5846 0.9995 0.9299
vt 0.2372 0.9995 0.9299
vt 0.2372 0.8113 0.9299
vt 0.9319 0.5846 0.8113
vt 0.0701 0.5846 0.8113
vt 0.0701 0.2372 0.8113
vt 0.9319 0.2372 0.8113
vt 0.4154 0.9995 0.0681
vt 0.4154 0.8113 0.0681
vt 0.7628 0.8113 0.0681
vt 0.7628 0.9995 0.0681
vt 0.9299 0.5846 0.9995
vt 0.0681 0.5846 0.9995
vt 0.0681 0.2372 0.9995
vt 0.9299 0.2372 0.9995
vt 0.0681 0.8113 0.2372
vt 0.9299 0.8113 0.2372
vt 0.9299 0.9995 0.2372
vt 0.0681 0.9995 0.2372
vt 0.9319 0.8113 0.5846
vt 0.9319 0.9995 0.5846
vt 0.0701 0.9995 0.5846
vt 0.0701 0.8113 0.5846
vt 0.2372 0.4377 0.6583
vt 0.2372 0.5629 0.6583
vt 0.1676 0.5629 0.6583
vt 0.1676 0.4377 0.6583
vt 0.6865 0.2372 0.4377
vt 0.3417 0.2372 0.4377
vt 0.3417 0.1676 0.4377
vt 0.6865 0.1676 0.4377
vt 0.7628 0.5629 0.3135
vt 0.7628 0.4377 0.3135
vt 0.8324 0.4377 0.3135
vt 0.8324 0.5629 0.3135
vt 0.6583 0.2372 0.5629
vt 0.3135 0.2372 0.5629
vt 0.3135 0.1676 0.5629
vt 0.6583 0.1676 0.5629
vt 0.3135 0.4377 0.1676
vt 0.6583 0.4377 0.1676
vt 0.6583 0.5629 0.1676
vt 0.3135 0.5629 0.1676
vt 0.6865 0.4377 0.2372
vt 0.6865 0.5629 0.2372
vt 0.3417 0.5629 0.2372
vt 0.3417 0.4377 0.2372
vt 0.6542 0.1849 0.9229
vt 0.6542 0.8101 0.9229
vt 0.5846 0.8101 0.9229
vt 0.5846 0.1849 0.9229
vt 0.9403 0.6542 0.1849
vt 0.0771 0.6542 0.1849
vt 0.0771 0.5846 0.1849
vt 0.9403 0.5846 0.1849
vt 0.3458 0.8101 0.0597
vt 0.3458 0.1849 0.0597
vt 0.4154 0.1849 0.0597
vt 0.4154 0.8101 0.0597
vt 0.9229 0.6542 0.8101
vt 0.0597 0.6542 0.8101
vt 0.0597 0.5846 0.8101
vt 0.9229 0.5846 0.8101
vt 0.0597 0.1849 0.5846
vt 0.9229 0.1849 0.5846
vt 0.9229 0.8101 0.5846
vt 0.0597 0.8101 0.5846
vt 0.9403 0.1849 0.6542
vt 0.9403 0.8101 0.6542
vt 0.0771 0.8101 0.6542
vt 0.0771 0.1849 0.6542
vt 0.9995 0.5594 0.9299
vt 0.9995 0.8101 0.9299
vt 0.6542 0.8101 0.9299
vt 0.6542 0.5594 0.9299
vt 0.9319 0.9995 0.5594
vt 0.0701 0.9995 0.5594
vt 0.0701 0.6542 0.5594
vt 0.9319 0.6542 0.5594
vt 0.0005 0.8101 0.0681
vt 0.0005 0.5594 0.0681
vt 0.3458 0.5594 0.0681
vt 0.3458 0.8101 0.0681
vt 0.9299 0.9995 0.8101
vt 0.0681 0.9995 0.8101
vt 0.0681 0.6542 0.8101
vt 0.9299 0.6542 0.8101
vt 0.0681 0.5594 0.6542
vt 0.9299 0.5594 0.6542
vt 0.9299 0.8101 0.6542
vt 0.0681 0.8101 0.6542
vt 0.9319 0.5594 0.9995
vt 0.9319 0.8101 0.9995
vt 0.0701 0.8101 0.9995
vt 0.0701 0.5594 0.9995
# 190 texture coords

g Group001
usemtl Material__25
s 1
f 1/1/1 2/2/2 3/3/3 
f 3/3/3 4/4/4 1/1/1 
f 5/5/5 1/6/1 4/7/4 
f 4/7/4 6/8/6 5/5/5 
f 7/9/7 5/10/5 6/11/6 
f 6/11/6 8/12/8 7/9/7 
f 2/13/2 7/14/7 8/15/8 
f 8/15/8 3/16/3 2/13/2 
f 6/17/6 4/18/4 3/19/3 
f 3/19/3 8/20/8 6/17/6 
f 5/21/5 7/22/7 2/23/2 
f 2/23/2 1/24/1 5/21/5 
f 9/25/1 10/26/2 11/27/3 
f 11/27/3 12/28/4 9/25/1 
f 13/29/5 9/30/1 12/31/4 
f 12/31/4 14/32/6 13/29/5 
f 15/33/7 13/34/5 14/35/6 
f 14/35/6 16/36/8 15/33/7 
f 10/37/2 15/38/7 16/39/8 
f 16/39/8 11/40/3 10/37/2 
f 14/41/6 12/35/4 11/36/3 
f 11/36/3 16/42/8 14/41/6 
f 13/43/5 15/44/7 10/45/2 
f 10/45/2 9/46/1 13/43/5 
f 17/47/1 18/48/2 19/49/3 
f 19/49/3 20/50/4 17/47/1 
f 21/51/5 17/52/1 20/53/4 
f 20/53/4 22/54/6 21/51/5 
f 23/55/7 21/56/5 22/57/6 
f 22/57/6 24/58/8 23/55/7 
f 18/59/2 23/60/7 24/61/8 
f 24/61/8 19/62/3 18/59/2 
f 22/63/6 20/64/4 19/65/3 
f 19/65/3 24/66/8 22/63/6 
f 21/67/5 23/68/7 18/69/2 
f 18/69/2 17/70/1 21/67/5 
f 25/71/1 26/72/2 27/73/3 
f 27/73/3 28/74/4 25/71/1 
f 29/75/5 25/76/1 28/77/4 
f 28/77/4 30/78/6 29/75/5 
f 31/79/7 29/80/5 30/81/6 
f 30/81/6 32/82/8 31/79/7 
f 26/83/2 31/84/7 32/85/8 
f 32/85/8 27/86/3 26/83/2 
f 30/87/6 28/88/4 27/89/3 
f 27/89/3 32/90/8 30/87/6 
f 29/91/5 31/92/7 26/93/2 
f 26/93/2 25/94/1 29/91/5 
f 33/95/1 34/96/2 35/97/3 
f 35/97/3 36/98/4 33/95/1 
f 37/99/5 33/100/1 36/101/4 
f 36/101/4 38/102/6 37/99/5 
f 39/103/7 37/104/5 38/105/6 
f 38/105/6 40/106/8 39/103/7 
f 34/107/2 39/108/7 40/109/8 
f 40/109/8 35/110/3 34/107/2 
f 38/111/6 36/112/4 35/113/3 
f 35/113/3 40/114/8 38/111/6 
f 37/115/5 39/116/7 34/117/2 
f 34/117/2 33/118/1 37/115/5 
f 41/119/1 42/120/2 43/121/3 
f 43/121/3 44/122/4 41/119/1 
f 45/123/5 41/124/1 44/125/4 
f 44/125/4 46/126/6 45/123/5 
f 47/127/7 45/128/5 46/129/6 
f 46/129/6 48/130/8 47/127/7 
f 42/131/2 47/132/7 48/133/8 
f 48/133/8 43/134/3 42/131/2 
f 46/135/6 44/136/4 43/137/3 
f 43/137/3 48/138/8 46/135/6 
f 45/139/5 47/140/7 42/141/2 
f 42/141/2 41/142/1 45/139/5 
f 49/143/1 50/144/2 51/145/3 
f 51/145/3 52/146/4 49/143/1 
f 53/147/5 49/148/1 52/149/4 
f 52/149/4 54/150/6 53/147/5 
f 55/151/7 53/152/5 54/153/6 
f 54/153/6 56/154/8 55/151/7 
f 50/155/2 55/156/7 56/157/8 
f 56/157/8 51/158/3 50/155/2 
f 54/159/6 52/160/4 51/161/3 
f 51/161/3 56/162/8 54/159/6 
f 53/163/5 55/164/7 50/165/2 
f 50/165/2 49/166/1 53/163/5 
f 57/167/1 58/168/2 59/169/3 
f 59/169/3 60/170/4 57/167/1 
f 61/171/5 57/172/1 60/173/4 
f 60/173/4 62/174/6 61/171/5 
f 63/175/7 61/176/5 62/177/6 
f 62/177/6 64/178/8 63/175/7 
f 58/179/2 63/180/7 64/181/8 
f 64/181/8 59/182/3 58/179/2 
f 62/183/6 60/184/4 59/185/3 
f 59/185/3 64/186/8 62/183/6 
f 61/187/5 63/188/7 58/189/2 
f 58/189/2 57/190/1 61/187/5 
# 96 faces

