# 3ds Max Wavefront OBJ Exporter v0.97b - (c)2007 guruware
# File Created: 12.03.2018 19:36:30

mtllib LOD01_Building_4stores_Residential.mtl

#
# object LOD01_Building_4stores_Residential
#

v  -7.990860462189 0.984418272972 -2.772222995758
v  8.055938720703 0.984414100647 2.772545337677
v  -7.990715503693 0.984412729740 2.772314548492
v  8.055982589722 0.984415113926 -2.772128105164
v  -7.990860462189 0.000003337860 -2.772223949432
v  -7.990715503693 -0.000002384186 2.772313594818
v  8.055938720703 -0.000000953674 2.772544860840
v  8.055982589722 0.000000000000 -2.772128582001
v  6.496785163879 4.066370010376 2.887372493744
v  8.030813217163 4.066366195679 1.353343129158
v  8.030818939209 4.066366195679 -2.707691669464
v  -8.039395332336 4.066366195679 -2.707687854767
v  -8.039398193359 4.066370010376 1.353341698647
v  -6.505362510681 4.066364288330 2.887372016907
v  6.496784210205 0.973678588867 2.887375116348
v  8.030813217163 0.973674774170 1.353345632553
v  8.030813217163 3.952619552612 1.353343129158
v  6.496785163879 3.952623367310 2.887372493744
v  8.030818939209 0.973675727844 -2.707689046860
v  8.030818939209 3.952619552612 -2.707691669464
v  -8.039396286011 0.973675727844 -2.707685470581
v  -8.039395332336 3.952619552612 -2.707687854767
v  -8.039398193359 0.973678588867 1.353344202042
v  -8.039398193359 3.952623367310 1.353341698647
v  -6.505363464355 0.973672866821 2.887374639511
v  -6.505362510681 3.952617645264 2.887372016907
v  3.101593494415 5.163513660431 -0.610117912292
v  3.721920251846 5.163513660431 -0.610117912292
v  3.721921205521 5.163513660431 -1.165862560272
v  3.101594448090 5.163513660431 -1.165862798691
v  3.101594448090 4.035419464111 -1.165862798691
v  3.101593494415 4.035419464111 -0.610117912292
v  3.721920251846 4.035419464111 -0.610117912292
v  3.721921205521 4.035419464111 -1.165862560272
# 34 vertices

vn 0.000000085447 -1.000000000000 -0.000000999767
vn -0.000000196863 -1.000000000000 -0.000000182750
vn -0.000000025654 1.000000000000 0.000000826722
vn -0.000000085447 1.000000000000 0.000000999767
vn 0.000000137072 1.000000000000 0.000000355787
vn 0.000000196863 1.000000000000 0.000000182750
vn -1.000000000000 -0.000000000025 0.000026144380
vn -1.000000000000 -0.000000000025 0.000026144382
vn -0.000014383546 -0.000000949879 1.000000000000
vn -0.000014412103 -0.000000484386 1.000000000000
vn -0.000014410944 -0.000000503280 1.000000000000
vn -0.000014382387 -0.000000968772 1.000000000000
vn 0.000005914508 0.000000503280 -1.000000000000
vn 0.000005943065 0.000000968773 -1.000000000000
vn 0.000005941906 0.000000949879 -1.000000000000
vn 0.000005913349 0.000000484386 -1.000000000000
vn 1.000000000000 -0.000000000004 0.000007911921
vn 0.000000578284 1.000000000000 -0.000000301346
vn 0.000002486723 1.000000000000 0.000000000004
vn 0.000000470631 1.000000000000 -0.000000593345
vn -0.000000000000 1.000000000000 -0.000000939342
vn -0.000000116590 1.000000000000 0.000000577235
vn -0.000000440085 1.000000000000 0.000004170160
vn 0.707106947899 0.000000514854 0.707106590271
vn 0.707106888294 0.000000594226 0.707106649876
vn 0.707107067108 0.000000237761 0.707106471062
vn 0.707107067108 0.000000198075 0.707106471062
vn 1.000000000000 0.000000000001 0.000001409012
vn 1.000000000000 0.000000000000 -0.000000000000
vn -1.000000000000 0.000000000000 -0.000000000000
vn -0.000000235581 -0.000000838670 -1.000000000000
vn -0.000000222541 -0.000000770910 -1.000000000000
vn -0.000000224337 -0.000000780241 -1.000000000000
vn -0.000000237377 -0.000000848001 -1.000000000000
vn 0.928476691246 0.000000000000 0.371390670538
vn -1.000000000000 0.000000191152 -0.000000609890
vn -1.000000000000 -0.000000000000 -0.000000469671
vn -1.000000000000 0.000000064493 -0.000000634398
vn -1.000000000000 0.000000160069 -0.000000704507
vn -0.707105696201 0.000000746846 0.707107901573
vn -0.707105755806 0.000000848895 0.707107782364
vn -0.707105576992 0.000000348139 0.707108020782
vn -0.707105517387 0.000000297113 0.707108020782
vn -0.000000036674 0.000000880380 1.000000000000
vn -0.000000036674 0.000000440190 1.000000000000
vn 0.707107067108 0.000000000000 0.707106530666
vn 0.707107067108 0.000000000000 0.707106471062
vn 1.000000000000 0.000000000000 0.000001409012
vn -1.000000000000 0.000000000000 -0.000000704507
vn -0.707105517387 0.000000000000 0.707108020782
vn -0.000000036674 0.000000000000 1.000000000000
vn 0.000000000000 1.000000000000 -0.000000000000
vn -1.000000000000 0.000000000000 -0.000001716029
vn 0.000000000000 0.000000000000 1.000000000000
vn 1.000000000000 0.000000000000 0.000001716030
vn 0.000000384344 0.000000000000 -1.000000000000
# 56 vertex normals

vt 5.897024154663 3.272224426270 -2.846165180206
vt -4.896832942963 -2.272546768188 -2.846169471741
vt 5.896880149841 -2.272313117981 -2.846170902252
vt -4.896877288818 3.272126674652 -2.846168518066
vt -4.897024154663 3.272224426270 -2.846165180206
vt -4.896880149841 -2.272313117981 -2.846170902252
vt 5.896832942963 -2.272546768188 -2.846169471741
vt 5.896877288818 3.272126674652 -2.846168518066
vt -1.348257541656 0.000505387783 -4.848947048187
vt 2.348100423813 0.000499576330 -4.848851203918
vt 2.348101139069 0.999494791031 -4.848851203918
vt -1.348257064819 0.999500393867 -4.848947048187
vt -4.848851203918 0.000499576330 -1.348100423813
vt 5.848917484283 0.000501036644 -1.348257303238
vt 5.848917484283 0.999496161938 -1.348257541656
vt -4.848851203918 0.999494791031 -1.348101139069
vt -4.848947525024 0.000501990318 2.348191499710
vt 5.848947048187 0.000505387783 2.348257541656
vt 5.848947048187 0.999500393867 2.348257064819
vt -4.848947525024 0.999497175217 2.348191261292
vt -1.348257303238 0.000501036644 5.848917484283
vt 2.348191499710 0.000501990318 5.848947525024
vt 2.348191261292 0.999497175217 5.848947525024
vt -1.348257541656 0.999496161938 5.848917484283
vt 0.860480546951 0.000499546528 1.000000000000
vt 0.999499797821 0.265899956226 0.375000000000
vt 0.999500393867 0.734098672867 0.375000000000
vt 0.139519512653 0.999500453472 0.375000000000
vt 0.000499576330 0.265900671482 1.000000000000
vt 0.139519363642 0.000499993563 0.000000000000
vt 4.834049224854 -0.991630554199 -1.365022420883
vt 5.856735706329 -0.991634130478 -0.342336177826
vt 5.856735706329 1.842730045319 -0.342334508896
vt -0.342334508896 1.842730045319 5.856735706329
vt -1.365020632744 1.842733621597 4.834049701691
vt -1.365022420883 -0.991630554199 4.834049224854
vt -0.342336177826 -0.991634130478 5.856735706329
vt 2.365020513535 -0.991633176804 5.856739997864
vt 2.365022182465 1.842730045319 5.856739997864
vt -1.488887786865 3.958922386169 1.943570137024
vt -2.255907058716 3.958923816681 1.176552295685
vt -2.255906820297 -3.000024318695 1.176551103592
vt -4.856739997864 -0.991633176804 2.365020513535
vt 5.856738090515 -0.991633176804 2.365020751953
vt 5.856737613678 1.950956106186 2.365022420883
vt -4.856739997864 1.950956106186 2.365022182465
vt -0.176551818848 3.958923816681 -2.255904912949
vt -0.943570733070 3.958923816681 -1.488888263702
vt -0.943569421768 -3.000025033951 -1.488888621330
vt -1.365020751953 -0.991633176804 -4.856738090515
vt 1.342332720757 -0.991630554199 -4.856739997864
vt 1.342331051826 1.842733621597 -4.856739997864
vt -1.365022420883 1.842730045319 -4.856737613678
vt -4.856739997864 -0.991630554199 -0.342332720757
vt -3.834050178528 -0.991636037827 -1.365019917488
vt -3.834049701691 1.842728137970 -1.365018248558
vt -4.856739997864 1.842733621597 -0.342331051826
vt 4.834049701691 1.842733621597 -1.365020632744
vt -0.342334508896 1.950956106186 5.856735706329
vt -1.365020632744 1.950959682465 4.834049701691
vt 2.365022182465 1.950956106186 5.856739997864
vt 1.342331051826 1.950959682465 -4.856739997864
vt -1.365022420883 1.950956106186 -4.856737613678
vt -3.834049701691 1.950954198837 -1.365018248558
vt -4.856739997864 1.950959682465 -0.342331051826
vt 4.834049701691 1.950959682465 -1.365020632744
vt 11.339776992798 21.939161300659 0.000000000000
vt 12.525428771973 21.939161300659 0.000000000000
vt 12.525428771973 23.001375198364 0.000000000000
vt 11.339777946472 23.001375198364 0.000000000000
vt -22.001375198364 23.615318298340 0.000000000000
vt -20.939161300659 23.615318298340 0.000000000000
vt -20.939161300659 25.444202423096 0.000000000000
vt -22.001375198364 25.444202423096 0.000000000000
vt 11.339776992798 23.615318298340 0.000000000000
vt 12.525428771973 23.615318298340 0.000000000000
vt 12.525428771973 25.444202423096 0.000000000000
vt 11.339776992798 25.444202423096 0.000000000000
vt 21.939161300659 23.615318298340 0.000000000000
vt 23.001375198364 23.615318298340 0.000000000000
vt 23.001375198364 25.444202423096 0.000000000000
vt 21.939161300659 25.444202423096 0.000000000000
vt -11.525428771973 23.615318298340 0.000000000000
vt -10.339777946472 23.615318298340 0.000000000000
vt -10.339777946472 25.444202423096 0.000000000000
vt -11.525428771973 25.444202423096 0.000000000000
# 86 texture coords

g LOD01_Building_4stores_Residential
usemtl concrete_01
s 1
f 1/1/1 2/2/1 3/3/1 
s 2
f 4/4/2 2/2/2 1/1/2 
s 4
f 1/5/3 3/6/4 2/7/5 
f 4/8/6 1/5/3 2/7/5 
usemtl LOD_window_03
s 8
f 5/9/7 6/10/8 3/11/7 
f 3/11/7 1/12/7 5/9/7 
s 16
f 6/13/9 7/14/10 2/15/11 
f 2/15/11 3/16/12 6/13/9 
f 8/17/13 5/18/14 1/19/15 
f 1/19/15 4/20/16 8/17/13 
s 8
f 7/21/17 8/22/17 4/23/17 
f 4/23/17 2/24/17 7/21/17 
usemtl Roof_04
s 1
f 9/25/18 10/26/19 11/27/20 
f 11/27/20 12/28/21 13/29/22 
f 9/25/18 11/27/20 13/29/22 
f 9/25/18 13/29/22 14/30/23 
usemtl LOD_window_03
s 2
f 15/31/24 16/32/25 17/33/26 
f 17/34/26 18/35/27 15/36/24 
s 4
f 16/37/28 19/38/28 20/39/28 
f 20/39/28 17/34/28 16/37/28 
s 2
f 11/40/29 20/41/30 19/42/29 
s 8
f 19/43/31 21/44/32 12/45/33 
f 12/45/33 11/46/34 19/43/31 
s 2
f 22/47/35 12/48/29 21/49/29 
s 4
f 21/50/36 23/51/37 24/52/38 
f 24/52/38 22/53/39 21/50/36 
s 2
f 23/54/40 25/55/41 26/56/42 
f 26/56/42 24/57/43 23/54/40 
s 4
f 25/55/44 15/31/44 18/58/45 
f 18/58/45 26/56/45 25/55/44 
usemtl concrete_01
s 2
f 18/35/27 17/34/26 10/59/46 
f 10/59/46 9/60/47 18/35/27 
s 4
f 17/34/28 20/39/28 11/61/48 
f 11/61/48 10/59/48 17/34/28 
f 22/53/39 24/52/38 13/62/49 
f 13/62/49 12/63/49 22/53/39 
s 2
f 24/57/43 26/56/42 14/64/50 
f 14/64/50 13/65/50 24/57/43 
s 4
f 26/56/45 18/58/45 9/66/51 
f 9/66/51 14/64/51 26/56/45 
usemtl brick_01
s 1
f 27/67/52 28/68/52 29/69/52 
f 29/69/52 30/70/52 27/67/52 
s off
f 31/71/53 32/72/53 27/73/53 
f 27/73/53 30/74/53 31/71/53 
f 32/75/54 33/76/54 28/77/54 
f 28/77/54 27/78/54 32/75/54 
f 33/79/55 34/80/55 29/81/55 
f 29/81/55 28/82/55 33/79/55 
f 34/83/56 31/84/56 30/85/56 
f 30/85/56 29/86/56 34/83/56 
# 50 faces

