# 3ds Max Wavefront OBJ Exporter v0.97b - (c)2007 guruware
# File Created: 13.03.2018 18:54:08

mtllib LOD01_Building_2stiores_House.mtl

#
# object LOD01_Building_2stiores_House
#

v  1.229031443596 3.020800590515 -0.145725131035
v  -0.000184863806 3.020799875259 -0.145725131035
v  -0.000184863806 2.080067157745 2.321494817734
v  1.229031443596 2.080068111420 2.321491479874
v  1.229031443596 3.020800590515 -0.154032111168
v  1.229031443596 2.080068111420 1.067184209824
v  2.483435392380 3.020802497864 -0.154033184052
v  2.483435392380 2.080069780350 1.067037463188
v  2.483433723450 3.020801305771 -0.162173390388
v  2.483433961868 2.080068826675 -0.162183880806
v  2.483435869217 3.020798444748 -0.170314192772
v  2.483435869217 2.080066442490 -1.391411900520
v  1.229122638702 3.020798444748 -0.170314192772
v  1.229122638702 2.080066442490 -1.391411423683
v  1.229221224785 3.020797014236 -0.178621411324
v  1.229221224785 2.080064296722 -2.645842075348
v  -0.000002831221 3.020799875259 -0.178621411324
v  -0.000002741814 2.080067157745 -2.645839214325
v  -1.229225158691 3.020802497864 -0.178621411324
v  -1.229225158691 2.080070018768 -2.645840644836
v  -1.229224681854 3.020802497864 -0.170314669609
v  -1.229224681854 2.080070018768 -1.391527056694
v  -2.483422994614 3.020797014236 -0.170315504074
v  -2.483422994614 2.080064773560 -1.391656756401
v  -2.483424186707 3.020801305771 -0.162174940109
v  -2.483424186707 2.080068826675 -0.162433981895
v  -2.483422994614 3.020797014236 -0.154034614563
v  -2.483422994614 2.080065011978 1.066787719727
v  -1.229114055634 3.020797014236 -0.154034614563
v  -1.229114055634 2.080065011978 1.066787719727
v  -1.229035139084 3.020798444748 -0.145728468895
v  -1.229035139084 2.080065965652 2.321015119553
v  -0.994399487972 0.766897261143 2.852602720261
v  -0.994399726391 0.766897261143 2.379614830017
v  -0.655886054039 0.889928758144 2.379614591599
v  -0.655885875225 0.889928758144 2.852602481842
v  -0.317372500896 0.766897261143 2.379614591599
v  -0.317372322083 0.766897261143 2.852602481842
v  -0.994399487972 0.798885464668 2.852602720261
v  -0.655885875225 0.921917021275 2.852602481842
v  -0.655886054039 0.921917021275 2.379614591599
v  -0.994399726391 0.798885464668 2.379614830017
v  -0.317372322083 0.798885464668 2.852602481842
v  -0.317372500896 0.798885464668 2.379614591599
v  -0.919228076935 0.000000953674 2.694963932037
v  -0.919228076935 0.000000953674 2.441130638123
v  -0.392543941736 0.000000953674 2.441130399704
v  -0.392543911934 0.000000953674 2.694963932037
v  -0.919228076935 0.049213588238 2.694963932037
v  -0.392543911934 0.049213588238 2.694963932037
v  -0.392543941736 0.049213588238 2.441130399704
v  -0.919228076935 0.049213588238 2.441130638123
v  -2.618075370789 2.034120082855 1.177962779999
v  -1.296040058136 2.034120082855 1.177962779999
v  -1.296040058136 2.034120082855 -1.410382986069
v  -2.618075370789 2.034120082855 -1.410382986069
v  1.295967578888 2.034120082855 1.177962779999
v  1.295967578888 2.034120082855 -1.410382986069
v  2.618002891541 2.034120082855 1.177962779999
v  2.618002891541 2.034120082855 -1.410382986069
v  -2.618075370789 0.000000000000 1.177962779999
v  -1.296040058136 0.000000000000 1.177962779999
v  -1.296040058136 0.000000000000 2.477962970734
v  1.295967578888 0.000000000000 2.477962970734
v  1.295967578888 2.034120082855 2.477962732315
v  -1.296040058136 2.034120082855 2.477962732315
v  1.295967578888 0.000000000000 1.177962779999
v  2.618002891541 0.000000000000 1.177962779999
v  2.618002891541 0.000000000000 -1.410382986069
v  1.295967578888 0.000000000000 -1.410382986069
v  1.295967578888 0.000000000000 -2.792520046234
v  -1.296040058136 0.000000000000 -2.792520046234
v  -1.296040058136 2.034120082855 -2.792520046234
v  1.295967578888 2.034120082855 -2.792520046234
v  -1.296040058136 0.000000000000 -1.410382986069
v  -2.618075370789 0.000000000000 -1.410382986069
# 76 vertices

vn -0.000000461386 0.983458697796 0.181132659316
vn -0.000011123184 0.983468174934 0.181080922484
vn -0.000069970891 0.934381842613 0.356273084879
vn 0.000000242508 0.934381783009 0.356273293495
vn 1.000000000000 0.000000000000 -0.000000000000
vn 0.000030202453 0.792189836502 0.610274732113
vn -0.000000682618 0.792205214500 0.610254764557
vn 0.000039455284 0.792185246944 0.610280692577
vn 0.000070342161 0.792169928551 0.610300600529
vn 1.000000000000 -0.000055140397 0.000088794550
vn 0.999999940395 -0.000266069255 -0.000204984099
vn 1.000000000000 -0.000001048992 -0.000002160532
vn 1.000000000000 -0.000000874100 0.000000915739
vn 1.000000000000 -0.000000590476 0.000166275422
vn 1.000000000000 -0.000002014110 0.000001551668
vn -0.000000100887 0.792176604271 -0.610291898251
vn 0.000000000000 0.792176663876 -0.610291838646
vn -0.000000131120 0.792176604271 -0.610291957855
vn -0.000000232007 0.792176544666 -0.610292017460
vn 0.999848604202 -0.013788328506 0.010613981634
vn 0.999810874462 -0.015404914506 0.011867928319
vn 0.999999940395 -0.000226315882 0.000094258838
vn 1.000000000000 -0.000206116441 0.000078590645
vn 0.000001840632 0.983452200890 -0.181167736650
vn 0.000002288672 0.983316361904 -0.181903705001
vn 0.000001575554 0.934381902218 -0.356273084879
vn 0.000001884836 0.934381842613 -0.356273114681
vn 0.000002182281 0.983458042145 -0.181136012077
vn 0.000002589394 0.934381961823 -0.356272906065
vn -1.000000000000 -0.000083515595 0.000031929641
vn -1.000000000000 -0.000150550099 0.000057403631
vn -1.000000000000 -0.000000953822 0.000000555085
vn -1.000000000000 -0.000000493502 0.000000380158
vn 0.000024268698 0.792217791080 -0.610238432884
vn -0.000003057663 0.792204201221 -0.610256075859
vn 0.000032465705 0.792221903801 -0.610233128071
vn 0.000059790658 0.792235434055 -0.610215544701
vn -1.000000000000 0.000039513496 0.000042500444
vn -1.000000000000 0.000190249673 -0.000146538907
vn -1.000000000000 0.000000929798 -0.000001681023
vn -1.000000000000 0.000000625717 0.000000400510
vn -1.000000000000 0.000000442097 0.000092411748
vn -1.000000000000 0.000001258543 0.000000969799
vn 0.000000000000 0.792110085487 0.610378205776
vn 0.000000000000 0.792110145092 0.610378205776
vn -0.999903082848 0.011031650938 0.008493851870
vn -0.999878942966 0.012325526215 0.009497709572
vn -1.000000000000 0.000181159368 0.000075467986
vn -1.000000000000 0.000164986632 0.000062920320
vn -0.000001635350 0.983568966389 0.180532723665
vn -0.000101738857 0.934375584126 0.356289595366
vn 0.000001188210 -1.000000000000 0.000000548747
vn 0.000000775839 -1.000000000000 -0.000000000000
vn 0.000001064303 -1.000000000000 0.000000427083
vn 0.000000969791 -1.000000000000 0.000000760307
vn 0.000000163605 -1.000000000000 -0.000000875385
vn 0.000000000000 -1.000000000000 -0.000003103343
vn 0.000000542937 -1.000000000000 -0.000000956090
vn 0.000004181780 -1.000000000000 0.000003297304
vn -0.000000601768 -1.000000000000 -0.000000335715
vn -0.000002327506 -1.000000000000 0.000000000001
vn -0.000001896783 -1.000000000000 0.000000855246
vn -0.000002327499 -1.000000000000 0.000001710368
vn -0.000000452268 -1.000000000000 0.000000633163
vn 0.000000000001 -1.000000000000 0.000001939580
vn 0.000000946724 -1.000000000000 0.000001022648
vn 0.000001330548 -1.000000000000 0.000000775835
vn -0.000001155478 1.000000000000 -0.000088068853
vn -0.000001520647 1.000000000000 -0.000146444727
vn -0.000000763058 0.999999940395 -0.000248461438
vn 0.000000000000 0.999999940395 -0.000351442344
vn -0.000000172586 1.000000000000 -0.000144823396
vn 0.000001663546 1.000000000000 0.000223250798
vn -0.000004371866 0.999999880791 -0.000527179509
vn -0.000002171783 1.000000000000 0.000001400906
vn 0.000000000000 0.999999880791 0.000527194294
vn 0.000000571110 1.000000000000 0.000167493039
vn 0.341585189104 -0.939850807190 -0.000000146972
vn 0.341585189104 -0.939850807190 -0.000000172183
vn 0.341585189104 -0.939850807190 -0.000000154348
vn 0.341585218906 -0.939850807190 -0.000000129137
vn -0.341585338116 -0.939850747585 0.000000129137
vn -0.341585278511 -0.939850807190 0.000000129137
vn -0.341585338116 0.939850747585 0.000000146972
vn -0.341585367918 0.939850747585 0.000000129137
vn -0.341585338116 0.939850747585 0.000000154348
vn -0.341585308313 0.939850747585 0.000000172183
vn 0.341585397720 0.939850747585 -0.000000129137
vn 0.000000704310 0.000000000000 1.000000000000
vn 0.000000352155 0.000000000000 1.000000000000
vn 0.000000000000 0.000000000000 1.000000000000
vn 1.000000000000 0.000000000000 -0.000000378052
vn 0.000000000000 0.000000000000 -1.000000000000
vn -0.000000352155 0.000000000000 -1.000000000000
vn -0.000000704310 0.000000000000 -1.000000000000
vn -1.000000000000 0.000000000000 0.000000504069
vn 0.000000000000 -1.000000000000 -0.000000000000
vn 0.000000000000 1.000000000000 -0.000000000000
vn 1.000000000000 0.000000000000 -0.000000117409
vn -0.000000452678 0.000000000000 -1.000000000000
vn -1.000000000000 0.000000000000 -0.000000000000
vn 0.000000000000 0.000000117210 1.000000000000
# 102 vertex normals

vt 0.808997392654 0.824349522591 0.000000000000
vt 0.499951899052 0.824348926544 0.000000000000
vt 0.499951779842 0.175651490688 0.000000000000
vt 0.808997273445 0.175651967525 0.000000000000
vt 0.498473674059 0.589427590370 0.000000000000
vt 0.496916234493 0.589427590370 0.000000000000
vt 0.034344196320 0.413035631180 0.000000000000
vt 0.269511044025 0.413035631180 0.000000000000
vt 1.124375462532 0.824350714684 0.000000000000
vt 0.808997392654 0.175651788712 0.000000000000
vt 1.124375343323 0.175653040409 0.000000000000
vt 0.500000000000 0.589427709579 0.000000000000
vt 0.498473852873 0.589427947998 0.000000000000
vt 0.269538462162 0.413035988808 0.000000000000
vt 0.500002026558 0.413035809994 0.000000000000
vt 0.501526355743 0.589427232742 0.000000000000
vt 0.730466783047 0.413035362959 0.000000000000
vt 0.809020340443 0.824348092079 0.000000000000
vt 1.124375581741 0.824347972870 0.000000000000
vt 1.124375581741 0.175650417805 0.000000000000
vt 0.809020400047 0.175650417805 0.000000000000
vt 0.503083825111 0.589426934719 0.000000000000
vt 0.730466783047 0.413035333157 0.000000000000
vt 0.965656697750 0.413034975529 0.000000000000
vt 0.499997675419 0.824348926544 0.000000000000
vt 0.809045135975 0.824346899986 0.000000000000
vt 0.809045195580 0.175648868084 0.000000000000
vt 0.499997764826 0.175650894642 0.000000000000
vt 0.190950632095 0.824350953102 0.000000000000
vt 0.190950751305 0.175653040409 0.000000000000
vt 0.498473405838 0.589427947998 0.000000000000
vt 0.496916055679 0.589427947998 0.000000000000
vt 0.034343481064 0.413036048412 0.000000000000
vt 0.269511461258 0.413036048412 0.000000000000
vt -0.124375581741 0.824347138405 0.000000000000
vt 0.190950810909 0.824350953102 0.000000000000
vt 0.190950840712 0.175653159618 0.000000000000
vt -0.124375581741 0.175649523735 0.000000000000
vt 0.499999463558 0.589427709579 0.000000000000
vt 0.498473227024 0.589426934719 0.000000000000
vt 0.269487082958 0.413035035133 0.000000000000
vt 0.499950885773 0.413035809994 0.000000000000
vt 0.501525640488 0.589426934719 0.000000000000
vt 0.730414509773 0.413035094738 0.000000000000
vt 0.190978586674 0.824347138405 0.000000000000
vt -0.124375700951 0.175650060177 0.000000000000
vt 0.190978527069 0.175649881363 0.000000000000
vt 0.503083050251 0.589427232742 0.000000000000
vt 0.501525759697 0.589426934719 0.000000000000
vt 0.965566396713 0.413035273552 0.000000000000
vt 0.190998405218 0.824348211288 0.000000000000
vt 0.190998315811 0.175650715828 0.000000000000
vt 0.269552052021 0.269511044025 0.000000000000
vt 0.269552111626 0.034344196320 0.000000000000
vt 0.500036120415 0.034343600273 0.000000000000
vt 0.730451464653 0.034433603287 0.000000000000
vt 0.730466187000 0.269585490227 0.000000000000
vt 0.965655148029 0.269585520029 0.000000000000
vt 0.965655326843 0.500049114227 0.000000000000
vt 0.965655028820 0.730512917042 0.000000000000
vt 0.730486810207 0.730488538742 0.000000000000
vt 0.730486869812 0.965656518936 0.000000000000
vt 0.500001728535 0.965656280518 0.000000000000
vt 0.269516348839 0.965656697750 0.000000000000
vt 0.269534885883 0.730466783047 0.000000000000
vt 0.034345090389 0.730466783047 0.000000000000
vt 0.034345507622 0.500002026558 0.000000000000
vt 0.034345328808 0.269538462162 0.000000000000
vt 0.730448007584 0.498473674059 0.000000000000
vt 0.965654730797 0.498473852873 0.000000000000
vt 0.965654492378 0.500000000000 0.000000000000
vt 0.965654850006 0.501526355743 0.000000000000
vt 0.730465114117 0.501526355743 0.000000000000
vt 0.730483591557 0.503083825111 0.000000000000
vt 0.499998152256 0.503083944321 0.000000000000
vt 0.269513010979 0.503083944321 0.000000000000
vt 0.269513130188 0.501526594162 0.000000000000
vt 0.034344911575 0.501526772976 0.000000000000
vt 0.034344673157 0.500000536442 0.000000000000
vt 0.034344911575 0.498474329710 0.000000000000
vt 0.269533872604 0.498474270105 0.000000000000
vt 0.269548654556 0.496916949749 0.000000000000
vt 0.499963998795 0.496916294098 0.000000000000
vt 0.730448007584 0.496916234493 0.000000000000
vt -33.184101104736 -20.460424423218 0.000000000000
vt -33.184101104736 -19.739591598511 0.000000000000
vt -33.699996948242 -19.739591598511 0.000000000000
vt -33.699996948242 -20.460424423218 0.000000000000
vt -34.215892791748 -19.739591598511 0.000000000000
vt -34.215892791748 -20.460424423218 0.000000000000
vt 34.184101104736 -20.460424423218 0.000000000000
vt 34.699996948242 -20.460424423218 0.000000000000
vt 34.699996948242 -19.739591598511 0.000000000000
vt 34.184101104736 -19.739591598511 0.000000000000
vt 35.215892791748 -20.460424423218 0.000000000000
vt 35.215892791748 -19.739591598511 0.000000000000
vt 34.184101104736 25.158750534058 0.000000000000
vt 34.699996948242 25.346250534058 0.000000000000
vt 34.699996948242 25.395000457764 0.000000000000
vt 34.184101104736 25.207500457764 0.000000000000
vt 35.215892791748 25.158750534058 0.000000000000
vt 35.215892791748 25.207500457764 0.000000000000
vt -20.460424423218 25.158750534058 0.000000000000
vt -19.739591598511 25.158750534058 0.000000000000
vt -19.739591598511 25.207500457764 0.000000000000
vt -20.460424423218 25.207500457764 0.000000000000
vt -34.215892791748 25.158750534058 0.000000000000
vt -33.699996948242 25.346250534058 0.000000000000
vt -33.699996948242 25.395000457764 0.000000000000
vt -34.215892791748 25.207500457764 0.000000000000
vt -33.184101104736 25.158750534058 0.000000000000
vt -33.184101104736 25.207500457764 0.000000000000
vt 20.739591598511 25.158750534058 0.000000000000
vt 21.460424423218 25.158750534058 0.000000000000
vt 21.460424423218 25.207500457764 0.000000000000
vt 20.739591598511 25.207500457764 0.000000000000
vt 3.801337480545 -16.543420791626 0.000000000000
vt 3.801337480545 -16.156579971313 0.000000000000
vt 2.998670816422 -16.156579971313 0.000000000000
vt 2.998670816422 -16.543420791626 0.000000000000
vt -2.801337480545 -16.543420791626 0.000000000000
vt -1.998670816422 -16.543420791626 0.000000000000
vt -1.998670816422 -16.156579971313 0.000000000000
vt -2.801337480545 -16.156579971313 0.000000000000
vt -2.801337480545 -42.200000762939 0.000000000000
vt -1.998670816422 -42.200000762939 0.000000000000
vt -1.998670816422 -42.125000000000 0.000000000000
vt -2.801337480545 -42.125000000000 0.000000000000
vt -16.543420791626 -42.200000762939 0.000000000000
vt -16.156579971313 -42.200000762939 0.000000000000
vt -16.156579971313 -42.125000000000 0.000000000000
vt -16.543420791626 -42.125000000000 0.000000000000
vt 2.998670816422 -42.200000762939 0.000000000000
vt 3.801337480545 -42.200000762939 0.000000000000
vt 3.801337480545 -42.125000000000 0.000000000000
vt 2.998670816422 -42.125000000000 0.000000000000
vt 17.156579971313 -42.200000762939 0.000000000000
vt 17.543420791626 -42.200000762939 0.000000000000
vt 17.543420791626 -42.125000000000 0.000000000000
vt 17.156579971313 -42.125000000000 0.000000000000
vt -2.134825468063 -0.771265149117 1.517059564590
vt -0.812790274620 -0.771265387535 1.517059564590
vt -0.812789678574 1.714462876320 1.517059564590
vt -2.134824991226 1.714463114738 1.517059564590
vt 1.779217362404 -0.771266102791 1.517059564590
vt 1.779217958450 1.714462161064 1.517059564590
vt 3.101252794266 -0.771266341209 1.517059564590
vt 3.101253271103 1.714461922646 1.517059564590
vt -1.969473361969 -0.047649621964 0.004465132952
vt -0.952522873878 -0.047649621964 0.004464894533
vt -0.952522873878 1.986470460892 0.004464894533
vt -1.969473361969 1.986470460892 0.004465132952
vt -0.952523112297 -0.047649621964 -0.995535373688
vt 1.041329145432 -0.047649621964 -0.995535850525
vt 1.041329145432 1.986470460892 -0.995535612106
vt -0.952523112297 1.986470460892 -0.995535135269
vt 1.041329383850 -0.047649621964 0.004464417696
vt 2.058279514313 -0.047649621964 0.004464179277
vt 2.058279514313 1.986470460892 0.004464179277
vt 1.041329383850 1.986470460892 0.004464417696
vt 0.004464179277 -0.047649621964 2.058279514313
vt 1.995499610901 -0.047649621964 2.058279991150
vt 1.995499610901 1.986470460892 2.058279991150
vt 0.004464179277 1.986470460892 2.058279514313
vt -1.058279991150 -0.047649621964 1.995499610901
vt -0.041329860687 -0.047649621964 1.995499849319
vt -0.041329860687 1.986470460892 1.995499849319
vt -1.058279991150 1.986470460892 1.995499610901
vt -0.041330099106 -0.047649621964 3.058682203293
vt 1.952522158623 -0.047649621964 3.058682680130
vt 1.952522158623 1.986470460892 3.058682680130
vt -0.041330099106 1.986470460892 3.058682203293
vt 1.952522397041 -0.047649621964 1.995500326157
vt 2.969472885132 -0.047649621964 1.995500564575
vt 2.969472885132 1.986470460892 1.995500564575
vt 1.952522397041 1.986470460892 1.995500326157
vt -0.995500564575 -0.047649621964 -1.969472885132
vt 0.995534896851 -0.047649621964 -1.969473361969
vt 0.995534896851 1.986470460892 -1.969473361969
vt -0.995500564575 1.986470460892 -1.969472885132
vt -0.812790513039 -2.071265459061 1.517059564590
vt 1.779217123985 -2.071265935898 1.517059564590
vt 1.779218316078 3.123490571976 1.517059564590
vt -0.812789320946 3.123491048813 1.517059564590
vt 0.995535135269 1.986470460892 -0.952522873878
vt 0.995535135269 -0.047649621964 -0.952522873878
vt 1.995535373688 -0.047649621964 -0.952523112297
vt 1.995535135269 1.986470460892 -0.952523112297
vt 0.004464417696 -0.047649621964 1.041329383850
vt 0.004464417696 1.986470460892 1.041329383850
vt -0.995535612106 1.986470460892 1.041329145432
vt -0.995535850525 -0.047649621964 1.041329145432
vt 1.995499849319 1.986470460892 1.041329860687
vt 1.995499849319 -0.047649621964 1.041329860687
vt 3.058682203293 -0.047649621964 1.041330099106
vt 3.058682203293 1.986470460892 1.041330099106
vt -0.995500326157 -0.047649621964 -0.952522397041
vt -0.995500326157 1.986470460892 -0.952522397041
vt -2.058682680130 1.986470460892 -0.952522158623
vt -2.058682680130 -0.047649621964 -0.952522158623
# 200 texture coords

g LOD01_Building_2stiores_House
usemtl roof_01
s 1
f 1/1/1 2/2/2 3/3/3 
f 3/3/3 4/4/4 1/1/1 
usemtl Roof_04
s 2
f 5/5/5 1/6/5 4/7/5 
f 4/7/5 6/8/5 5/5/5 
usemtl roof_01
s 4
f 7/9/6 5/1/7 6/10/8 
f 6/10/8 8/11/9 7/9/6 
usemtl Roof_04
s 2
f 9/12/10 7/13/11 8/14/12 
f 8/14/12 10/15/13 9/12/10 
f 11/16/14 9/12/10 10/15/13 
f 10/15/13 12/17/15 11/16/14 
usemtl roof_01
s 4
f 13/18/16 11/19/17 12/20/18 
f 12/20/18 14/21/19 13/18/16 
usemtl Roof_04
s 2
f 15/22/20 13/16/21 14/23/22 
f 14/23/22 16/24/23 15/22/20 
usemtl roof_01
s 1
f 17/25/24 15/26/25 16/27/26 
f 16/27/26 18/28/27 17/25/24 
f 19/29/28 17/25/24 18/28/27 
f 18/28/27 20/30/29 19/29/28 
usemtl Roof_04
s 2
f 21/31/30 19/32/31 20/33/32 
f 20/33/32 22/34/33 21/31/30 
usemtl roof_01
s 4
f 23/35/34 21/36/35 22/37/36 
f 22/37/36 24/38/37 23/35/34 
usemtl Roof_04
s 2
f 25/39/38 23/40/39 24/41/40 
f 24/41/40 26/42/41 25/39/38 
f 27/43/42 25/39/38 26/42/41 
f 26/42/41 28/44/43 27/43/42 
usemtl roof_01
s 4
f 29/45/44 27/35/45 28/46/44 
f 28/46/44 30/47/45 29/45/44 
usemtl Roof_04
s 2
f 31/48/46 29/49/47 30/44/48 
f 30/44/48 32/50/49 31/48/46 
usemtl roof_01
s 1
f 2/2/2 31/51/50 32/52/51 
f 32/52/51 3/3/3 2/2/2 
usemtl Roof_04
s 8
f 6/53/52 4/54/53 3/55/54 
f 3/55/54 32/56/55 30/57/56 
f 6/53/52 3/55/54 30/57/56 
f 30/57/56 28/58/57 26/59/58 
f 26/59/58 24/60/59 22/61/60 
f 30/57/56 26/59/58 22/61/60 
f 22/61/60 20/62/61 18/63/62 
f 18/63/62 16/64/63 14/65/64 
f 22/61/60 18/63/62 14/65/64 
f 30/57/56 22/61/60 14/65/64 
f 6/53/52 30/57/56 14/65/64 
f 14/65/64 12/66/65 10/67/66 
f 6/53/52 14/65/64 10/67/66 
f 6/53/52 10/67/66 8/68/67 
s 1
f 5/69/68 7/70/69 9/71/70 
f 9/71/70 11/72/71 13/73/72 
f 5/69/68 9/71/70 13/73/72 
f 13/73/72 15/74/25 17/75/24 
f 17/75/24 19/76/28 21/77/73 
f 13/73/72 17/75/24 21/77/73 
f 21/77/73 23/78/74 25/79/75 
f 25/79/75 27/80/76 29/81/77 
f 21/77/73 25/79/75 29/81/77 
f 13/73/72 21/77/73 29/81/77 
f 5/69/68 13/73/72 29/81/77 
f 29/81/77 31/82/50 2/83/2 
f 5/69/68 29/81/77 2/83/2 
f 5/69/68 2/83/2 1/84/1 
usemtl concrete_01
f 33/85/78 34/86/79 35/87/80 
f 35/87/80 36/88/81 33/85/78 
s 2
f 36/88/82 35/87/83 37/89/82 
f 37/89/82 38/90/83 36/88/82 
s 1
f 39/91/84 40/92/85 41/93/86 
f 41/93/86 42/94/87 39/91/84 
s 2
f 40/92/88 43/95/88 44/96/88 
f 44/96/88 41/93/88 40/92/88 
s 4
f 33/97/89 36/98/90 40/99/90 
f 40/99/90 39/100/89 33/97/89 
f 36/98/90 38/101/91 43/102/91 
f 43/102/91 40/99/90 36/98/90 
s 1
f 38/103/92 37/104/92 44/105/92 
f 44/105/92 43/106/92 38/103/92 
s 4
f 37/107/93 35/108/94 41/109/94 
f 41/109/94 44/110/93 37/107/93 
f 35/108/94 34/111/95 42/112/95 
f 42/112/95 41/109/94 35/108/94 
s 2
f 34/113/96 33/114/96 39/115/96 
f 39/115/96 42/116/96 34/113/96 
s 1
f 45/117/97 46/118/97 47/119/97 
f 47/119/97 48/120/97 45/117/97 
f 49/121/98 50/122/98 51/123/98 
f 51/123/98 52/124/98 49/121/98 
s 2
f 45/125/91 48/126/91 50/127/91 
f 50/127/91 49/128/91 45/125/91 
s 4
f 48/129/99 47/130/99 51/131/99 
f 51/131/99 50/132/99 48/129/99 
s 2
f 47/133/100 46/134/100 52/135/100 
f 52/135/100 51/136/100 47/133/100 
s 4
f 46/137/101 45/138/101 49/139/101 
f 49/139/101 52/140/101 46/137/101 
s 1
f 53/141/98 54/142/98 55/143/98 
f 55/143/98 56/144/98 53/141/98 
f 54/142/98 57/145/98 58/146/98 
f 58/146/98 55/143/98 54/142/98 
f 57/145/98 59/147/98 60/148/98 
f 60/148/98 58/146/98 57/145/98 
usemtl LOD_window_06
s 2
f 61/149/91 62/150/91 54/151/91 
f 54/151/91 53/152/91 61/149/91 
f 63/153/102 64/154/102 65/155/102 
f 65/155/102 66/156/102 63/153/102 
f 67/157/91 68/158/91 59/159/91 
f 59/159/91 57/160/91 67/157/91 
s 4
f 68/161/5 69/162/5 60/163/5 
f 60/163/5 59/164/5 68/161/5 
s 2
f 69/165/93 70/166/93 58/167/93 
f 58/167/93 60/168/93 69/165/93 
f 71/169/93 72/170/93 73/171/93 
f 73/171/93 74/172/93 71/169/93 
f 75/173/93 76/174/93 56/175/93 
f 56/175/93 55/176/93 75/173/93 
s 4
f 76/177/101 61/178/101 53/179/101 
f 53/179/101 56/180/101 76/177/101 
usemtl concrete_01
s 1
f 57/145/98 54/142/98 66/181/98 
f 66/181/98 65/182/98 57/145/98 
f 55/143/98 58/146/98 74/183/98 
f 74/183/98 73/184/98 55/143/98 
usemtl LOD_window_06
s 4
f 54/185/101 62/186/101 63/187/101 
f 63/187/101 66/188/101 54/185/101 
f 67/189/5 57/190/5 65/191/5 
f 65/191/5 64/192/5 67/189/5 
f 58/193/5 70/194/5 71/195/5 
f 71/195/5 74/196/5 58/193/5 
f 75/197/101 55/198/101 73/199/101 
f 73/199/101 72/200/101 75/197/101 
# 126 faces

