# 3ds Max Wavefront OBJ Exporter v0.97b - (c)2007 guruware
# File Created: 12.03.2018 13:27:01

mtllib LOD01_Building_8stores_Office.mtl

#
# object LOD01_Building_8stores_Office
#

v  2.985537767410 10.168752670288 0.113820977509
v  2.132522106171 10.168752670288 0.113821849227
v  2.132523775101 10.168752670288 1.061370015144
v  2.985538482666 10.168752670288 1.061370015144
v  1.279507398605 10.168752670288 0.113822281361
v  1.279508233070 10.168752670288 1.061370849609
v  2.132523775101 10.168752670288 2.008919000626
v  2.985538482666 10.168752670288 2.008918285370
v  1.279509067535 10.168752670288 2.008919000626
v  2.985538482666 8.788514137268 1.061370015144
v  2.985537767410 8.788514137268 0.113820977509
v  2.132522106171 8.788514137268 0.113821849227
v  1.279507398605 8.788514137268 0.113822281361
v  1.279508233070 8.788514137268 1.061370849609
v  1.279509067535 8.788514137268 2.008919000626
v  2.132523775101 8.788514137268 2.008919000626
v  2.985538482666 8.788514137268 2.008918285370
v  -4.263214111328 10.870657920837 1.682661533356
v  -3.488086938858 10.870657920837 1.682662367821
v  -3.488086938858 10.870657920837 0.821633219719
v  -4.263214111328 10.870657920837 0.821633219719
v  -2.712960004807 10.870657920837 1.682662367821
v  -2.712960004807 10.870657920837 0.821633219719
v  -3.488085985184 10.870657920837 -0.039395451546
v  -4.263212203979 10.870657920837 -0.039395451546
v  -2.712960004807 10.870657920837 -0.039395451546
v  -4.263214111328 8.788527488708 0.821633219719
v  -4.263214111328 8.788527488708 1.682661533356
v  -3.488086938858 8.788527488708 1.682662367821
v  -2.712960004807 8.788527488708 1.682662367821
v  -2.712960004807 8.788527488708 0.821633219719
v  -2.712960004807 8.788527488708 -0.039395451546
v  -3.488085985184 8.788527488708 -0.039395451546
v  -4.263212203979 8.788527488708 -0.039395451546
v  -10.505872726440 8.788547515869 6.204449653625
v  10.505842208862 8.788542747498 6.204451560974
v  13.869652748108 8.788543701172 2.833357095718
v  13.869656562805 8.788547515869 -2.833322525024
v  10.505842208862 8.788543701172 -6.194668769836
v  -10.505870819092 8.788546562195 -6.194664955139
v  -13.859875679016 8.788546562195 -2.833324909210
v  -13.859879493713 8.788547515869 2.833360671997
v  -13.897505760193 7.533388137817 6.224893569946
v  13.897702217102 7.533386707306 6.225212574005
v  13.897794723511 7.533390522003 -6.225256919861
v  -13.897561073303 7.533391475677 -6.225342750549
v  -10.505872726440 7.508938312531 6.204449176788
v  10.505842208862 7.508933544159 6.204451084137
v  13.869651794434 7.508934497833 2.833356618881
v  13.869655609131 7.508938312531 -2.833323001862
v  10.505840301514 7.508934497833 -6.194669246674
v  -10.505872726440 7.508937358856 -6.194665431976
v  -13.859876632690 7.508937358856 -2.833325386047
v  -13.859880447388 7.508938312531 2.833360195160
v  -13.897505760193 -0.000001072884 6.224890708923
v  13.897702217102 -0.000002503395 6.225210189819
v  13.897794723511 0.000001311302 -6.225259780884
v  -13.897561073303 0.000002264977 -6.225345611572
# 58 vertices

vn 0.000000000000 1.000000000000 -0.000000000000
vn 1.000000000000 0.000000000000 -0.000000377424
vn 1.000000000000 0.000000000000 -0.000000754848
vn -0.000001021925 0.000000000000 -1.000000000000
vn -0.000000764260 0.000000000000 -1.000000000000
vn -0.000000506596 0.000000000000 -1.000000000000
vn -1.000000000000 0.000000000000 0.000000880657
vn 0.000000000000 0.000000000000 1.000000000000
vn 0.000000419252 0.000000000000 1.000000000000
vn 0.000000838503 0.000000000000 1.000000000000
vn 1.000000000000 0.000000000000 -0.000000000000
vn -1.000000000000 0.000000000000 -0.000001107599
vn -1.000000000000 0.000000000000 -0.000000000000
vn -0.000001076552 0.000000000000 1.000000000000
vn -0.000000538276 0.000000000000 1.000000000000
vn 0.000000000000 0.000000000000 -1.000000000000
vn -1.000000000000 0.000000000000 -0.000002215198
vn 0.000000092230 1.000000000000 -0.000000046723
vn 0.000000226939 1.000000000000 0.000000509346
vn 0.000000243358 1.000000000000 0.000000628070
vn -0.000000019719 1.000000000000 -0.000000053183
vn -0.000000206671 1.000000000000 -0.000000657887
vn 0.000000065147 1.000000000000 -0.000000076915
vn -0.000000039964 1.000000000000 -0.000000090690
vn 0.000000169152 1.000000000000 -0.000000168295
vn 0.000000038908 1.000000000000 0.000000278363
vn 0.000000051463 1.000000000000 0.000000306390
vn 0.000000046864 1.000000000000 0.000000296124
vn 0.000000034310 1.000000000000 0.000000268096
vn -0.000000090776 -0.000000372643 1.000000000000
vn 0.707871139050 -0.000000351375 0.706341564655
vn 0.707871258259 -0.000000790779 0.706341505051
vn 0.707871198654 -0.000000702618 0.706341564655
vn 0.707871139050 -0.000000263213 0.706341624260
vn 1.000000000000 -0.000000745286 0.000000673180
vn 0.706847131252 -0.000000351364 -0.707366347313
vn 0.706847131252 -0.000000790011 -0.707366347313
vn 0.706847131252 -0.000000701855 -0.707366347313
vn 0.706847190857 -0.000000263208 -0.707366287708
vn -0.000000181551 0.000000372643 -1.000000000000
vn -0.707878768444 0.000001229946 -0.706333935261
vn -0.707878828049 0.000000790782 -0.706333875656
vn -0.707878828049 0.000000879190 -0.706333875656
vn -0.707878768444 0.000001318354 -0.706333994865
vn -1.000000000000 0.000000745286 -0.000000673180
vn -0.708900511265 0.000000177093 0.705308437347
vn -0.708900451660 -0.000000262828 0.705308556557
vn -0.708900511265 -0.000000174416 0.705308496952
vn -0.708900570869 0.000000265505 0.705308437347
vn -0.000011479836 -0.000000369114 1.000000000000
vn -0.000011494099 -0.000000316482 1.000000000000
vn -0.000011491210 -0.000000327148 1.000000000000
vn -0.000011476945 -0.000000379779 1.000000000000
vn 1.000000000000 -0.000000000003 0.000007429954
vn 1.000000000000 -0.000000000002 0.000007429954
vn 0.000003087951 0.000000379779 -1.000000000000
vn 0.000003087950 0.000000379779 -1.000000000000
vn -1.000000000000 -0.000000000002 0.000004442735
vn -1.000000000000 -0.000000000002 0.000004442736
# 59 vertex normals

vt -25.995555877686 1.084378361702 0.000000000000
vt -24.556781768799 1.084378004074 0.000000000000
vt -24.556781768799 2.682601690292 0.000000000000
vt -25.995553970337 2.682601928711 0.000000000000
vt -23.118007659912 1.084377646446 0.000000000000
vt -23.118007659912 2.682601213455 0.000000000000
vt -24.556779861450 4.280825138092 0.000000000000
vt -25.995553970337 4.280825614929 0.000000000000
vt -23.118005752563 4.280824661255 0.000000000000
vt -1.682601928711 -26.578271865845 0.000000000000
vt -0.084378361702 -26.578271865845 0.000000000000
vt -0.084378361702 -24.361091613770 0.000000000000
vt -1.682601928711 -24.361091613770 0.000000000000
vt -25.995555877686 -26.578271865845 0.000000000000
vt -24.556781768799 -26.578271865845 0.000000000000
vt -24.556781768799 -24.361091613770 0.000000000000
vt -25.995555877686 -24.361091613770 0.000000000000
vt -23.118007659912 -26.578271865845 0.000000000000
vt -23.118007659912 -24.361091613770 0.000000000000
vt 1.084377646446 -26.578271865845 0.000000000000
vt 2.682601213455 -26.578271865845 0.000000000000
vt 2.682601213455 -24.361091613770 0.000000000000
vt 1.084377646446 -24.361091613770 0.000000000000
vt 4.280824661255 -26.578271865845 0.000000000000
vt 4.280824661255 -24.361091613770 0.000000000000
vt 24.118005752563 -26.578271865845 0.000000000000
vt 25.556779861450 -26.578271865845 0.000000000000
vt 25.556779861450 -24.361091613770 0.000000000000
vt 24.118005752563 -24.361091613770 0.000000000000
vt 26.995553970337 -26.578271865845 0.000000000000
vt 26.995553970337 -24.361091613770 0.000000000000
vt -3.280825614929 -26.578271865845 0.000000000000
vt -3.280825614929 -24.361091613770 0.000000000000
vt 3.673657417297 -26.965572357178 0.000000000000
vt 4.981058120728 -26.965572357178 0.000000000000
vt 4.981058597565 -25.513282775879 0.000000000000
vt 3.673657894135 -25.513282775879 0.000000000000
vt 6.288458347321 -26.965574264526 0.000000000000
vt 6.288458824158 -25.513282775879 0.000000000000
vt 4.981058597565 -24.060991287231 0.000000000000
vt 3.673657894135 -24.060991287231 0.000000000000
vt 6.288458824158 -24.060991287231 0.000000000000
vt 26.513282775879 21.842920303345 0.000000000000
vt 27.965572357178 21.842920303345 0.000000000000
vt 27.965572357178 24.905424118042 0.000000000000
vt 26.513282775879 24.905424118042 0.000000000000
vt 3.673657417297 21.842920303345 0.000000000000
vt 4.981058120728 21.842920303345 0.000000000000
vt 4.981058120728 24.905424118042 0.000000000000
vt 3.673657417297 24.905424118042 0.000000000000
vt 6.288458347321 21.842920303345 0.000000000000
vt 6.288458347321 24.905424118042 0.000000000000
vt -26.965574264526 21.842920303345 0.000000000000
vt -25.513282775879 21.842920303345 0.000000000000
vt -25.513282775879 24.905424118042 0.000000000000
vt -26.965574264526 24.905424118042 0.000000000000
vt -24.060991287231 21.842920303345 0.000000000000
vt -24.060991287231 24.905424118042 0.000000000000
vt -5.288458824158 21.842920303345 0.000000000000
vt -3.981058597565 21.842920303345 0.000000000000
vt -3.981058597565 24.905424118042 0.000000000000
vt -5.288458824158 24.905424118042 0.000000000000
vt -2.673657894135 21.842920303345 0.000000000000
vt -2.673657894135 24.905424118042 0.000000000000
vt 25.060991287231 21.842920303345 0.000000000000
vt 25.060991287231 24.905424118042 0.000000000000
vt 0.121332973242 0.000500082970 1.000000000000
vt 0.878313541412 0.000499516726 0.000000000000
vt 0.999500215054 0.272109568119 0.125000000000
vt 0.999500393867 0.728675603867 1.000000000000
vt 0.878313660622 0.999500393867 0.125000000000
vt 0.121333152056 0.999500513077 0.750000000000
vt 0.000499755144 0.728676378727 0.750000000000
vt 0.000499546528 0.272109806538 1.000000000000
vt -13.397625923157 -5.724955558777 0.499999046326
vt 14.397582054138 -5.725281238556 0.499997615814
vt 14.397678375244 6.725188255310 0.500001430511
vt -13.397677421570 6.725280761719 0.500002384186
vt -4.752996444702 2.920242786407 -2.602256774902
vt 5.752861022949 2.920238494873 -2.602260112762
vt 5.752861022949 4.083519458771 -2.602260351181
vt -4.752996444702 4.083523750305 -2.602257013321
vt -2.602260112762 2.920238494873 5.752861022949
vt -0.916713356972 2.920239448547 7.434766292572
vt -0.916713595390 4.083520412445 7.434766769409
vt -2.602260351181 4.083519458771 5.752861022949
vt 1.916626453400 2.920242786407 7.434769153595
vt 1.916626214981 4.083523750305 7.434769630432
vt -6.434769153595 2.920242786407 1.916626453400
vt -4.752861976624 2.920239448547 3.597300052643
vt -4.752862930298 4.083520412445 3.597299814224
vt -6.434769630432 4.083523750305 1.916626214981
vt 5.752994537354 2.920241832733 3.597300529480
vt 5.752993583679 4.083522796631 3.597300291061
vt -2.597300529480 2.920241832733 -4.752994537354
vt -0.916630983353 2.920241832733 -6.429996967316
vt -0.916630744934 4.083522796631 -6.429996490479
vt -2.597300291061 4.083522796631 -4.752993583679
vt 1.916711807251 2.920242786407 -6.429999828339
vt 1.916712045670 4.083523750305 -6.429999351501
vt 3.602256774902 2.920242786407 -4.752996444702
vt 3.602257013321 4.083523750305 -4.752996444702
vt -6.448812961578 -3.906065464020 -2.612477064133
vt 7.448791027069 -3.906066894531 -2.612640142441
vt 7.448791027069 2.942468643188 -2.612641334534
vt -6.448812961578 2.942470073700 -2.612478494644
vt -2.612640142441 -3.906066894531 7.448791027069
vt 3.612594842911 -3.906063079834 7.448839187622
vt 3.612593412399 2.942471981049 7.448839187622
vt -2.612641334534 2.942468643188 7.448791027069
vt -6.448839187622 -3.906063079834 3.612594842911
vt 7.448838710785 -3.906062602997 3.612641096115
vt 7.448838710785 2.942472934723 3.612639665604
vt -6.448839187622 2.942471981049 3.612593412399
vt -2.612641096115 -3.906062602997 -6.448838710785
vt 3.612477064133 -3.906065464020 -6.448812961578
vt 3.612478494644 2.942470073700 -6.448812961578
vt -2.612639665604 2.942472934723 -6.448838710785
# 118 texture coords

g LOD01_Building_8stores_Office
usemtl brick_01
s 1
f 1/1/1 2/2/1 3/3/1 
f 3/3/1 4/4/1 1/1/1 
f 2/2/1 5/5/1 6/6/1 
f 6/6/1 3/3/1 2/2/1 
f 4/4/1 3/3/1 7/7/1 
f 7/7/1 8/8/1 4/4/1 
f 3/3/1 6/6/1 9/9/1 
f 9/9/1 7/7/1 3/3/1 
s 2
f 10/10/2 11/11/3 1/12/3 
f 1/12/3 4/13/2 10/10/2 
s 4
f 11/14/4 12/15/5 2/16/5 
f 2/16/5 1/17/4 11/14/4 
f 12/15/5 13/18/6 5/19/6 
f 5/19/6 2/16/5 12/15/5 
s 2
f 13/20/7 14/21/7 6/22/7 
f 6/22/7 5/23/7 13/20/7 
f 14/21/7 15/24/7 9/25/7 
f 9/25/7 6/22/7 14/21/7 
s 4
f 15/26/8 16/27/9 7/28/9 
f 7/28/9 9/29/8 15/26/8 
f 16/27/9 17/30/10 8/31/10 
f 8/31/10 7/28/9 16/27/9 
s 2
f 17/32/11 10/10/2 4/13/2 
f 4/13/2 8/33/11 17/32/11 
s 1
f 18/34/1 19/35/1 20/36/1 
f 20/36/1 21/37/1 18/34/1 
f 19/35/1 22/38/1 23/39/1 
f 23/39/1 20/36/1 19/35/1 
f 21/37/1 20/36/1 24/40/1 
f 24/40/1 25/41/1 21/37/1 
f 20/36/1 23/39/1 26/42/1 
f 26/42/1 24/40/1 20/36/1 
s 2
f 27/43/12 28/44/13 18/45/13 
f 18/45/13 21/46/12 27/43/12 
s 4
f 28/47/14 29/48/15 19/49/15 
f 19/49/15 18/50/14 28/47/14 
f 29/48/15 30/51/8 22/52/8 
f 22/52/8 19/49/15 29/48/15 
s 2
f 30/53/11 31/54/11 23/55/11 
f 23/55/11 22/56/11 30/53/11 
f 31/54/11 32/57/11 26/58/11 
f 26/58/11 23/55/11 31/54/11 
s 4
f 32/59/16 33/60/16 24/61/16 
f 24/61/16 26/62/16 32/59/16 
f 33/60/16 34/63/16 25/64/16 
f 25/64/16 24/61/16 33/60/16 
s 2
f 34/65/17 27/43/12 21/46/12 
f 21/46/12 25/66/17 34/65/17 
usemtl Roof_04
s 1
f 35/67/18 36/68/19 37/69/20 
f 35/67/18 37/69/20 38/70/21 
f 35/67/18 38/70/21 39/71/22 
f 35/67/18 39/71/22 40/72/23 
f 35/67/18 40/72/23 41/73/24 
f 35/67/18 41/73/24 42/74/25 
usemtl concrete_01
f 43/75/26 44/76/27 45/77/28 
f 43/75/26 45/77/28 46/78/29 
usemtl LOD_window_02
s 2
f 47/79/30 48/80/30 36/81/30 
f 36/81/30 35/82/30 47/79/30 
s 4
f 48/83/31 49/84/32 37/85/33 
f 37/85/33 36/86/34 48/83/31 
s 2
f 49/84/35 50/87/35 38/88/35 
f 38/88/35 37/85/35 49/84/35 
s 4
f 50/89/36 51/90/37 39/91/38 
f 39/91/38 38/92/39 50/89/36 
s 2
f 51/90/40 52/93/40 40/94/40 
f 40/94/40 39/91/40 51/90/40 
s 4
f 52/95/41 53/96/42 41/97/43 
f 41/97/43 40/98/44 52/95/41 
s 2
f 53/96/45 54/99/45 42/100/45 
f 42/100/45 41/97/45 53/96/45 
s 4
f 54/99/46 47/101/47 35/102/48 
f 35/102/48 42/100/49 54/99/46 
s 2
f 55/103/50 56/104/51 44/105/52 
f 44/105/52 43/106/53 55/103/50 
s 4
f 56/107/54 57/108/54 45/109/54 
f 45/109/54 44/110/55 56/107/54 
s 2
f 57/111/56 58/112/57 46/113/56 
f 46/113/56 45/114/57 57/111/56 
s 4
f 58/115/58 55/116/59 43/117/58 
f 43/117/58 46/118/59 58/115/58 
# 80 faces

