# 3ds Max Wavefront OBJ Exporter v0.97b - (c)2007 guruware
# File Created: 23.03.2018 22:22:30

mtllib LOD01_Builiding_ParisEiffel.mtl

#
# object LOD01_Builiding_ParisEiffel
#

v  -8.036672592163 -0.000000000000 8.521148681641
v  8.036672592163 -0.000000000000 8.521148681641
v  4.622415065765 8.117141723633 4.901068210602
v  -4.622415065765 8.117141723633 4.901068210602
v  2.511343717575 17.273559570313 2.662734508514
v  -2.511343717575 17.273559570313 2.662734508514
v  -1.232361793518 25.104097366333 1.787226915359
v  1.685613512993 25.104097366333 1.787226915359
v  0.837119817734 41.908199310303 0.887583732605
v  -1.685613512993 25.104097366333 1.787226915359
v  8.036672592163 0.000000000000 -8.521148681641
v  4.622415065765 8.117141723633 -4.901068687439
v  2.511343717575 17.273559570313 -2.662736177444
v  1.685613512993 25.104097366333 1.306651830673
v  1.685613512993 25.104097366333 -1.787228345871
v  0.837119817734 41.908199310303 -0.887584209442
v  -8.036672592163 0.000000000000 -8.521148681641
v  -4.622415065765 8.117141723633 -4.901068687439
v  -2.511343717575 17.273559570313 -2.662736177444
v  1.232361793518 25.104097366333 -1.787228345871
v  -1.685613512993 25.104097366333 -1.787228345871
v  -0.837119817734 41.908199310303 -0.887584209442
v  -1.685613512993 25.104097366333 -1.306653022766
v  -0.837119817734 41.908199310303 0.887583732605
v  0.000000000000 50.208198547363 -0.000000312871
# 25 vertices

vn 0.000000000000 0.407308965921 0.913290441036
vn 0.000000000000 0.407308995724 0.913290441036
vn 0.000000000000 0.338873445988 0.940831959248
vn 0.000000000000 0.180955693126 0.983491241932
vn 0.000000000000 0.053460557014 0.998569965363
vn 0.000000000000 0.053460560739 0.998569965363
vn 0.000000000000 0.053460553288 0.998569965363
vn 0.000000000000 0.111114472151 0.993807613850
vn 0.921776890755 0.387720704079 0.000000000000
vn 0.921776890755 0.387720674276 0.000000000000
vn 0.946480929852 0.322759687901 0.000000000000
vn 0.946480929852 0.322759717703 -0.000000000000
vn 0.985201418400 0.171400457621 -0.000000000000
vn 0.985201418400 0.171400487423 -0.000000000000
vn 0.998727619648 0.050429001451 -0.000000000000
vn 0.998727619648 0.050428997725 -0.000000000000
vn 0.998727619648 0.050429005176 -0.000000000000
vn 0.994486093521 0.104868561029 -0.000000000000
vn 0.000000000000 0.407308936119 -0.913290441036
vn 0.000000000000 0.407308965921 -0.913290441036
vn 0.000000000000 0.338873386383 -0.940832018852
vn 0.000000000000 0.338873386383 -0.940831959248
vn 0.000000000000 0.180955663323 -0.983491241932
vn 0.000000000000 0.053460612893 -0.998569965363
vn 0.000000000000 0.053460616618 -0.998569965363
vn 0.000000000000 0.111114509404 -0.993807613850
vn 0.000000000000 0.111114501953 -0.993807613850
vn -0.921776950359 0.387720644474 0.000000000000
vn -0.921776890755 0.387720674276 0.000000000000
vn -0.946480929852 0.322759687901 0.000000000000
vn -0.946480929852 0.322759717703 -0.000000000000
vn -0.985201418400 0.171400472522 -0.000000000000
vn -0.985201418400 0.171400487423 -0.000000000000
vn -0.998727619648 0.050429005176 -0.000000000000
vn -0.998727619648 0.050429008901 -0.000000000000
vn -0.994486093521 0.104868561029 -0.000000000000
vn -0.994486093521 0.104868553579 -0.000000000000
vn 0.000000000000 0.106331579387 0.994330704212
vn 0.994952321053 0.100348718464 -0.000000000000
vn 0.000000000000 0.106331564486 -0.994330704212
vn -0.994952321053 0.100348718464 -0.000000000000
vn 0.000000000000 0.053460609168 -0.998569965363
vn -0.998727619648 0.050429001451 -0.000000000000
# 43 vertex normals

vt 0.032182395458 0.000499457121 0.032182633877
vt 0.967817366123 0.000499457121 0.032182395458
vt 0.769072294235 0.162007629871 0.230927586555
vt 0.230927556753 0.162007629871 0.230927705765
vt 0.646186172962 0.344194412231 0.353813827038
vt 0.353813767433 0.344194412231 0.353813886642
vt 0.428263783455 0.499999970198 0.401879906654
vt 0.598120093346 0.499999970198 0.401879876852
vt 0.548729002476 0.834354043007 0.451270967722
vt 0.401879847050 0.499999970198 0.401879906654
vt 0.032182395458 0.000499457121 0.967817366123
vt 0.967817366123 0.000499457121 0.967817604542
vt 0.769072294235 0.162007629871 0.769072413445
vt 0.230927586555 0.162007629871 0.769072294235
vt 0.646186172962 0.344194412231 0.646186232567
vt 0.353813827038 0.344194412231 0.646186172962
vt 0.428263813257 0.499999970198 0.598120152950
vt 0.598120152950 0.499999970198 0.598120152950
vt 0.548729062080 0.834354043007 0.548729062080
vt 0.401879876852 0.499999970198 0.598120093346
vt 0.353813767433 0.344194412231 0.646186172962
vt 0.428263783455 0.499999970198 0.598120152950
vt 0.598120093346 0.499999970198 0.598120212555
vt 0.401879847050 0.499999970198 0.598120152950
vt 0.769072294235 0.162007629871 0.230927556753
vt 0.230927586555 0.162007629871 0.230927675962
vt 0.646186113358 0.344194412231 0.353813767433
vt 0.353813767433 0.344194412231 0.353813827038
vt 0.428263723850 0.499999970198 0.401879876852
vt 0.598120093346 0.499999970198 0.401879847050
vt 0.548729002476 0.834354043007 0.451270937920
vt 0.401879787445 0.499999970198 0.401879876852
vt 0.451270937920 0.834354043007 0.451270997524
vt 0.500000000000 0.999500513077 0.500000000000
vt 0.451270967722 0.834354043007 0.548729002476
vt 0.451270937920 0.834354043007 0.548729062080
vt 0.451270937920 0.834354043007 0.451270967722
# 37 texture coords

g LOD01_Builiding_ParisEiffel
usemtl LOD_ParisEiffel
s 8
f 1/1/1 2/2/2 3/3/3 
f 3/3/3 4/4/3 1/1/1 
f 4/4/3 3/3/3 5/5/4 
f 5/5/4 6/6/4 4/4/3 
f 7/7/5 8/8/6 9/9/7 
f 7/7/8 10/10/8 6/6/4 
s 16
f 2/11/9 11/12/10 12/13/11 
f 12/13/11 3/14/12 2/11/9 
f 3/14/12 12/13/11 13/15/13 
f 13/15/13 5/16/14 3/14/12 
f 14/17/15 15/18/16 16/19/17 
f 14/17/18 8/20/18 5/16/14 
s 32
f 11/11/19 17/12/20 18/13/21 
f 18/13/21 12/14/22 11/11/19 
f 12/14/22 18/13/21 19/15/23 
f 19/15/23 13/21/23 12/14/22 
f 20/22/24 21/23/25 22/19/24 
f 20/22/26 15/24/27 13/21/23 
s 64
f 17/1/28 1/2/29 4/25/30 
f 4/25/30 18/26/31 17/1/28 
f 18/26/31 4/25/30 6/27/32 
f 6/27/32 19/28/33 18/26/31 
f 23/29/34 10/30/35 24/31/34 
f 23/29/36 21/32/37 19/28/33 
s off
f 24/33/38 9/9/38 25/34/38 
f 9/35/39 16/19/39 25/34/39 
f 16/36/40 22/19/40 25/34/40 
f 22/37/41 24/31/41 25/34/41 
s 8
f 7/7/8 5/5/4 8/8/8 
f 6/6/4 5/5/4 7/7/8 
f 7/7/5 24/33/6 10/10/7 
f 9/9/7 24/33/6 7/7/5 
s 16
f 14/17/18 13/15/13 15/18/18 
f 5/16/14 13/15/13 14/17/18 
f 14/17/15 9/35/15 8/20/15 
f 16/19/17 9/35/15 14/17/15 
s 32
f 20/22/26 19/15/23 21/23/26 
f 13/21/23 19/15/23 20/22/26 
f 20/22/24 16/36/42 15/24/25 
f 22/19/24 16/36/42 20/22/24 
s 64
f 23/29/36 6/27/32 10/30/37 
f 19/28/33 6/27/32 23/29/36 
f 23/29/34 22/37/43 21/32/34 
f 24/31/34 22/37/43 23/29/34 
# 44 faces

