# 3ds Max Wavefront OBJ Exporter v0.97b - (c)2007 guruware
# File Created: 13.03.2018 17:54:43

mtllib LOD01_Building_2Stores_StockHouse.mtl

#
# object LOD01_Building_2Stores_StockHouse
#

v  4.470676422119 3.477702856064 2.568501234055
v  4.470823764801 3.477702856064 -2.568340063095
v  4.470793724060 5.063117980957 0.000000350177
v  -4.470736503601 5.063117027283 -0.000001501292
v  -4.470830917358 3.477702140808 -2.568499326706
v  -4.470713138580 3.477698802948 2.568120956421
v  -4.519812583923 3.477702379227 2.624567508698
v  4.637483596802 3.477702379227 2.624567508698
v  4.637483596802 3.477702379227 -2.649161815643
v  -4.519812583923 3.477702379227 -2.649161815643
v  -4.519812583923 -0.000331871444 2.624567508698
v  4.637483596802 -0.000331871444 2.624567508698
v  4.637483596802 -0.000331871444 -2.649161815643
v  -4.519812583923 -0.000331871444 -2.649161815643
# 14 vertices

vn 1.000000000000 -0.000027518530 0.000028683520
vn 0.000000018008 0.850933194160 -0.525273919106
vn 0.000009287393 0.850947618484 -0.525250554085
vn -1.000000000000 0.000022404243 0.000022929249
vn -0.000000199528 0.850912749767 0.525306999683
vn -0.000022724642 0.850947797298 0.525250136852
vn 0.000000000000 1.000000000000 -0.000000000000
vn 0.000000000000 0.000000000000 1.000000000000
vn 1.000000000000 0.000000000000 -0.000000000000
vn 0.000000000000 0.000000000000 -1.000000000000
vn -1.000000000000 0.000000000000 -0.000000000000
# 11 vertex normals

vt 0.243149846792 0.420729428530 0.947067856789
vt 0.756833970547 0.420729428530 0.947082757950
vt 0.499999940395 0.579270958900 0.947079658508
vt 0.001325863530 1.000001311302 0.999499559402
vt 2.598692417145 0.999999821186 0.999500274658
vt 2.598701238632 1.998938202858 0.000501871109
vt 0.001298588468 1.999001026154 0.000501394272
vt 0.243149876595 0.420729339123 0.052917271852
vt 0.756811857224 0.420729011297 0.052928924561
vt 0.499999642372 0.579270839691 0.052926629782
vt 0.001332527376 0.001147747040 0.000499248505
vt 2.598658084869 0.000999033451 0.000501871109
vt -4.078648567200 -2.136863470078 2.147773504257
vt 5.078647613525 -2.136865854263 2.147773504257
vt 5.078648567200 3.136863470078 2.147773504257
vt -4.078647613525 3.136865854263 2.147773504257
vt -4.078648567200 -0.218236207962 -2.136863470078
vt 5.078647613525 -0.218236207962 -2.136865854263
vt 5.078647613525 2.147773504257 -2.136865854263
vt -4.078648567200 2.147773504257 -2.136863470078
vt -2.136865854263 -0.218236207962 5.078647613525
vt 3.136863470078 -0.218236207962 5.078648567200
vt 3.136863470078 2.147773504257 5.078648567200
vt -2.136865854263 2.147773504257 5.078647613525
vt -4.078648567200 -0.218236207962 3.136863470078
vt 5.078647613525 -0.218236207962 3.136865854263
vt 5.078647613525 2.147773504257 3.136865854263
vt -4.078648567200 2.147773504257 3.136863470078
vt -2.136865854263 -0.218236207962 -4.078647613525
vt 3.136863470078 -0.218236207962 -4.078648567200
vt 3.136863470078 2.147773504257 -4.078648567200
vt -2.136865854263 2.147773504257 -4.078647613525
# 32 texture coords

g LOD01_Building_2Stores_StockHouse
usemtl Roof_04
s off
f 1/1/1 2/2/1 3/3/1 
usemtl roof_01
f 4/4/2 3/5/2 2/6/2 
f 2/6/3 5/7/3 4/4/3 
usemtl Roof_04
f 5/8/4 6/9/4 4/10/4 
usemtl roof_01
f 3/5/5 4/4/5 6/11/5 
f 6/11/6 1/12/6 3/5/6 
usemtl LOD_window_11
s 4
f 7/13/7 8/14/7 9/15/7 
f 9/15/7 10/16/7 7/13/7 
s 8
f 11/17/8 12/18/8 8/19/8 
f 8/19/8 7/20/8 11/17/8 
s 16
f 12/21/9 13/22/9 9/23/9 
f 9/23/9 8/24/9 12/21/9 
s 32
f 13/25/10 14/26/10 10/27/10 
f 10/27/10 9/28/10 13/25/10 
s 64
f 14/29/11 11/30/11 7/31/11 
f 7/31/11 10/32/11 14/29/11 
# 16 faces

