# 3ds Max Wavefront OBJ Exporter v0.97b - (c)2007 guruware
# File Created: 13.03.2018 17:40:29

mtllib LOD01_Building_2Stores_StockOffice.mtl

#
# object LOD01_Building_2Stores_StockOffice
#

v  -0.762369930744 3.475825071335 1.611687541008
v  -0.762369930744 3.475825071335 1.452332377434
v  -0.576455771923 3.475825071335 1.452332377434
v  -0.576455771923 3.475825071335 1.611687541008
v  -0.762369930744 4.354728221893 1.611687541008
v  -0.576455771923 4.354728221893 1.611687541008
v  -0.576455771923 4.354728221893 1.452332377434
v  -0.762369930744 4.354728221893 1.452332377434
v  -0.798225224018 3.474651813507 1.632427453995
v  -0.798225224018 3.474651813507 1.431592464447
v  -0.540600478649 3.474651813507 1.431592464447
v  -0.540600478649 3.474651813507 1.632427453995
v  -0.798225224018 3.798362970352 1.632427453995
v  -0.540600478649 3.798362970352 1.632427453995
v  -0.540600478649 3.798362970352 1.431592464447
v  -0.798225224018 3.798362970352 1.431592464447
v  4.579234600067 1.690102458000 2.587034702301
v  4.579234600067 1.690102458000 -2.630285739899
v  -4.574618339539 1.690102458000 -2.630285501480
v  -4.574618339539 1.690102458000 2.587034940720
v  4.579234123230 0.000000000000 2.587034702301
v  4.579234123230 0.000000000000 -2.630285739899
v  -4.574618816376 0.000000000000 -2.630285501480
v  -4.574619293213 0.000000000000 2.587034940720
v  3.235186576843 1.685816645622 -2.598154783249
v  -4.575865745544 1.685816168785 -2.598081827164
v  -4.575865745544 3.514296531677 -2.598081827164
v  3.235186576843 3.514297008514 -2.598155021667
v  3.235193729401 3.515019416809 -1.248570442200
v  4.547593593597 3.514300823212 -1.248620390892
v  4.547593593597 1.685820221901 -1.248620271683
v  3.235193729401 1.683622241020 -1.248570442200
v  -4.575756072998 1.685814023018 2.573550462723
v  3.235292434692 1.685814499855 2.573478460312
v  3.235292434692 3.514295101166 2.573478221893
v  -4.575756072998 3.514294624329 2.573550462723
v  3.235017299652 1.683618664742 1.274161577225
v  3.235017299652 3.515016078949 1.274161338806
v  4.547580242157 1.685816168785 1.274285316467
v  4.547580242157 3.514296531677 1.274284958839
# 40 vertices

vn 0.000000000000 -1.000000000000 -0.000000000000
vn 0.000000000000 1.000000000000 -0.000000000000
vn 0.000000000000 0.000000000000 1.000000000000
vn 1.000000000000 0.000000000000 -0.000000000000
vn 0.000000000000 0.000000000000 -1.000000000000
vn -1.000000000000 0.000000000000 -0.000000000000
vn 1.000000000000 -0.000000282135 -0.000000000000
vn -0.000000026046 0.000000000000 -1.000000000000
vn -1.000000000000 0.000000338403 -0.000000018227
vn -1.000000000000 0.000000564270 -0.000000091395
vn -1.000000000000 0.000000508002 -0.000000073168
vn -1.000000000000 0.000000282135 -0.000000000000
vn 0.000000026046 -0.000000000000 1.000000000000
vn -0.000009366165 -0.000000111304 -1.000000000000
vn -0.000009340110 0.000000000000 -1.000000000000
vn -0.000009344578 -0.000000019088 -1.000000000000
vn -0.000009370633 -0.000000130392 -1.000000000000
vn -0.000038023067 -0.000000039356 -1.000000000000
vn -0.000038059083 -0.000000065196 -1.000000000000
vn -0.000038004182 -0.000000025803 -1.000000000000
vn -0.000037968221 0.000000000000 -1.000000000000
vn 1.000000000000 -0.000000000000 -0.000005299822
vn 1.000000000000 0.000000000000 -0.000005299823
vn 1.000000000000 -0.000000000000 -0.000005299823
vn 1.000000000000 -0.000000000001 -0.000005299821
vn 0.000009244076 0.000000019088 1.000000000000
vn 0.000009218022 0.000000130392 1.000000000000
vn 0.000009222490 0.000000111304 1.000000000000
vn 0.000009248544 0.000000000000 1.000000000000
vn 1.000000000000 -0.000000000033 -0.000211753606
vn 1.000000000000 -0.000000000028 -0.000211753621
vn 1.000000000000 -0.000000000031 -0.000211753635
vn 1.000000000000 -0.000000000037 -0.000211753635
vn -0.000094218201 0.000000169661 1.000000000000
vn -0.000094273222 0.000000130184 1.000000000000
vn -0.000094237133 0.000000156071 1.000000000000
vn -0.000094182062 0.000000195584 1.000000000000
vn 1.000000000000 0.000000000001 0.000005292089
vn 1.000000000000 0.000000000000 0.000005292089
vn -1.000000000000 0.000000000000 0.000021206562
vn 0.000148702078 1.000000000000 0.000166584272
vn 0.000548199925 0.999999821186 0.000001703929
vn 0.000547742704 0.999999821186 0.000001466016
vn 0.000148384453 1.000000000000 -0.000158177703
vn -0.000000066062 0.999999880791 -0.000535281899
vn -0.000082530489 1.000000000000 -0.000057972531
vn -0.000082812257 1.000000000000 0.000058736590
vn -0.000000055915 0.999999821186 0.000554889790
# 48 vertex normals

vt -0.683330774307 -10.042858123779 0.000000000000
vt -0.683330893517 -9.757143020630 0.000000000000
vt -1.016664266586 -9.757143020630 0.000000000000
vt -1.016664028168 -10.042858123779 0.000000000000
vt 1.683330774307 -10.042858123779 0.000000000000
vt 2.016664028168 -10.042858123779 0.000000000000
vt 2.016664266586 -9.757143020630 0.000000000000
vt 1.683330893517 -9.757143020630 0.000000000000
vt 1.683330774307 -5.300000190735 0.000000000000
vt 2.016664028168 -5.300000190735 0.000000000000
vt 2.016664028168 -3.724179267883 0.000000000000
vt 1.683330774307 -3.724179267883 0.000000000000
vt -10.042858123779 -5.300000190735 0.000000000000
vt -9.757143020630 -5.300000190735 0.000000000000
vt -9.757143020630 -3.724179267883 0.000000000000
vt -10.042858123779 -3.724179267883 0.000000000000
vt -1.016664266586 -5.300000190735 0.000000000000
vt -0.683330893517 -5.300000190735 0.000000000000
vt -0.683330893517 -3.724179267883 0.000000000000
vt -1.016664266586 -3.724179267883 0.000000000000
vt 10.757143020630 -5.300000190735 0.000000000000
vt 11.042858123779 -5.300000190735 0.000000000000
vt 11.042858123779 -3.724179267883 0.000000000000
vt 10.757143020630 -3.724179267883 0.000000000000
vt -0.619044423103 -10.080042839050 0.000000000000
vt -0.619044542313 -9.719958305359 0.000000000000
vt -1.080950737000 -9.719958305359 0.000000000000
vt -1.080950498581 -10.080042839050 0.000000000000
vt 1.619044423103 -10.080042839050 0.000000000000
vt 2.080950498581 -10.080042839050 0.000000000000
vt 2.080950737000 -9.719958305359 0.000000000000
vt 1.619044542313 -9.719958305359 0.000000000000
vt 1.619044423103 -5.302103519440 0.000000000000
vt 2.080950498581 -5.302103519440 0.000000000000
vt 2.080950498581 -4.721709251404 0.000000000000
vt 1.619044423103 -4.721709251404 0.000000000000
vt -10.080042839050 -5.302103519440 0.000000000000
vt -9.719958305359 -5.302103519440 0.000000000000
vt -9.719958305359 -4.721709251404 0.000000000000
vt -10.080042839050 -4.721709251404 0.000000000000
vt -1.080950737000 -5.302103519440 0.000000000000
vt -0.619044542313 -5.302103519440 0.000000000000
vt -0.619044542313 -4.721709251404 0.000000000000
vt -1.080950737000 -4.721709251404 0.000000000000
vt 10.719958305359 -5.302103519440 0.000000000000
vt 11.080042839050 -5.302103519440 0.000000000000
vt 11.080042839050 -4.721709251404 0.000000000000
vt 10.719958305359 -4.721709251404 0.000000000000
vt -2.108660936356 -2.122027873993 -0.022195100784
vt 3.108659505844 -2.122029304504 -0.022195100784
vt 3.108660936356 3.128409385681 -0.022195100784
vt -2.108659505844 3.128410816193 -0.022195100784
vt -2.108661174774 -0.184520483017 5.076926231384
vt 3.108659267426 -0.184520483017 5.076927185059
vt 3.108659267426 1.200593709946 5.076927661896
vt -2.108661174774 1.200593709946 5.076926708221
vt -4.076927185059 -0.184520483017 3.108659267426
vt 5.076925754547 -0.184520483017 3.108661174774
vt 5.076925277710 1.200593709946 3.108661174774
vt -4.076927661896 1.200593709946 3.108659267426
vt -2.108661174774 -0.184520483017 -4.076925754547
vt 3.108659267426 -0.184520483017 -4.076927185059
vt 3.108659267426 1.200593709946 -4.076926231384
vt -2.108661174774 1.200593709946 -4.076925277710
vt -4.076927185059 -0.184520483017 -2.108659267426
vt 5.076926231384 -0.184520483017 -2.108661174774
vt 5.076926708221 1.200593709946 -2.108661174774
vt -4.076926231384 1.200593709946 -2.108659267426
vt -2.749323129654 -0.261251926422 3.085851669312
vt 5.061729431152 -0.261252284050 3.085780620575
vt 5.061729431152 1.262481212616 3.085780620575
vt -2.749323129654 1.262481689453 3.085851907730
vt -2.749329805374 1.263083696365 1.736267328262
vt -4.061729907990 1.262484788895 1.736316919327
vt -4.061729907990 -0.261248946190 1.736316800117
vt -2.749329805374 -0.263080596924 1.736267328262
vt 1.736267328262 1.263083696365 3.749329805374
vt 1.736267328262 -0.263080596924 3.749329805374
vt 3.085851669312 -0.261251926422 3.749323129654
vt 3.085851907730 1.262481689453 3.749323129654
vt -4.061620712280 -0.261254072189 -2.085851669312
vt 3.749427556992 -0.261253714561 -2.085781574249
vt 3.749427556992 1.262480020523 -2.085781335831
vt -4.061620712280 1.262479782104 -2.085851669312
vt -2.085781335831 1.262480020523 3.749427556992
vt -2.085781574249 -0.261253714561 3.749427556992
vt -0.786464691162 -0.263083577156 3.749152898788
vt -0.786464452744 1.263080835342 3.749152898788
vt 3.749152898788 1.263080835342 -0.786464452744
vt 3.749152898788 -0.263083577156 -0.786464691162
vt 5.061715602875 -0.261252284050 -0.786588788033
vt 5.061715602875 1.262481212616 -0.786588430405
vt -0.786588430405 1.262481212616 5.061715602875
vt -0.786588788033 -0.261252284050 5.061715602875
vt 1.736316800117 -0.261248946190 5.061729907990
vt 1.736316919327 1.262484788895 5.061729907990
vt -2.085780620575 1.262481212616 -4.061729431152
vt -2.085780620575 -0.261252284050 -4.061729431152
vt 3.085851669312 -0.261254072189 -4.061620712280
vt 3.085851669312 1.262479782104 -4.061620712280
vt 0.824915289879 0.371353566647 0.995117187500
vt 0.956171572208 0.371341168880 0.003417968750
vt 0.956172943115 0.623631715775 0.009277343750
vt 0.824932992458 0.623626708984 0.999511718750
vt 0.824932336807 0.758585214615 0.003906250000
vt 0.043827056885 0.758578062057 0.003417968750
vt 0.043837904930 0.241414815187 0.000488281250
vt 0.824942767620 0.241421848536 0.001464843750
# 108 texture coords

g LOD01_Building_2Stores_StockOffice
usemtl concrete_01
s 1
f 1/1/1 2/2/1 3/3/1 
f 3/3/1 4/4/1 1/1/1 
f 5/5/2 6/6/2 7/7/2 
f 7/7/2 8/8/2 5/5/2 
s 2
f 1/9/3 4/10/3 6/11/3 
f 6/11/3 5/12/3 1/9/3 
s 4
f 4/13/4 3/14/4 7/15/4 
f 7/15/4 6/16/4 4/13/4 
s 2
f 3/17/5 2/18/5 8/19/5 
f 8/19/5 7/20/5 3/17/5 
s 4
f 2/21/6 1/22/6 5/23/6 
f 5/23/6 8/24/6 2/21/6 
s 1
f 9/25/1 10/26/1 11/27/1 
f 11/27/1 12/28/1 9/25/1 
f 13/29/2 14/30/2 15/31/2 
f 15/31/2 16/32/2 13/29/2 
s 2
f 9/33/3 12/34/3 14/35/3 
f 14/35/3 13/36/3 9/33/3 
s 4
f 12/37/4 11/38/4 15/39/4 
f 15/39/4 14/40/4 12/37/4 
s 2
f 11/41/5 10/42/5 16/43/5 
f 16/43/5 15/44/5 11/41/5 
s 4
f 10/45/6 9/46/6 13/47/6 
f 13/47/6 16/48/6 10/45/6 
s 1
f 17/49/2 18/50/2 19/51/2 
f 19/51/2 20/52/2 17/49/2 
usemtl LOD_window_11
s 2
f 21/53/7 22/54/7 18/55/7 
f 18/55/7 17/56/7 21/53/7 
s 4
f 22/57/8 23/58/8 19/59/8 
f 19/59/8 18/60/8 22/57/8 
s 2
f 23/61/9 24/62/10 20/63/11 
f 20/63/11 19/64/12 23/61/9 
s 4
f 24/65/13 21/66/13 17/67/13 
f 17/67/13 20/68/13 24/65/13 
s 1
f 25/69/14 26/70/15 27/71/16 
f 27/71/16 28/72/17 25/69/14 
f 29/73/18 30/74/19 31/75/20 
f 29/73/18 31/75/20 32/76/21 
s 2
f 29/77/22 32/78/23 25/79/24 
f 28/80/25 29/77/22 25/79/24 
s 1
f 33/81/26 34/82/27 35/83/28 
f 35/83/28 36/84/29 33/81/26 
s 2
f 35/85/30 34/86/31 37/87/32 
f 38/88/33 35/85/30 37/87/32 
s 1
f 38/89/34 37/90/35 39/91/36 
f 40/92/37 38/89/34 39/91/36 
s 2
f 40/93/38 39/94/38 31/95/39 
f 30/96/39 40/93/38 31/95/39 
f 27/97/40 26/98/40 33/99/40 
f 36/100/40 27/97/40 33/99/40 
usemtl Roof_04
s 4
f 38/101/41 40/102/42 30/103/43 
f 29/104/44 28/105/45 27/106/46 
f 36/107/47 35/108/48 38/101/41 
f 38/101/41 30/103/43 29/104/44 
f 36/107/47 38/101/41 29/104/44 
f 29/104/44 27/106/46 36/107/47 
# 56 faces

