# 3ds Max Wavefront OBJ Exporter v0.97b - (c)2007 guruware
# File Created: 13.03.2018 11:49:53

mtllib LOD01_Building_4stores_BigResidential.mtl

#
# object LOD01_Building_4stores_BigResidential
#

v  -9.503858566284 -0.000327531452 5.565615653992
v  -9.503858566284 -0.000327531452 5.368764877319
v  -9.307008743286 -0.000327531452 5.368764877319
v  -9.307008743286 -0.000327531452 5.565615653992
v  -9.503858566284 0.983596324921 5.565615653992
v  -9.307008743286 0.983596324921 5.565615653992
v  -9.307008743286 0.983596324921 5.368764877319
v  -9.503858566284 0.983596324921 5.368764877319
v  9.305549621582 -0.000331286079 5.567218780518
v  9.305549621582 -0.000331286079 5.370368003845
v  9.502399444580 -0.000331286079 5.370368003845
v  9.502399444580 -0.000331286079 5.567218780518
v  9.305549621582 0.983592569828 5.567218780518
v  9.502399444580 0.983592569828 5.567218780518
v  9.502399444580 0.983592569828 5.370368003845
v  9.305549621582 0.983592569828 5.370368003845
v  9.306965827942 -0.000326655369 -5.368609428406
v  9.306964874268 -0.000326655369 -5.565459728241
v  9.503815650940 -0.000326655369 -5.565459728241
v  9.503815650940 -0.000326655369 -5.368609428406
v  9.306965827942 0.983597159386 -5.368609428406
v  9.503815650940 0.983597159386 -5.368609428406
v  9.503815650940 0.983597159386 -5.565459728241
v  9.306964874268 0.983597159386 -5.565459728241
v  -9.502611160278 -0.000329533941 -5.369987487793
v  -9.502611160278 -0.000329533941 -5.566837787628
v  -9.305761337280 -0.000329533941 -5.566837787628
v  -9.305761337280 -0.000329533941 -5.369987487793
v  -9.502611160278 0.983594298363 -5.369987487793
v  -9.305761337280 0.983594298363 -5.369987487793
v  -9.305761337280 0.983594298363 -5.566837787628
v  -9.502611160278 0.983594298363 -5.566837787628
v  -3.543754577637 5.889022350311 -1.589095115662
v  -2.899457931519 5.889022350311 -1.589094638824
v  -2.899457931519 5.889022350311 -2.210784435272
v  -3.543754577637 5.889022350311 -2.210784673691
v  -2.255162239075 5.889022350311 -1.589094638824
v  -2.255162239075 5.889022350311 -2.210784435272
v  -2.899459838867 5.889022350311 -2.832473993301
v  -3.543755531311 5.889022350311 -2.832474231720
v  -2.255163192749 5.889022350311 -2.832473993301
v  -3.543754577637 4.146966934204 -2.210784673691
v  -3.543754577637 4.146966934204 -1.589095115662
v  -2.899457931519 4.146966934204 -1.589094638824
v  -2.255162239075 4.146966934204 -1.589094638824
v  -2.255162239075 4.146966934204 -2.210784435272
v  -2.255163192749 4.146966934204 -2.832473993301
v  -2.899459838867 4.146966934204 -2.832473993301
v  -3.543755531311 4.146966934204 -2.832474231720
v  8.247208595276 0.885826230049 -6.256226062775
v  8.247208595276 0.885826230049 -5.889864921570
v  7.500617027283 0.885826230049 -5.889864921570
v  7.500617027283 0.885826230049 -6.256226062775
v  8.247208595276 0.900590062141 -6.256226062775
v  7.500617027283 0.900590062141 -6.256226062775
v  7.500617027283 0.900590062141 -5.889864921570
v  8.247208595276 0.900590062141 -5.889864921570
v  -8.247278213501 0.885824441910 6.256225585938
v  -8.247278213501 0.885824441910 5.889865875244
v  -7.500686645508 0.885824441910 5.889865875244
v  -7.500686645508 0.885824441910 6.256225585938
v  -8.247278213501 0.900588214397 6.256225585938
v  -7.500686645508 0.900588214397 6.256225585938
v  -7.500686645508 0.900588214397 5.889865875244
v  -8.247278213501 0.900588214397 5.889865875244
v  -9.829845428467 1.084848046303 5.893000602722
v  -9.829845428467 1.084848046303 -6.029641151428
v  9.966621398926 1.084848046303 -6.029641151428
v  9.966621398926 1.084848046303 5.893000602722
v  -9.829845428467 4.156409263611 5.893000602722
v  9.966621398926 4.156409263611 5.893000602722
v  9.966621398926 4.156409263611 -6.029641151428
v  -9.829845428467 4.156409263611 -6.029641151428
v  9.838573455811 -0.000197887421 4.551508426666
v  9.838483810425 -0.000198364258 -4.590677738190
v  9.838483810425 1.027962923050 -4.590677738190
v  9.838573455811 1.027963638306 4.551508426666
v  8.526170730591 1.028685808182 4.551515579224
v  8.526231765747 1.027967453003 5.863915443420
v  8.526231765747 -0.000194311142 5.863915443420
v  8.526170730591 -0.002392292023 4.551515579224
v  8.526237487793 1.028682470322 -4.590688228607
v  8.526237487793 -0.002395868301 -4.590688228607
v  8.526138305664 1.027962923050 -5.903002262115
v  8.526136398315 -0.000198841095 -5.903002262115
v  -9.818710327148 -0.000200510025 -4.590568065643
v  -9.818622589111 -0.000200033188 4.551614284515
v  -9.818622589111 1.027961730957 4.551614284515
v  -9.818710327148 1.027961015701 -4.590567588806
v  -8.506444931030 1.027961254120 -5.902913093567
v  -8.506444931030 -0.000200271606 -5.902913093567
v  -8.506191253662 1.028684139252 -4.590726852417
v  -8.506191253662 -0.002394199371 -4.590726852417
v  -8.506090164185 -0.002395868301 4.551339149475
v  -8.506090164185 1.028682708740 4.551339149475
v  -8.506242752075 -0.000198364258 5.863902091980
v  -8.506242752075 1.027962923050 5.863902091980
# 97 vertices

vn 0.000000000000 -1.000000000000 -0.000000000000
vn 0.000000000000 1.000000000000 -0.000000000000
vn 0.000000000000 0.000000000000 1.000000000000
vn 1.000000000000 0.000000000000 -0.000000000000
vn 0.000000000000 0.000000000000 -1.000000000000
vn -1.000000000000 0.000000000000 -0.000000000000
vn -1.000000000000 0.000000000000 0.000004844668
vn -0.000000740089 0.000000000000 1.000000000000
vn 1.000000000000 0.000000000000 -0.000001534004
vn 0.000000370045 0.000000000000 -1.000000000000
vn -1.000000000000 0.000000000000 0.000001534004
vn 1.000000000000 0.000000000000 -0.000009805684
vn 1.000000000000 0.000000000000 -0.000046506528
vn 1.000000000000 0.000000000000 -0.000046506524
vn 0.000005449971 0.000000000000 1.000000000000
vn 0.000007994244 0.000000000000 -1.000000000000
vn 0.000007994245 0.000000000000 -1.000000000000
vn 1.000000000000 0.000000000000 -0.000075578042
vn 1.000000000000 -0.000000784954 -0.000076194345
vn 1.000000000000 -0.000001068642 -0.000076417084
vn 1.000000000000 -0.000001855110 -0.000077034580
vn -1.000000000000 -0.000000000004 0.000009597057
vn -1.000000000000 0.000000000000 0.000009597056
vn -1.000000000000 -0.000000000000 0.000009597055
vn -1.000000000000 0.000000000000 0.000193324217
vn -1.000000000000 0.000000000000 0.000193324202
vn -0.000121132442 0.000000196203 -1.000000000000
vn -0.000120978642 0.000000000000 -1.000000000000
vn -0.000121188088 0.000000267199 -1.000000000000
vn -0.000121342193 0.000000463781 -1.000000000000
vn 0.000209621532 0.000000000000 1.000000000000
vn 0.000209621503 0.000000000000 1.000000000000
vn 0.000209621518 0.000000000000 1.000000000000
vn -1.000000000000 0.000000000000 -0.000116251853
vn -1.000000000000 0.000000000000 -0.000116251860
vn -0.000000783881 0.000000000000 1.000000000000
vn -0.000005235176 0.000000000009 -1.000000000000
vn -0.000005235176 0.000000000010 -1.000000000000
vn -0.000005235175 0.000000000000 -1.000000000000
# 39 vertex normals

vt 10.072248458862 -5.065613746643 -0.042585909367
vt 10.072248458862 -4.868762969971 -0.042585909367
vt 9.875398635864 -4.868762969971 -0.042585909367
vt 9.875398635864 -5.065613746643 -0.042585909367
vt -9.072248458862 -5.065613746643 0.941337943077
vt -8.875398635864 -5.065613746643 0.941337943077
vt -8.875398635864 -4.868762969971 0.941337943077
vt -9.072248458862 -4.868762969971 0.941337943077
vt -9.072248458862 -0.042585909367 -5.065613746643
vt -8.875398635864 -0.042585909367 -5.065613746643
vt -8.875398635864 0.941337943077 -5.065613746643
vt -9.072248458862 0.941337943077 -5.065613746643
vt -5.065613746643 -0.042585909367 -8.875398635864
vt -4.868762969971 -0.042585909367 -8.875398635864
vt -4.868762969971 0.941337943077 -8.875398635864
vt -5.065613746643 0.941337943077 -8.875398635864
vt 9.875398635864 -0.042585909367 -4.868762969971
vt 10.072248458862 -0.042585909367 -4.868762969971
vt 10.072248458862 0.941337943077 -4.868762969971
vt 9.875398635864 0.941337943077 -4.868762969971
vt 5.868762969971 -0.042585909367 -9.072248458862
vt 6.065613746643 -0.042585909367 -9.072248458862
vt 6.065613746643 0.941337943077 -9.072248458862
vt 5.868762969971 0.941337943077 -9.072248458862
vt -8.737159729004 -5.067221641541 -0.042589664459
vt -8.737159729004 -4.870370864868 -0.042589664459
vt -8.934009552002 -4.870370864868 -0.042589664459
vt -8.934009552002 -5.067221641541 -0.042589664459
vt 9.737159729004 -5.067221641541 0.941334187984
vt 9.934009552002 -5.067221641541 0.941334187984
vt 9.934009552002 -4.870370864868 0.941334187984
vt 9.737159729004 -4.870370864868 0.941334187984
vt 9.737159729004 -0.042589664459 -5.067221641541
vt 9.934009552002 -0.042589664459 -5.067221641541
vt 9.934009552002 0.941334187984 -5.067221641541
vt 9.737159729004 0.941334187984 -5.067221641541
vt -5.067221641541 -0.042589664459 9.934009552002
vt -4.870370864868 -0.042589664459 9.934009552002
vt -4.870370864868 0.941334187984 9.934009552002
vt -5.067221641541 0.941334187984 9.934009552002
vt -8.934009552002 -0.042589664459 -4.870370864868
vt -8.737159729004 -0.042589664459 -4.870370864868
vt -8.737159729004 0.941334187984 -4.870370864868
vt -8.934009552002 0.941334187984 -4.870370864868
vt 5.870370864868 -0.042589664459 9.737159729004
vt 6.067221641541 -0.042589664459 9.737159729004
vt 6.067221641541 0.941334187984 9.737159729004
vt 5.870370864868 0.941334187984 9.737159729004
vt -8.738578796387 5.868606567383 -0.042585015297
vt -8.738576889038 6.065456867218 -0.042585015297
vt -8.935428619385 6.065456867218 -0.042585015297
vt -8.935428619385 5.868606567383 -0.042585015297
vt 9.738578796387 5.868606567383 0.941338777542
vt 9.935428619385 5.868606567383 0.941338777542
vt 9.935428619385 6.065456867218 0.941338777542
vt 9.738576889038 6.065456867218 0.941338777542
vt 9.738578796387 -0.042585015297 5.868606567383
vt 9.935428619385 -0.042585015297 5.868606567383
vt 9.935428619385 0.941338777542 5.868606567383
vt 9.738578796387 0.941338777542 5.868606567383
vt 5.868606567383 -0.042585015297 9.935428619385
vt 6.065456867218 -0.042585015297 9.935428619385
vt 6.065456867218 0.941338777542 9.935428619385
vt 5.868606567383 0.941338777542 9.935428619385
vt -8.935428619385 -0.042585015297 6.065456867218
vt -8.738576889038 -0.042585015297 6.065456867218
vt -8.738576889038 0.941338777542 6.065456867218
vt -8.935428619385 0.941338777542 6.065456867218
vt -5.065456867218 -0.042585015297 9.738576889038
vt -4.868606567383 -0.042585015297 9.738578796387
vt -4.868606567383 0.941338777542 9.738578796387
vt -5.065456867218 0.941338777542 9.738576889038
vt 10.070999145508 5.869989395142 -0.042587935925
vt 10.070999145508 6.066839694977 -0.042587935925
vt 9.874149322510 6.066839694977 -0.042587935925
vt 9.874149322510 5.869989395142 -0.042587935925
vt -9.070999145508 5.869989395142 0.941335916519
vt -8.874149322510 5.869989395142 0.941335916519
vt -8.874149322510 6.066839694977 0.941335916519
vt -9.070999145508 6.066839694977 0.941335916519
vt -9.070999145508 -0.042587935925 5.869989395142
vt -8.874149322510 -0.042587935925 5.869989395142
vt -8.874149322510 0.941335916519 5.869989395142
vt -9.070999145508 0.941335916519 5.869989395142
vt 5.869989395142 -0.042587935925 -8.874149322510
vt 6.066839694977 -0.042587935925 -8.874149322510
vt 6.066839694977 0.941335916519 -8.874149322510
vt 5.869989395142 0.941335916519 -8.874149322510
vt 9.874149322510 -0.042587935925 6.066839694977
vt 10.070999145508 -0.042587935925 6.066839694977
vt 10.070999145508 0.941335916519 6.066839694977
vt 9.874149322510 0.941335916519 6.066839694977
vt -5.066839694977 -0.042587935925 -9.070999145508
vt -4.869989395142 -0.042587935925 -9.070999145508
vt -4.869989395142 0.941335916519 -9.070999145508
vt -5.066839694977 0.941335916519 -9.070999145508
vt 0.220733642578 21.484098434448 0.000000000000
vt 1.399877071381 21.484096527100 0.000000000000
vt 1.399877071381 22.621868133545 0.000000000000
vt 0.220733642578 22.621868133545 0.000000000000
vt 2.579020500183 21.484096527100 0.000000000000
vt 2.579020500183 22.621868133545 0.000000000000
vt 1.399877548218 23.759637832642 0.000000000000
vt 0.220734119415 23.759637832642 0.000000000000
vt 2.579020977020 23.759637832642 0.000000000000
vt -21.621868133545 10.739929199219 0.000000000000
vt -20.484098434448 10.739929199219 0.000000000000
vt -20.484098434448 13.504247665405 0.000000000000
vt -21.621868133545 13.504247665405 0.000000000000
vt 0.220733642578 10.739929199219 0.000000000000
vt 1.399877071381 10.739929199219 0.000000000000
vt 1.399877071381 13.504247665405 0.000000000000
vt 0.220733642578 13.504247665405 0.000000000000
vt 2.579020500183 10.739929199219 0.000000000000
vt 2.579020500183 13.504247665405 0.000000000000
vt 21.484096527100 10.739929199219 0.000000000000
vt 22.621868133545 10.739929199219 0.000000000000
vt 22.621868133545 13.504247665405 0.000000000000
vt 21.484096527100 13.504247665405 0.000000000000
vt 23.759637832642 10.739929199219 0.000000000000
vt 23.759637832642 13.504247665405 0.000000000000
vt -1.579020977020 10.739929199219 0.000000000000
vt -0.399877548218 10.739929199219 0.000000000000
vt -0.399877548218 13.504247665405 0.000000000000
vt -1.579020977020 13.504247665405 0.000000000000
vt 0.779265880585 10.739929199219 0.000000000000
vt 0.779265880585 13.504247665405 0.000000000000
vt -22.759637832642 10.739929199219 0.000000000000
vt -22.759637832642 13.504247665405 0.000000000000
vt -7.678821563721 6.756223678589 0.843567848206
vt -7.678821563721 6.389862537384 0.843567848206
vt -6.932229995728 6.389862537384 0.843567848206
vt -6.932229995728 6.756223678589 0.843567848206
vt 8.678821563721 6.756223678589 0.858331680298
vt 7.932229995728 6.756223678589 0.858331680298
vt 7.932229995728 6.389862537384 0.858331680298
vt 8.678821563721 6.389862537384 0.858331680298
vt -7.678821563721 0.843567848206 6.756223678589
vt -6.932229995728 0.843567848206 6.756223678589
vt -6.932229995728 0.858331680298 6.756223678589
vt -7.678821563721 0.858331680298 6.756223678589
vt -5.756223678589 0.843567848206 7.932229995728
vt -5.389862537384 0.843567848206 7.932229995728
vt -5.389862537384 0.858331680298 7.932229995728
vt -5.756223678589 0.858331680298 7.932229995728
vt 7.932229995728 0.843567848206 6.389862537384
vt 8.678821563721 0.843567848206 6.389862537384
vt 8.678821563721 0.858331680298 6.389862537384
vt 7.932229995728 0.858331680298 6.389862537384
vt 6.389862537384 0.843567848206 8.678821563721
vt 6.756223678589 0.843567848206 8.678821563721
vt 6.756223678589 0.858331680298 8.678821563721
vt 6.389862537384 0.858331680298 8.678821563721
vt 8.815668106079 -5.756224155426 0.843566060066
vt 8.815668106079 -5.389864444733 0.843566060066
vt 8.069076538086 -5.389864444733 0.843566060066
vt 8.069076538086 -5.756224155426 0.843566060066
vt -7.815668106079 -5.756224155426 0.858329832554
vt -7.069076538086 -5.756224155426 0.858329832554
vt -7.069076538086 -5.389864444733 0.858329832554
vt -7.815668106079 -5.389864444733 0.858329832554
vt -7.815668106079 0.843566060066 -5.756224155426
vt -7.069076538086 0.843566060066 -5.756224155426
vt -7.069076538086 0.858329832554 -5.756224155426
vt -7.815668106079 0.858329832554 -5.756224155426
vt -5.756224155426 0.843566060066 -7.069076538086
vt -5.389864444733 0.843566060066 -7.069076538086
vt -5.389864444733 0.858329832554 -7.069076538086
vt -5.756224155426 0.858329832554 -7.069076538086
vt 8.069076538086 0.843566060066 -5.389864444733
vt 8.815668106079 0.843566060066 -5.389864444733
vt 8.815668106079 0.858329832554 -5.389864444733
vt 8.069076538086 0.858329832554 -5.389864444733
vt 6.389864444733 0.843566060066 -7.815668106079
vt 6.756224155426 0.843566060066 -7.815668106079
vt 6.756224155426 0.858329832554 -7.815668106079
vt 6.389864444733 0.858329832554 -7.815668106079
vt 10.398235321045 -5.392998695374 1.042589664459
vt 10.398231506348 6.529643058777 1.042589664459
vt -9.398235321045 6.529638290405 1.042589664459
vt -9.398231506348 -5.393003463745 1.042589664459
vt -0.489823400974 -0.096131801605 0.500000000000
vt 1.489823102951 -0.096132278442 0.500000000000
vt 1.489823341370 1.096131801605 0.500000000000
vt -0.489823162556 1.096132278442 0.500000000000
vt -9.398235321045 -1.035780549049 -5.461318492889
vt 10.398231506348 -1.035780549049 -5.461323261261
vt 10.398231506348 2.035780668259 -5.461323261261
vt -9.398235321045 2.035780668259 -5.461318492889
vt -5.461323261261 -1.035780549049 10.398231506348
vt 6.461318492889 -1.035780549049 10.398234367371
vt 6.461318492889 2.035780668259 10.398234367371
vt -5.461323261261 2.035780668259 10.398231506348
vt -9.398234367371 -1.035780549049 6.461318492889
vt 10.398232460022 -1.035780549049 6.461323261261
vt 10.398232460022 2.035780668259 6.461323261261
vt -9.398234367371 2.035780668259 6.461318492889
vt -5.461323261261 -1.035780549049 -9.398232460022
vt 6.461318492889 -1.035780549049 -9.398235321045
vt 6.461318492889 2.035780668259 -9.398235321045
vt -5.461323261261 2.035780668259 -9.398232460022
vt -4.071052551270 0.002629280090 10.328640937805
vt 5.071133613586 0.002628803253 10.328553199768
vt 5.071133613586 0.998800039291 10.328553199768
vt -4.071052551270 0.998800754547 10.328640937805
vt -4.071059226990 0.999500513077 9.016238212585
vt -5.383459091187 0.998804569244 9.016299247742
vt -5.383459091187 0.002632617950 9.016299247742
vt -4.071059226990 0.000503063202 9.016238212585
vt 9.016238212585 0.999500513077 -4.071059226990
vt 9.016238212585 0.000503063202 -4.071059226990
vt 10.328640937805 0.002629280090 -4.071052551270
vt 10.328640937805 0.998800754547 -4.071052551270
vt -9.328553199768 0.998800039291 5.071133613586
vt -9.328553199768 0.002628803253 5.071133613586
vt -8.016306877136 0.999497175217 5.071144580841
vt -8.016306877136 0.000499486923 5.071144580841
vt 5.071144580841 0.999497175217 9.016306877136
vt 5.071144580841 0.000499486923 9.016306877136
vt 6.383458614349 0.998800039291 9.016207695007
vt 6.383458614349 0.002628326416 9.016205787659
vt -4.071028709412 0.002626657486 -9.328640937805
vt 5.071153640747 0.002627134323 -9.328555107117
vt 5.071153640747 0.998798847198 -9.328555107117
vt -4.071028232574 0.998798370361 -9.328640937805
vt -5.383373260498 0.998798608780 -8.016375541687
vt -5.383373260498 0.002626895905 -8.016375541687
vt -4.071187019348 0.999498844147 -8.016121864319
vt -4.071187019348 0.000501155853 -8.016121864319
vt 9.016121864319 0.999498844147 5.071187019348
vt 9.016121864319 0.000501155853 5.071187019348
vt 10.328640937805 0.002626657486 5.071028709412
vt 10.328640937805 0.998798370361 5.071028232574
vt -9.328555107117 0.998798847198 -4.071153640747
vt -9.328555107117 0.002627134323 -4.071153640747
vt -8.016022682190 0.000499486923 -4.070878982544
vt -8.016022682190 0.999497413635 -4.070878982544
vt 5.070878982544 0.999497413635 -8.016022682190
vt 5.070878982544 0.000499486923 -8.016022682190
vt 6.383441925049 0.002628803253 -8.016175270081
vt 6.383441925049 0.998800039291 -8.016175270081
vt -8.016175270081 0.998800039291 -5.383441925049
vt -8.016175270081 0.002628803253 -5.383441925049
vt 9.016299247742 0.002632617950 -5.383459091187
vt 9.016299247742 0.998804569244 -5.383459091187
vt -8.016207695007 0.998800039291 6.383458614349
vt -8.016205787659 0.002628326416 6.383458614349
vt 9.016375541687 0.002626895905 6.383373260498
vt 9.016375541687 0.998798608780 6.383373260498
# 249 texture coords

g LOD01_Building_4stores_BigResidential
usemtl concrete_01
s 2
f 1/1/1 2/2/1 3/3/1 
f 3/3/1 4/4/1 1/1/1 
s 4
f 5/5/2 6/6/2 7/7/2 
f 7/7/2 8/8/2 5/5/2 
s 8
f 1/9/3 4/10/3 6/11/3 
f 6/11/3 5/12/3 1/9/3 
s 16
f 4/13/4 3/14/4 7/15/4 
f 7/15/4 6/16/4 4/13/4 
s 32
f 3/17/5 2/18/5 8/19/5 
f 8/19/5 7/20/5 3/17/5 
s 64
f 2/21/6 1/22/6 5/23/6 
f 5/23/6 8/24/6 2/21/6 
s 2
f 9/25/1 10/26/1 11/27/1 
f 11/27/1 12/28/1 9/25/1 
s 4
f 13/29/2 14/30/2 15/31/2 
f 15/31/2 16/32/2 13/29/2 
s 8
f 9/33/3 12/34/3 14/35/3 
f 14/35/3 13/36/3 9/33/3 
s 16
f 12/37/4 11/38/4 15/39/4 
f 15/39/4 14/40/4 12/37/4 
s 32
f 11/41/5 10/42/5 16/43/5 
f 16/43/5 15/44/5 11/41/5 
s 64
f 10/45/6 9/46/6 13/47/6 
f 13/47/6 16/48/6 10/45/6 
s 2
f 17/49/1 18/50/1 19/51/1 
f 19/51/1 20/52/1 17/49/1 
s 4
f 21/53/2 22/54/2 23/55/2 
f 23/55/2 24/56/2 21/53/2 
s 8
f 17/57/3 20/58/3 22/59/3 
f 22/59/3 21/60/3 17/57/3 
s 16
f 20/61/4 19/62/4 23/63/4 
f 23/63/4 22/64/4 20/61/4 
s 32
f 19/65/5 18/66/5 24/67/5 
f 24/67/5 23/68/5 19/65/5 
s 64
f 18/69/7 17/70/7 21/71/7 
f 21/71/7 24/72/7 18/69/7 
s 2
f 25/73/1 26/74/1 27/75/1 
f 27/75/1 28/76/1 25/73/1 
s 4
f 29/77/2 30/78/2 31/79/2 
f 31/79/2 32/80/2 29/77/2 
s 8
f 25/81/3 28/82/3 30/83/3 
f 30/83/3 29/84/3 25/81/3 
s 16
f 28/85/4 27/86/4 31/87/4 
f 31/87/4 30/88/4 28/85/4 
s 32
f 27/89/5 26/90/5 32/91/5 
f 32/91/5 31/92/5 27/89/5 
s 64
f 26/93/6 25/94/6 29/95/6 
f 29/95/6 32/96/6 26/93/6 
usemtl brick_01
s 1
f 33/97/2 34/98/2 35/99/2 
f 35/99/2 36/100/2 33/97/2 
f 34/98/2 37/101/2 38/102/2 
f 38/102/2 35/99/2 34/98/2 
f 36/100/2 35/99/2 39/103/2 
f 39/103/2 40/104/2 36/100/2 
f 35/99/2 38/102/2 41/105/2 
f 41/105/2 39/103/2 35/99/2 
s off
f 42/106/6 43/107/6 33/108/6 
f 33/108/6 36/109/6 42/106/6 
f 43/110/8 44/111/8 34/112/8 
f 34/112/8 33/113/8 43/110/8 
f 44/111/3 45/114/3 37/115/3 
f 37/115/3 34/112/3 44/111/3 
f 45/116/4 46/117/4 38/118/4 
f 38/118/4 37/119/4 45/116/4 
f 46/117/9 47/120/9 41/121/9 
f 41/121/9 38/118/9 46/117/9 
f 47/122/5 48/123/5 39/124/5 
f 39/124/5 41/125/5 47/122/5 
f 48/123/10 49/126/10 40/127/10 
f 40/127/10 39/124/10 48/123/10 
f 49/128/11 42/106/11 36/109/11 
f 36/109/11 40/129/11 49/128/11 
usemtl concrete_01
s 2
f 50/130/1 51/131/1 52/132/1 
f 52/132/1 53/133/1 50/130/1 
s 4
f 54/134/2 55/135/2 56/136/2 
f 56/136/2 57/137/2 54/134/2 
s 8
f 50/138/5 53/139/5 55/140/5 
f 55/140/5 54/141/5 50/138/5 
s 16
f 53/142/6 52/143/6 56/144/6 
f 56/144/6 55/145/6 53/142/6 
s 32
f 52/146/3 51/147/3 57/148/3 
f 57/148/3 56/149/3 52/146/3 
s 64
f 51/150/4 50/151/4 54/152/4 
f 54/152/4 57/153/4 51/150/4 
s 2
f 58/154/1 59/155/1 60/156/1 
f 60/156/1 61/157/1 58/154/1 
s 4
f 62/158/2 63/159/2 64/160/2 
f 64/160/2 65/161/2 62/158/2 
s 8
f 58/162/3 61/163/3 63/164/3 
f 63/164/3 62/165/3 58/162/3 
s 16
f 61/166/4 60/167/4 64/168/4 
f 64/168/4 63/169/4 61/166/4 
s 32
f 60/170/5 59/171/5 65/172/5 
f 65/172/5 64/173/5 60/170/5 
s 64
f 59/174/6 58/175/6 62/176/6 
f 62/176/6 65/177/6 59/174/6 
s 2
f 66/178/1 67/179/1 68/180/1 
f 68/180/1 69/181/1 66/178/1 
usemtl Roof_04
s 4
f 70/182/2 71/183/2 72/184/2 
f 72/184/2 73/185/2 70/182/2 
usemtl LOD_window_04
s 8
f 66/186/3 69/187/3 71/188/3 
f 71/188/3 70/189/3 66/186/3 
s 16
f 69/190/4 68/191/4 72/192/4 
f 72/192/4 71/193/4 69/190/4 
s 32
f 68/194/5 67/195/5 73/196/5 
f 73/196/5 72/197/5 68/194/5 
s 64
f 67/198/6 66/199/6 70/200/6 
f 70/200/6 73/201/6 67/198/6 
s 4
f 74/202/12 75/203/12 76/204/12 
f 76/204/12 77/205/12 74/202/12 
s 1
f 78/206/13 79/207/14 80/208/14 
f 78/206/13 80/208/14 81/209/13 
s 8
f 78/210/15 81/211/15 74/212/15 
f 77/213/15 78/210/15 74/212/15 
f 76/214/16 75/215/17 82/216/17 
f 82/216/17 75/215/17 83/217/16 
s 1
f 82/218/18 83/219/19 84/220/20 
f 84/220/20 83/219/19 85/221/21 
s 4
f 86/222/22 87/223/23 88/224/24 
f 88/224/24 89/225/22 86/222/22 
s 1
f 90/226/25 91/227/25 92/228/26 
f 92/228/26 91/227/25 93/229/26 
s 8
f 92/230/27 93/231/28 86/232/29 
f 89/233/30 92/230/27 86/232/29 
f 88/234/31 87/235/32 94/236/33 
f 95/237/31 88/234/31 94/236/33 
s 1
f 95/238/34 94/239/35 96/240/35 
f 97/241/35 95/238/34 96/240/35 
s 8
f 97/242/36 96/243/36 80/244/36 
f 79/245/36 97/242/36 80/244/36 
f 84/246/37 85/247/38 91/248/39 
f 90/249/39 84/246/37 91/248/39 
# 132 faces

