# 3ds Max Wavefront OBJ Exporter v0.97b - (c)2007 guruware
# File Created: 12.03.2018 14:54:02

mtllib LOD01_Building_7stores_PopularHouse.mtl

#
# object LOD01_Building_7stores_PopularHouse
#

v  1.462314128876 7.129912376404 -0.600487470627
v  1.949753284454 7.129912376404 -0.600487470627
v  1.949753284454 7.129912376404 -0.941694378853
v  1.462314128876 7.129912376404 -0.941694378853
v  2.437191486359 7.129912376404 -0.600487470627
v  2.437191486359 7.129912376404 -0.941694378853
v  1.949753284454 7.129912376404 -1.282901406288
v  1.462314128876 7.129912376404 -1.282901406288
v  2.437191486359 7.129912376404 -1.282901406288
v  1.462314128876 6.049853324890 -0.941694378853
v  1.462314128876 6.049853324890 -0.600487470627
v  1.949753284454 6.049853324890 -0.600487470627
v  2.437191486359 6.049853324890 -0.600487470627
v  2.437191486359 6.049853324890 -0.941694378853
v  2.437191486359 6.049853324890 -1.282901406288
v  1.949753284454 6.049853324890 -1.282901406288
v  1.462314128876 6.049853324890 -1.282901406288
v  7.524540424347 0.900588452816 -2.319317817688
v  7.524540424347 0.900588452816 -1.952957034111
v  6.911151409149 0.900588452816 -1.952957034111
v  6.911151409149 0.900588452816 -2.319317817688
v  7.524540424347 0.915352344513 -2.319317817688
v  6.911151409149 0.915352344513 -2.319317817688
v  6.911151409149 0.915352344513 -1.952957034111
v  7.524540424347 0.915352344513 -1.952957034111
v  7.487906932831 -0.000002026558 -2.214992523193
v  7.487906932831 -0.000002026558 -1.961158871651
v  6.947784900665 -0.000002026558 -1.961158871651
v  6.947784900665 -0.000002026558 -2.214992523193
v  7.487906932831 0.049210488796 -2.214992523193
v  6.947784900665 0.049210488796 -2.214992523193
v  6.947784900665 0.049210488796 -1.961158871651
v  7.487906932831 0.049210488796 -1.961158871651
v  -7.893735408783 -0.000002026558 2.053145885468
v  -7.893735408783 -0.000002026558 -2.000874996185
v  7.873849391937 -0.000002026558 -2.000874996185
v  7.873849391937 -0.000002026558 2.053145885468
v  -7.893735408783 6.051784515381 2.053145885468
v  7.873849391937 6.051784515381 2.053145885468
v  7.873849391937 6.051784515381 -2.000874996185
v  -7.893735408783 6.051784515381 -2.000874996185
v  7.873849391937 5.991585731506 2.053145885468
v  -7.893735408783 5.991585731506 2.053145885468
v  7.873849391937 5.991585731506 -2.000874996185
v  -7.893735408783 5.991585731506 -2.000874996185
# 45 vertices

vn 0.000000000000 1.000000000000 -0.000000000000
vn -1.000000000000 0.000000000000 -0.000000000000
vn 0.000000000000 0.000000000000 1.000000000000
vn 1.000000000000 0.000000000000 -0.000000000000
vn 0.000000000000 0.000000000000 -1.000000000000
vn 0.000000000000 -1.000000000000 -0.000000000000
# 6 vertex normals

vt 13.875023841858 13.175765037537 0.000000000000
vt 14.959486007690 13.175765037537 0.000000000000
vt 14.959486007690 13.934887886047 0.000000000000
vt 13.875024795532 13.934887886047 0.000000000000
vt 16.043945312500 13.175765037537 0.000000000000
vt 16.043947219849 13.934887886047 0.000000000000
vt 14.959486007690 14.694010734558 0.000000000000
vt 13.875024795532 14.694010734558 0.000000000000
vt 16.043947219849 14.694010734558 0.000000000000
vt -12.934887886047 33.751159667969 0.000000000000
vt -12.175765037537 33.751159667969 0.000000000000
vt -12.175765037537 35.629673004150 0.000000000000
vt -12.934887886047 35.629673004150 0.000000000000
vt 13.875023841858 33.751159667969 0.000000000000
vt 14.959486007690 33.751159667969 0.000000000000
vt 14.959486007690 35.629673004150 0.000000000000
vt 13.875023841858 35.629673004150 0.000000000000
vt 16.043945312500 33.751159667969 0.000000000000
vt 16.043945312500 35.629673004150 0.000000000000
vt 13.175765037537 33.751159667969 0.000000000000
vt 13.934887886047 33.751159667969 0.000000000000
vt 13.934887886047 35.629673004150 0.000000000000
vt 13.175765037537 35.629673004150 0.000000000000
vt 14.694010734558 33.751159667969 0.000000000000
vt 14.694010734558 35.629673004150 0.000000000000
vt -15.043947219849 33.751159667969 0.000000000000
vt -13.959486007690 33.751159667969 0.000000000000
vt -13.959486007690 35.629673004150 0.000000000000
vt -15.043947219849 35.629673004150 0.000000000000
vt -12.875024795532 33.751159667969 0.000000000000
vt -12.875024795532 35.629673004150 0.000000000000
vt -13.694010734558 33.751159667969 0.000000000000
vt -13.694010734558 35.629673004150 0.000000000000
vt 5.067408084869 -19.529165267944 0.000000000000
vt 5.067407608032 -18.970830917358 0.000000000000
vt 4.132601737976 -18.970830917358 0.000000000000
vt 4.132601737976 -19.529165267944 0.000000000000
vt -4.067408084869 -19.529165267944 0.000000000000
vt -3.132601499557 -19.529165267944 0.000000000000
vt -3.132601499557 -18.970830917358 0.000000000000
vt -4.067407608032 -18.970830917358 0.000000000000
vt -4.067408084869 14.024999618530 0.000000000000
vt -3.132601499557 14.024999618530 0.000000000000
vt -3.132601499557 14.047499656677 0.000000000000
vt -4.067408084869 14.047499656677 0.000000000000
vt -19.529165267944 14.024999618530 0.000000000000
vt -18.970830917358 14.024999618530 0.000000000000
vt -18.970830917358 14.047499656677 0.000000000000
vt -19.529165267944 14.047499656677 0.000000000000
vt 4.132601737976 14.024999618530 0.000000000000
vt 5.067407608032 14.024999618530 0.000000000000
vt 5.067407608032 14.047499656677 0.000000000000
vt 4.132601737976 14.047499656677 0.000000000000
vt 19.970830917358 14.024999618530 0.000000000000
vt 20.529165267944 14.024999618530 0.000000000000
vt 20.529165267944 14.047499656677 0.000000000000
vt 19.970830917358 14.047499656677 0.000000000000
vt 34.711570739746 3.606587171555 0.000000000000
vt 34.711570739746 3.993429183960 0.000000000000
vt 33.888427734375 3.993428945541 0.000000000000
vt 33.888427734375 3.606586933136 0.000000000000
vt -33.711570739746 3.606587171555 0.000000000000
vt -32.888427734375 3.606586933136 0.000000000000
vt -32.888427734375 3.993428945541 0.000000000000
vt -33.711570739746 3.993429183960 0.000000000000
vt -33.711570739746 40.150001525879 0.000000000000
vt -32.888427734375 40.150001525879 0.000000000000
vt -32.888427734375 40.225002288818 0.000000000000
vt -33.711570739746 40.225002288818 0.000000000000
vt 3.606586933136 40.150001525879 0.000000000000
vt 3.993428945541 40.150001525879 0.000000000000
vt 3.993428945541 40.225002288818 0.000000000000
vt 3.606586933136 40.225002288818 0.000000000000
vt 33.888427734375 40.150001525879 0.000000000000
vt 34.711570739746 40.150001525879 0.000000000000
vt 34.711570739746 40.225002288818 0.000000000000
vt 33.888427734375 40.225002288818 0.000000000000
vt -2.993429183960 40.150001525879 0.000000000000
vt -2.606587171555 40.150001525879 0.000000000000
vt -2.606587171555 40.225002288818 0.000000000000
vt -2.993429183960 40.225002288818 0.000000000000
vt 8.008370399475 0.832785606384 -1.975890636444
vt 8.008369445801 0.916369318962 -1.975890636444
vt -7.008378982544 0.916369199753 -1.975890636444
vt -7.008378028870 0.832785546780 -1.975890636444
vt -0.288379251957 0.297299146652 0.500000000000
vt 1.288379192352 0.297298789024 0.500000000000
vt 1.288379192352 0.702700853348 0.500000000000
vt -0.288379132748 0.702701210976 0.500000000000
vt -7.008370399475 -1.975890636444 0.832785606384
vt 8.008378028870 -1.975890636444 0.832785546780
vt 8.008378028870 4.015697002411 0.832785546780
vt -7.008370399475 4.015697002411 0.832785606384
vt 0.832785546780 -1.975890636444 8.008378028870
vt 0.916369199753 -1.975890636444 8.008378982544
vt 0.916369199753 4.015697002411 8.008378982544
vt 0.832785546780 4.015697002411 8.008378028870
vt -7.008378982544 -1.975890636444 0.916369199753
vt 8.008369445801 -1.975890636444 0.916369318962
vt 8.008369445801 4.015697002411 0.916369318962
vt -7.008378982544 4.015697002411 0.916369199753
vt 0.083630681038 -1.975890636444 -7.008369445801
vt 0.167214393616 -1.975890636444 -7.008370399475
vt 0.167214393616 4.015697002411 -7.008370399475
vt 0.083630681038 4.015697002411 -7.008369445801
vt 0.000000000000 0.000000000000 0.000000000000
vt 1.000000000000 0.000000000000 0.000000000000
vt 1.000000000000 1.000000000000 0.000000000000
vt 0.000000000000 1.000000000000 0.000000000000
# 109 texture coords

g LOD01_Building_7stores_PopularHouse
usemtl brick_01
s 1
f 1/1/1 2/2/1 3/3/1 
f 3/3/1 4/4/1 1/1/1 
f 2/2/1 5/5/1 6/6/1 
f 6/6/1 3/3/1 2/2/1 
f 4/4/1 3/3/1 7/7/1 
f 7/7/1 8/8/1 4/4/1 
f 3/3/1 6/6/1 9/9/1 
f 9/9/1 7/7/1 3/3/1 
s 2
f 10/10/2 11/11/2 1/12/2 
f 1/12/2 4/13/2 10/10/2 
s 4
f 11/14/3 12/15/3 2/16/3 
f 2/16/3 1/17/3 11/14/3 
f 12/15/3 13/18/3 5/19/3 
f 5/19/3 2/16/3 12/15/3 
s 2
f 13/20/4 14/21/4 6/22/4 
f 6/22/4 5/23/4 13/20/4 
f 14/21/4 15/24/4 9/25/4 
f 9/25/4 6/22/4 14/21/4 
s 4
f 15/26/5 16/27/5 7/28/5 
f 7/28/5 9/29/5 15/26/5 
f 16/27/5 17/30/5 8/31/5 
f 8/31/5 7/28/5 16/27/5 
s 2
f 17/32/2 10/10/2 4/13/2 
f 4/13/2 8/33/2 17/32/2 
usemtl concrete_01
s 1
f 18/34/6 19/35/6 20/36/6 
f 20/36/6 21/37/6 18/34/6 
f 22/38/1 23/39/1 24/40/1 
f 24/40/1 25/41/1 22/38/1 
s 2
f 18/42/5 21/43/5 23/44/5 
f 23/44/5 22/45/5 18/42/5 
s 4
f 21/46/2 20/47/2 24/48/2 
f 24/48/2 23/49/2 21/46/2 
s 2
f 20/50/3 19/51/3 25/52/3 
f 25/52/3 24/53/3 20/50/3 
s 4
f 19/54/4 18/55/4 22/56/4 
f 22/56/4 25/57/4 19/54/4 
s 1
f 26/58/6 27/59/6 28/60/6 
f 28/60/6 29/61/6 26/58/6 
f 30/62/1 31/63/1 32/64/1 
f 32/64/1 33/65/1 30/62/1 
s 2
f 26/66/5 29/67/5 31/68/5 
f 31/68/5 30/69/5 26/66/5 
s 4
f 29/70/2 28/71/2 32/72/2 
f 32/72/2 31/73/2 29/70/2 
s 2
f 28/74/3 27/75/3 33/76/3 
f 33/76/3 32/77/3 28/74/3 
s 4
f 27/78/4 26/79/4 30/80/4 
f 30/80/4 33/81/4 27/78/4 
usemtl LOD_window_08
s 1
f 34/82/6 35/83/6 36/84/6 
f 36/84/6 37/85/6 34/82/6 
usemtl Roof_04
f 38/86/1 39/87/1 40/88/1 
f 40/88/1 41/89/1 38/86/1 
usemtl LOD_window_08
s 2
f 34/90/3 37/91/3 42/92/3 
f 42/92/3 43/93/3 34/90/3 
s 4
f 37/94/4 36/95/4 44/96/4 
f 44/96/4 42/97/4 37/94/4 
s 2
f 36/98/5 35/99/5 45/100/5 
f 45/100/5 44/101/5 36/98/5 
s 4
f 35/102/2 34/103/2 43/104/2 
f 43/104/2 45/105/2 35/102/2 
usemtl concrete_01
s 2
f 43/106/3 42/107/3 39/107/3 
f 39/107/3 38/106/3 43/106/3 
s 4
f 42/107/4 44/108/4 40/108/4 
f 40/108/4 39/107/4 42/107/4 
s 2
f 44/108/5 45/109/5 41/109/5 
f 41/109/5 40/108/5 44/108/5 
s 4
f 45/109/2 43/106/2 38/106/2 
f 38/106/2 41/109/2 45/109/2 
# 68 faces

