# 3ds Max Wavefront OBJ Exporter v0.97b - (c)2007 guruware
# File Created: 23.03.2018 17:11:40

mtllib LOD01_UDC_Park.mtl

#
# object LOD01_UDC_Park
#

v  -8.858258247375 0.000000000000 14.763784408569
v  -10.826762199402 0.000000000000 14.763784408569
v  -10.826762199402 0.000000000000 16.732288360596
v  -8.858258247375 0.000000000000 16.732288360596
v  -0.984251797199 0.000000000000 14.763784408569
v  -0.984251797199 0.000000000000 16.732288360596
v  0.984251976013 0.000000000000 14.763784408569
v  0.984251976013 0.000000000000 16.732288360596
v  -8.858258247375 0.000000000000 0.984251797199
v  -10.826762199402 0.000000000000 0.984251797199
v  -0.984251797199 0.000000000000 0.984251797199
v  0.984251976013 0.000000000000 0.984251797199
v  -8.858264923096 0.000000000000 -0.984252095222
v  -10.826769828796 0.000000000000 -0.984252095222
v  -0.984251976013 0.000000000000 -0.984252095222
v  0.984252095222 0.000000000000 -0.984252095222
v  8.858272552490 0.000000000000 -0.984252095222
v  8.858264923096 0.000000000000 0.984251797199
v  10.826777458191 0.000000000000 -0.984252095222
v  10.826769828796 0.000000000000 0.984251797199
v  0.984252095222 0.000000000000 -14.763776779175
v  -0.984251976013 0.000000000000 -14.763776779175
v  8.858272552490 0.000000000000 -14.763776779175
v  10.826777458191 0.000000000000 -14.763776779175
v  0.984252095222 0.000000000000 -16.732278823853
v  -0.984251976013 0.000000000000 -16.732278823853
v  8.858272552490 0.000000000000 -16.732278823853
v  10.826777458191 0.000000000000 -16.732278823853
v  10.826762199402 0.000000000000 16.732288360596
v  10.826762199402 0.000000000000 14.763784408569
v  8.858258247375 0.000000000000 14.763784408569
v  8.858258247375 0.000000000000 16.732288360596
v  -8.858272552490 0.000000000000 -14.763776779175
v  -10.826777458191 0.000000000000 -14.763776779175
v  -8.858272552490 0.000000000000 -16.732278823853
v  -10.826777458191 0.000000000000 -16.732278823853
# 36 vertices

vn 0.000000000000 1.000000000000 -0.000000000000
# 1 vertex normals

vt 7.999999523163 -3.999997615814 0.000000000000
vt 8.000000000000 -4.999998092651 0.000000000000
vt 9.000000000000 -4.999997615814 0.000000000000
vt 9.000000000000 -3.999997615814 0.000000000000
vt 8.000000000000 -0.000002324581 0.000000000000
vt 9.000000000000 -0.000002443790 0.000000000000
vt 0.999496579170 -14.984517097473 0.000000000000
vt 0.000495970249 -14.984517097473 0.000000000000
vt 0.000495731831 -15.983518600464 0.000000000000
vt 0.999496340752 -15.983518600464 0.000000000000
vt -3.999995231628 0.000001132488 0.000000000000
vt -4.999995231628 0.000001370907 0.000000000000
vt -4.999997138977 -7.000000476837 0.000000000000
vt -3.999997138977 -7.000000953674 0.000000000000
vt -0.000000059605 0.000000178814 0.000000000000
vt -0.000001728535 -7.000001907349 0.000000000000
vt 0.999999940395 -0.000000059605 0.000000000000
vt 0.999998271465 -7.000001907349 0.000000000000
vt -0.000000357628 -3.995492935181 0.000000000000
vt -0.000000417233 -4.994491577148 0.000000000000
vt 0.999999642372 -4.994488239288 0.000000000000
vt 0.999999701977 -3.995490074158 0.000000000000
vt -0.000001966953 -0.000001847744 0.000000000000
vt -0.000002264977 -4.000000476837 0.000000000000
vt 0.999997735023 -3.999997138977 0.000000000000
vt 0.999998092651 -0.000001847744 0.000000000000
vt 1.000000238419 0.999999940395 0.000000000000
vt 0.000000178814 1.000000238419 0.000000000000
vt -0.000001609325 5.000000476837 0.000000000000
vt -0.000001847744 0.999998271465 0.000000000000
vt 0.999998092651 0.999998092651 0.000000000000
vt 0.999998450279 4.999996662140 0.000000000000
vt 0.000000417233 5.994491577148 0.000000000000
vt 0.000000327826 4.995492935181 0.000000000000
vt 1.000000357628 4.995489120483 0.000000000000
vt 1.000000476837 5.994487762451 0.000000000000
vt 1.000001907349 7.999998092651 0.000000000000
vt 0.000001847744 7.999998092651 0.000000000000
vt 5.000004291534 7.999997138977 0.000000000000
vt 5.000002384186 0.999998986721 0.000000000000
vt 6.000004768372 7.999996662140 0.000000000000
vt 6.000002861023 0.999998748302 0.000000000000
vt 0.999500453472 0.999500751495 0.000000000000
vt 0.000499725342 0.999500751495 0.000000000000
vt 0.000499486923 0.000499725342 0.000000000000
vt 0.999500215054 0.000499725342 0.000000000000
vt -8.000000000000 5.000000953674 0.000000000000
vt -8.000000000000 0.999998867512 0.000000000000
vt -7.000000000000 0.999998748302 0.000000000000
vt -6.999999523163 5.000000953674 0.000000000000
vt 6.000004768372 8.999997138977 0.000000000000
vt 5.000004291534 8.999998092651 0.000000000000
vt 9.000000000000 5.999992847443 0.000000000000
vt 8.000000000000 5.999992847443 0.000000000000
vt 8.000000000000 4.999992847443 0.000000000000
vt 9.000000000000 4.999992847443 0.000000000000
vt 8.000000000000 0.999997615814 0.000000000000
vt 9.000000000000 0.999997496605 0.000000000000
vt -7.000000000000 -0.000001311302 0.000000000000
vt -8.000000000000 -0.000001192093 0.000000000000
vt -8.000000000000 -4.000003814697 0.000000000000
vt -7.000000476837 -4.000003814697 0.000000000000
# 62 texture coords

g LOD01_UDC_Park
usemtl Prop_ParkPav02
s 1
f 1/1/1 2/2/1 3/3/1 
f 3/3/1 4/4/1 1/1/1 
f 5/5/1 1/1/1 4/4/1 
f 4/4/1 6/6/1 5/5/1 
f 7/7/1 5/8/1 6/9/1 
f 6/9/1 8/10/1 7/7/1 
f 9/11/1 10/12/1 2/13/1 
f 2/13/1 1/14/1 9/11/1 
usemtl Prop_GrassFloor
f 11/15/1 9/11/1 1/14/1 
f 1/14/1 5/16/1 11/15/1 
usemtl Prop_ParkPav02
f 12/17/1 11/15/1 5/16/1 
f 5/16/1 7/18/1 12/17/1 
f 13/19/1 14/20/1 10/21/1 
f 10/21/1 9/22/1 13/19/1 
f 15/23/1 13/24/1 9/25/1 
f 9/25/1 11/26/1 15/23/1 
f 16/27/1 15/28/1 11/15/1 
f 11/15/1 12/17/1 16/27/1 
f 17/29/1 16/30/1 12/31/1 
f 12/31/1 18/32/1 17/29/1 
f 19/33/1 17/34/1 18/35/1 
f 18/35/1 20/36/1 19/33/1 
f 21/37/1 22/38/1 15/28/1 
f 15/28/1 16/27/1 21/37/1 
usemtl Prop_GrassFloor
f 23/39/1 21/37/1 16/27/1 
f 16/27/1 17/40/1 23/39/1 
usemtl Prop_ParkPav02
f 24/41/1 23/39/1 17/40/1 
f 17/40/1 19/42/1 24/41/1 
f 25/43/1 26/44/1 22/45/1 
f 22/45/1 21/46/1 25/43/1 
f 27/47/1 25/48/1 21/49/1 
f 21/49/1 23/50/1 27/47/1 
f 28/51/1 27/52/1 23/39/1 
f 23/39/1 24/41/1 28/51/1 
f 29/53/1 30/54/1 31/55/1 
f 31/55/1 32/56/1 29/53/1 
f 32/56/1 31/55/1 7/57/1 
f 7/57/1 8/58/1 32/56/1 
f 30/13/1 20/12/1 18/11/1 
f 18/11/1 31/14/1 30/13/1 
usemtl Prop_GrassFloor
f 31/14/1 18/11/1 12/15/1 
f 12/15/1 7/16/1 31/14/1 
f 15/27/1 22/37/1 33/39/1 
f 33/39/1 13/40/1 15/27/1 
usemtl Prop_ParkPav02
f 13/40/1 33/39/1 34/41/1 
f 34/41/1 14/42/1 13/40/1 
f 22/59/1 26/60/1 35/61/1 
f 35/61/1 33/62/1 22/59/1 
f 33/39/1 35/52/1 36/51/1 
f 36/51/1 34/41/1 33/39/1 
# 50 faces

