# 3ds Max Wavefront OBJ Exporter v0.97b - (c)2007 guruware
# File Created: 23.03.2018 18:21:56

mtllib LOD01_Builiding_ParisTerrace.mtl

#
# object LOD01_Builiding_ParisTerrace
#

v  -1.950613021851 5.737449645996 1.950072765350
v  1.949431657791 5.737449645996 1.949936032295
v  1.949404716492 5.737450599670 -1.949916481972
v  -1.950557470322 5.737449645996 -1.949871420860
v  -1.951015233994 -0.034200191498 -1.950143694878
v  -1.951018095016 -0.034200191498 1.949882745743
v  -1.950725078583 5.737201213837 1.949882745743
v  -1.950715303421 5.737201213837 -1.950143694878
v  1.948977470398 -0.034199714661 1.949844479561
v  1.948975563049 -0.034199714661 -1.950181841850
v  1.949272155762 5.737201690674 -1.950181841850
v  1.949273824692 5.737201690674 1.949844479561
# 12 vertices

vn 0.000000000009 1.000000000000 0.000000244541
vn -0.000000244534 1.000000000000 -0.000000000003
vn -1.000000000000 0.000050770414 -0.000000733591
vn -1.000000000000 0.000051968411 -0.000002506435
vn 1.000000000000 -0.000051390067 -0.000000489060
vn 1.000000000000 -0.000051348758 -0.000000427928
vn 0.000009811856 -0.000032923614 1.000000000000
vn 0.000035059358 -0.000015865251 1.000000000000
vn -0.000009781297 0.000000000503 -1.000000000000
vn -0.000009781306 0.000000000508 -0.999999940395
# 10 vertex normals

vt 0.496668577194 0.004621319473 0.000000000000
vt 0.496650665998 0.496666669846 0.000000000000
vt 0.002560537774 0.496663391590 1.000000000000
vt 0.002566197887 0.004628130235 0.000000000000
vt 0.000509738922 0.002855211496 0.999500274658
vt 0.999500751495 0.002855211496 0.999500274658
vt 0.999500751495 0.894820272923 0.999500274658
vt 0.000509738922 0.894820272923 0.999499797821
vt 0.000508785248 0.002855271101 0.000499725342
vt 0.999499797821 0.002855271101 0.000500202179
vt 0.999499797821 0.894820332527 0.000499725342
vt 0.000508785248 0.894820332527 0.000499248505
vt 0.001206517220 0.999500513077 0.000499546528
vt 0.000999033451 0.000499486923 0.000548213720
vt 1.998768329620 0.000499576330 0.000557780266
vt 1.999001026154 0.999500513077 0.000534325838
vt 0.001080274582 0.999457597733 0.999500513077
vt 0.001232147217 0.000499576330 0.999500513077
vt 1.998998999596 0.000499486923 0.999490976334
vt 1.998845338821 0.999457478523 0.999490976334
# 20 texture coords

g LOD01_Builiding_ParisTerrace
usemtl PROP_RoofElements
s off
f 1/1/1 2/2/1 3/3/1 
f 1/1/2 3/3/2 4/4/2 
usemtl BL_WhiteWall
f 5/5/3 6/6/3 7/7/3 
f 5/5/4 7/7/4 8/8/4 
f 9/9/5 10/10/5 11/11/5 
f 9/9/6 11/11/6 12/12/6 
usemtl LOD_ParisTerrace
f 1/13/7 6/14/7 9/15/7 
f 1/13/8 9/15/8 2/16/8 
f 11/17/9 10/18/9 5/19/9 
f 11/17/10 5/19/10 8/20/10 
# 10 faces

