# 3ds Max Wavefront OBJ Exporter v0.97b - (c)2007 guruware
# File Created: 13.03.2018 18:47:07

mtllib LOD01_Building_2stores_DoubleHouse.mtl

#
# object LOD01_Building_2stores_DoubleHouse
#

v  0.772435784340 3.000974178314 0.016959190369
v  -0.000194936991 3.000969648361 0.016959190369
v  -0.000274568796 2.047257661819 2.518209218979
v  1.245905280113 2.047261238098 2.518206596375
v  0.772435784340 3.000974178314 0.008537650108
v  1.245905280113 2.047261238098 1.246592640877
v  1.805004596710 3.000969648361 0.008537054062
v  2.517663955688 2.047257184982 1.246467828751
v  1.805008172989 3.000971555710 0.000284194946
v  2.517668962479 2.047259092331 0.000285148621
v  1.805006980896 3.000970602036 -0.008137106895
v  2.517667055130 2.047257900238 -1.271330952644
v  1.805007219315 3.000970602036 -0.016390204430
v  2.517667531967 2.047257900238 -2.517518043518
v  0.788384437561 3.000973701477 -0.016390800476
v  1.271628975868 2.047260999680 -2.517640590668
v  -0.000017940998 3.000970602036 -0.016390800476
v  0.000010937452 2.047257661819 -2.517641067505
v  -0.772650599480 3.000972270966 -0.016390800476
v  -1.246171951294 2.047259807587 -2.517640113831
v  -0.772650241852 3.000972270966 -0.007969498634
v  -1.246171355247 2.047259807587 -1.246021389961
v  -1.805034399033 3.000971317291 -0.007969737053
v  -2.517693996429 2.047258377075 -1.246092200279
v  -1.805033206940 3.000971555710 0.000283002853
v  -2.517692327499 2.047258853912 0.000091314316
v  -1.805037140846 3.000973701477 0.008704304695
v  -2.517697572708 2.047260999680 1.271709680557
v  -1.805037021637 3.000973701477 0.016957402229
v  -2.517697572708 2.047260761261 2.517891883850
v  -0.788262844086 3.000972270966 0.016956329346
v  -1.271352767944 2.047259330750 2.517801284790
v  -0.953430652618 0.900587558746 2.961580514908
v  -0.953430712223 0.900587558746 2.595220088959
v  -0.358424603939 0.900587558746 2.595219850540
v  -0.358424454927 0.900587558746 2.961580276489
v  -0.953430652618 0.915351390839 2.961580514908
v  -0.358424454927 0.915351390839 2.961580276489
v  -0.358424603939 0.915351390839 2.595219850540
v  -0.953430712223 0.915351390839 2.595220088959
v  -0.919269680977 -0.000002980232 2.857255458832
v  -0.919269680977 -0.000002980232 2.603422164917
v  -0.392585605383 -0.000002980232 2.603422164917
v  -0.392585515976 -0.000002980232 2.857255458832
v  -0.919269680977 0.049209594727 2.857255458832
v  -0.392585515976 0.049209594727 2.857255458832
v  -0.392585605383 0.049209594727 2.603422164917
v  -0.919269680977 0.049209594727 2.603422164917
v  0.953693509102 0.900590717793 -2.961580753326
v  0.953693509102 0.900590717793 -2.595220565796
v  0.358687400818 0.900590717793 -2.595220565796
v  0.358687400818 0.900590717793 -2.961580753326
v  0.953693509102 0.915354490280 -2.961580753326
v  0.358687400818 0.915354490280 -2.961580753326
v  0.358687400818 0.915354490280 -2.595220565796
v  0.953693509102 0.915354490280 -2.595220565796
v  0.919532418251 0.000000178814 -2.857255935669
v  0.919532656670 0.000000178814 -2.603422641754
v  0.392848551273 0.000000178814 -2.603422641754
v  0.392848372459 0.000000178814 -2.857255935669
v  0.919532418251 0.049212753773 -2.857255935669
v  0.392848372459 0.049212753773 -2.857255935669
v  0.392848551273 0.049212753773 -2.603422641754
v  0.919532656670 0.049212753773 -2.603422641754
v  -1.294244289398 2.054965972900 1.271701455116
v  1.321589469910 2.054965972900 1.271701455116
v  1.307906150818 2.054965972900 -1.206633925438
v  -1.294244289398 2.054965972900 -1.206633925438
v  2.651574611664 2.054965972900 1.271999955177
v  2.651574611664 2.054965972900 -1.206633925438
v  1.321589469910 2.054965972900 -2.624887943268
v  -1.294244289398 2.054965972900 -2.624887943268
v  2.651574611664 2.054965972900 -2.624887943268
v  -1.294244289398 0.006563901901 2.597972393036
v  1.321589469910 0.006563901901 2.597972393036
v  1.321589469910 2.054965972900 2.597972393036
v  -1.294244289398 2.054965972900 2.597972393036
v  1.321589469910 0.006563901901 1.271701455116
v  2.651574611664 0.006563901901 1.271999955177
v  2.651574611664 0.006563901901 -1.206633925438
v  2.651574611664 0.006563901901 -2.624887943268
v  1.321589469910 0.006563901901 -2.624887943268
v  -1.294244289398 0.006563901901 -2.624887943268
v  -1.294244289398 0.006563901901 -1.206633925438
v  -2.594244480133 0.006563901901 -1.206633925438
v  -2.594244480133 0.006563901901 1.271701455116
v  -2.594244480133 2.054965972900 1.271701455116
v  -2.594244480133 2.054965972900 -1.206633925438
v  -2.594244480133 2.054965972900 2.597972393036
v  -2.594244480133 0.006563901901 2.597972393036
# 90 vertices

vn -0.000005478302 0.934381484985 0.356274187565
vn -0.000001931694 0.934381127357 0.356275141239
vn 0.895695984364 0.444667100906 -0.000000000000
vn 0.895695984364 0.444667011499 -0.000000000000
vn 0.000003827720 0.792203068733 0.610257625580
vn 0.000062417865 0.792190253735 0.610274195671
vn 0.800754785538 0.598992168903 0.000485432858
vn 0.801056504250 0.598588764668 0.000004134578
vn 0.801056504250 0.598588764668 -0.000181182506
vn 0.801055729389 0.598589777946 -0.000001762692
vn 0.801071584225 0.598568618298 0.000023141656
vn 0.801057159901 0.598587870598 0.000000306514
vn 0.000003057582 0.934375882149 -0.356288850307
vn 0.000037362981 0.934383749962 -0.356268137693
vn -0.000003673327 0.934381067753 -0.356275051832
vn -0.000002319053 0.934381365776 -0.356274455786
vn 0.000002018316 0.934381365776 -0.356274455786
vn 0.000001336236 0.934381246567 -0.356274634600
vn -0.895716249943 0.444626271725 0.000038038430
vn -0.895676672459 0.444705665112 0.000000419831
vn -0.000000590871 0.792201817036 -0.610259115696
vn 0.000033093162 0.792209208012 -0.610249578953
vn -0.801118373871 0.598505854607 0.000098429446
vn -0.801057219505 0.598587751389 0.000000843760
vn -0.801057040691 0.598587751389 -0.000526725373
vn -0.801059484482 0.598584830761 -0.000004314304
vn -0.801049351692 0.598598301411 0.000011570508
vn -0.801056504250 0.598588585854 0.000000114521
vn 0.000001690548 0.934366285801 0.356314152479
vn 0.000026974658 0.934360384941 0.356329411268
vn 0.000001815843 0.934362053871 0.356325209141
vn -0.000113114198 0.934381425381 0.356274157763
vn -0.000001147779 -1.000000000000 -0.000000191319
vn 0.000001125017 -1.000000000000 0.000000382637
vn -0.000001721872 -0.999999940395 0.000000000001
vn -0.000002487436 -1.000000000000 -0.000000000001
vn 0.000002624894 -1.000000000000 -0.000005111217
vn -0.000000369372 -1.000000000000 0.000000937463
vn -0.000000565333 -1.000000000000 0.000001133404
vn -0.000003187167 -1.000000000000 -0.000001530566
vn -0.000000568159 -1.000000000000 0.000001141936
vn 0.000000662923 -1.000000000000 -0.000000088880
vn 0.000000074610 -1.000000000000 0.000001687430
vn 0.000000054049 -1.000000000000 -0.000001393392
vn -0.000001311688 -1.000000000000 -0.000004097838
vn 0.000002869793 -0.999999940395 -0.000000000000
vn -0.000005863025 1.000000000000 -0.000000000000
vn 0.000004387205 1.000000000000 0.000231115555
vn 0.000003048763 1.000000000000 0.000000000088
vn -0.000003931293 0.999999642372 0.000859746127
vn 0.000000517829 1.000000000000 -0.000113245551
vn 0.000002160056 1.000000000000 -0.000000000092
vn 0.000000704957 1.000000000000 -0.000133501671
vn 0.000000924569 1.000000000000 -0.000202087438
vn -0.000000923752 0.999999940395 -0.000028889493
vn -0.000000924636 1.000000000000 -0.000028999979
vn -0.000000201477 1.000000000000 -0.000254802435
vn 0.000001406912 1.000000000000 -0.000000000020
vn -0.000000172419 0.999999880791 0.000194597451
vn 0.000003324830 0.999999701977 0.000842935755
vn 0.000000000000 -1.000000000000 -0.000000000000
vn 0.000000000000 1.000000000000 -0.000000000000
vn 0.000000400699 0.000000000000 1.000000000000
vn 1.000000000000 0.000000000000 -0.000000406735
vn -0.000000400699 0.000000000000 -1.000000000000
vn -1.000000000000 0.000000000000 0.000000162694
vn 0.000000000000 0.000000000000 1.000000000000
vn 1.000000000000 0.000000000000 -0.000000352227
vn 0.000000000000 0.000000000000 -1.000000000000
vn -1.000000000000 0.000000000000 -0.000000000000
vn 1.000000000000 0.000000000000 -0.000000000000
vn -1.000000000000 0.000000000000 0.000000704454
vn 1.000000000000 0.000000000000 -0.000000939272
vn -0.000224438627 0.000000000000 1.000000000000
vn -0.000224438641 0.000000000000 1.000000000000
# 75 vertex normals

vt 0.739209949970 0.494836032391 0.000000000000
vt 0.499944150448 0.494836091995 0.000000000000
vt 0.499919295311 -0.279743015766 0.000000000000
vt 0.885832309723 -0.279742360115 0.000000000000
vt 0.646677196026 1.721507906914 0.000000000000
vt 0.643286824226 1.721507906914 0.000000000000
vt -0.363665044308 1.278493881226 0.000000000000
vt 0.148261159658 1.278493881226 0.000000000000
vt 1.376664280891 1.721505880356 0.000000000000
vt 0.960972905159 1.721507906914 0.000000000000
vt 1.151582121849 1.278493881226 0.000000000000
vt 1.663566589355 1.278491973877 0.000000000000
vt 0.649999737740 1.721506834030 0.000000000000
vt 0.646677315235 1.721505880356 0.000000000000
vt 0.148311287165 1.278491973877 0.000000000000
vt 0.649999260902 1.278492927551 0.000000000000
vt 0.653389990330 1.721506476402 0.000000000000
vt 1.161926388741 1.278492212296 0.000000000000
vt 0.656712532043 1.721506476402 0.000000000000
vt 1.663616061211 1.278492212296 0.000000000000
vt 0.744148850441 0.505163788795 0.000000000000
vt 1.058973312378 0.505163490772 0.000000000000
vt 1.279667854309 1.279704689980 0.000000000000
vt 0.893798708916 1.279742717743 0.000000000000
vt 0.499998956919 0.505163848400 0.000000000000
vt 0.500008106232 1.279743075371 0.000000000000
vt 0.260732531548 0.505163908005 0.000000000000
vt 0.114094138145 1.279742836952 0.000000000000
vt 0.646677196026 1.721507191658 0.000000000000
vt 0.643286883831 1.721507191658 0.000000000000
vt -0.363665670156 1.278493165970 0.000000000000
vt 0.148262321949 1.278493165970 0.000000000000
vt 1.376664638519 1.721506834030 0.000000000000
vt 0.961047530174 1.721507191658 0.000000000000
vt 1.151677489281 1.278493165970 0.000000000000
vt 1.663566946983 1.278492569923 0.000000000000
vt 0.649999380112 1.721506834030 0.000000000000
vt 0.646676898003 1.721506834030 0.000000000000
vt 0.148233652115 1.278492569923 0.000000000000
vt 0.649922132492 1.278492808342 0.000000000000
vt 0.653389513493 1.721507787704 0.000000000000
vt 1.161849975586 1.278493642807 0.000000000000
vt 0.656712055206 1.721507787704 0.000000000000
vt 1.663537979126 1.278493642807 0.000000000000
vt 0.255897790194 0.494837045670 0.000000000000
vt -0.058973610401 0.494836866856 0.000000000000
vt -0.279668271542 -0.279644608498 0.000000000000
vt 0.106295853853 -0.279616653919 0.000000000000
vt 0.760566830635 -0.015927314758 0.000000000000
vt 1.016010880470 -0.015945792198 0.000000000000
vt 1.016010880470 0.239440530539 0.000000000000
vt 1.016009688377 0.500039577484 0.000000000000
vt 1.016010046005 0.755426168442 0.000000000000
vt 0.755405545235 0.755411624908 0.000000000000
vt 0.755405664444 1.016010642052 0.000000000000
vt 0.499994695187 1.016010761261 0.000000000000
vt 0.239370644093 1.016010522842 0.000000000000
vt -0.016010761261 1.015985488892 0.000000000000
vt -0.016010522842 0.760598123074 0.000000000000
vt -0.016010999680 0.499999612570 0.000000000000
vt -0.016009807587 0.244613230228 0.000000000000
vt 0.244643092155 0.244587719440 0.000000000000
vt 0.500053405762 -0.016010940075 0.000000000000
vt 0.244643151760 -0.016010522842 0.000000000000
vt 0.649927377701 1.484508275986 0.000000000000
vt 0.960972905159 1.484508037567 0.000000000000
vt 0.960972905159 1.492332100868 0.000000000000
vt 1.376664280891 1.492332220078 0.000000000000
vt 1.376665830612 1.499999523163 0.000000000000
vt 1.376665234566 1.507823109627 0.000000000000
vt 1.376665234566 1.515490531921 0.000000000000
vt 0.967393457890 1.515491366386 0.000000000000
vt 0.649998605251 1.515491485596 0.000000000000
vt 0.338952273130 1.515491724014 0.000000000000
vt 0.338952422142 1.507667899132 0.000000000000
vt -0.076664686203 1.507668614388 0.000000000000
vt -0.076664216816 1.500001430511 0.000000000000
vt -0.076665766537 1.492177963257 0.000000000000
vt -0.076665692031 1.484510660172 0.000000000000
vt 0.332667112350 1.484511137009 0.000000000000
vt 28.403400421143 -25.179161071777 0.000000000000
vt 28.403400421143 -24.620826721191 0.000000000000
vt 27.496612548828 -24.620826721191 0.000000000000
vt 27.496612548828 -25.179161071777 0.000000000000
vt -27.403400421143 -25.179161071777 0.000000000000
vt -26.496612548828 -25.179161071777 0.000000000000
vt -26.496612548828 -24.620826721191 0.000000000000
vt -27.403400421143 -24.620826721191 0.000000000000
vt -27.403400421143 18.325000762939 0.000000000000
vt -26.496612548828 18.325000762939 0.000000000000
vt -26.496612548828 18.347499847412 0.000000000000
vt -27.403400421143 18.347499847412 0.000000000000
vt -25.179161071777 18.325000762939 0.000000000000
vt -24.620826721191 18.325000762939 0.000000000000
vt -24.620826721191 18.347499847412 0.000000000000
vt -25.179161071777 18.347499847412 0.000000000000
vt 27.496612548828 18.325000762939 0.000000000000
vt 28.403400421143 18.325000762939 0.000000000000
vt 28.403400421143 18.347499847412 0.000000000000
vt 27.496612548828 18.347499847412 0.000000000000
vt 25.620826721191 18.325000762939 0.000000000000
vt 26.179161071777 18.325000762939 0.000000000000
vt 26.179161071777 18.347499847412 0.000000000000
vt 25.620826721191 18.347499847412 0.000000000000
vt -17.948659896851 -34.743423461914 0.000000000000
vt -17.948659896851 -34.356582641602 0.000000000000
vt -18.751325607300 -34.356582641602 0.000000000000
vt -18.751325607300 -34.743423461914 0.000000000000
vt 18.948659896851 -34.743423461914 0.000000000000
vt 19.751325607300 -34.743423461914 0.000000000000
vt 19.751325607300 -34.356582641602 0.000000000000
vt 18.948659896851 -34.356582641602 0.000000000000
vt 18.948659896851 -28.500000000000 0.000000000000
vt 19.751325607300 -28.500000000000 0.000000000000
vt 19.751325607300 -28.424999237061 0.000000000000
vt 18.948659896851 -28.424999237061 0.000000000000
vt -34.743423461914 -28.500000000000 0.000000000000
vt -34.356582641602 -28.500000000000 0.000000000000
vt -34.356582641602 -28.424999237061 0.000000000000
vt -34.743423461914 -28.424999237061 0.000000000000
vt -18.751325607300 -28.500000000000 0.000000000000
vt -17.948659896851 -28.500000000000 0.000000000000
vt -17.948659896851 -28.424999237061 0.000000000000
vt -18.751325607300 -28.424999237061 0.000000000000
vt 35.356582641602 -28.500000000000 0.000000000000
vt 35.743423461914 -28.500000000000 0.000000000000
vt 35.743423461914 -28.424999237061 0.000000000000
vt 35.356582641602 -28.424999237061 0.000000000000
vt -8.546602249146 -11.579168319702 0.000000000000
vt -8.546602249146 -11.020834922791 0.000000000000
vt -9.453392028809 -11.020835876465 0.000000000000
vt -9.453392028809 -11.579169273376 0.000000000000
vt 9.546602249146 -11.579168319702 0.000000000000
vt 10.453392028809 -11.579169273376 0.000000000000
vt 10.453392028809 -11.020835876465 0.000000000000
vt 9.546602249146 -11.020834922791 0.000000000000
vt 9.546602249146 -9.275000572205 0.000000000000
vt 10.453392028809 -9.275000572205 0.000000000000
vt 10.453392028809 -9.252500534058 0.000000000000
vt 9.546602249146 -9.252500534058 0.000000000000
vt -11.579169273376 -9.275000572205 0.000000000000
vt -11.020835876465 -9.275000572205 0.000000000000
vt -11.020835876465 -9.252500534058 0.000000000000
vt -11.579169273376 -9.252500534058 0.000000000000
vt -9.453392028809 -9.275000572205 0.000000000000
vt -8.546602249146 -9.275000572205 0.000000000000
vt -8.546602249146 -9.252500534058 0.000000000000
vt -9.453392028809 -9.252500534058 0.000000000000
vt 12.020834922791 -9.275000572205 0.000000000000
vt 12.579168319702 -9.275000572205 0.000000000000
vt 12.579168319702 -9.252500534058 0.000000000000
vt 12.020834922791 -9.252500534058 0.000000000000
vt -1.198659420013 -30.743421554565 0.000000000000
vt -1.198659420013 -30.356580734253 0.000000000000
vt -2.001326084137 -30.356580734253 0.000000000000
vt -2.001326084137 -30.743421554565 0.000000000000
vt 2.198659420013 -30.743421554565 0.000000000000
vt 3.001326084137 -30.743421554565 0.000000000000
vt 3.001326084137 -30.356580734253 0.000000000000
vt 2.198659420013 -30.356580734253 0.000000000000
vt 2.198659420013 -2.850000143051 0.000000000000
vt 3.001326084137 -2.850000143051 0.000000000000
vt 3.001326084137 -2.775000095367 0.000000000000
vt 2.198659420013 -2.775000095367 0.000000000000
vt -30.743421554565 -2.850000143051 0.000000000000
vt -30.356580734253 -2.850000143051 0.000000000000
vt -30.356580734253 -2.775000095367 0.000000000000
vt -30.743421554565 -2.775000095367 0.000000000000
vt -2.001326084137 -2.850000143051 0.000000000000
vt -1.198659420013 -2.850000143051 0.000000000000
vt -1.198659420013 -2.775000095367 0.000000000000
vt -2.001326084137 -2.775000095367 0.000000000000
vt 31.356580734253 -2.850000143051 0.000000000000
vt 31.743421554565 -2.850000143051 0.000000000000
vt 31.743421554565 -2.775000095367 0.000000000000
vt 31.356580734253 -2.775000095367 0.000000000000
vt -0.810994505882 -0.771701335907 0.542445898056
vt 1.804839253426 -0.771702051163 0.542445898056
vt 1.791156530380 1.706633329391 0.542445898056
vt -0.810993909836 1.706634044647 0.542445898056
vt 3.134824514389 -0.772000789642 0.542445898056
vt 3.134824991226 1.706633090973 0.542445898056
vt 1.804840207100 3.124887466431 0.542445898056
vt -0.810993552208 3.124887943268 0.542445898056
vt 3.134825468063 3.124886989594 0.542445898056
vt -0.037495136261 -0.033178925514 -2.005284309387
vt 1.974684834480 -0.033178925514 -2.005284786224
vt 1.974684834480 2.015223026276 -2.005284786224
vt -0.037495136261 2.015223026276 -2.005284309387
vt 1.974685072899 -0.033178925514 -0.985076189041
vt 2.997750759125 -0.033178925514 -0.985306024551
vt 2.997750759125 2.015223026276 -0.985306024551
vt 1.974685072899 2.015223026276 -0.985076189041
vt -0.985306024551 -0.033178925514 2.997750759125
vt 0.921335577965 -0.033178925514 2.997751235962
vt 0.921335577965 2.015223026276 2.997751235962
vt -0.985306024551 2.015223026276 2.997750759125
vt 2.012300252914 -0.033178925514 2.997751474380
vt 2.012300252914 2.015223026276 2.997751474380
vt -1.997751474380 -0.033178925514 2.012300252914
vt -0.974685788155 -0.033178925514 2.012300491333
vt -0.974685788155 2.015223026276 2.012300491333
vt -1.997751474380 2.015223026276 2.012300252914
vt 1.037494182587 -0.033178925514 2.012300968170
vt 1.037494182587 2.015223026276 2.012300968170
vt -1.012300968170 -0.033178925514 -0.037494182587
vt 0.078663706779 -0.033178925514 -0.037494421005
vt 0.078663706779 2.015223026276 -0.037494421005
vt -1.012300968170 2.015223026276 -0.037494182587
vt 0.078663468361 -0.033178925514 -1.037494778633
vt 1.985075473785 -0.033178925514 -1.037495255470
vt 1.985075473785 2.015223026276 -1.037495255470
vt 0.078663468361 2.015223026276 -1.037494778633
vt -2.110994100571 1.706634283066 0.542445898056
vt -2.110994577408 -0.771701097488 0.542445898056
vt -1.037495493889 2.015223026276 -2.005284070969
vt -1.037495493889 -0.033178925514 -2.005284070969
vt 1.037494421005 2.015223026276 0.921336293221
vt 1.037494421005 -0.033178925514 0.921336293221
vt 2.037494659424 -0.033178925514 0.921336531639
vt 2.037494659424 2.015223026276 0.921336531639
vt -0.810994744301 -2.097972393036 0.542445898056
vt 1.804839015007 -2.097972869873 0.542445898056
vt -0.985076189041 -0.033178925514 1.974685072899
vt -0.985076189041 2.015223026276 1.974685072899
vt -2.005284786224 2.015223026276 1.974684834480
vt -2.005284786224 -0.033178925514 1.974684834480
vt 3.005284070969 -0.033178925514 -1.037495493889
vt 3.005284070969 2.015223026276 -1.037495493889
vt -2.110995054245 -2.097971916199 0.542445898056
# 230 texture coords

g LOD01_Building_2stores_DoubleHouse
usemtl roof_01
s off
f 1/1/1 2/2/1 3/3/1 
f 3/3/2 4/4/2 1/1/2 
f 5/5/3 1/6/3 4/7/3 
f 4/7/4 6/8/4 5/5/4 
f 7/9/5 5/10/5 6/11/5 
f 6/11/6 8/12/6 7/9/6 
f 9/13/7 7/14/7 8/15/7 
f 8/15/8 10/16/8 9/13/8 
f 11/17/9 9/13/9 10/16/9 
f 10/16/10 12/18/10 11/17/10 
f 13/19/11 11/17/11 12/18/11 
f 12/18/12 14/20/12 13/19/12 
f 15/21/13 13/22/13 14/23/13 
f 14/23/14 16/24/14 15/21/14 
f 17/25/15 15/21/15 16/24/15 
f 16/24/16 18/26/16 17/25/16 
f 19/27/17 17/25/17 18/26/17 
f 18/26/18 20/28/18 19/27/18 
f 21/29/19 19/30/19 20/31/19 
f 20/31/20 22/32/20 21/29/20 
f 23/33/21 21/34/21 22/35/21 
f 22/35/22 24/36/22 23/33/22 
f 25/37/23 23/38/23 24/39/23 
f 24/39/24 26/40/24 25/37/24 
f 27/41/25 25/37/25 26/40/25 
f 26/40/26 28/42/26 27/41/26 
f 29/43/27 27/41/27 28/42/27 
f 28/42/28 30/44/28 29/43/28 
f 31/45/29 29/46/29 30/47/29 
f 30/47/30 32/48/30 31/45/30 
f 2/2/31 31/45/31 32/48/31 
f 32/48/32 3/3/32 2/2/32 
f 32/49/33 30/50/33 28/51/33 
f 26/52/34 24/53/34 22/54/34 
f 22/54/35 20/55/35 18/56/35 
f 16/57/36 14/58/36 12/59/36 
f 18/56/37 16/57/37 12/59/37 
f 18/56/38 12/59/38 10/60/38 
f 22/54/39 18/56/39 10/60/39 
f 10/60/40 8/61/40 6/62/40 
f 22/54/41 10/60/41 6/62/41 
f 26/52/42 22/54/42 6/62/42 
f 28/51/43 26/52/43 6/62/43 
f 32/49/44 28/51/44 6/62/44 
f 3/63/45 32/49/45 6/62/45 
f 3/63/46 6/62/46 4/64/46 
f 2/65/47 1/66/47 5/67/47 
f 5/67/48 7/68/48 9/69/48 
f 11/70/49 13/71/49 15/72/49 
f 11/70/50 15/72/50 17/73/50 
f 9/69/51 11/70/51 17/73/51 
f 17/73/52 19/74/52 21/75/52 
f 9/69/53 17/73/53 21/75/53 
f 5/67/54 9/69/54 21/75/54 
f 21/75/55 23/76/55 25/77/55 
f 5/67/56 21/75/56 25/77/56 
f 5/67/57 25/77/57 27/78/57 
f 27/78/58 29/79/58 31/80/58 
f 5/67/59 27/78/59 31/80/59 
f 2/65/60 5/67/60 31/80/60 
usemtl concrete_01
s 2
f 33/81/61 34/82/61 35/83/61 
f 35/83/61 36/84/61 33/81/61 
s 4
f 37/85/62 38/86/62 39/87/62 
f 39/87/62 40/88/62 37/85/62 
s 8
f 33/89/63 36/90/63 38/91/63 
f 38/91/63 37/92/63 33/89/63 
s 16
f 36/93/64 35/94/64 39/95/64 
f 39/95/64 38/96/64 36/93/64 
s 32
f 35/97/65 34/98/65 40/99/65 
f 40/99/65 39/100/65 35/97/65 
s 64
f 34/101/66 33/102/66 37/103/66 
f 37/103/66 40/104/66 34/101/66 
s 2
f 41/105/61 42/106/61 43/107/61 
f 43/107/61 44/108/61 41/105/61 
s 4
f 45/109/62 46/110/62 47/111/62 
f 47/111/62 48/112/62 45/109/62 
s 8
f 41/113/67 44/114/67 46/115/67 
f 46/115/67 45/116/67 41/113/67 
s 16
f 44/117/68 43/118/68 47/119/68 
f 47/119/68 46/120/68 44/117/68 
s 32
f 43/121/69 42/122/69 48/123/69 
f 48/123/69 47/124/69 43/121/69 
s 64
f 42/125/70 41/126/70 45/127/70 
f 45/127/70 48/128/70 42/125/70 
s 2
f 49/129/61 50/130/61 51/131/61 
f 51/131/61 52/132/61 49/129/61 
s 4
f 53/133/62 54/134/62 55/135/62 
f 55/135/62 56/136/62 53/133/62 
s 8
f 49/137/69 52/138/69 54/139/69 
f 54/139/69 53/140/69 49/137/69 
s 16
f 52/141/70 51/142/70 55/143/70 
f 55/143/70 54/144/70 52/141/70 
s 32
f 51/145/67 50/146/67 56/147/67 
f 56/147/67 55/148/67 51/145/67 
s 64
f 50/149/71 49/150/71 53/151/71 
f 53/151/71 56/152/71 50/149/71 
s 2
f 57/153/61 58/154/61 59/155/61 
f 59/155/61 60/156/61 57/153/61 
s 4
f 61/157/62 62/158/62 63/159/62 
f 63/159/62 64/160/62 61/157/62 
s 8
f 57/161/69 60/162/69 62/163/69 
f 62/163/69 61/164/69 57/161/69 
s 16
f 60/165/72 59/166/72 63/167/72 
f 63/167/72 62/168/72 60/165/72 
s 32
f 59/169/67 58/170/67 64/171/67 
f 64/171/67 63/172/67 59/169/67 
s 64
f 58/173/73 57/174/73 61/175/73 
f 61/175/73 64/176/73 58/173/73 
s 1
f 65/177/62 66/178/62 67/179/62 
f 67/179/62 68/180/62 65/177/62 
f 66/178/62 69/181/62 70/182/62 
f 70/182/62 67/179/62 66/178/62 
f 68/180/62 67/179/62 71/183/62 
f 71/183/62 72/184/62 68/180/62 
f 67/179/62 70/182/62 73/185/62 
f 73/185/62 71/183/62 67/179/62 
usemtl LOD_window_09
s 2
f 74/186/67 75/187/67 76/188/67 
f 76/188/67 77/189/67 74/186/67 
f 78/190/74 79/191/75 69/192/74 
f 69/192/74 66/193/75 78/190/74 
s 4
f 79/194/71 80/195/71 70/196/71 
f 70/196/71 69/197/71 79/194/71 
f 80/195/71 81/198/71 73/199/71 
f 73/199/71 70/196/71 80/195/71 
s 2
f 81/200/69 82/201/69 71/202/69 
f 71/202/69 73/203/69 81/200/69 
f 82/201/69 83/204/69 72/205/69 
f 72/205/69 71/202/69 82/201/69 
s 4
f 83/206/70 84/207/70 68/208/70 
f 68/208/70 72/209/70 83/206/70 
f 85/210/70 86/211/70 87/212/70 
f 87/212/70 88/213/70 85/210/70 
usemtl concrete_01
s 1
f 65/177/62 68/180/62 88/214/62 
f 88/214/62 87/215/62 65/177/62 
usemtl LOD_window_09
s 2
f 74/186/67 77/189/67 89/216/67 
f 89/216/67 90/217/67 74/186/67 
f 68/218/69 84/219/69 85/220/69 
f 85/220/69 88/221/69 68/218/69 
usemtl concrete_01
s 1
f 66/178/62 65/177/62 77/222/62 
f 77/222/62 76/223/62 66/178/62 
usemtl LOD_window_09
s 4
f 78/224/71 66/225/71 76/226/71 
f 76/226/71 75/227/71 78/224/71 
f 87/212/70 86/211/70 90/228/70 
f 90/228/70 89/229/70 87/212/70 
usemtl concrete_01
s 1
f 65/177/62 87/215/62 89/230/62 
f 89/230/62 77/222/62 65/177/62 
# 146 faces

