# 3ds Max Wavefront OBJ Exporter v0.97b - (c)2007 guruware
# File Created: 23.03.2018 21:26:47

mtllib LOD01_Builiding_ParisWhite.mtl

#
# object LOD01_Builiding_ParisWhite
#

v  1.741692781448 6.683659553528 -1.623544692993
v  1.753425359726 6.683252334595 1.794132590294
v  1.952871322632 5.783255100250 2.033309459686
v  1.948777198792 5.783524513245 -1.866117000580
v  -1.731032371521 6.683265686035 1.792797446251
v  -1.741395354271 6.683654785156 -1.628538370132
v  -1.947263956070 5.783390998840 -1.864277362823
v  -1.944850683212 5.783254146576 2.035892248154
v  0.961850523949 7.869265556335 0.092229485512
v  -0.944903969765 7.869271278381 0.085669517517
v  -1.042029380798 7.114275932312 -1.109426140785
v  -1.233490228653 7.114275932312 -1.109426140785
v  -1.330491304398 7.114275932312 -1.454218506813
v  -0.945028066635 7.114275932312 -1.454218506813
v  -1.042029500008 7.114275932312 1.123598694801
v  -1.233490228653 7.114275932312 1.123598694801
v  -0.945028305054 7.114275932312 1.468391060829
v  -1.330491542816 7.114275932312 1.468390941620
v  -1.014276862144 8.146615982056 -1.081673383713
v  -0.917275071144 8.146615982056 -1.481971263885
v  -1.358244419098 8.146615982056 -1.481971263885
v  -1.261242628098 8.146615982056 -1.081673383713
v  -1.014276981354 8.146615982056 1.095845818520
v  -1.261242628098 8.146615982056 1.095845818520
v  -0.917275190353 8.146615982056 1.496143817902
v  -1.358244657516 8.146615982056 1.496143817902
v  -1.330491304398 8.087328910828 -1.109426140785
v  -1.330491304398 8.087328910828 -1.454218387604
v  -1.330491304398 7.114275932312 -1.109426140785
v  -1.233489751816 8.087328910828 1.123598694801
v  -1.233489513397 8.087328910828 -1.109426140785
v  -1.330491542816 8.087328910828 1.468390822411
v  -1.330491542816 8.087328910828 1.123598694801
v  -1.330491542816 7.114275932312 1.123598694801
v  -1.358244419098 8.146615982056 -1.081673383713
v  -1.358244419098 8.087328910828 -1.481971263885
v  -1.358244419098 8.087328910828 -1.081673383713
v  -1.261242628098 8.087328910828 -1.081673383713
v  -1.261242628098 8.087328910828 1.095845818520
v  -1.358244419098 8.146615982056 1.095845818520
v  -1.358244419098 8.087328910828 1.095845818520
v  -1.358244657516 8.087328910828 1.496143817902
v  -0.945028305054 8.087328910828 1.468390941620
v  -0.917275190353 8.087328910828 1.496143817902
v  -0.945028185844 8.087328910828 1.123598694801
v  -0.945028185844 7.114275932312 1.123598694801
v  -1.042029976845 8.087328910828 -1.109426140785
v  -1.042029976845 8.087328910828 1.123598694801
v  -0.945028066635 8.087328910828 -1.454218387604
v  -0.945028185844 8.087328910828 -1.109426140785
v  -0.945028185844 7.114275932312 -1.109426140785
v  -0.917275190353 8.146615982056 1.095845818520
v  -0.917275190353 8.087328910828 1.095845818520
v  -1.014276981354 8.087328910828 1.095845818520
v  -1.014276862144 8.087328910828 -1.081673383713
v  -0.917275071144 8.146615982056 -1.081673383713
v  -0.917275071144 8.087328910828 -1.081673383713
v  -0.917275071144 8.087328910828 -1.481971263885
v  1.125619173050 6.762684822083 -1.007553577423
v  0.838480532169 6.762684822083 -1.007553577423
v  0.838480532169 6.762684822083 -1.545365810394
v  1.125619173050 6.762684822083 -1.545365929604
v  1.125619173050 7.710461616516 -1.007553577423
v  1.125619173050 7.710461616516 -1.545365929604
v  0.838480532169 7.710461616516 -1.545365810394
v  0.838480532169 7.710461616516 -1.007553577423
v  0.838480532169 7.575888633728 -1.007553577423
v  0.838480532169 7.575888633728 -1.545365810394
v  0.814804136753 7.710461616516 -0.983877062798
v  0.814804255962 7.710461616516 -1.569042205811
v  0.814804255962 7.575888633728 -1.569042205811
v  0.814804136753 7.575888633728 -0.983877062798
v  1.125619173050 7.575888633728 -1.007553577423
v  1.149295568466 7.710461616516 -0.983877062798
v  1.149295568466 7.575888633728 -0.983877062798
v  1.125619173050 7.575888633728 -1.545365929604
v  1.149295568466 7.710461616516 -1.569042205811
v  1.149295568466 7.575888633728 -1.569042205811
v  -1.947134256363 0.037648558617 -1.866702198982
v  -1.950157761574 0.037376642227 2.035539388657
v  1.949837803841 0.037376880646 2.035501241684
v  1.952858924866 0.037648439407 -1.866740703583
v  -1.944863677025 4.486256599426 2.035887479782
v  1.952725768089 4.486394882202 2.035748481750
v  1.958019852638 5.198543548584 2.036096572876
v  -1.939569592476 5.198405265808 2.036235570908
# 86 vertices

vn 0.974759697914 0.223252698779 -0.001320972806
vn 0.976495027542 0.215514361858 -0.003326540813
vn 0.976123571396 0.217196851969 -0.002890823875
vn 0.974482715130 0.224460318685 -0.001007630373
vn -0.973175287247 0.230062976480 0.000930629321
vn -0.975001275539 0.222179308534 0.002978477161
vn -0.974610924721 0.223890960217 0.002534228377
vn -0.972883343697 0.231295466423 0.000610098185
vn -0.001012741821 0.820978522301 0.570958137512
vn -0.000215956825 0.820387601852 0.571807742119
vn -0.000808358658 0.820827066898 0.571176171303
vn -0.001958376495 0.821678042412 0.569948554039
vn 0.001335702487 0.822653532028 -0.568541467190
vn 0.000814781699 0.822271287441 -0.569095134735
vn 0.001204363536 0.822557210922 -0.568681120872
vn 0.001956200460 0.823108077049 -0.567881405354
vn 0.833603680134 0.552355945110 -0.002795872977
vn -0.831801950932 0.555066466331 0.002582595218
vn -0.831802010536 0.555066466331 0.002582595218
vn 0.000000000000 -1.000000000000 -0.000000000000
vn 0.000000000000 1.000000000000 -0.000000000000
vn -1.000000000000 0.000000000000 -0.000000000000
vn -1.000000000000 0.000000554144 -0.000000027933
vn -1.000000000000 0.000000735064 -0.000000106769
vn -1.000000000000 0.000000670962 -0.000000078837
vn -1.000000000000 0.000000490042 -0.000000000000
vn -1.000000000000 0.000000000000 -0.000000595603
vn -0.000000309262 0.000000122511 1.000000000000
vn 0.000000000000 0.000000000000 1.000000000000
vn 1.000000000000 0.000000000000 0.000000345742
vn 1.000000000000 0.000000580502 0.000000039418
vn 1.000000000000 0.000000490042 -0.000000000000
vn 1.000000000000 0.000000522093 0.000000013966
vn 1.000000000000 0.000000612553 0.000000053385
vn 1.000000000000 -0.000000000000 0.000000345742
vn 1.000000000000 0.000000000000 -0.000000000000
vn 1.000000000000 0.000000000000 0.000000054745
vn 0.000000000000 0.000000122511 -1.000000000000
vn 0.000000000000 0.000000000000 -1.000000000000
vn -1.000000000000 0.000000000000 -0.000000203719
vn -0.000000415163 0.000000000000 -1.000000000000
vn -0.999999821186 0.000564329792 -0.000245693809
vn -0.999999284744 0.000923679327 -0.000774747459
vn -0.999999940395 0.000336658442 0.000089496032
vn -0.999999821186 -0.000022834332 0.000618760125
vn 0.999999940395 0.000240098903 0.000081770944
vn 0.999999463558 0.000710290391 0.000774250424
vn 0.999999940395 -0.000057915760 -0.000357133220
vn 0.999999284744 -0.000528347038 -0.001049965504
vn 0.000500458409 0.257506966591 0.966276288033
vn -0.000368907204 0.260839194059 0.965382218361
vn -0.000183837547 0.260130107403 0.965573549271
vn 0.000640325481 0.256970554590 0.966419041157
vn 0.000035672605 -0.000283100439 0.999999940395
vn 0.000029757752 -0.000279013097 0.999999940395
vn 0.000035586632 0.002137839096 0.999997735023
vn 0.000319701765 0.000249305100 0.999999940395
vn 0.000094704948 0.004372831434 0.999990463257
vn 0.000662640145 0.000593011442 0.999999582767
vn 0.000021636695 -0.000065978282 1.000000000000
vn 0.000009781290 -0.000055578181 1.000000000000
vn -0.000209601931 0.254395306110 -0.967100322247
vn 0.001383835217 0.260498315096 -0.965473294258
vn 0.001045971876 0.259205162525 -0.965821743011
vn -0.000465452555 0.253414362669 -0.967357695103
vn -0.000185257712 0.000302974368 -0.999999940395
vn -0.000009872978 0.000422022858 -0.999999940395
vn -0.000296678336 0.000227343713 -0.999999940395
vn -0.000472184969 0.000108212509 -0.999999880791
# 69 vertex normals

vt 2.394231319427 0.999492824078 2.427782535553
vt -1.395161390305 0.999210894108 2.435330629349
vt -1.662998676300 0.000808119774 2.653685569763
vt 2.664423704147 0.000811934471 2.653747797012
vt 2.393659353256 0.999217271805 -1.431151866913
vt -1.403845787048 0.999500453472 -1.435659885406
vt -1.664502143860 0.000808715820 -1.673820972443
vt 2.663419246674 0.000506520271 -1.668417453766
vt -0.654740333557 0.999271869659 -0.940357565880
vt 1.661629080772 0.999277830124 -0.941482663155
vt 1.135412454605 0.490203380585 0.492054849863
vt -0.132144212723 0.490200996399 0.497580647469
vt 1.653829932213 0.999102830887 1.937276005745
vt -0.661628961563 0.999104976654 1.941482782364
vt -0.640890598297 0.493005752563 1.971868872643
vt 1.637560963631 0.493180513382 1.961986780167
vt 0.493711680174 1.002024412155 1.305114030838
vt 1.640890598297 0.493178606033 -0.971868753433
vt -0.639999985695 0.493011474609 -0.963140368462
vt 0.498085260391 1.002026796341 -0.300972878933
vt 0.892088592052 0.188656404614 0.000499546528
vt 0.892088592052 0.063771381974 0.000499546528
vt 1.000157356262 0.000499658345 0.000499546528
vt 1.000157356262 0.251928240061 0.000499546528
vt 0.761146366596 0.188656345010 0.000499546528
vt 0.761146366596 0.063771322370 0.000499546528
vt 0.653077483177 0.251928061247 0.000499546528
vt 0.653077542782 0.000499485817 0.000499546528
vt 0.701127886772 0.392408758402 0.999500274658
vt 0.546609759331 0.430721551180 0.999500274658
vt 0.546609699726 0.256551623344 0.999500274658
vt 0.701127827168 0.294864356518 0.999500274658
vt 0.840964615345 0.392408698797 0.999500274658
vt 0.840964615345 0.294864326715 0.999500274658
vt 0.995482742786 0.430721461773 0.999500274658
vt 0.995482683182 0.256551533937 0.999500274658
vt 0.761146366596 0.251928240061 0.000499993563
vt 0.653077483177 0.251928240061 0.000500202179
vt 0.653077483177 0.000499493326 0.000500202179
vt 0.761146366596 0.000499493326 0.000499993563
vt 0.892088592052 0.251928240061 0.251897275448
vt 0.761146366596 0.251928240061 0.251897513866
vt 0.761146366596 0.000499493326 0.251897513866
vt 0.892088592052 0.000499493326 0.251897275448
vt 1.000157356262 0.251928240061 0.000499516726
vt 0.892088532448 0.251928240061 0.000499725342
vt 0.892088532448 0.000499493326 0.000499725342
vt 1.000157356262 0.000499493326 0.000499516726
vt 0.701127827168 0.430721521378 0.000499963760
vt 0.546609699726 0.430721521378 0.000500172377
vt 0.546609699726 0.256551474333 0.000500172377
vt 0.701127827168 0.256551474333 0.000499963760
vt 0.840964615345 0.430721521378 0.220253348351
vt 0.701127827168 0.430721521378 0.220253556967
vt 0.701127827168 0.256551474333 0.220253556967
vt 0.840964615345 0.256551474333 0.220253348351
vt 0.995482683182 0.430721521378 0.000499546528
vt 0.840964615345 0.430721521378 0.000499755144
vt 0.840964615345 0.256551474333 0.000499755144
vt 0.995482683182 0.256551474333 0.000499546528
vt 1.000157117844 0.251928240061 0.999500513077
vt 0.653077542782 0.251928240061 0.999500393867
vt 0.653077542782 0.000499493326 0.999500393867
vt 1.000157117844 0.000499493326 0.999500513077
vt 0.995482504368 0.430721521378 0.999500513077
vt 0.546609699726 0.430721521378 0.999500393867
vt 0.546609699726 0.256551474333 0.999500393867
vt 0.995482504368 0.256551474333 0.999500513077
vt 0.761146366596 0.251928240061 0.999500036240
vt 0.653077483177 0.251928240061 0.999499797821
vt 0.653077483177 0.000499493326 0.999499797821
vt 0.761146366596 0.000499493326 0.999500036240
vt 0.892088592052 0.251928240061 0.748102724552
vt 0.761146366596 0.251928240061 0.748102486134
vt 0.761146366596 0.000499493326 0.748102486134
vt 0.892088592052 0.000499493326 0.748102724552
vt 1.000157356262 0.251928240061 0.999500513077
vt 0.892088592052 0.251928240061 0.999500274658
vt 0.892088532448 0.000499493326 0.999500274658
vt 1.000157356262 0.000499493326 0.999500513077
vt 0.701127827168 0.430721521378 0.999500155449
vt 0.546609699726 0.430721521378 0.999499917030
vt 0.546609699726 0.256551474333 0.999499917030
vt 0.701127827168 0.256551474333 0.999500155449
vt 0.840964615345 0.430721521378 0.779746770859
vt 0.701127827168 0.430721521378 0.779746532440
vt 0.701127827168 0.256551474333 0.779746532440
vt 0.840964615345 0.256551474333 0.779746770859
vt 0.995482683182 0.430721521378 0.999500513077
vt 0.840964615345 0.430721521378 0.999500334263
vt 0.840964615345 0.256551474333 0.999500334263
vt 0.995482683182 0.256551474333 0.999500513077
vt 1.000157117844 0.251928240061 0.000499486923
vt 0.653077483177 0.251928240061 0.000499546528
vt 0.653077483177 0.000499493326 0.000499546528
vt 1.000157117844 0.000499493326 0.000499486923
vt 0.995482385159 0.430721521378 0.000499457121
vt 0.546609699726 0.430721521378 0.000499576330
vt 0.546609699726 0.256551474333 0.000499576330
vt 0.995482385159 0.256551474333 0.000499457121
vt 0.892088532448 0.251928210258 0.000499546528
vt 0.892088592052 0.000499605900 0.000499546528
vt 0.761146366596 0.251928150654 0.000499546528
vt 0.761146426201 0.000499538379 0.000499546528
vt 0.701127827168 0.256551593542 0.999500274658
vt 0.701127886772 0.430721521378 0.999500274658
vt 0.840964615345 0.256551563740 0.999500274658
vt 0.840964615345 0.430721491575 0.999500274658
vt 0.653077661991 0.251928240061 0.311554193497
vt 0.653077661991 0.000499493326 0.311554193497
vt 0.740420043468 0.000499493326 0.311554223299
vt 0.740420043468 0.251928240061 0.311554223299
vt 1.000157356262 0.000499493326 0.688445687294
vt 1.000157356262 0.251928240061 0.688445687294
vt 0.912815034389 0.251928240061 0.688445746899
vt 0.912815034389 0.000499493326 0.688445746899
vt 0.546609938145 0.430721521378 0.344391316175
vt 0.546609938145 0.256551474333 0.344391316175
vt 0.645349979401 0.256551474333 0.344391345978
vt 0.645349979401 0.430721521378 0.344391345978
vt 0.995482623577 0.256551474333 0.655608654022
vt 0.995482623577 0.430721521378 0.655608654022
vt 0.896742522717 0.430721521378 0.655608654022
vt 0.896742522717 0.256551474333 0.655608654022
vt 0.653077661991 0.251928240061 0.688445806503
vt 0.653077661991 0.000499493326 0.688445806503
vt 0.740420043468 0.000499493326 0.688445806503
vt 0.740420043468 0.251928240061 0.688445806503
vt 1.000157356262 0.000499493326 0.311554282904
vt 1.000157356262 0.251928240061 0.311554253101
vt 0.912815034389 0.251928240061 0.311554223299
vt 0.912815034389 0.000499493326 0.311554253101
vt 0.546609878540 0.430721521378 0.655608713627
vt 0.546609878540 0.256551474333 0.655608654022
vt 0.645349979401 0.256551474333 0.655608654022
vt 0.645349979401 0.430721521378 0.655608654022
vt 0.995482623577 0.256551474333 0.344391375780
vt 0.995482623577 0.430721521378 0.344391405582
vt 0.896742582321 0.430721521378 0.344391375780
vt 0.896742582321 0.256551474333 0.344391345978
vt 0.984769940376 0.267513215542 0.000499248505
vt 0.851677417755 0.267513185740 0.000499248505
vt 0.840964615345 0.256551593542 0.000499248505
vt 0.995482742786 0.256551623344 0.000499248505
vt 0.851677417755 0.305825948715 0.000499248505
vt 0.840964615345 0.294864356518 0.000499248505
vt 0.690415024757 0.305825918913 0.000499248505
vt 0.701127827168 0.294864326715 0.000499248505
vt 0.690415084362 0.267513155937 0.000499248505
vt 0.701127827168 0.256551563740 0.000499248505
vt 0.557322561741 0.267513126135 0.000499248505
vt 0.546609759331 0.256551533937 0.000499248505
vt 0.557322502136 0.419759839773 0.000499248505
vt 0.546609699726 0.430721461773 0.000499248505
vt 0.690415024757 0.419759899378 0.000499248505
vt 0.701127827168 0.430721491575 0.000499248505
vt 0.690415024757 0.381447136402 0.000499248505
vt 0.701127827168 0.392408698797 0.000499248505
vt 0.851677417755 0.381447166204 0.000499248505
vt 0.840964615345 0.392408758402 0.000499248505
vt 0.851677417755 0.419759929180 0.000499248505
vt 0.840964615345 0.430721521378 0.000499248505
vt 0.984769940376 0.419759958982 0.000499248505
vt 0.995482683182 0.430721551180 0.000499248505
vt 0.705537557602 0.003147240495 -0.351344287395
vt 0.844449102879 0.003147287527 -0.351344287395
vt 0.844449043274 0.252324879169 -0.351344287395
vt 0.705537497997 0.252324879169 -0.351344287395
vt 0.984253883362 0.418886691332 0.628164052963
vt 0.716612994671 0.418886750937 0.628164052963
vt 0.716612935066 0.269679099321 0.628164052963
vt 0.984253823757 0.269679009914 0.628164052963
vt 0.562645256519 0.252324879169 0.221538484097
vt 0.562645256519 0.003147240495 0.221538722515
vt 0.987341463566 0.003147240495 0.221538722515
vt 0.987341582775 0.252324879169 0.221538484097
vt 0.997538268566 0.382027715445 0.201581358910
vt 0.703328549862 0.382027715445 0.201581597328
vt 0.703328549862 0.306538045406 0.201581597328
vt 0.997538268566 0.306538045406 0.201581358910
vt 0.562645256519 0.197191759944 0.999500513077
vt 0.562645256519 0.058280277997 0.999500393867
vt 0.987341463566 0.058280277997 0.999500393867
vt 0.987341463566 0.197191759944 0.999500513077
vt 0.938318789005 0.382027715445 0.999500513077
vt 0.762547969818 0.382027715445 0.999500393867
vt 0.762547969818 0.306538045406 0.999500393867
vt 0.938318789005 0.306538045406 0.999500513077
vt 0.562645256519 0.252324879169 0.778461515903
vt 0.562645256519 0.003147240495 0.778461277485
vt 0.987341463566 0.003147240495 0.778461277485
vt 0.987341582775 0.252324879169 0.778461515903
vt 0.997538268566 0.382027715445 0.798418641090
vt 0.703328549862 0.382027715445 0.798418402672
vt 0.703328549862 0.306538045406 0.798418402672
vt 0.997538268566 0.306538045406 0.798418641090
vt 0.562645256519 0.197191759944 0.000499516726
vt 0.562645256519 0.058280277997 0.000499635935
vt 0.987341463566 0.058280277997 0.000499635935
vt 0.987341463566 0.197191759944 0.000499516726
vt 0.938318789005 0.382027715445 0.000499516726
vt 0.762547969818 0.382027715445 0.000499635935
vt 0.762547969818 0.306538045406 0.000499635935
vt 0.938318789005 0.306538045406 0.000499516726
vt 0.703328549862 0.256397485733 0.628164052963
vt 0.997538268566 0.256397426128 0.628164052963
vt 0.703328609467 0.432168364525 0.628164052963
vt 0.997538268566 0.432168275118 0.628164052963
vt 0.984253883362 0.269679099321 0.371835827827
vt 0.716612994671 0.269679009914 0.371835827827
vt 0.703328609467 0.256397426128 0.371835827827
vt 0.997538268566 0.256397485733 0.371835827827
vt 0.716612935066 0.418886691332 0.371835827827
vt 0.703328549862 0.432168275118 0.371835827827
vt 0.984253823757 0.418886750937 0.371835827827
vt 0.997538268566 0.432168364525 0.371835827827
vt 0.000509738922 0.002855211496 0.999500274658
vt 0.999500751495 0.002855211496 0.999500274658
vt 0.999500751495 0.894820272923 0.999500274658
vt 0.000509738922 0.894820272923 0.999499797821
vt 0.000508785248 0.002855271101 0.000499725342
vt 0.999499797821 0.002855271101 0.000500202179
vt 0.999499797821 0.894820332527 0.000499725342
vt 0.000508785248 0.894820332527 0.000499248505
vt 0.001998424530 0.812578558922 0.902832031250
vt 3.997508049011 0.812578558922 1.000000000000
vt 3.998001575470 0.999074220657 0.620117187500
vt 0.007422089577 0.999001860619 0.000488281250
vt 0.007405281067 0.816933691502 0.000488281250
vt 3.998001813889 0.816963613033 0.047607421875
vt 3.992730379105 0.943493783474 0.999450683594
vt 0.001998186111 0.943493545055 0.117736816406
vt 0.001998066902 0.156837254763 0.902832031250
vt 3.995045185089 0.156837284565 1.000000000000
vt 3.998002052307 0.992316484451 0.358886718750
vt 0.007418394089 0.992290496826 0.000488281250
vt 0.000999093056 0.000499606133 0.999511718750
vt 1.998934507370 0.000499606133 0.984252929688
vt 1.999000906944 0.999477207661 0.000488281250
vt 0.003090143204 0.999500453472 0.746459960938
# 240 texture coords

g LOD01_Builiding_ParisWhite
usemtl BL_RoofClayTile
s 1
f 1/1/1 2/2/2 3/3/3 
f 3/3/3 4/4/4 1/1/1 
f 5/5/5 6/6/6 7/7/7 
f 7/7/7 8/8/8 5/5/5 
usemtl BL_RoofZinc
s 2
f 5/9/9 2/10/10 9/11/11 
f 9/11/11 10/12/12 5/9/9 
s 4
f 1/13/13 6/14/14 10/12/15 
f 10/12/15 9/11/16 1/13/13 
s 8
f 2/15/17 1/16/17 9/17/17 
f 6/18/18 5/19/19 10/20/19 
s 1
f 11/21/20 12/22/20 13/23/20 
f 13/23/20 14/24/20 11/21/20 
f 15/25/20 16/26/20 12/22/20 
f 12/22/20 11/21/20 15/25/20 
f 17/27/20 18/28/20 16/26/20 
f 16/26/20 15/25/20 17/27/20 
f 19/29/21 20/30/21 21/31/21 
f 21/31/21 22/32/21 19/29/21 
f 23/33/21 19/29/21 22/32/21 
f 22/32/21 24/34/21 23/33/21 
f 25/35/21 23/33/21 24/34/21 
f 24/34/21 26/36/21 25/35/21 
s 2
f 27/37/22 28/38/22 13/39/22 
f 13/39/22 29/40/22 27/37/22 
f 30/41/23 31/42/24 12/43/25 
f 12/43/25 16/44/26 30/41/23 
f 32/45/22 33/46/22 34/47/22 
f 34/47/22 18/48/22 32/45/22 
f 35/49/22 21/50/22 36/51/22 
f 36/51/22 37/52/22 35/49/22 
f 24/53/22 22/54/22 38/55/22 
f 38/55/22 39/56/22 24/53/22 
f 26/57/27 40/58/27 41/59/27 
f 41/59/27 42/60/27 26/57/27 
s 4
f 43/61/28 32/62/28 18/63/28 
f 18/63/28 17/64/28 43/61/28 
f 25/65/29 26/66/29 42/67/29 
f 42/67/29 44/68/29 25/65/29 
s 2
f 45/69/30 43/70/30 17/71/30 
f 17/71/30 46/72/30 45/69/30 
f 47/73/31 48/74/32 15/75/33 
f 15/75/33 11/76/34 47/73/31 
f 49/77/35 50/78/30 51/79/35 
f 51/79/35 14/80/35 49/77/35 
f 52/81/36 25/82/36 44/83/36 
f 44/83/36 53/84/36 52/81/36 
f 19/85/37 23/86/37 54/87/37 
f 54/87/37 55/88/37 19/85/37 
f 20/89/36 56/90/36 57/91/36 
f 57/91/36 58/92/36 20/89/36 
s 4
f 28/93/38 49/94/38 14/95/38 
f 14/95/38 13/96/38 28/93/38 
f 21/97/39 20/98/39 58/99/39 
f 58/99/39 36/100/39 21/97/39 
s 1
f 14/24/20 51/101/20 11/21/20 
f 13/23/20 12/22/20 29/102/20 
f 17/27/20 15/25/20 46/103/20 
f 18/28/20 34/104/20 16/26/20 
f 21/31/21 35/105/21 22/32/21 
f 20/30/21 19/29/21 56/106/21 
f 26/36/21 24/34/21 40/107/21 
f 25/35/21 52/108/21 23/33/21 
s 4
f 27/109/29 29/110/29 12/111/29 
f 12/111/29 31/112/29 27/109/29 
f 34/113/39 33/114/39 30/115/39 
f 30/115/39 16/116/39 34/113/39 
f 35/117/29 37/118/29 38/119/29 
f 38/119/29 22/120/29 35/117/29 
f 41/121/39 40/122/39 24/123/39 
f 24/123/39 39/124/39 41/121/39 
f 45/125/39 46/126/39 15/127/39 
f 15/127/39 48/128/39 45/125/39 
f 51/129/29 50/130/29 47/131/29 
f 47/131/29 11/132/29 51/129/29 
f 52/133/39 53/134/39 54/135/39 
f 54/135/39 23/136/39 52/133/39 
f 57/137/29 56/138/29 19/139/29 
f 19/139/29 55/140/29 57/137/29 
s 1
f 28/141/20 27/142/20 37/143/20 
f 37/143/20 36/144/20 28/141/20 
f 27/142/20 31/145/20 38/146/20 
f 38/146/20 37/143/20 27/142/20 
f 31/145/20 30/147/20 39/148/20 
f 39/148/20 38/146/20 31/145/20 
f 30/147/20 33/149/20 41/150/20 
f 41/150/20 39/148/20 30/147/20 
f 33/149/20 32/151/20 42/152/20 
f 42/152/20 41/150/20 33/149/20 
f 32/151/20 43/153/20 44/154/20 
f 44/154/20 42/152/20 32/151/20 
f 43/153/20 45/155/20 53/156/20 
f 53/156/20 44/154/20 43/153/20 
f 45/155/20 48/157/20 54/158/20 
f 54/158/20 53/156/20 45/155/20 
f 48/157/20 47/159/20 55/160/20 
f 55/160/20 54/158/20 48/157/20 
f 47/159/20 50/161/20 57/162/20 
f 57/162/20 55/160/20 47/159/20 
f 50/161/20 49/163/20 58/164/20 
f 58/164/20 57/162/20 50/161/20 
f 49/163/20 28/141/20 36/144/20 
f 36/144/20 58/164/20 49/163/20 
f 59/165/20 60/166/20 61/167/20 
f 61/167/20 62/168/20 59/165/20 
f 63/169/21 64/170/21 65/171/21 
f 65/171/21 66/172/21 63/169/21 
s 2
f 67/173/22 68/174/22 61/175/22 
f 61/175/22 60/176/22 67/173/22 
f 69/177/40 70/178/40 71/179/40 
f 71/179/40 72/180/40 69/177/40 
s 4
f 73/181/29 67/182/29 60/183/29 
f 60/183/29 59/184/29 73/181/29 
f 74/185/29 69/186/29 72/187/29 
f 72/187/29 75/188/29 74/185/29 
s 2
f 76/189/36 73/190/36 59/191/36 
f 59/191/36 62/192/36 76/189/36 
f 77/193/36 74/194/36 75/195/36 
f 75/195/36 78/196/36 77/193/36 
s 4
f 68/197/41 76/198/41 62/199/41 
f 62/199/41 61/200/41 68/197/41 
f 70/201/39 77/202/39 78/203/39 
f 78/203/39 71/204/39 70/201/39 
s 1
f 66/172/21 65/171/21 70/205/21 
f 70/205/21 69/206/21 66/172/21 
f 65/171/21 64/170/21 77/207/21 
f 77/207/21 70/205/21 65/171/21 
f 64/170/21 63/169/21 74/208/21 
f 74/208/21 77/207/21 64/170/21 
f 63/169/21 66/172/21 69/206/21 
f 69/206/21 74/208/21 63/169/21 
f 68/209/20 67/210/20 72/211/20 
f 72/211/20 71/212/20 68/209/20 
f 67/210/20 73/213/20 75/214/20 
f 75/214/20 72/211/20 67/210/20 
f 73/213/20 76/215/20 78/216/20 
f 78/216/20 75/214/20 73/213/20 
f 76/215/20 68/209/20 71/212/20 
f 71/212/20 78/216/20 76/215/20 
usemtl BL_WhiteWall
s 2
f 79/217/42 80/218/43 8/219/44 
f 79/217/42 8/219/44 7/220/45 
f 81/221/46 82/222/47 4/223/48 
f 81/221/46 4/223/48 3/224/49 
usemtl BL_RoofClayTile
s 4
f 2/5/50 5/6/51 8/7/52 
f 8/7/52 3/8/53 2/5/50 
usemtl LOD_ParisWhite
s 8
f 83/225/54 84/226/55 85/227/56 
f 83/225/54 85/227/56 86/228/57 
f 86/229/57 85/230/56 3/231/58 
f 86/229/57 3/231/58 8/232/59 
f 80/233/60 81/234/61 84/235/55 
f 80/233/60 84/235/55 83/236/54 
usemtl BL_RoofClayTile
s 16
f 6/5/62 1/6/63 4/7/64 
f 4/7/64 7/8/65 6/5/62 
usemtl LOD_ParisHumble
s 4
f 82/237/66 79/238/67 7/239/68 
f 82/237/66 7/239/68 4/240/69 
# 154 faces

