# 3ds Max Wavefront OBJ Exporter v0.97b - (c)2007 guruware
# File Created: 13.03.2018 16:35:23

mtllib LOD01_Building_3Stores_StockExpo.mtl

#
# object LOD01_Building_3Stores_StockExpo
#

v  -0.334657043219 4.131993293762 -0.656580209732
v  -0.334657043219 4.131993293762 -0.815935432911
v  -0.111559860408 4.131993293762 -0.815935432911
v  -0.111559860408 4.131993293762 -0.656580209732
v  -0.334657043219 5.337853908539 -0.656580209732
v  -0.111559860408 5.337853908539 -0.656580209732
v  -0.111559860408 5.337853908539 -0.815935432911
v  -0.334657043219 5.337853908539 -0.815935432911
v  4.528347969055 1.351445317268 1.277980327606
v  4.528275489807 1.351444840431 -1.302026271820
v  4.528275489807 4.119117259979 -1.302026271820
v  4.528347969055 4.119117736816 1.277980327606
v  3.273984432220 4.119840145111 1.277987480164
v  3.274034023285 4.119121551514 2.590387344360
v  3.274034023285 1.351448893547 2.590387344360
v  3.273984432220 1.349250912666 1.277987480164
v  3.274038553238 4.119836807251 -1.302036285400
v  3.274038553238 1.349247336388 -1.302036285400
v  3.273957729340 4.119117259979 -2.557799339294
v  3.273956298828 1.351444363594 -2.557799339294
v  -4.523467540741 1.351442694664 -1.301916599274
v  -4.523396015167 1.351443171501 1.278086185455
v  -4.523396015167 4.119115829468 1.278086185455
v  -4.523467540741 4.119115352631 -1.301916122437
v  -3.224367141724 4.119115352631 -2.557710647583
v  -3.224367141724 1.351442933083 -2.557710647583
v  -3.224160671234 4.119838237762 -1.302075386047
v  -3.224160671234 1.349249005318 -1.302075386047
v  -3.224078655243 1.349247336388 1.277811050415
v  -3.224078655243 4.119836807251 1.277811050415
v  -3.224202632904 1.351444840431 2.590373992920
v  -3.224202632904 4.119117259979 2.590373992920
v  -4.625918388367 2.624671220779 2.657278060913
v  -4.625918388367 2.624671220779 -2.657423973083
v  4.625917434692 2.624671220779 -2.657423973083
v  4.625917434692 2.624671220779 2.657278060913
v  -4.625918388367 2.723094940186 2.657278060913
v  4.625917434692 2.723094940186 2.657278060913
v  4.625917434692 2.723094940186 -2.657423973083
v  -4.625918388367 2.723094940186 -2.657423973083
v  -4.518923759460 1.297721862793 2.622028112411
v  4.655699729919 1.297721862793 2.622028112411
v  4.655699729919 1.297721862793 -2.758668661118
v  -4.518923759460 1.297721862793 -2.758668661118
v  -4.518923759460 0.000000000000 2.622028112411
v  4.655699729919 0.000000000000 2.622028112411
v  4.655699729919 0.000000000000 -2.758668661118
v  -4.518923759460 0.000000000000 -2.758668661118
# 48 vertices

vn 0.000000000000 -1.000000000000 -0.000000000000
vn 0.000000000000 1.000000000000 -0.000000000000
vn 0.000000000000 0.000000000000 1.000000000000
vn 1.000000000000 0.000000000000 -0.000000000000
vn 0.000000000000 0.000000000000 -1.000000000000
vn -1.000000000000 0.000000000000 -0.000000000000
vn 1.000000000000 0.000000000000 -0.000028092662
vn 1.000000000000 0.000000000000 -0.000028092660
vn 1.000000000000 0.000000000000 -0.000037786554
vn 1.000000000000 0.000000000000 -0.000037786551
vn 0.000005702141 0.000000000000 1.000000000000
vn 0.000005702140 0.000000000000 1.000000000000
vn 0.000007983803 0.000000000000 -1.000000000000
vn 0.000007983804 0.000000000000 -1.000000000000
vn 1.000000000000 0.000000000000 -0.000064362379
vn 1.000000000000 -0.000000376650 -0.000065193170
vn 1.000000000000 -0.000000140007 -0.000064671200
vn 1.000000000000 -0.000000516864 -0.000065502449
vn -1.000000000000 -0.000000000002 0.000027723063
vn -1.000000000000 0.000000000000 0.000027723061
vn -1.000000000000 -0.000000000005 0.000027723067
vn -1.000000000000 0.000000000000 0.000164435085
vn -1.000000000000 0.000000000000 0.000164435070
vn -0.000122473328 0.000000124142 -1.000000000000
vn -0.000122208832 0.000000000000 -1.000000000000
vn -0.000122311263 0.000000048079 -1.000000000000
vn -0.000122575919 0.000000172289 -1.000000000000
vn 0.000211753533 0.000000000000 1.000000000000
vn 0.000211753519 0.000000000000 1.000000000000
vn -1.000000000000 0.000000000000 -0.000094454641
vn -0.000002054625 0.000000000000 1.000000000000
vn -0.000013648397 0.000000000005 -1.000000000000
vn -0.000013648400 0.000000000007 -1.000000000000
vn -0.000013648397 0.000000000002 -1.000000000000
vn -0.000013648395 0.000000000000 -1.000000000000
vn -0.000185333745 0.999999940395 -0.000191869782
vn -0.000556362036 0.999999821186 -0.000000169396
vn -0.000555326871 0.999999821186 0.000000351877
vn -0.000185358454 0.999999940395 0.000183077049
vn -0.000000661541 0.999999821186 0.000548200100
vn -0.000000545411 0.999999821186 0.000547625124
vn 0.000191592393 0.999999940395 0.000182066389
vn 0.000575916143 0.999999821186 -0.000000200999
vn 0.000574333593 0.999999821186 -0.000000970361
vn 0.000191229774 0.999999940395 -0.000191961604
vn -0.000000301334 0.999999821186 -0.000572995981
vn 0.000000159805 0.999999821186 -0.000575382437
# 47 vertex normals

vt 0.849547564983 1.105884790421 1.963066339493
vt 0.849547505379 1.265240073204 1.963066339493
vt 0.626450359821 1.265239953995 1.963066339493
vt 0.626450419426 1.105884790421 1.963066339493
vt 0.150452435017 1.105884790421 3.168926954269
vt 0.373549610376 1.105884790421 3.168926954269
vt 0.373549640179 1.265239953995 3.168926954269
vt 0.150452494621 1.265240073204 3.168926954269
vt 0.150452435017 1.963066339493 1.105884790421
vt 0.373549610376 1.963066339493 1.105884790421
vt 0.373549610376 3.168926954269 1.105884790421
vt 0.150452435017 3.168926954269 1.105884790421
vt 1.105884790421 1.963066339493 0.373549610376
vt 1.265239953995 1.963066339493 0.373549640179
vt 1.265239953995 3.168926954269 0.373549640179
vt 1.105884790421 3.168926954269 0.373549610376
vt 0.626450359821 1.963066339493 1.265239953995
vt 0.849547505379 1.963066339493 1.265240073204
vt 0.849547505379 3.168926954269 1.265240073204
vt 0.626450359821 3.168926954269 1.265239953995
vt -0.265240073204 1.963066339493 0.150452494621
vt -0.105884790421 1.963066339493 0.150452435017
vt -0.105884790421 3.168926954269 0.150452435017
vt -0.265240073204 3.168926954269 0.150452494621
vt -0.173150837421 -0.024299144745 2.731115579605
vt 1.116852521896 -0.024299502373 2.731079816818
vt 1.116852521896 2.040740489960 2.731079816818
vt -0.173150837421 2.040740966797 2.731115579605
vt -0.173154294491 2.041279792786 2.103933811188
vt -0.829354166985 2.040743827820 2.103958606720
vt -0.829354166985 -0.024296402931 2.103958606720
vt -0.173154294491 -0.025936365128 2.103933811188
vt 2.103933811188 2.041279792786 -0.173154294491
vt 2.103933811188 -0.025936365128 -0.173154294491
vt 2.731115579605 -0.024299144745 -0.173150837421
vt 2.731115579605 2.040740966797 -0.173150837421
vt -1.731079816818 2.040740489960 1.116852521896
vt -1.731079816818 -0.024299502373 1.116852521896
vt -1.103961229324 2.041277408600 1.116857528687
vt -1.103961229324 -0.025939106941 1.116857528687
vt 1.116857528687 2.041277408600 2.103961229324
vt 1.116857528687 -0.025939106941 2.103961229324
vt 1.744739174843 2.040740489960 2.103920936584
vt 1.744739174843 -0.024299860001 2.103920459747
vt -0.116798639297 -0.024301052094 -1.794791698456
vt 1.173202753067 -0.024300694466 -1.794756412506
vt 1.173202753067 2.040739536285 -1.794756412506
vt -0.116798400879 2.040739059448 -1.794791698456
vt -0.744695544243 2.040739059448 -1.145241379738
vt -0.744695544243 -0.024300932884 -1.145241379738
vt -0.116877913475 2.041278362274 -1.145138382912
vt -0.116877913475 -0.025937795639 -1.145138382912
vt 2.145138263702 2.041278362274 1.116877913475
vt 2.145138263702 -0.025937795639 1.116877913475
vt 2.794791698456 -0.024301052094 1.116798639297
vt 2.794791698456 2.040739059448 1.116798400879
vt -1.794756412506 2.040739536285 -0.173202693462
vt -1.794756412506 -0.024300694466 -0.173202693462
vt -1.145097613335 -0.025939106941 -0.173065304756
vt -1.145097613335 2.041277408600 -0.173065304756
vt 1.173065304756 2.041277408600 -1.145097613335
vt 1.173065304756 -0.025939106941 -1.145097613335
vt 1.829346776009 -0.024299502373 -1.145159840584
vt 1.829346776009 2.040740489960 -1.145159840584
vt -1.145159840584 2.040740489960 -0.829346776009
vt -1.145159840584 -0.024299502373 -0.829346776009
vt 2.103958606720 -0.024296402931 -0.829354166985
vt 2.103958606720 2.040743827820 -0.829354166985
vt -1.103920936584 2.040740489960 1.744739174843
vt -1.103920459747 -0.024299860001 1.744739174843
vt 2.145241260529 -0.024300932884 1.744695544243
vt 2.145241260529 2.040739059448 1.744695544243
vt 5.140809535980 -2.207972288132 0.455744266510
vt 5.140808582306 3.106729745865 0.455744266510
vt -4.111027240753 3.106727361679 0.455744266510
vt -4.111026287079 -2.207974672318 0.455744266510
vt -4.140809535980 -2.207972288132 0.554167985916
vt 5.111026287079 -2.207974672318 0.554167985916
vt 5.111027240753 3.106727361679 0.554167985916
vt -4.140808582306 3.106729745865 0.554167985916
vt -4.140809535980 0.455744266510 -2.207972288132
vt 5.111026287079 0.455744266510 -2.207974672318
vt 5.111026287079 0.554167985916 -2.207974672318
vt -4.140809535980 0.554167985916 -2.207972288132
vt -2.207974672318 0.455744266510 5.111026287079
vt 3.106727361679 0.455744266510 5.111027240753
vt 3.106727361679 0.554167985916 5.111027240753
vt -2.207974672318 0.554167985916 5.111026287079
vt -4.111027240753 0.455744266510 3.106727361679
vt 5.140808582306 0.455744266510 3.106729745865
vt 5.140808582306 0.554167985916 3.106729745865
vt -4.111027240753 0.554167985916 3.106727361679
vt -2.106729745865 0.455744266510 -4.140808582306
vt 3.207972288132 0.455744266510 -4.140809535980
vt 3.207972288132 0.554167985916 -4.140809535980
vt -2.106729745865 0.554167985916 -4.140808582306
vt -4.033814907074 -2.172722339630 -0.871205091476
vt 5.140808582306 -2.172724723816 -0.871205091476
vt 5.140809535980 3.207972049713 -0.871205091476
vt -4.033813953400 3.207974433899 -0.871205091476
vt -1.792520284653 -1.032651305199 -0.845173597336
vt 2.794791460037 -1.032651305199 -0.845174789429
vt 2.794791460037 -0.064383745193 -0.845174789429
vt -1.792520284653 -0.064383745193 -0.845173597336
vt -0.845174789429 -1.032651305199 2.794791460037
vt 1.845173597336 -1.032651305199 2.794791936874
vt 1.845173597336 -0.064383745193 2.794791936874
vt -0.845174789429 -0.064383745193 2.794791460037
vt -1.794791936874 -1.032651305199 1.845173597336
vt 2.792519807816 -1.032651305199 1.845174789429
vt 2.792519807816 -0.064383745193 1.845174789429
vt -1.794791936874 -0.064383745193 1.845173597336
vt -0.845174789429 -1.032651305199 -1.792519807816
vt 1.845173597336 -1.032651305199 -1.792520284653
vt 1.845173597336 -0.064383745193 -1.792520284653
vt -0.845174789429 -0.064383745193 -1.792519807816
vt 0.177077949047 0.629009544849 0.997070312500
vt 0.041436791420 0.628993630409 0.000488281250
vt 0.041443884373 0.370993405581 0.001464843750
vt 0.177086085081 0.371020883322 0.995117187500
vt 0.177073657513 0.239764600992 0.003417968750
vt 0.826897323132 0.239763081074 0.009277343750
vt 0.826892375946 0.371003091335 0.999511718750
vt 0.958563208580 0.371003776789 0.003906250000
vt 0.958556056023 0.629004478455 0.003417968750
vt 0.826897859573 0.629005491734 0.995117187500
vt 0.826889872551 0.760236859322 0.003417968750
vt 0.177057325840 0.760228157043 0.000488281250
# 128 texture coords

g LOD01_Building_3Stores_StockExpo
usemtl concrete_01
s 1
f 1/1/1 2/2/1 3/3/1 
f 3/3/1 4/4/1 1/1/1 
f 5/5/2 6/6/2 7/7/2 
f 7/7/2 8/8/2 5/5/2 
s 2
f 1/9/3 4/10/3 6/11/3 
f 6/11/3 5/12/3 1/9/3 
s 4
f 4/13/4 3/14/4 7/15/4 
f 7/15/4 6/16/4 4/13/4 
s 2
f 3/17/5 2/18/5 8/19/5 
f 8/19/5 7/20/5 3/17/5 
s 4
f 2/21/6 1/22/6 5/23/6 
f 5/23/6 8/24/6 2/21/6 
usemtl LOD_shop_01
s 1
f 9/25/7 10/26/8 11/27/7 
f 11/27/7 12/28/8 9/25/7 
f 13/29/9 14/30/9 15/31/10 
f 13/29/9 15/31/10 16/32/10 
s 2
f 13/33/11 16/34/11 9/35/12 
f 12/36/11 13/33/11 9/35/12 
f 11/37/13 10/38/13 17/39/14 
f 17/39/14 10/38/13 18/40/13 
s 1
f 17/41/15 18/42/16 19/43/17 
f 19/43/17 18/42/16 20/44/18 
f 21/45/19 22/46/20 23/47/19 
f 23/47/19 24/48/21 21/45/19 
f 25/49/22 26/50/23 27/51/22 
f 27/51/22 26/50/23 28/52/22 
s 2
f 27/53/24 28/54/25 21/55/26 
f 24/56/27 27/53/24 21/55/26 
f 23/57/28 22/58/29 29/59/28 
f 30/60/28 23/57/28 29/59/28 
s 1
f 30/61/30 29/62/30 31/63/30 
f 32/64/30 30/61/30 31/63/30 
s 2
f 32/65/31 31/66/31 15/67/31 
f 14/68/31 32/65/31 15/67/31 
f 19/69/32 20/70/33 26/71/34 
f 25/72/35 19/69/32 26/71/34 
usemtl concrete_01
s 1
f 33/73/1 34/74/1 35/75/1 
f 35/75/1 36/76/1 33/73/1 
f 37/77/2 38/78/2 39/79/2 
f 39/79/2 40/80/2 37/77/2 
s 2
f 33/81/3 36/82/3 38/83/3 
f 38/83/3 37/84/3 33/81/3 
s 4
f 36/85/4 35/86/4 39/87/4 
f 39/87/4 38/88/4 36/85/4 
s 2
f 35/89/5 34/90/5 40/91/5 
f 40/91/5 39/92/5 35/89/5 
s 4
f 34/93/6 33/94/6 37/95/6 
f 37/95/6 40/96/6 34/93/6 
s 1
f 41/97/2 42/98/2 43/99/2 
f 43/99/2 44/100/2 41/97/2 
usemtl LOD_shop_01
s 2
f 45/101/3 46/102/3 42/103/3 
f 42/103/3 41/104/3 45/101/3 
s 4
f 46/105/4 47/106/4 43/107/4 
f 43/107/4 42/108/4 46/105/4 
s 2
f 47/109/5 48/110/5 44/111/5 
f 44/111/5 43/112/5 47/109/5 
s 4
f 48/113/6 45/114/6 41/115/6 
f 41/115/6 44/116/6 48/113/6 
usemtl Roof_04
f 27/117/36 24/118/37 23/119/38 
f 30/120/39 32/121/40 14/122/41 
f 13/123/42 12/124/43 11/125/44 
f 17/126/45 19/127/46 25/128/47 
f 27/117/36 23/119/38 30/120/39 
f 30/120/39 14/122/41 13/123/42 
f 13/123/42 11/125/44 17/126/45 
f 17/126/45 25/128/47 27/117/36 
f 27/117/36 30/120/39 13/123/42 
f 13/123/42 17/126/45 27/117/36 
# 68 faces

