# 3ds Max Wavefront OBJ Exporter v0.97b - (c)2007 guruware
# File Created: 23.03.2018 21:23:51

mtllib LOD01_Builiding_ParisOffice.mtl

#
# object LOD01_Builiding_ParisOffice
#

v  -1.950669050217 5.404785156250 1.949977755547
v  1.949352741241 5.404785156250 1.949890255928
v  1.949338436127 5.404785633087 -1.950049161911
v  -1.950636386871 5.404785156250 -1.950007557869
v  -1.951015233994 -0.034200191498 -1.950143694878
v  -1.951018095016 -0.034200191498 1.949882745743
v  1.948977470398 -0.034199714661 1.949844479561
v  1.948975563049 -0.034199714661 -1.950181841850
# 8 vertices

vn -0.000000061132 1.000000000000 0.000000061133
vn 0.000000000003 1.000000000000 0.000000122268
vn -0.000000061132 1.000000000000 0.000000061134
vn -0.000000122267 1.000000000000 -0.000000000001
vn -1.000000000000 0.000066344684 -0.000003759875
vn -1.000000000000 0.000064174623 -0.000000733591
vn -1.000000000000 0.000067484150 -0.000005348940
vn -1.000000000000 0.000069654219 -0.000008375247
vn 1.000000000000 -0.000067619738 -0.000001748001
vn 1.000000000000 -0.000066717039 -0.000000489060
vn 1.000000000000 -0.000068093752 -0.000002409083
vn 1.000000000000 -0.000068996458 -0.000003668044
vn 0.000017436359 -0.000012002301 1.000000000000
vn 0.000009811854 -0.000017468925 1.000000000000
vn 0.000014811190 -0.000013884497 1.000000000000
vn 0.000022435674 -0.000008417891 1.000000000000
vn -0.000010316709 0.000024778845 -1.000000000000
vn -0.000009781301 0.000024394898 -1.000000000000
vn -0.000010132367 0.000024646652 -1.000000000000
vn -0.000010667776 0.000025030598 -1.000000000000
# 20 vertex normals

vt 0.496668577194 0.004621319473 0.000000000000
vt 0.496650665998 0.496666669846 0.000000000000
vt 0.002560537774 0.496663391590 1.000000000000
vt 0.002566197887 0.004628130235 0.000000000000
vt 0.000509738922 0.002855211496 0.999500274658
vt 0.999500751495 0.002855211496 0.999500274658
vt 0.999500751495 0.894820272923 0.999500274658
vt 0.000509738922 0.894820272923 0.999499797821
vt 0.000508785248 0.002855271101 0.000499725342
vt 0.999499797821 0.002855271101 0.000500202179
vt 0.999499797821 0.894820332527 0.000499725342
vt 0.000508785248 0.894820332527 0.000499248505
vt 0.002413034439 0.999500513077 0.000499546528
vt 0.001998066902 0.000499516726 0.000548213720
vt 3.997536659241 0.000499606133 0.000557780266
vt 3.998002052307 0.999500513077 0.000534325838
vt 0.002160549164 0.999454975128 0.999500513077
vt 0.002464294434 0.000499606133 0.999500513077
vt 3.997997999191 0.000499516726 0.999490976334
vt 3.997690677643 0.999454975128 0.999490976334
# 20 texture coords

g LOD01_Builiding_ParisOffice
usemtl PROP_RoofElements
s 1
f 1/1/1 2/2/2 3/3/3 
f 1/1/1 3/3/3 4/4/4 
usemtl BL_WhiteWall
s 2
f 5/5/5 6/6/6 1/7/7 
f 5/5/5 1/7/7 4/8/8 
f 7/9/9 8/10/10 3/11/11 
f 7/9/9 3/11/11 2/12/12 
usemtl LOD_ParisOffice
s 4
f 1/13/13 6/14/14 7/15/15 
f 1/13/13 7/15/15 2/16/16 
f 3/17/17 8/18/18 5/19/19 
f 3/17/17 5/19/19 4/20/20 
# 10 faces

