#
#
#

mtllib ROAD_DockWal.mtl


#
# ROAD_DockWall_001 Mesh
#
g ROAD_DockWall_001 Mesh


#
# ROAD_DockWall_001 Mesh_Mat_BricksA
#
usemtl GD_paver02

v -492.126099 24.461073 -121.215340
v -409.882141 24.461077 -121.215340
v -409.882141 57.145199 -121.215340
v -492.126099 57.145199 -121.215340
v -327.638245 24.461081 -121.215401
v -327.638245 57.145203 -121.215370
v -245.394348 24.461081 -121.215370
v -245.394348 57.145203 -121.215370
v -163.150391 24.461081 -121.215370
v -163.150391 57.145203 -121.215370
v -80.906464 24.461081 -121.215340
v -80.906456 57.145203 -121.215340
v 1.337494 24.461081 -121.215340
v 1.337494 57.145203 -121.215340
v 83.581421 24.461081 -121.215340
v 83.581429 57.145203 -121.215340
v 165.825363 24.461081 -121.215340
v 165.825363 57.145203 -121.215340
v 246.731781 24.461081 -121.215279
v 246.731781 57.145203 -121.215279
v 287.254639 24.461081 -121.215218
v 409.882080 24.461077 -121.215248
v 409.882080 57.145199 -121.215248
v 287.254639 57.145203 -121.215218
v 492.126038 24.461077 -121.215248
v 492.126038 57.145199 -121.215248
v -492.126099 24.461075 14.402472
v -409.882141 24.461075 14.402472
v -327.638245 24.461079 14.402381
v -245.394348 24.461079 14.402411
v -163.150391 24.461079 14.402427
v -80.906479 24.461079 14.402457
v 1.337488 24.461079 14.402457
v 83.581406 24.461079 14.402457
v 165.825363 24.461079 14.402457
v 246.731781 24.461079 14.402533
v 287.254639 24.461079 14.402596
v 409.882080 24.461075 14.402533
v 492.126038 24.461075 14.402533
v -492.126099 -57.145203 150.361389
v -409.882141 -57.145203 150.361389
v -327.638245 -57.145203 150.361298
v -245.394348 -57.145203 150.361328
v -163.150391 -57.145203 150.361359
v -80.906487 -57.145203 150.361389
v 1.337482 -57.145203 150.361389
v 83.581398 -57.145203 150.361389
v 165.825363 -57.145203 150.361389
v 246.731781 -57.145203 150.361450
v 287.254639 -57.145203 150.361511
v 409.882080 -57.145203 150.361450
v 492.126038 -57.145203 150.361450
v 562.491028 24.461077 -150.361359
v 562.491028 57.145195 -150.361359
v 658.387329 24.461073 -54.465065
v 754.524780 -57.145210 41.672398
v -562.491089 57.145176 -150.361511
v -562.491089 24.461061 -150.361511
v -658.387390 24.461061 -54.465248
v -754.524841 -57.145226 41.672245
vn -0.173808 0.454182 0.873791
vn 0.000000 0.707107 0.707107
vn 0.000000 0.000000 1.000000
vn -0.195091 0.000000 0.980785
vn 0.000000 0.707107 0.707107
vn 0.000000 -0.000001 1.000000
vn -0.000000 0.707107 0.707107
vn -0.000000 -0.000000 1.000000
vn -0.000000 0.707107 0.707107
vn -0.000000 0.000000 1.000000
vn -0.000000 0.707107 0.707107
vn -0.000000 0.000000 1.000000
vn 0.000000 0.707107 0.707107
vn 0.000000 0.000000 1.000000
vn -0.000000 0.707107 0.707107
vn -0.000000 0.000000 1.000000
vn -0.000001 0.707107 0.707107
vn -0.000001 0.000000 1.000000
vn -0.000000 0.707107 0.707107
vn 0.000000 0.707107 0.707107
vn 0.000000 0.000000 1.000000
vn -0.000001 0.000000 1.000000
vn 0.085898 0.897851 0.431839
vn 0.195090 0.000000 0.980785
vn -0.000000 0.707107 0.707107
vn -0.036008 0.983764 0.175816
vn 0.000000 0.963693 0.267014
vn 0.000000 0.707107 0.707107
vn 0.000000 0.963693 0.267014
vn -0.000000 0.963693 0.267014
vn -0.000000 0.963693 0.267014
vn -0.000000 0.963693 0.267014
vn 0.000000 0.963693 0.267014
vn 0.000000 0.963693 0.267014
vn -0.000000 0.963693 0.267014
vn -0.000000 0.963693 0.267014
vn -0.000000 0.963693 0.267014
vn 0.000000 0.963693 0.267014
vn 0.072158 0.933092 0.352325
vn -0.104821 0.852683 0.511804
vn 0.000000 0.857407 0.514639
vn 0.000000 0.857407 0.514639
vn 0.000000 0.963693 0.267014
vn -0.000000 0.857407 0.514639
vn -0.000000 0.963693 0.267014
vn 0.000000 0.963693 0.267014
vn 0.000000 0.857407 0.514639
vn -0.000000 0.857407 0.514639
vn -0.000000 0.963693 0.267014
vn -0.000000 0.857407 0.514639
vn -0.000000 0.857407 0.514639
vn -0.000000 0.963693 0.267014
vn 0.000000 0.857407 0.514639
vn -0.000000 0.963693 0.267014
vn -0.000000 0.857407 0.514639
vn 0.000000 0.963693 0.267014
vn -0.000000 0.857407 0.514639
vn -0.000001 0.857407 0.514639
vn -0.000000 0.857407 0.514639
vn -0.000000 0.857407 0.514639
vn 0.000000 0.857407 0.514639
vn 0.104820 0.852683 0.511804
vn 0.000000 0.963693 0.267014
vn -0.000000 0.857407 0.514639
vn -0.000000 0.963693 0.267014
vn -0.000000 0.963693 0.267014
vn -0.000000 0.963693 0.267014
vn -0.000001 0.857407 0.514639
vn 0.342282 0.447214 0.826343
vn 0.382683 0.000000 0.923880
vn 0.072131 0.982075 0.174140
vn 0.342282 0.447214 0.826343
vn 0.208486 0.838566 0.503330
vn -0.382684 0.000000 0.923879
vn -0.171142 0.894427 0.413171
vn -0.173808 0.454182 0.873791
vn -0.144262 0.926223 0.348280
vn -0.208486 0.838566 0.503330
vn -0.036008 0.983764 0.175816
vt -29.500004 1.991148
vt -24.486412 1.991148
vt -24.486412 3.983572
vt -29.500004 3.983572
vt -19.472824 1.991148
vt -19.472824 3.983572
vt -14.459235 1.991148
vt -14.459235 3.983572
vt -9.445643 1.991148
vt -9.445643 3.983572
vt -4.432054 1.991148
vt -4.432054 3.983572
vt 0.581537 1.991148
vt 0.581537 3.983572
vt 5.595127 1.991148
vt 5.595128 3.983572
vt 10.608718 1.991148
vt 10.608718 3.983572
vt 15.540773 1.991148
vt 15.540773 3.983572
vt 18.011045 1.991148
vt 25.486414 1.991148
vt 25.486414 3.983572
vt 18.011045 3.983572
vt 30.500006 1.991148
vt 30.500006 3.983572
vt -29.500006 -0.377970
vt -24.486414 -0.377971
vt -24.486412 7.889290
vt -29.500004 7.889292
vt -19.472826 -0.377966
vt -19.472824 7.889294
vt -14.459237 -0.377970
vt -14.459235 7.889290
vt -9.445645 -0.377972
vt -9.445643 7.889288
vt -4.432057 -0.377975
vt -4.432054 7.889286
vt 0.581535 -0.377976
vt 0.581537 7.889284
vt 5.595124 -0.377977
vt 5.595127 7.889282
vt 10.608716 -0.377978
vt 10.608718 7.889282
vt 15.540771 -0.377985
vt 15.540773 7.889277
vt 18.011044 -0.377988
vt 25.486412 -0.377986
vt 25.486414 7.889273
vt 18.011045 7.889275
vt 30.500004 -0.377988
vt 30.500006 7.889271
vt -29.500008 -8.666025
vt -24.486416 -8.666026
vt -19.472828 -8.666022
vt -14.459239 -8.666025
vt -9.445647 -8.666027
vt -4.432059 -8.666031
vt 0.581533 -8.666032
vt 5.595122 -8.666033
vt 10.608714 -8.666034
vt 15.540770 -8.666039
vt 18.011042 -8.666044
vt 25.486410 -8.666042
vt 30.500002 -8.666043
vt 34.789459 1.991148
vt 34.789459 3.983572
vt 40.635296 3.820179
vt 34.789459 9.666019
vt 46.495831 -2.040362
vt -33.789452 3.983571
vt -33.789452 1.991147
vt -33.789452 9.666044
vt -39.635288 3.820209
vt -45.495831 -2.040331
f 1/1/1 2/2/2 3/3/3
f 3/3/3 4/4/4 1/1/1
f 2/2/2 5/5/5 6/6/6
f 6/6/6 3/3/3 2/2/2
f 5/5/5 7/7/7 8/8/8
f 8/8/8 6/6/6 5/5/5
f 7/7/7 9/9/9 10/10/10
f 10/10/10 8/8/8 7/7/7
f 9/9/9 11/11/11 12/12/12
f 12/12/12 10/10/10 9/9/9
f 11/11/11 13/13/13 14/14/14
f 14/14/14 12/12/12 11/11/11
f 13/13/13 15/15/13 16/16/14
f 16/16/14 14/14/14 13/13/13
f 15/15/13 17/17/15 18/18/16
f 18/18/16 16/16/14 15/15/13
f 17/17/15 19/19/17 20/20/18
f 20/20/18 18/18/16 17/17/15
f 21/21/19 22/22/20 23/23/21
f 23/23/21 24/24/22 21/21/19
f 22/22/20 25/25/23 26/26/24
f 26/26/24 23/23/21 22/22/20
f 19/19/17 21/21/25 24/24/22
f 24/24/22 20/20/18 19/19/17
f 27/27/26 28/28/27 2/29/2
f 2/29/28 1/30/1 27/27/26
f 28/28/27 29/31/29 5/32/5
f 5/32/5 2/29/28 28/28/27
f 29/31/29 30/33/30 7/34/7
f 7/34/7 5/32/5 29/31/29
f 30/33/30 31/35/31 9/36/9
f 9/36/9 7/34/7 30/33/30
f 31/35/31 32/37/32 11/38/11
f 11/38/11 9/36/9 31/35/31
f 32/37/32 33/39/33 13/40/13
f 13/40/13 11/38/11 32/37/32
f 33/39/33 34/41/34 15/42/13
f 15/42/13 13/40/13 33/39/33
f 34/41/34 35/43/35 17/44/15
f 17/44/15 15/42/13 34/41/34
f 35/43/35 36/45/36 19/46/17
f 19/46/17 17/44/15 35/43/35
f 37/47/37 38/48/38 22/49/20
f 22/49/20 21/50/19 37/47/37
f 38/48/38 39/51/39 25/52/23
f 25/52/23 22/49/20 38/48/38
f 36/45/36 37/47/37 21/50/19
f 21/50/19 19/46/17 36/45/36
f 40/53/40 41/54/41 28/28/27
f 28/28/27 27/27/26 40/53/40
f 41/54/41 42/55/42 29/31/29
f 29/31/43 28/28/27 41/54/41
f 42/55/42 43/56/44 30/33/45
f 30/33/45 29/31/46 42/55/47
f 43/56/44 44/57/48 31/35/31
f 31/35/31 30/33/49 43/56/50
f 44/57/48 45/58/51 32/37/32
f 32/37/32 31/35/52 44/57/48
f 45/58/51 46/59/53 33/39/33
f 33/39/33 32/37/54 45/58/55
f 46/59/53 47/60/53 34/41/34
f 34/41/34 33/39/56 46/59/53
f 47/60/53 48/61/57 35/43/35
f 35/43/35 34/41/34 47/60/53
f 48/61/57 49/62/58 36/45/36
f 36/45/36 35/43/35 48/61/59
f 50/63/60 51/64/61 38/48/38
f 38/48/38 37/47/37 50/63/60
f 51/64/61 52/65/62 39/51/39
f 39/51/39 38/48/63 51/64/61
f 49/62/58 50/63/64 37/47/65
f 37/47/66 36/45/67 49/62/68
f 53/66/69 54/67/70 26/26/24
f 26/26/24 25/25/23 53/66/69
f 55/68/71 53/69/72 25/52/23
f 25/52/23 39/51/39 55/68/71
f 56/70/73 55/68/71 39/51/39
f 39/51/39 52/65/62 56/70/73
f 57/71/74 58/72/75 1/1/1
f 1/1/76 4/4/4 57/71/74
f 58/73/75 59/74/77 27/27/26
f 27/27/26 1/30/1 58/73/75
f 59/74/77 60/75/78 40/53/40
f 40/53/40 27/27/79 59/74/77
