# 3ds Max Wavefront OBJ Exporter v0.97b - (c)2007 guruware
# File Created: 05.03.2018 15:10:26

mtllib TRANS_UDC_TableGlass.mtl

#
# object TRANS_UDC_TableGlass
#

v  -0.000656167977 0.000000133514 0.024889566004
v  -0.000656167977 0.000000133514 0.023577230051
v  0.000656167977 0.000000133514 0.023577230051
v  0.000656167977 0.000000133514 0.024889566004
v  0.000656167977 0.024758176878 0.024932833388
v  -0.000656167977 0.024758176878 0.024932833388
v  0.000656168966 0.024758176878 0.002805475146
v  -0.000656167045 0.024758176878 0.002805475146
v  0.000656169141 0.022911697626 -0.000011444092
v  -0.000656166871 0.022911697626 -0.000011444092
v  0.000656168093 0.023445837200 0.023604404181
v  0.000656168966 0.023445839062 0.003383168951
v  0.000656169141 0.021599361673 -0.000011444092
v  -0.000656167918 0.023445837200 0.023604404181
v  -0.000656167045 0.023445839062 0.003383168951
v  -0.000656166871 0.021599361673 -0.000011444092
v  -0.000656167977 0.000000000000 -0.024912452325
v  0.000656167977 0.000000000000 -0.024912452325
v  0.000656167977 0.000000000000 -0.023600121960
v  -0.000656167977 0.000000000000 -0.023600121960
v  -0.000656167977 0.024758042768 -0.024955725297
v  0.000656167977 0.024758042768 -0.024955725297
v  -0.000656167045 0.024758042768 -0.002828365192
v  0.000656168966 0.024758042768 -0.002828365192
v  0.000656168093 0.023445703089 -0.023627294227
v  0.000656168966 0.023445704952 -0.003406057134
v  -0.000656167918 0.023445703089 -0.023627294227
v  -0.000656167045 0.023445704952 -0.003406057134
v  0.024900857359 0.000000133514 0.000644877553
v  0.023588521406 0.000000133514 0.000644877553
v  0.023588521406 0.000000133514 -0.000667460263
v  0.024900857359 0.000000133514 -0.000667460263
v  0.024944126606 0.024758176878 -0.000667460263
v  0.024944126606 0.024758176878 0.000644877553
v  0.023615695536 0.023445837200 -0.000667460263
v  0.023615695536 0.023445837200 0.000644877553
v  -0.024901160970 0.000000000000 0.000644879416
v  -0.024901160970 0.000000000000 -0.000667458400
v  -0.023588828743 0.000000000000 -0.000667458400
v  -0.023588828743 0.000000000000 0.000644879416
v  -0.024944433942 0.024758042768 0.000644879416
v  -0.024944433942 0.024758042768 -0.000667458400
v  -0.023616002873 0.023445703089 -0.000667458400
v  -0.023616002873 0.023445703089 0.000644879416
v  0.016403894871 0.024802953005 0.026235427707
v  -0.016404503956 0.024802953005 0.026235427707
v  -0.016812192276 0.024802953005 0.027219681069
v  0.016811586916 0.024802953005 0.027219679207
v  0.016403894871 0.023818701506 0.026235427707
v  -0.016404503956 0.023818701506 0.026235427707
v  0.016811586916 0.023818701506 0.027219679207
v  -0.016812192276 0.023818701506 0.027219681069
v  0.026246413589 0.024802953005 0.016392907128
v  0.027230666950 0.024802953005 0.016800595447
v  0.026246413589 0.023818701506 0.016392907128
v  0.027230666950 0.023818701506 0.016800595447
v  0.026246413589 0.024802953005 -0.016415489838
v  0.027230665088 0.024802953005 -0.016823185608
v  0.026246413589 0.023818701506 -0.016415489838
v  0.027230665088 0.023818701506 -0.016823185608
v  0.016403894871 0.024802953005 -0.026258012280
v  0.016811581329 0.024802953005 -0.027242263779
v  0.016403894871 0.023818701506 -0.026258012280
v  0.016811581329 0.023818701506 -0.027242263779
v  -0.016404503956 0.024802953005 -0.026258012280
v  -0.016812197864 0.024802953005 -0.027242260054
v  -0.016404503956 0.023818701506 -0.026258012280
v  -0.016812197864 0.023818701506 -0.027242260054
v  -0.026247024536 0.024802953005 -0.016415489838
v  -0.027231277898 0.024802953005 -0.016823178157
v  -0.026247024536 0.023818701506 -0.016415489838
v  -0.027231277898 0.023818701506 -0.016823178157
v  -0.026247024536 0.024802953005 0.016392907128
v  -0.027231276035 0.024802953005 0.016800601035
v  -0.026247024536 0.023818701506 0.016392907128
v  -0.027231276035 0.023818701506 0.016800601035
# 76 vertices

vn -0.577442228794 -0.577808558941 0.576799571514
vn -0.577289342880 -0.577046036720 -0.577715218067
vn 0.577289342880 -0.577046036720 -0.577715218067
vn 0.577442228794 -0.577808499336 0.576799631119
vn 0.577258408070 0.576891422272 0.577900528908
vn -0.577258408070 0.576891481876 0.577900469303
vn 0.648030340672 0.729787528515 -0.217868939042
vn -0.648030400276 0.729787468910 -0.217868983746
vn 0.853418707848 0.521225929260 -0.000008726074
vn -0.853418767452 0.521225869656 -0.000008740028
vn 0.904669761658 -0.301133036613 -0.301482200623
vn 0.767029285431 -0.621809959412 0.158172011375
vn 0.613722622395 -0.789521694183 0.000012021574
vn -0.904669702053 -0.301133006811 -0.301482319832
vn -0.767029285431 -0.621810019016 0.158171936870
vn -0.613722562790 -0.789521813393 0.000012016043
vn -0.577442288399 -0.577808558941 -0.576799571514
vn 0.577441751957 -0.577808797359 -0.576799809933
vn 0.577289402485 -0.577046036720 0.577715218067
vn -0.577289938927 -0.577045738697 0.577714920044
vn -0.577257871628 0.576891660690 -0.577900826931
vn 0.577258408070 0.576891362667 -0.577900588512
vn -0.648033380508 0.729788661003 0.217856019735
vn 0.648033440113 0.729788661003 0.217855930328
vn 0.904669821262 -0.301132917404 0.301482051611
vn 0.767025411129 -0.621816873550 -0.158163696527
vn -0.904669702053 -0.301133036613 0.301482290030
vn -0.767025351524 -0.621816992760 -0.158163622022
vn 0.576799571514 -0.577808558941 0.577442228794
vn -0.577715218067 -0.577045977116 0.577289402485
vn -0.577715277672 -0.577045977116 -0.577289342880
vn 0.576799571514 -0.577808558941 -0.577442228794
vn 0.577899754047 0.576892316341 -0.577258288860
vn 0.577899813652 0.576892256737 0.577258288860
vn -0.301481366158 -0.301132917404 -0.904670059681
vn -0.301481306553 -0.301133006811 0.904670059681
vn -0.576799571514 -0.577808558941 0.577442288399
vn -0.576799809933 -0.577808797359 -0.577441751957
vn 0.577715277672 -0.577045977116 -0.577289342880
vn 0.577714979649 -0.577045738697 0.577289938927
vn -0.577901601791 0.576890826225 0.577257931232
vn -0.577901244164 0.576890528202 -0.577258586884
vn 0.301483035088 -0.301133006811 -0.904669523239
vn 0.301483154297 -0.301133006811 0.904669463634
vn -0.227458268404 0.804186463356 -0.549132823944
vn 0.227458268404 0.804186463356 -0.549132823944
vn -0.297108501196 0.630262494087 0.717283606529
vn 0.297108680010 0.630262494087 0.717283487320
vn -0.227458283305 -0.804186463356 -0.549132823944
vn 0.227458253503 -0.804186463356 -0.549132823944
vn 0.297108680010 -0.630262434483 0.717283546925
vn -0.297108441591 -0.630262613297 0.717283487320
vn -0.549132883549 0.804186403751 -0.227458253503
vn 0.717283606529 0.630262494087 0.297108501196
vn -0.549132883549 -0.804186463356 -0.227458253503
vn 0.717283606529 -0.630262434483 0.297108471394
vn -0.549132943153 0.804186403751 0.227458208799
vn 0.717283487320 0.630262494087 -0.297108680010
vn -0.549132883549 -0.804186463356 0.227458208799
vn 0.717283546925 -0.630262434483 -0.297108709812
vn -0.227458342910 0.804186403751 0.549132823944
vn 0.297108441591 0.630262434483 -0.717283606529
vn -0.227458298206 -0.804186522961 0.549132764339
vn 0.297108501196 -0.630262434483 -0.717283606529
vn 0.227458298206 0.804186463356 0.549132823944
vn -0.297108650208 0.630262434483 -0.717283546925
vn 0.227458313107 -0.804186463356 0.549132823944
vn -0.297108620405 -0.630262494087 -0.717283546925
vn 0.549132883549 0.804186403751 0.227458268404
vn -0.717283606529 0.630262494087 -0.297108530998
vn 0.549132883549 -0.804186463356 0.227458253503
vn -0.717283546925 -0.630262494087 -0.297108501196
vn 0.549132883549 0.804186463356 -0.227458253503
vn -0.717283487320 0.630262494087 0.297108680010
vn 0.549132883549 -0.804186403751 -0.227458298206
vn -0.717283546925 -0.630262434483 0.297108680010
vn 0.000000000000 1.000000000000 -0.000000000000
# 77 vertex normals

vt 0.702730536461 0.746007204056 0.000000000000
vt 0.725914478302 0.746007204056 0.000000000000
vt 0.725914478302 0.996392309666 0.000000000000
vt 0.702730536461 0.996392309666 0.000000000000
vt 0.668363451958 0.260159492493 0.500000000000
vt 0.881868302822 0.260159432888 0.500000000000
vt 0.945919811726 0.322278887033 0.500000000000
vt 0.945919871330 0.529343843460 0.500000000000
vt 0.881868302822 0.591463387012 0.500000000000
vt 0.668363511562 0.591463387012 0.500000000000
vt 0.604312002659 0.529343962669 0.500000000000
vt 0.604311943054 0.322279006243 0.500000000000
# 12 texture coords

g TRANS_UDC_TableGlass
usemtl PROP_BusStation
s 1
f 1/1/1 2/2/2 3/3/3 
f 3/3/3 4/4/4 1/1/1 
f 1/1/1 4/2/4 5/3/5 
f 5/3/5 6/4/6 1/1/1 
f 6/1/6 5/2/5 7/3/7 
f 7/3/7 8/4/8 6/1/6 
f 8/1/8 7/2/7 9/3/9 
f 9/3/9 10/4/10 8/1/8 
f 4/1/4 3/2/3 11/3/11 
f 11/3/11 5/4/5 4/1/4 
f 5/1/5 11/2/11 12/3/12 
f 12/3/12 7/4/7 5/1/5 
f 7/1/7 12/2/12 13/3/13 
f 13/3/13 9/4/9 7/1/7 
f 3/1/3 2/2/2 14/3/14 
f 14/3/14 11/4/11 3/1/3 
f 11/1/11 14/2/14 15/3/15 
f 15/3/15 12/4/12 11/1/11 
f 12/1/12 15/2/15 16/3/16 
f 16/3/16 13/4/13 12/1/12 
f 2/1/2 1/2/1 6/3/6 
f 6/3/6 14/4/14 2/1/2 
f 14/1/14 6/2/6 8/3/8 
f 8/3/8 15/4/15 14/1/14 
f 15/1/15 8/2/8 10/3/10 
f 10/3/10 16/4/16 15/1/15 
f 17/1/17 18/2/18 19/3/19 
f 19/3/19 20/4/20 17/1/17 
f 17/1/17 21/2/21 22/3/22 
f 22/3/22 18/4/18 17/1/17 
f 21/1/21 23/2/23 24/3/24 
f 24/3/24 22/4/22 21/1/21 
f 23/1/23 10/2/10 9/3/9 
f 9/3/9 24/4/24 23/1/23 
f 18/1/18 22/2/22 25/3/25 
f 25/3/25 19/4/19 18/1/18 
f 22/1/22 24/2/24 26/3/26 
f 26/3/26 25/4/25 22/1/22 
f 24/1/24 9/2/9 13/3/13 
f 13/3/13 26/4/26 24/1/24 
f 19/1/19 25/2/25 27/3/27 
f 27/3/27 20/4/20 19/1/19 
f 25/1/25 26/2/26 28/3/28 
f 28/3/28 27/4/27 25/1/25 
f 26/1/26 13/2/13 16/3/16 
f 16/3/16 28/4/28 26/1/26 
f 20/1/20 27/2/27 21/3/21 
f 21/3/21 17/4/17 20/1/20 
f 27/1/27 28/2/28 23/3/23 
f 23/3/23 21/4/21 27/1/27 
f 28/1/28 16/2/16 10/3/10 
f 10/3/10 23/4/23 28/1/28 
f 29/1/29 30/2/30 31/3/31 
f 31/3/31 32/4/32 29/1/29 
f 29/1/29 32/2/32 33/3/33 
f 33/3/33 34/4/34 29/1/29 
f 32/1/32 31/2/31 35/3/35 
f 35/3/35 33/4/33 32/1/32 
f 31/1/31 30/2/30 36/3/36 
f 36/3/36 35/4/35 31/1/31 
f 30/1/30 29/2/29 34/3/34 
f 34/3/34 36/4/36 30/1/30 
f 37/1/37 38/2/38 39/3/39 
f 39/3/39 40/4/40 37/1/37 
f 37/1/37 41/2/41 42/3/42 
f 42/3/42 38/4/38 37/1/37 
f 41/1/41 34/2/34 33/3/33 
f 33/3/33 42/4/42 41/1/41 
f 38/1/38 42/2/42 43/3/43 
f 43/3/43 39/4/39 38/1/38 
f 42/1/42 33/2/33 35/3/35 
f 35/3/35 43/4/43 42/1/42 
f 39/1/39 43/2/43 44/3/44 
f 44/3/44 40/4/40 39/1/39 
f 43/1/43 35/2/35 36/3/36 
f 36/3/36 44/4/44 43/1/43 
f 40/1/40 44/2/44 41/3/41 
f 41/3/41 37/4/37 40/1/40 
f 44/1/44 36/2/36 34/3/34 
f 34/3/34 41/4/41 44/1/44 
f 45/3/45 46/4/46 47/1/47 
f 47/1/47 48/2/48 45/3/45 
f 49/3/49 50/4/50 46/1/46 
f 46/1/46 45/2/45 49/3/49 
f 51/3/51 52/4/52 50/1/50 
f 50/1/50 49/2/49 51/3/51 
f 48/3/48 47/4/47 52/1/52 
f 52/1/52 51/2/51 48/3/48 
f 53/3/53 45/4/45 48/1/48 
f 48/1/48 54/2/54 53/3/53 
f 55/3/55 49/4/49 45/1/45 
f 45/1/45 53/2/53 55/3/55 
f 56/3/56 51/4/51 49/1/49 
f 49/1/49 55/2/55 56/3/56 
f 54/3/54 48/4/48 51/1/51 
f 51/1/51 56/2/56 54/3/54 
f 57/3/57 53/4/53 54/1/54 
f 54/1/54 58/2/58 57/3/57 
f 59/3/59 55/4/55 53/1/53 
f 53/1/53 57/2/57 59/3/59 
f 60/3/60 56/4/56 55/1/55 
f 55/1/55 59/2/59 60/3/60 
f 58/3/58 54/4/54 56/1/56 
f 56/1/56 60/2/60 58/3/58 
f 61/3/61 57/4/57 58/1/58 
f 58/1/58 62/2/62 61/3/61 
f 63/3/63 59/4/59 57/1/57 
f 57/1/57 61/2/61 63/3/63 
f 64/3/64 60/4/60 59/1/59 
f 59/1/59 63/2/63 64/3/64 
f 62/3/62 58/4/58 60/1/60 
f 60/1/60 64/2/64 62/3/62 
f 65/3/65 61/4/61 62/1/62 
f 62/1/62 66/2/66 65/3/65 
f 67/3/67 63/4/63 61/1/61 
f 61/1/61 65/2/65 67/3/67 
f 68/3/68 64/4/64 63/1/63 
f 63/1/63 67/2/67 68/3/68 
f 66/3/66 62/4/62 64/1/64 
f 64/1/64 68/2/68 66/3/66 
f 69/3/69 65/4/65 66/1/66 
f 66/1/66 70/2/70 69/3/69 
f 71/3/71 67/4/67 65/1/65 
f 65/1/65 69/2/69 71/3/71 
f 72/3/72 68/4/68 67/1/67 
f 67/1/67 71/2/71 72/3/72 
f 70/3/70 66/4/66 68/1/68 
f 68/1/68 72/2/72 70/3/70 
f 73/3/73 69/4/69 70/1/70 
f 70/1/70 74/2/74 73/3/73 
f 75/3/75 71/4/71 69/1/69 
f 69/1/69 73/2/73 75/3/75 
f 76/3/76 72/4/72 71/1/71 
f 71/1/71 75/2/75 76/3/76 
f 74/3/74 70/4/70 72/1/72 
f 72/1/72 76/2/76 74/3/74 
f 46/3/46 73/4/73 74/1/74 
f 74/1/74 47/2/47 46/3/46 
f 50/3/50 75/4/75 73/1/73 
f 73/1/73 46/2/46 50/3/50 
f 52/3/52 76/4/76 75/1/75 
f 75/1/75 50/2/50 52/3/52 
f 47/3/47 74/4/74 76/1/76 
f 76/1/76 52/2/52 47/3/47 
f 46/5/77 45/6/77 53/7/77 
f 53/7/77 57/8/77 61/9/77 
f 46/5/77 53/7/77 61/9/77 
f 61/9/77 65/10/77 69/11/77 
f 46/5/77 61/9/77 69/11/77 
f 73/12/77 46/5/77 69/11/77 
# 150 faces

