# 3ds Max Wavefront OBJ Exporter v0.97b - (c)2007 guruware
# File Created: 23.03.2018 17:40:24

mtllib UDC_BycicleLocker.mtl

#
# object UDC_BycicleLocker
#

v  -0.071883246303 -0.000107746571 -0.003279582364
v  -0.071883246303 -0.000107746571 0.003279582364
v  -0.078442394733 -0.000107746571 0.003279582364
v  -0.078442394733 -0.000107746571 -0.003279582364
v  0.071882575750 -0.000107746571 -0.003279582364
v  0.078441694379 -0.000107746571 -0.003279582364
v  0.078441694379 -0.000107746571 0.003279582364
v  0.071882575750 -0.000107746571 0.003279582364
v  -0.064764603972 0.162264376879 0.003279582364
v  -0.070674195886 0.165110290051 0.003279582364
v  -0.078442394733 0.131075561047 0.003279582364
v  -0.071883246303 0.131075561047 0.003279582364
v  -0.044818606228 0.187275886536 0.003279582364
v  -0.048908170313 0.192404031754 0.003279582364
v  -0.015995778143 0.201156198978 0.003279582364
v  -0.017455346882 0.207550942898 0.003279582364
v  0.015995129943 0.201156198978 0.003279582364
v  0.017454653978 0.207550942898 0.003279582364
v  0.044817924500 0.187275886536 0.003279582364
v  0.048907466233 0.192404031754 0.003279582364
v  0.064763948321 0.162264376879 0.003279582364
v  0.070673502982 0.165110290051 0.003279582364
v  0.071882575750 0.131075561047 0.003279582364
v  0.078441761434 0.131075561047 0.003279582364
v  -0.064764603972 0.162264376879 -0.003279582364
v  -0.071883246303 0.131075561047 -0.003279582364
v  -0.044818606228 0.187275886536 -0.003279582364
v  -0.015995778143 0.201156198978 -0.003279582364
v  0.015995129943 0.201156198978 -0.003279582364
v  0.044817924500 0.187275886536 -0.003279582364
v  0.064763948321 0.162264376879 -0.003279582364
v  0.071882575750 0.131075561047 -0.003279582364
v  -0.070674195886 0.165110290051 -0.003279582364
v  -0.078442394733 0.131075561047 -0.003279582364
v  -0.048908170313 0.192404031754 -0.003279582364
v  -0.017455346882 0.207550942898 -0.003279582364
v  0.017454653978 0.207550942898 -0.003279582364
v  0.048907466233 0.192404031754 -0.003279582364
v  0.070673502982 0.165110290051 -0.003279582364
v  0.078441761434 0.131075561047 -0.003279582364
# 40 vertices

vn 0.577350258827 -0.577350258827 -0.577350318432
vn 0.577350258827 -0.577350258827 0.577350258827
vn -0.577350258827 -0.577350258827 0.577350318432
vn -0.577350258827 -0.577350258827 -0.577350258827
vn 0.577350080013 -0.577350378036 -0.577350318432
vn 0.577350080013 -0.577350437641 0.577350258827
vn -0.577350258827 -0.577350258827 0.577350258827
vn 0.584728717804 -0.281590372324 0.760788559914
vn -0.676642656326 0.325853794813 0.660283267498
vn -0.726055085659 0.081806689501 0.682753026485
vn 0.675739467144 -0.076137542725 0.733197987080
vn 0.404644548893 -0.507408440113 0.760788738728
vn -0.468251496553 0.587168276310 0.660283267498
vn 0.144415780902 -0.632728159428 0.760788500309
vn -0.167117238045 0.732187092304 0.660283207893
vn -0.144415929914 -0.632728099823 0.760788500309
vn 0.167117282748 0.732187092304 0.660283148289
vn -0.404644548893 -0.507408559322 0.760788619518
vn 0.468251407146 0.587168216705 0.660283327103
vn -0.584728538990 -0.281590342522 0.760788679123
vn 0.676642239094 0.325854420662 0.660283386707
vn -0.675739586353 -0.076137386262 0.733197867870
vn 0.726055204868 0.081807143986 0.682752788067
vn 0.584728777409 -0.281590372324 -0.760788500309
vn 0.675739467144 -0.076137535274 -0.733197927475
vn 0.404644519091 -0.507408440113 -0.760788738728
vn 0.144415795803 -0.632728219032 -0.760788500309
vn -0.144415915012 -0.632728099823 -0.760788559914
vn -0.404644548893 -0.507408559322 -0.760788619518
vn -0.584728538990 -0.281590342522 -0.760788679123
vn -0.675739586353 -0.076137393713 -0.733197867870
vn -0.676642715931 0.325853824615 -0.660283207893
vn -0.726055026054 0.081806689501 -0.682753086090
vn -0.468251496553 0.587168216705 -0.660283267498
vn -0.167117238045 0.732187092304 -0.660283207893
vn 0.167117267847 0.732187092304 -0.660283148289
vn 0.468251407146 0.587168216705 -0.660283327103
vn 0.676642298698 0.325854390860 -0.660283386707
vn 0.726055264473 0.081807151437 -0.682752788067
# 39 vertex normals

vt 0.267586380243 0.028427332640 0.000000000000
vt 0.252248793840 0.028427332640 0.000000000000
vt 0.252248793840 0.015578259714 0.000000000000
vt 0.267586380243 0.015578259714 0.000000000000
vt 0.267586320639 0.310057878494 0.000000000000
vt 0.267586320639 0.322907000780 0.000000000000
vt 0.252248674631 0.322907000780 0.000000000000
vt 0.252248674631 0.310057878494 0.000000000000
vt 0.396811217070 0.296112805605 0.000000000000
vt 0.403465956450 0.307689428329 0.000000000000
vt 0.323880761862 0.322907030582 0.000000000000
vt 0.323880761862 0.310057878494 0.000000000000
vt 0.455296844244 0.257039546967 0.000000000000
vt 0.467288315296 0.265050768852 0.000000000000
vt 0.487753957510 0.200576975942 0.000000000000
vt 0.502707064152 0.203436180949 0.000000000000
vt 0.487753957510 0.137908264995 0.000000000000
vt 0.502707064152 0.135049119592 0.000000000000
vt 0.455296844244 0.081445768476 0.000000000000
vt 0.467288315296 0.073434472084 0.000000000000
vt 0.396811217070 0.042372517288 0.000000000000
vt 0.403465956450 0.030795820057 0.000000000000
vt 0.323880761862 0.028427377343 0.000000000000
vt 0.323880761862 0.015578306280 0.000000000000
vt 0.396811217070 0.162818044424 0.000000000000
vt 0.396811217070 0.175667136908 0.000000000000
vt 0.323880761862 0.175667136908 0.000000000000
vt 0.323880761862 0.162818044424 0.000000000000
vt 0.455296844244 0.162818044424 0.000000000000
vt 0.455296844244 0.175667151809 0.000000000000
vt 0.267586350441 0.137908264995 0.000000000000
vt 0.252248764038 0.137908264995 0.000000000000
vt 0.252248764038 0.081445731223 0.000000000000
vt 0.267586380243 0.081445731223 0.000000000000
vt 0.267586350441 0.200576975942 0.000000000000
vt 0.252248734236 0.200576975942 0.000000000000
vt 0.267586320639 0.257039546967 0.000000000000
vt 0.252248674631 0.257039546967 0.000000000000
vt 0.396811217070 0.175667151809 0.000000000000
vt 0.323880761862 0.175667122006 0.000000000000
vt 0.487753957510 0.137908309698 0.000000000000
vt 0.502707064152 0.203436210752 0.000000000000
vt 0.487753957510 0.200577005744 0.000000000000
vt 0.403465956450 0.162818089128 0.000000000000
vt 0.403465956450 0.175667196512 0.000000000000
vt 0.323880761862 0.175667196512 0.000000000000
vt 0.323880761862 0.162818089128 0.000000000000
vt 0.467288315296 0.162818089128 0.000000000000
vt 0.467288315296 0.175667196512 0.000000000000
vt 0.252248764038 0.203436166048 0.000000000000
vt 0.267586350441 0.203436166048 0.000000000000
vt 0.267586380243 0.265050768852 0.000000000000
vt 0.252248764038 0.265050768852 0.000000000000
vt 0.252248734236 0.135049089789 0.000000000000
vt 0.267586320639 0.135049089789 0.000000000000
vt 0.252248734236 0.073434434831 0.000000000000
vt 0.267586350441 0.073434434831 0.000000000000
vt 0.403465956450 0.162818133831 0.000000000000
vt 0.323880761862 0.175667226315 0.000000000000
vt 0.323880761862 0.162818133831 0.000000000000
vt 0.017128095031 0.175667166710 0.000000000000
vt 0.017128095031 0.162818059325 0.000000000000
vt 0.017128117383 0.028427332640 0.000000000000
vt 0.017128117383 0.015578259714 0.000000000000
vt 0.017128095031 0.175667122006 0.000000000000
vt 0.017128095031 0.162818029523 0.000000000000
vt 0.017128087580 0.322907000780 0.000000000000
vt 0.017128087580 0.310057878494 0.000000000000
vt 0.017128080130 0.028427332640 0.000000000000
vt 0.017128080130 0.015578259714 0.000000000000
vt 0.017128065228 0.175667092204 0.000000000000
vt 0.017128065228 0.162818029523 0.000000000000
vt 0.017128057778 0.322906941175 0.000000000000
vt 0.017128057778 0.310057878494 0.000000000000
vt 0.017128065228 0.175667196512 0.000000000000
vt 0.017128065228 0.162818118930 0.000000000000
# 76 texture coords

g UDC_BycicleLocker
usemtl Prop_Newsstand
s 1
f 1/1/1 2/2/2 3/3/3 
f 3/3/3 4/4/4 1/1/1 
f 5/5/4 6/6/5 7/7/6 
f 7/7/6 8/8/7 5/5/4 
f 9/9/8 10/10/9 11/11/10 
f 11/11/10 12/12/11 9/9/8 
f 13/13/12 14/14/13 10/10/9 
f 10/10/9 9/9/8 13/13/12 
f 15/15/14 16/16/15 14/14/13 
f 14/14/13 13/13/12 15/15/14 
f 17/17/16 18/18/17 16/16/15 
f 16/16/15 15/15/14 17/17/16 
f 19/19/18 20/20/19 18/18/17 
f 18/18/17 17/17/16 19/19/18 
f 21/21/20 22/22/21 20/20/19 
f 20/20/19 19/19/18 21/21/20 
f 23/23/22 24/24/23 22/22/21 
f 22/22/21 21/21/20 23/23/22 
f 25/25/24 9/26/8 12/27/11 
f 12/27/11 26/28/25 25/25/24 
f 27/29/26 13/30/12 9/26/8 
f 9/26/8 25/25/24 27/29/26 
f 28/31/27 15/32/14 13/33/12 
f 13/33/12 27/34/26 28/31/27 
f 29/35/28 17/36/16 15/32/14 
f 15/32/14 28/31/27 29/35/28 
f 30/37/29 19/38/18 17/36/16 
f 17/36/16 29/35/28 30/37/29 
f 31/39/30 21/25/20 19/29/18 
f 19/29/18 30/30/29 31/39/30 
f 32/40/31 23/28/22 21/25/20 
f 21/25/20 31/39/30 32/40/31 
f 33/22/32 25/21/24 26/23/25 
f 26/23/25 34/24/33 33/22/32 
f 35/20/34 27/19/26 25/21/24 
f 25/21/24 33/22/32 35/20/34 
f 36/18/35 28/41/27 27/19/26 
f 27/19/26 35/20/34 36/18/35 
f 37/42/36 29/43/28 28/41/27 
f 28/41/27 36/18/35 37/42/36 
f 38/14/37 30/13/29 29/43/28 
f 29/43/28 37/42/36 38/14/37 
f 39/10/38 31/9/30 30/13/29 
f 30/13/29 38/14/37 39/10/38 
f 40/11/39 32/12/31 31/9/30 
f 31/9/30 39/10/38 40/11/39 
f 10/44/9 33/45/32 34/46/33 
f 34/46/33 11/47/10 10/44/9 
f 14/48/13 35/49/34 33/45/32 
f 33/45/32 10/44/9 14/48/13 
f 16/50/15 36/51/35 35/52/34 
f 35/52/34 14/53/13 16/50/15 
f 18/54/17 37/55/36 36/51/35 
f 36/51/35 16/50/15 18/54/17 
f 20/56/19 38/57/37 37/55/36 
f 37/55/36 18/54/17 20/56/19 
f 22/45/21 39/58/38 38/48/37 
f 38/48/37 20/49/19 22/45/21 
f 24/59/23 40/60/39 39/58/38 
f 39/58/38 22/45/21 24/59/23 
f 11/47/10 34/46/33 4/61/4 
f 4/61/4 3/62/3 11/47/10 
f 34/24/33 26/23/25 1/63/1 
f 1/63/1 4/64/4 34/24/33 
f 26/28/25 12/27/11 2/65/2 
f 2/65/2 1/66/1 26/28/25 
f 12/12/11 11/11/10 3/67/3 
f 3/67/3 2/68/2 12/12/11 
f 24/24/23 23/23/22 8/69/7 
f 8/69/7 7/70/6 24/24/23 
f 23/28/22 32/40/31 5/71/4 
f 5/71/4 8/72/7 23/28/22 
f 32/12/31 40/11/39 6/73/5 
f 6/73/5 5/74/4 32/12/31 
f 40/60/39 24/59/23 7/75/6 
f 7/75/6 6/76/5 40/60/39 
# 76 faces

