# Created with Anim8or 0.98
# Object "UDC_Grass":

mtllib UDC_Grass.mtl

# Shape "mesh01":
g mesh01
# No. points 48:
v -0.24140 0.26740 -0.20010
v -0.18580 -0.02070 -0.15860
v 0 -0.02070 -0.23530
v -0.01010 0.26740 -0.29570
v 0.18580 -0.02070 -0.23530
v 0.22120 0.26740 -0.29570
v -0.04540 0.24910 -0.23280
v -0.02840 -0.02070 -0.18000
v 0.13030 -0.02070 -0.07860
v 0.15210 0.24910 -0.10660
v 0.23020 -0.02070 0.06400
v 0.27640 0.24910 0.07080
v 0.33690 0.24780 -0.02060
v 0.27880 -0.02200 -0.00950
v 0.20660 -0.02200 0.16440
v 0.24700 0.24780 0.19580
v 0.08350 -0.02200 0.28750
v 0.09380 0.24780 0.34900
v 0.22460 0.27920 0.37020
v 0.18860 -0.02200 0.30450
v -0.02140 -0.02200 0.31350
v -0.03680 0.27920 0.38140
v -0.20400 -0.02200 0.24700
v -0.26400 0.27920 0.29870
v -0.10920 0.28310 0.32750
v -0.07960 -0.02070 0.27020
v -0.12660 -0.02070 0.05700
v -0.16770 0.28310 0.06220
v -0.09160 -0.02070 -0.14160
v -0.12410 0.28310 -0.18510
v -0.30940 0.29880 0.23120
v -0.24050 -0.02070 0.19280
v -0.28850 -0.02070 -0.02490
v -0.36920 0.29880 -0.03980
v -0.25270 -0.02070 -0.22780
v -0.32470 0.29880 -0.29230
v 0.34960 0.28960 -0.29260
v 0.28300 -0.02200 -0.21510
v 0.34820 -0.02200 -0.00760
v 0.43080 0.28960 -0.03440
v 0.33070 -0.02200 0.19260
v 0.40900 0.28960 0.21480
v 0.23600 0.20110 0.17530
v 0.19770 -0.01960 0.14790
v 0.04380 -0.01960 0.15450
v 0.04440 0.20110 0.18340
v -0.09000 -0.01960 0.10580
v -0.12210 0.20110 0.12280

# No. normals 80:
vn -0.37367 -0.20250 -0.90519
vn -0.37404 -0.20284 -0.90496
vn 0 -0.20519 -0.97872
vn 0 -0.20519 -0.97872
vn 0.53386 -0.12988 -0.83554
vn 0.53389 -0.12985 -0.83552
vn 0.81262 -0.12474 -0.56929
vn 0.81257 -0.12479 -0.56935
vn 0.90846 -0.18011 0.37718
vn 0.90841 -0.17995 0.37738
vn 0.69491 -0.18493 0.69491
vn 0.69491 -0.18493 0.69491
vn 0.04179 -0.21770 0.97512
vn 0.04178 -0.21769 0.97512
vn -0.33354 -0.22352 0.91586
vn -0.33338 -0.22362 0.91589
vn -0.96768 -0.13452 0.21332
vn -0.96766 -0.13456 0.21337
vn -0.97657 -0.12917 -0.17210
vn -0.97657 -0.12912 -0.17217
vn -0.95034 -0.23012 0.20954
vn -0.95027 -0.23024 0.20969
vn -0.95383 -0.24877 -0.16830
vn -0.95383 -0.24888 -0.16810
vn 0.91905 -0.26826 -0.28878
vn 0.91892 -0.26845 -0.28899
vn 0.96494 -0.24854 0.08435
vn 0.96495 -0.24849 0.08441
vn 0.04248 -0.13035 0.99056
vn 0.04188 -0.12984 0.99065
vn -0.33950 -0.12122 0.93276
vn -0.33949 -0.12123 0.93276
vn -0.37385 -0.20267 -0.90507
vn -0.37367 -0.20250 -0.90519
vn -0.25336 -0.20687 -0.94499
vn -0.12674 -0.20779 -0.96993
vn 0 -0.20519 -0.97872
vn 0 -0.20519 -0.97872
vn 0.53387 -0.12986 -0.83553
vn 0.53386 -0.12988 -0.83554
vn 0.63740 -0.13033 -0.75943
vn 0.73188 -0.12860 -0.66919
vn 0.81259 -0.12477 -0.56932
vn 0.81257 -0.12479 -0.56935
vn 0.90843 -0.18003 0.37728
vn 0.90846 -0.18011 0.37718
vn 0.85123 -0.18470 0.49122
vn 0.77885 -0.18633 0.59889
vn 0.69491 -0.18493 0.69491
vn 0.69491 -0.18493 0.69491
vn 0.04179 -0.21769 0.97512
vn 0.04179 -0.21770 0.97512
vn -0.08469 -0.22324 0.97108
vn -0.21180 -0.22525 0.95100
vn -0.33346 -0.22357 0.91587
vn -0.33338 -0.22362 0.91589
vn -0.96767 -0.13454 0.21335
vn -0.96768 -0.13452 0.21332
vn -0.98708 -0.13500 0.08630
vn -0.99010 -0.13317 -0.04437
vn -0.97657 -0.12915 -0.17214
vn -0.97657 -0.12912 -0.17217
vn -0.95030 -0.23018 0.20961
vn -0.95034 -0.23012 0.20954
vn -0.96699 -0.24023 0.08501
vn -0.96817 -0.24659 -0.04292
vn -0.95383 -0.24883 -0.16820
vn -0.95383 -0.24888 -0.16810
vn 0.91899 -0.26835 -0.28888
vn 0.91905 -0.26826 -0.28878
vn 0.94938 -0.26597 -0.16713
vn 0.96494 -0.25928 -0.04072
vn 0.96495 -0.24851 0.08438
vn 0.96495 -0.24849 0.08441
vn 0.04218 -0.13009 0.99060
vn 0.04248 -0.13035 0.99056
vn -0.08649 -0.12930 0.98783
vn -0.21597 -0.12620 0.96821
vn -0.33950 -0.12122 0.93276
vn -0.33949 -0.12123 0.93276

# No. texture coordinates 8:
vt 0.00050 0.999501
vt 0.00050 0.00050
vt 0.50000 0.00050
vt 0.50000 0.999501
vt 0.9995 0.00050
vt 0.9995 0.999501
vt 0.50000 0.00050
vt 0.50000 0.999501

# No. faces 32:

usemtl Prop_Grass_T

f 3/3/35 2/2/34 1/1/33
f 1/1/33 4/4/36 3/3/35
f 5/5/37 3/3/35 4/4/36
f 4/4/36 6/6/38 5/5/37
f 9/7/41 8/5/40 7/6/39
f 7/6/39 10/8/42 9/7/41
f 11/2/43 9/7/41 10/8/42
f 10/8/42 12/1/44 11/2/43
f 15/7/47 14/5/46 13/6/45
f 13/6/45 16/8/48 15/7/47
f 17/2/49 15/7/47 16/8/48
f 16/8/48 18/1/50 17/2/49
f 21/3/53 20/2/52 19/1/51
f 19/1/51 22/4/54 21/3/53
f 23/5/55 21/3/53 22/4/54
f 22/4/54 24/6/56 23/5/55
f 27/7/59 26/5/58 25/6/57
f 25/6/57 28/8/60 27/7/59
f 29/2/61 27/7/59 28/8/60
f 28/8/60 30/1/62 29/2/61
f 33/3/65 32/2/64 31/1/63
f 31/1/63 34/4/66 33/3/65
f 35/5/67 33/3/65 34/4/66
f 34/4/66 36/6/68 35/5/67
f 39/3/71 38/2/70 37/1/69
f 37/1/69 40/4/72 39/3/71
f 41/5/73 39/3/71 40/4/72
f 40/4/72 42/6/74 41/5/73
f 45/3/77 44/2/76 43/1/75
f 43/1/75 46/4/78 45/3/77
f 47/5/79 45/3/77 46/4/78
f 46/4/78 48/6/80 47/5/79

# End of Object "UDC_Grass"
