# 3ds Max Wavefront OBJ Exporter v0.97b - (c)2007 guruware
# File Created: 23.03.2018 17:15:33

mtllib UDC_GarbageBinBig.mtl

#
# object UDC_GarbageBinBig
#

v  0.255584776402 -0.000760825526 0.148258060217
v  -0.255567431450 -0.000760895316 0.148257911205
v  -0.280345797539 -0.000760893105 0.123479574919
v  -0.280345678329 -0.000760893105 -0.158776476979
v  -0.255567371845 -0.000760895316 -0.183554828167
v  0.255584895611 -0.000760768307 -0.183554679155
v  0.280363202095 -0.000760770519 -0.158776298165
v  0.280363142490 -0.000760827679 0.123479723930
v  -0.301175266504 0.387891292572 0.161040648818
v  -0.301175177097 0.387891322374 -0.161042064428
v  0.301192522049 0.387891352177 -0.161041870713
v  0.301192462444 0.387891322374 0.161040857434
v  0.272155195475 0.387891322374 0.190078109503
v  -0.272137939930 0.387891292572 0.190077930689
v  0.272155284882 0.387891352177 -0.190079212189
v  -0.272137850523 0.387891352177 -0.190079346299
v  -0.318409979343 0.387891322374 -0.177519470453
v  -0.318410068750 0.387891292572 0.177516996861
v  0.318427264690 0.387891322374 0.177517205477
v  0.318427383900 0.387891352177 -0.177519291639
v  -0.285848826170 0.387891292572 0.210078269243
v  0.285866022110 0.387891322374 0.210078448057
v  0.285866171122 0.387891352177 -0.210080578923
v  -0.285848706961 0.387891352177 -0.210080742836
v  -0.318410098553 0.361948162317 0.177516996861
v  -0.318409979343 0.361948251724 -0.177519470453
v  0.318427383900 0.361948311329 -0.177519291639
v  0.318427264690 0.361948251724 0.177517175674
v  0.285866022110 0.361948251724 0.210078448057
v  -0.285848855972 0.361948162317 0.210078269243
v  0.285866171122 0.361948311329 -0.210080578923
v  -0.285848736763 0.361948251724 -0.210080757737
v  0.215475916862 0.431074917316 0.077904842794
v  0.229995846748 0.431074917316 0.063384875655
v  0.229995906353 0.447931855917 -0.122941598296
v  0.215475946665 0.447931855917 -0.137461557984
v  -0.215850591660 0.447931766510 -0.137461662292
v  -0.230370491743 0.447931766510 -0.122941732407
v  -0.230370551348 0.431074857712 0.063384741545
v  -0.215850651264 0.431074857712 0.077904701233
v  -0.292094230652 0.409483075142 0.154684916139
v  -0.292094171047 0.409483104944 -0.152499929070
v  0.294690310955 0.409483134747 -0.152499750257
v  0.294690251350 0.409483104944 0.154685094953
v  0.267246067524 0.409483104944 0.182129263878
v  -0.264650106430 0.409483075142 0.182129085064
v  0.267246156931 0.409483134747 -0.179943889380
v  -0.264650017023 0.409483104944 -0.179944068193
v  0.126632496715 0.430348187685 0.125529423356
v  0.091056823730 0.420392930508 0.120230719447
v  0.091030664742 0.411505103111 0.163306370378
v  0.126618772745 0.424913406372 0.153549909592
v  0.206165999174 0.430348187685 0.125529453158
v  0.206152305007 0.424913406372 0.153549924493
v  0.242709249258 0.420979499817 0.117479190230
v  0.242683097720 0.412091642618 0.160554811358
v  0.091030664742 0.406754732132 0.163306370378
v  0.126618772745 0.420162975788 0.153549909592
v  0.126632496715 0.425597786903 0.125529423356
v  0.091056831181 0.415642529726 0.120230719447
v  0.206152305007 0.420163035393 0.153549924493
v  0.206165999174 0.425597786903 0.125529453158
v  0.242683097720 0.407341241837 0.160554811358
v  0.242709249258 0.416229069233 0.117479190230
v  -0.156239926815 0.430348098278 0.125529333949
v  -0.191815614700 0.420392870903 0.120230644941
v  -0.191841781139 0.411505043507 0.163306295872
v  -0.156253665686 0.424913346767 0.153549820185
v  -0.076706416905 0.430348157883 0.125529363751
v  -0.076720125973 0.424913346767 0.153549879789
v  -0.040163177997 0.420979440212 0.117479115725
v  -0.040189355612 0.412091553211 0.160554707050
v  -0.191841781139 0.406754672527 0.163306295872
v  -0.156253665686 0.420162945986 0.153549820185
v  -0.156239926815 0.425597667694 0.125529333949
v  -0.191815614700 0.415642499924 0.120230644941
v  -0.076720125973 0.420162975788 0.153549879789
v  -0.076706416905 0.425597727299 0.125529363751
v  -0.040189355612 0.407341182232 0.160554707050
v  -0.040163177997 0.416229039431 0.117479115725
# 80 vertices

vn 0.000000065846 -1.000000000000 0.000000101098
vn 0.000000136537 -1.000000000000 -0.000000225804
vn 0.000000129372 -1.000000000000 -0.000000070840
vn 0.000000082685 -1.000000000000 0.000000075876
vn 0.000000090792 -1.000000000000 0.000000059376
vn 0.000000248476 -1.000000000000 -0.000000337742
vn 0.000000244185 -1.000000000000 -0.000000244936
vn 0.000000134862 -1.000000000000 -0.000000015211
vn -0.921208858490 -0.051619365811 -0.385628998280
vn -0.926955997944 -0.084994748235 0.365415483713
vn -0.902247488499 0.177103877068 0.393171370029
vn -0.897878527641 0.209452405572 -0.387225806713
vn 0.926955938339 -0.084994480014 0.365415692329
vn 0.921209156513 -0.051619004458 -0.385628312826
vn 0.902376174927 0.171687230468 -0.395273000002
vn 0.906152904034 0.136770188808 0.400226026773
vn -0.380560100079 -0.114959888160 0.917582809925
vn 0.380559980869 -0.114959850907 0.917582869530
vn 0.384702175856 0.135920256376 0.912978589535
vn -0.392045706511 0.154887244105 0.906813144684
vn 0.374986648560 -0.031541332603 -0.926493465900
vn 0.380397081375 0.209866762161 -0.900696396828
vn -0.374986022711 -0.031541455537 -0.926493704319
vn -0.386695116758 0.226387724280 -0.893988549709
vn -0.000000080253 1.000000000000 0.000000083942
vn 0.000000088458 1.000000000000 0.000000092530
vn -0.000000080247 1.000000000000 0.000000083942
vn 0.000000088464 1.000000000000 0.000000092530
vn -0.000000052128 1.000000000000 -0.000000035735
vn -0.000000054754 1.000000000000 0.000000037536
vn 0.000000000000 1.000000000000 -0.000000000000
vn -0.000000543027 1.000000000000 0.000000372242
vn -0.000000501644 1.000000000000 0.000000524702
vn -1.000000000000 0.000001095412 -0.000000255723
vn -1.000000000000 0.000001148756 -0.000000251825
vn -0.923879444599 0.000000028870 -0.382683604956
vn -0.923879504204 0.000000215382 -0.382683485746
vn 0.923879802227 -0.000000000000 -0.382682740688
vn 0.923879802227 0.000000000000 -0.382682770491
vn 0.923879384995 -0.000000439611 0.382683783770
vn 0.923879623413 -0.000000296023 0.382683277130
vn -0.000000312768 0.000000000000 1.000000000000
vn -0.382683545351 0.000000439610 0.923879504204
vn -0.382684051991 0.000000439611 0.923879265785
vn -0.707107126713 0.000000812293 0.707106411457
vn 0.707107603550 0.000000000000 -0.707105934620
vn 0.707107603550 0.000000000000 -0.707105994225
vn 0.000000287456 0.000000557797 -1.000000000000
vn 0.000000286704 0.000000574378 -1.000000000000
vn 0.000000312015 0.000000016582 -1.000000000000
vn 0.000000312768 0.000000000000 -1.000000000000
vn 0.707106947899 -0.000000265316 0.707106590271
vn 0.707107067108 0.000000000000 0.707106471062
vn -0.707107126713 0.000000820468 -0.707106411457
vn -0.707107245922 0.000001218441 -0.707106292248
vn 0.050430126488 0.989214003086 0.137522518635
vn 0.144980087876 0.984408795834 0.099599733949
vn 0.240059465170 0.967531740665 -0.079081170261
vn 0.081500165164 0.939779102802 -0.331923067570
vn -0.086987927556 0.933577418327 -0.347658246756
vn -0.293162107468 0.953615665436 -0.068360008299
vn -0.180106043816 0.981920659542 0.058254580945
vn -0.042454075068 0.993290007114 0.107576042414
vn -0.624460160732 0.739250004292 0.252108931541
vn -0.697233140469 0.671552658081 -0.250764846802
vn 0.729290068150 0.630913913250 -0.264733076096
vn 0.660312771797 0.703045845032 0.264033287764
vn 0.254007071257 0.726330459118 0.638689637184
vn -0.233833268285 0.737354993820 0.633742511272
vn 0.304659515619 0.648038506508 -0.698017656803
vn -0.287064403296 0.657821834087 -0.696322083473
vn -0.153903886676 0.969397544861 0.191264346242
vn -0.290980935097 0.937026739120 0.193160638213
vn -0.295841544867 0.936491370201 0.188312828541
vn -0.167163580656 0.967906773090 0.187650814652
vn 0.149232044816 0.970698297024 0.188347145915
vn 0.155315354466 0.969136893749 0.191444098949
vn 0.287630528212 0.938885152340 0.189111948013
vn 0.291687786579 0.936745703220 0.193457230926
vn 0.116727799177 0.000000000000 0.993163943291
vn 0.264393776655 0.000000000000 0.964414834976
vn 0.264393806458 0.000000000000 0.964414775372
vn 0.146695792675 0.000000000000 0.989181637764
vn 0.147316709161 0.000000215199 -0.989089369774
vn 0.066913455725 0.000000000000 -0.997758805752
vn 0.079704761505 0.000000008578 -0.996818542480
vn 0.147316709161 0.000000231053 -0.989089369774
vn -0.083404973149 0.000000000000 0.996515750885
vn -0.103619880974 0.000000000000 0.994616985321
vn -0.099033519626 0.000000000000 -0.995084106922
vn -0.116036914289 0.000000000000 -0.993244886398
vn -0.188321977854 0.000000000000 0.982107341290
vn -0.188321962953 0.000000000000 0.982107341290
vn -0.215135753155 0.000000000000 -0.976584136486
vn -0.153903961182 0.969397664070 0.191263571382
vn -0.290980041027 0.937026977539 0.193160653114
vn -0.295841097832 0.936491608620 0.188312366605
vn -0.167164012790 0.967906892300 0.187649920583
vn 0.149232417345 0.970698118210 0.188347756863
vn 0.155315771699 0.969136655331 0.191444903612
vn 0.287631452084 0.938884735107 0.189112797379
vn 0.291688740253 0.936745226383 0.193458095193
vn 0.116727694869 0.000000000000 0.993163943291
vn 0.264394134283 0.000000000000 0.964414715767
vn 0.264394164085 0.000000000000 0.964414715767
vn 0.146695718169 0.000000000000 0.989181637764
vn 0.147316262126 0.000000000000 -0.989089429379
vn 0.066913247108 0.000000000000 -0.997758805752
vn 0.079704456031 0.000000000000 -0.996818542480
vn -0.083404630423 0.000000000000 0.996515750885
vn -0.103619366884 0.000000000000 0.994617044926
vn -0.099033333361 0.000000000000 -0.995084106922
vn -0.116036698222 0.000000000000 -0.993244946003
vn -0.188320547342 0.000000000000 0.982107639313
vn -0.188320532441 0.000000000000 0.982107639313
vn -0.215135440230 0.000000000000 -0.976584196091
# 116 vertex normals

vt 0.197611719370 0.965596139431 0.000000000000
vt 0.802388072014 0.965596318245 0.000000000000
vt 0.880107879639 0.887909293175 0.000000000000
vt 0.880108058453 0.161432832479 0.000000000000
vt 0.802388310432 0.083745777607 0.000000000000
vt 0.197611957788 0.083745636046 0.000000000000
vt 0.119892120361 0.161432623863 0.000000000000
vt 0.119891941547 0.887909114361 0.000000000000
vt 0.860833764076 0.000579543121 0.000000000000
vt 0.234560906887 0.000579543121 0.000000000000
vt 0.133039653301 1.043536424637 0.000000000000
vt 0.866957247257 1.043536424637 0.000000000000
vt 0.765438914299 0.000579543121 0.000000000000
vt 0.139166057110 0.000579543121 0.000000000000
vt 0.133042573929 1.043536424637 0.000000000000
vt 0.866960167885 1.043536424637 0.000000000000
vt 1.154993057251 0.000579543121 0.000000000000
vt -0.133623212576 0.000579543121 0.000000000000
vt -0.185598194599 1.043536424637 0.000000000000
vt 1.206967830658 1.043536424637 0.000000000000
vt 0.167589366436 0.000579543121 0.000000000000
vt 0.054556876421 1.043536424637 0.000000000000
vt 0.072194516659 0.000579543121 0.000000000000
vt 0.054559797049 1.043536424637 0.000000000000
vt 0.802388072014 0.000579543121 0.000000000000
vt 0.197611719370 0.000579543121 0.000000000000
vt 0.145636767149 1.043536424637 0.000000000000
vt 0.854362964630 1.043536424637 0.000000000000
vt 0.832410514355 0.000579543121 0.000000000000
vt 0.945443034172 1.043536424637 0.000000000000
vt 0.927805364132 0.000579543121 0.000000000000
vt 0.945440053940 1.043536424637 0.000000000000
vt 0.132720530033 0.286682099104 0.000000000000
vt 0.132720679045 0.035004496574 0.000000000000
vt 0.172469645739 0.273062676191 0.000000000000
vt 0.172469794750 0.048623025417 0.000000000000
vt 0.867279887199 0.035004556179 0.000000000000
vt 0.867279767990 0.286682158709 0.000000000000
vt 0.827530801296 0.048623085022 0.000000000000
vt 0.827530622482 0.273062735796 0.000000000000
vt 0.207817524672 0.008090883493 0.000000000000
vt 0.792183160782 0.008090943098 0.000000000000
vt 0.239439189434 0.024622201920 0.000000000000
vt 0.760561406612 0.024622231722 0.000000000000
vt 0.792182922363 0.313595771790 0.000000000000
vt 0.760561227798 0.297063589096 0.000000000000
vt 0.207817316055 0.313595712185 0.000000000000
vt 0.239439010620 0.297063529491 0.000000000000
vt 0.035004496574 1.084141016006 0.000000000000
vt 0.035004496574 1.004594683647 0.000000000000
vt 0.286682099104 1.004594683647 0.000000000000
vt 0.286682099104 1.084141016006 0.000000000000
vt 0.713317871094 1.084141016006 0.000000000000
vt 0.713317871094 1.004594683647 0.000000000000
vt 0.964995443821 1.004594683647 0.000000000000
vt 0.964995443821 1.084141016006 0.000000000000
vt 0.207816869020 1.084141016006 0.000000000000
vt 0.207816869020 1.004594683647 0.000000000000
vt 0.792182445526 1.004594683647 0.000000000000
vt 0.792182445526 1.084141016006 0.000000000000
vt 0.008090883493 1.084141016006 0.000000000000
vt 0.008090883493 1.004594683647 0.000000000000
vt 0.686404228210 1.084141016006 0.000000000000
vt 0.686404228210 1.004594683647 0.000000000000
vt 0.207817316055 1.084141016006 0.000000000000
vt 0.207817316055 1.004594683647 0.000000000000
vt 0.792182922363 1.004594683647 0.000000000000
vt 0.792182922363 1.084141016006 0.000000000000
vt 0.991909027100 1.004594683647 0.000000000000
vt 0.991909027100 1.084141016006 0.000000000000
vt 0.313595712185 1.004594683647 0.000000000000
vt 0.313595712185 1.084141016006 0.000000000000
vt 0.629840433598 0.117339402437 0.000000000000
vt 0.663328170776 0.129340916872 0.000000000000
vt 0.663328051567 0.241570800543 0.000000000000
vt 0.629840373993 0.253572285175 0.000000000000
vt 0.369255840778 0.253572285175 0.000000000000
vt 0.335768163204 0.241570770741 0.000000000000
vt 0.335768222809 0.129340887070 0.000000000000
vt 0.369255959988 0.117339372635 0.000000000000
vt 0.053876429796 0.938390254974 0.000000000000
vt 0.266002148390 0.938390254974 0.000000000000
vt 0.273062676191 1.004594683647 0.000000000000
vt 0.048623025417 1.004594683647 0.000000000000
vt 0.733997821808 0.938390254974 0.000000000000
vt 0.946123480797 0.938390254974 0.000000000000
vt 0.951376914978 1.004594683647 0.000000000000
vt 0.726937294006 1.004594683647 0.000000000000
vt 0.250760614872 0.938390254974 0.000000000000
vt 0.743291378021 0.938390254974 0.000000000000
vt 0.760560810566 1.004594683647 0.000000000000
vt 0.239438593388 1.004594683647 0.000000000000
vt 0.031192392111 0.938390254974 0.000000000000
vt 0.024622201920 1.004594683647 0.000000000000
vt 0.711313724518 0.938390254974 0.000000000000
vt 0.702936410904 1.004594683647 0.000000000000
vt 0.256708443165 0.938390254974 0.000000000000
vt 0.749239206314 0.938390254974 0.000000000000
vt 0.760561227798 1.004594683647 0.000000000000
vt 0.239439010620 1.004594683647 0.000000000000
vt 0.968807578087 0.938390254974 0.000000000000
vt 0.975377798080 1.004594683647 0.000000000000
vt 0.288686186075 0.938390254974 0.000000000000
vt 0.297063529491 1.004594683647 0.000000000000
vt 0.749239385128 0.031192421913 0.000000000000
vt 0.812534511089 0.053876489401 0.000000000000
vt 0.812534332275 0.266002207994 0.000000000000
vt 0.749239206314 0.288686245680 0.000000000000
vt 0.256708443165 0.288686186075 0.000000000000
vt 0.193413347006 0.266002148390 0.000000000000
vt 0.193413496017 0.053876429796 0.000000000000
vt 0.256708621979 0.031192392111 0.000000000000
vt 0.765016078949 0.677996337414 0.000000000000
vt 0.999328374863 0.740370154381 0.000000000000
vt 0.999500513077 0.233300819993 0.000000000000
vt 0.765106379986 0.348150283098 0.000000000000
vt 0.241184353828 0.677996575832 0.000000000000
vt 0.241274595261 0.348150521517 0.000000000000
vt 0.000499516726 0.772761285305 0.000000000000
vt 0.000671714544 0.265692293644 0.000000000000
# 120 texture coords

g UDC_GarbageBinBig
usemtl Prop_GarbageBin
s 1
f 1/1/1 2/2/2 3/3/3 
f 1/1/1 3/3/3 4/4/4 
f 5/5/5 6/6/6 7/7/7 
f 5/5/5 7/7/7 8/8/8 
f 4/4/4 5/5/5 8/8/8 
f 1/1/1 4/4/4 8/8/8 
s 2
f 4/9/9 3/10/10 9/11/11 
f 9/11/11 10/12/12 4/9/9 
f 8/13/13 7/14/14 11/15/15 
f 11/15/15 12/16/16 8/13/13 
f 2/17/17 1/18/18 13/19/19 
f 13/19/19 14/20/20 2/17/17 
f 3/10/10 2/21/17 14/22/20 
f 14/22/20 9/11/11 3/10/10 
f 7/14/14 6/23/21 15/24/22 
f 15/24/22 11/15/15 7/14/14 
f 6/25/21 5/26/23 16/27/24 
f 16/27/24 15/28/22 6/25/21 
f 1/29/18 8/13/13 12/16/16 
f 12/16/16 13/30/19 1/29/18 
f 5/31/23 4/9/9 10/12/12 
f 10/12/12 16/32/24 5/31/23 
s 1
f 17/33/25 18/34/25 10/35/25 
f 9/36/26 10/35/26 18/34/26 
f 19/37/27 20/38/27 12/39/27 
f 11/40/28 12/39/28 20/38/28 
f 21/41/29 22/42/29 14/43/29 
f 13/44/30 14/43/30 22/42/30 
s 2
f 18/34/31 21/41/31 9/36/31 
s 1
f 14/43/31 9/36/31 21/41/31 
s 2
f 20/38/31 23/45/31 11/40/31 
s 1
f 15/46/31 11/40/31 23/45/31 
f 23/45/31 24/47/31 15/46/31 
f 16/48/31 15/46/31 24/47/31 
s 2
f 22/42/31 19/37/31 13/44/31 
s 1
f 12/39/31 13/44/31 19/37/31 
s 2
f 24/47/32 17/33/32 16/48/32 
s 1
f 10/35/33 16/48/33 17/33/33 
s 4
f 25/49/34 18/50/35 17/51/36 
f 17/51/36 26/52/37 25/49/34 
f 27/53/38 20/54/39 19/55/40 
f 19/55/40 28/56/41 27/53/38 
s 8
f 29/57/42 22/58/42 21/59/43 
f 21/59/43 30/60/44 29/57/42 
f 30/61/44 21/62/43 18/50/45 
f 18/50/45 25/49/45 30/61/44 
s 4
f 31/63/46 23/64/47 20/54/39 
f 20/54/39 27/53/38 31/63/46 
s 8
f 32/65/48 24/66/49 23/67/50 
f 23/67/50 31/68/51 32/65/48 
s 4
f 28/56/41 19/55/40 22/69/52 
f 22/69/52 29/70/53 28/56/41 
f 26/52/37 17/51/36 24/71/54 
f 24/71/54 32/72/55 26/52/37 
s 2
f 33/73/56 34/74/57 35/75/58 
f 33/73/56 35/75/58 36/76/59 
f 33/73/56 36/76/59 37/77/60 
f 33/73/56 37/77/60 38/78/61 
f 33/73/56 38/78/61 39/79/62 
f 33/73/56 39/79/62 40/80/63 
f 41/81/64 42/82/65 10/83/12 
f 10/83/12 9/84/11 41/81/64 
f 43/85/66 44/86/67 12/87/16 
f 12/87/16 11/88/15 43/85/66 
f 45/89/68 46/90/69 14/91/20 
f 14/91/20 13/92/19 45/89/68 
f 46/93/69 41/81/64 9/84/11 
f 9/84/11 14/94/20 46/93/69 
f 47/95/70 43/85/66 11/88/15 
f 11/88/15 15/96/22 47/95/70 
f 48/97/71 47/98/70 15/99/22 
f 15/99/22 16/100/24 48/97/71 
f 44/86/67 45/101/68 13/102/19 
f 13/102/19 12/87/16 44/86/67 
f 42/82/65 48/103/71 16/104/24 
f 16/104/24 10/83/12 42/82/65 
f 34/74/57 33/73/56 45/105/68 
f 45/105/68 44/106/67 34/74/57 
f 35/75/58 34/74/57 44/106/67 
f 44/106/67 43/107/66 35/75/58 
f 36/76/59 35/75/58 43/107/66 
f 43/107/66 47/108/70 36/76/59 
f 37/77/60 36/76/59 47/108/70 
f 47/108/70 48/109/71 37/77/60 
f 38/78/61 37/77/60 48/109/71 
f 48/109/71 42/110/65 38/78/61 
f 39/79/62 38/78/61 42/110/65 
f 42/110/65 41/111/64 39/79/62 
f 40/80/63 39/79/62 41/111/64 
f 41/111/64 46/112/69 40/80/63 
f 33/73/56 40/80/63 46/112/69 
f 46/112/69 45/105/68 33/73/56 
s 1
f 49/113/72 50/114/73 51/115/74 
f 51/115/74 52/116/75 49/113/72 
f 53/117/76 49/113/72 52/116/75 
f 52/116/75 54/118/77 53/117/76 
f 55/119/78 53/117/76 54/118/77 
f 54/118/77 56/120/79 55/119/78 
s 2
f 52/112/80 51/112/81 57/112/82 
f 57/112/82 58/112/83 52/112/80 
f 50/80/84 49/80/85 59/80/86 
f 59/80/86 60/80/87 50/80/84 
f 54/112/88 52/112/80 58/112/83 
f 58/112/83 61/112/89 54/112/88 
f 49/80/85 53/80/90 62/80/91 
f 62/80/91 59/80/86 49/80/85 
f 56/112/92 54/112/88 61/112/89 
f 61/112/89 63/112/93 56/112/92 
f 53/80/90 55/80/94 64/80/94 
f 64/80/94 62/80/91 53/80/90 
s 1
f 65/113/95 66/114/96 67/115/97 
f 67/115/97 68/116/98 65/113/95 
f 69/117/99 65/113/95 68/116/98 
f 68/116/98 70/118/100 69/117/99 
f 71/119/101 69/117/99 70/118/100 
f 70/118/100 72/120/102 71/119/101 
s 2
f 68/112/103 67/112/104 73/112/105 
f 73/112/105 74/112/106 68/112/103 
f 66/80/107 65/80/108 75/80/109 
f 75/80/109 76/80/107 66/80/107 
f 70/112/110 68/112/103 74/112/106 
f 74/112/106 77/112/111 70/112/110 
f 65/80/108 69/80/112 78/80/113 
f 78/80/113 75/80/109 65/80/108 
f 72/112/114 70/112/110 77/112/111 
f 77/112/111 79/112/115 72/112/114 
f 69/80/112 71/80/116 80/80/116 
f 80/80/116 78/80/113 69/80/112 
# 128 faces

