#
#
#

mtllib UDC_BasketChest.mtl


#
#  Mesh Mesh Mesh Mesh
#
g  Mesh


#
#  PROP_BasketBoard
#
usemtl PROP_BasketBoard

v -0.013649 0.000000 -0.077408
v -0.013649 0.007147 -0.077408
v 0.013649 0.007147 -0.077408
v 0.013649 0.000000 -0.077408
v -0.012408 0.007147 -0.070371
v 0.012408 0.007147 -0.070371
v -0.012408 0.000000 -0.070371
v 0.012408 0.000000 -0.070371
v 0.039301 0.007147 -0.068072
v 0.039301 0.000000 -0.068072
v 0.035729 0.007147 -0.061883
v 0.035729 0.000000 -0.061883
v 0.060213 0.007147 -0.050525
v 0.060213 0.000000 -0.050525
v 0.054739 0.007147 -0.045932
v 0.054739 0.000000 -0.045932
v 0.073862 0.007147 -0.026884
v 0.073862 0.000000 -0.026884
v 0.067147 0.007147 -0.024440
v 0.067147 0.000000 -0.024440
v 0.078603 0.007147 0.000000
v 0.078603 0.000000 0.000000
v 0.071457 0.007147 0.000000
v 0.071457 0.000000 0.000000
v 0.073862 0.007147 0.026884
v 0.073862 0.000000 0.026884
v 0.067147 0.007147 0.024440
v 0.067147 0.000000 0.024440
v 0.060213 0.007147 0.050525
v 0.060213 0.000000 0.050525
v 0.054739 0.007147 0.045932
v 0.054739 0.000000 0.045932
v 0.039301 0.007147 0.068072
v 0.039301 0.000000 0.068072
v 0.035729 0.007147 0.061883
v 0.035729 0.000000 0.061883
v 0.013649 0.007147 0.077408
v 0.013649 0.000000 0.077408
v 0.012408 0.007147 0.070371
v 0.012408 0.000000 0.070371
v -0.013649 0.007147 0.077408
v -0.013649 0.000000 0.077408
v -0.012408 0.007147 0.070371
v -0.012408 0.000000 0.070371
v -0.039301 0.007147 0.068072
v -0.039301 0.000000 0.068072
v -0.035729 0.007147 0.061883
v -0.035729 0.000000 0.061883
v -0.060213 0.007147 0.050525
v -0.060213 0.000000 0.050525
v -0.054739 0.007147 0.045932
v -0.054739 0.000000 0.045932
v -0.073862 0.007147 0.026884
v -0.073862 0.000000 0.026884
v -0.067147 0.007147 0.024440
v -0.067147 0.000000 0.024440
v -0.078603 0.007147 0.000000
v -0.078603 0.000000 0.000000
v -0.071457 0.007147 0.000000
v -0.071457 0.000000 0.000000
v -0.073862 0.007147 -0.026884
v -0.073862 0.000000 -0.026884
v -0.067147 0.007147 -0.024440
v -0.067147 0.000000 -0.024440
v -0.060213 0.007147 -0.050525
v -0.060213 0.000000 -0.050525
v -0.054739 0.007147 -0.045932
v -0.054739 0.000000 -0.045932
v -0.039301 0.007147 -0.068072
v -0.039301 0.000000 -0.068072
v -0.035729 0.007147 -0.061883
v -0.035729 0.000000 -0.061883
v -0.250774 -0.055410 0.088125
v -0.250774 -0.055410 0.077407
v 0.247403 -0.055410 0.077407
v 0.247403 -0.055410 0.088125
v -0.250774 0.318221 0.088125
v 0.247403 0.318221 0.088125
v 0.247403 0.318221 0.077407
v -0.250774 0.318221 0.077407
v -0.054739 0.000000 -0.045932
v -0.035729 0.000000 -0.061883
v -0.027052 -0.054450 -0.046856
v -0.041446 -0.054450 -0.034778
v -0.067147 0.000000 -0.024440
v -0.050842 -0.054450 -0.018504
v -0.071457 0.000000 0.000000
v -0.054104 -0.054450 0.000000
v -0.067147 0.000000 0.024440
v -0.050842 -0.054450 0.018504
v -0.054739 0.000000 0.045932
v -0.041446 -0.054450 0.034778
v -0.035729 0.000000 0.061883
v -0.027052 -0.054450 0.046856
v -0.012408 0.000000 0.070371
v -0.009396 -0.054450 0.053283
v 0.012408 0.000000 0.070371
v 0.009396 -0.054450 0.053283
v 0.035729 0.000000 0.061883
v 0.027052 -0.054450 0.046856
v 0.054739 0.000000 0.045932
v 0.041446 -0.054450 0.034778
v 0.067147 0.000000 0.024440
v 0.050842 -0.054450 0.018504
v 0.071457 0.000000 0.000000
v 0.054104 -0.054450 0.000000
v 0.067147 0.000000 -0.024440
v 0.050842 -0.054450 -0.018504
v 0.054739 0.000000 -0.045932
v 0.041446 -0.054450 -0.034778
v 0.035729 0.000000 -0.061883
v 0.027052 -0.054450 -0.046856
v 0.012408 0.000000 -0.070371
v 0.009396 -0.054450 -0.053283
v -0.012408 0.000000 -0.070371
v -0.009396 -0.054450 -0.053283
v -0.027052 -0.090729 -0.046856
v -0.041446 -0.090729 -0.034778
v -0.050842 -0.090729 -0.018504
v -0.054104 -0.090729 0.000000
v -0.050842 -0.090729 0.018504
v -0.041446 -0.090729 0.034778
v -0.027052 -0.090729 0.046856
v -0.009396 -0.090729 0.053283
v 0.009396 -0.090729 0.053283
v 0.027052 -0.090729 0.046856
v 0.041446 -0.090729 0.034778
v 0.050842 -0.090729 0.018504
v 0.054104 -0.090729 0.000000
v 0.050842 -0.090729 -0.018504
v 0.041446 -0.090729 -0.034778
v 0.027052 -0.090729 -0.046856
v 0.009396 -0.090729 -0.053283
v -0.009396 -0.090729 -0.053283
vn -0.128905 -0.670031 -0.731055
vn -0.128905 0.670031 -0.731056
vn 0.128905 0.670031 -0.731055
vn 0.128905 -0.670031 -0.731055
vn 0.115180 0.748361 0.653215
vn -0.115180 0.748361 0.653215
vn 0.115180 -0.748361 0.653215
vn -0.115180 -0.748361 0.653215
vn 0.371167 0.670031 -0.642879
vn 0.371167 -0.670031 -0.642879
vn -0.331646 0.748361 0.574428
vn -0.331646 -0.748360 0.574428
vn 0.568660 0.670031 -0.477163
vn 0.568660 -0.670031 -0.477163
vn -0.508111 0.748361 0.426356
vn -0.508111 -0.748361 0.426356
vn 0.697565 0.670031 -0.253893
vn 0.697565 -0.670031 -0.253893
vn -0.623291 0.748361 0.226859
vn -0.623291 -0.748361 0.226859
vn 0.742333 0.670031 0.000000
vn 0.742333 -0.670031 0.000000
vn -0.663292 0.748361 0.000000
vn -0.663292 -0.748361 0.000000
vn 0.697565 0.670031 0.253893
vn 0.697565 -0.670031 0.253893
vn -0.623291 0.748361 -0.226859
vn -0.623291 -0.748361 -0.226859
vn 0.568660 0.670031 0.477163
vn 0.568660 -0.670031 0.477163
vn -0.508111 0.748361 -0.426356
vn -0.508111 -0.748361 -0.426356
vn 0.371167 0.670031 0.642879
vn 0.371167 -0.670031 0.642879
vn -0.331646 0.748360 -0.574428
vn -0.331646 -0.748361 -0.574428
vn 0.128905 0.670031 0.731056
vn 0.128905 -0.670031 0.731056
vn -0.115179 0.748361 -0.653215
vn -0.115179 -0.748361 -0.653215
vn -0.128905 0.670031 0.731055
vn -0.128905 -0.670031 0.731055
vn 0.115180 0.748361 -0.653215
vn 0.115180 -0.748361 -0.653215
vn -0.371167 0.670031 0.642879
vn -0.371167 -0.670031 0.642879
vn 0.331646 0.748360 -0.574428
vn 0.331646 -0.748360 -0.574428
vn -0.568660 0.670031 0.477162
vn -0.568660 -0.670031 0.477163
vn 0.508111 0.748361 -0.426356
vn 0.508111 -0.748361 -0.426356
vn -0.697565 0.670031 0.253893
vn -0.697565 -0.670031 0.253893
vn 0.623291 0.748361 -0.226859
vn 0.623291 -0.748361 -0.226859
vn -0.742333 0.670031 0.000000
vn -0.742333 -0.670031 0.000000
vn 0.663292 0.748361 0.000000
vn 0.663292 -0.748361 0.000000
vn -0.697565 0.670031 -0.253893
vn -0.697565 -0.670031 -0.253893
vn 0.623291 0.748361 0.226859
vn 0.623291 -0.748361 0.226859
vn -0.568660 0.670031 -0.477163
vn -0.568660 -0.670031 -0.477163
vn 0.508111 0.748361 0.426356
vn 0.508111 -0.748361 0.426356
vn -0.371167 0.670031 -0.642879
vn -0.371167 -0.670031 -0.642879
vn 0.331646 0.748361 0.574428
vn 0.331646 -0.748361 0.574428
vn 0.000000 -1.000000 0.000000
vn 0.000000 1.000000 0.000000
vn 0.000000 0.000000 1.000000
vn 1.000000 0.000000 -0.000001
vn 0.000000 0.000000 -1.000000
vn -1.000000 0.000000 0.000001
vt 0.326120 0.005233
vt 0.326120 0.013831
vt 0.309160 0.013831
vt 0.309160 0.005233
vt 0.292088 0.013831
vt 0.292088 0.005233
vt 0.274843 0.013831
vt 0.274843 0.005233
vt 0.257443 0.013831
vt 0.257443 0.005233
vt 0.239981 0.013831
vt 0.239981 0.005233
vt 0.222581 0.013831
vt 0.222581 0.005233
vt 0.205336 0.013831
vt 0.205336 0.005233
vt 0.188264 0.013831
vt 0.188264 0.005233
vt 0.171303 0.013831
vt 0.171303 0.005233
vt 0.154342 0.013831
vt 0.154342 0.005233
vt 0.137271 0.013831
vt 0.137271 0.005233
vt 0.120026 0.013831
vt 0.120026 0.005233
vt 0.102626 0.013831
vt 0.102626 0.005233
vt 0.085164 0.013831
vt 0.085164 0.005233
vt 0.067764 0.013831
vt 0.067764 0.005233
vt 0.050519 0.013831
vt 0.050519 0.005233
vt 0.033447 0.013831
vt 0.033447 0.005233
vt 0.016486 0.013831
vt 0.016486 0.005233
vt 0.993818 0.000000
vt 0.993818 0.017002
vt 0.000000 0.017002
vt 0.000000 0.000000
vt 1.000000 0.000000
vt 1.000000 1.000000
vt 0.000000 1.000000
vt 0.990984 0.000000
vt 0.998970 0.000000
vt 0.998970 0.995880
vt 0.990984 0.995880
f 1/1/1 2/2/2 3/3/3
f 3/3/3 4/4/4 1/1/1
f 2/2/2 5/2/5 6/3/6
f 6/3/6 3/3/3 2/2/2
f 5/2/5 7/1/7 8/4/8
f 8/4/8 6/3/6 5/2/5
f 7/1/7 1/1/1 4/4/4
f 4/4/4 8/4/8 7/1/7
f 4/4/4 3/3/3 9/5/9
f 9/5/9 10/6/10 4/4/4
f 3/3/3 6/3/6 11/5/11
f 11/5/11 9/5/9 3/3/3
f 6/3/6 8/4/8 12/6/12
f 12/6/12 11/5/11 6/3/6
f 8/4/8 4/4/4 10/6/10
f 10/6/10 12/6/12 8/4/8
f 10/6/10 9/5/9 13/7/13
f 13/7/13 14/8/14 10/6/10
f 9/5/9 11/5/11 15/7/15
f 15/7/15 13/7/13 9/5/9
f 11/5/11 12/6/12 16/8/16
f 16/8/16 15/7/15 11/5/11
f 12/6/12 10/6/10 14/8/14
f 14/8/14 16/8/16 12/6/12
f 14/8/14 13/7/13 17/9/17
f 17/9/17 18/10/18 14/8/14
f 13/7/13 15/7/15 19/9/19
f 19/9/19 17/9/17 13/7/13
f 15/7/15 16/8/16 20/10/20
f 20/10/20 19/9/19 15/7/15
f 16/8/16 14/8/14 18/10/18
f 18/10/18 20/10/20 16/8/16
f 18/10/18 17/9/17 21/11/21
f 21/11/21 22/12/22 18/10/18
f 17/9/17 19/9/19 23/11/23
f 23/11/23 21/11/21 17/9/17
f 19/9/19 20/10/20 24/12/24
f 24/12/24 23/11/23 19/9/19
f 20/10/20 18/10/18 22/12/22
f 22/12/22 24/12/24 20/10/20
f 22/12/22 21/11/21 25/13/25
f 25/13/25 26/14/26 22/12/22
f 21/11/21 23/11/23 27/13/27
f 27/13/27 25/13/25 21/11/21
f 23/11/23 24/12/24 28/14/28
f 28/14/28 27/13/27 23/11/23
f 24/12/24 22/12/22 26/14/26
f 26/14/26 28/14/28 24/12/24
f 26/14/26 25/13/25 29/15/29
f 29/15/29 30/16/30 26/14/26
f 25/13/25 27/13/27 31/15/31
f 31/15/31 29/15/29 25/13/25
f 27/13/27 28/14/28 32/16/32
f 32/16/32 31/15/31 27/13/27
f 28/14/28 26/14/26 30/16/30
f 30/16/30 32/16/32 28/14/28
f 30/16/30 29/15/29 33/17/33
f 33/17/33 34/18/34 30/16/30
f 29/15/29 31/15/31 35/17/35
f 35/17/35 33/17/33 29/15/29
f 31/15/31 32/16/32 36/18/36
f 36/18/36 35/17/35 31/15/31
f 32/16/32 30/16/30 34/18/34
f 34/18/34 36/18/36 32/16/32
f 34/18/34 33/17/33 37/19/37
f 37/19/37 38/20/38 34/18/34
f 33/17/33 35/17/35 39/19/39
f 39/19/39 37/19/37 33/17/33
f 35/17/35 36/18/36 40/20/40
f 40/20/40 39/19/39 35/17/35
f 36/18/36 34/18/34 38/20/38
f 38/20/38 40/20/40 36/18/36
f 38/20/38 37/19/37 41/21/41
f 41/21/41 42/22/42 38/20/38
f 37/19/37 39/19/39 43/21/43
f 43/21/43 41/21/41 37/19/37
f 39/19/39 40/20/40 44/22/44
f 44/22/44 43/21/43 39/19/39
f 40/20/40 38/20/38 42/22/42
f 42/22/42 44/22/44 40/20/40
f 42/22/42 41/21/41 45/23/45
f 45/23/45 46/24/46 42/22/42
f 41/21/41 43/21/43 47/23/47
f 47/23/47 45/23/45 41/21/41
f 43/21/43 44/22/44 48/24/48
f 48/24/48 47/23/47 43/21/43
f 44/22/44 42/22/42 46/24/46
f 46/24/46 48/24/48 44/22/44
f 46/24/46 45/23/45 49/25/49
f 49/25/49 50/26/50 46/24/46
f 45/23/45 47/23/47 51/25/51
f 51/25/51 49/25/49 45/23/45
f 47/23/47 48/24/48 52/26/52
f 52/26/52 51/25/51 47/23/47
f 48/24/48 46/24/46 50/26/50
f 50/26/50 52/26/52 48/24/48
f 50/26/50 49/25/49 53/27/53
f 53/27/53 54/28/54 50/26/50
f 49/25/49 51/25/51 55/27/55
f 55/27/55 53/27/53 49/25/49
f 51/25/51 52/26/52 56/28/56
f 56/28/56 55/27/55 51/25/51
f 52/26/52 50/26/50 54/28/54
f 54/28/54 56/28/56 52/26/52
f 54/28/54 53/27/53 57/29/57
f 57/29/57 58/30/58 54/28/54
f 53/27/53 55/27/55 59/29/59
f 59/29/59 57/29/57 53/27/53
f 55/27/55 56/28/56 60/30/60
f 60/30/60 59/29/59 55/27/55
f 56/28/56 54/28/54 58/30/58
f 58/30/58 60/30/60 56/28/56
f 58/30/58 57/29/57 61/31/61
f 61/31/61 62/32/62 58/30/58
f 57/29/57 59/29/59 63/31/63
f 63/31/63 61/31/61 57/29/57
f 59/29/59 60/30/60 64/32/64
f 64/32/64 63/31/63 59/29/59
f 60/30/60 58/30/58 62/32/62
f 62/32/62 64/32/64 60/30/60
f 62/32/62 61/31/61 65/33/65
f 65/33/65 66/34/66 62/32/62
f 61/31/61 63/31/63 67/33/67
f 67/33/67 65/33/65 61/31/61
f 63/31/63 64/32/64 68/34/68
f 68/34/68 67/33/67 63/31/63
f 64/32/64 62/32/62 66/34/66
f 66/34/66 68/34/68 64/32/64
f 66/34/66 65/33/65 69/35/69
f 69/35/69 70/36/70 66/34/66
f 65/33/65 67/33/67 71/35/71
f 71/35/71 69/35/69 65/33/65
f 67/33/67 68/34/68 72/36/72
f 72/36/72 71/35/71 67/33/67
f 68/34/68 66/34/66 70/36/70
f 70/36/70 72/36/72 68/34/68
f 70/36/70 69/35/69 2/37/2
f 2/37/2 1/38/1 70/36/70
f 69/35/69 71/35/71 5/37/5
f 5/37/5 2/37/2 69/35/69
f 71/35/71 72/36/72 7/38/7
f 7/38/7 5/37/5 71/35/71
f 72/36/72 70/36/70 1/38/1
f 1/38/1 7/38/7 72/36/72
f 73/39/73 74/40/73 75/41/73
f 75/41/73 76/42/73 73/39/73
f 77/42/74 78/39/74 79/40/74
f 79/40/74 80/41/74 77/42/74
f 73/42/75 76/43/75 78/44/75
f 78/44/75 77/45/75 73/42/75
f 76/46/76 75/47/76 79/48/76
f 79/48/76 78/49/76 76/46/76
f 75/42/77 74/43/77 80/44/77
f 80/44/77 79/45/77 75/42/77
f 74/46/78 73/47/78 77/48/78
f 77/48/78 80/49/78 74/46/78

#
# PROP_Fence
#
usemtl PROP_Fence

v -0.013649 0.000000 -0.077408
v -0.013649 0.007147 -0.077408
v 0.013649 0.007147 -0.077408
v 0.013649 0.000000 -0.077408
v -0.012408 0.007147 -0.070371
v 0.012408 0.007147 -0.070371
v -0.012408 0.000000 -0.070371
v 0.012408 0.000000 -0.070371
v 0.039301 0.007147 -0.068072
v 0.039301 0.000000 -0.068072
v 0.035729 0.007147 -0.061883
v 0.035729 0.000000 -0.061883
v 0.060213 0.007147 -0.050525
v 0.060213 0.000000 -0.050525
v 0.054739 0.007147 -0.045932
v 0.054739 0.000000 -0.045932
v 0.073862 0.007147 -0.026884
v 0.073862 0.000000 -0.026884
v 0.067147 0.007147 -0.024440
v 0.067147 0.000000 -0.024440
v 0.078603 0.007147 0.000000
v 0.078603 0.000000 0.000000
v 0.071457 0.007147 0.000000
v 0.071457 0.000000 0.000000
v 0.073862 0.007147 0.026884
v 0.073862 0.000000 0.026884
v 0.067147 0.007147 0.024440
v 0.067147 0.000000 0.024440
v 0.060213 0.007147 0.050525
v 0.060213 0.000000 0.050525
v 0.054739 0.007147 0.045932
v 0.054739 0.000000 0.045932
v 0.039301 0.007147 0.068072
v 0.039301 0.000000 0.068072
v 0.035729 0.007147 0.061883
v 0.035729 0.000000 0.061883
v 0.013649 0.007147 0.077408
v 0.013649 0.000000 0.077408
v 0.012408 0.007147 0.070371
v 0.012408 0.000000 0.070371
v -0.013649 0.007147 0.077408
v -0.013649 0.000000 0.077408
v -0.012408 0.007147 0.070371
v -0.012408 0.000000 0.070371
v -0.039301 0.007147 0.068072
v -0.039301 0.000000 0.068072
v -0.035729 0.007147 0.061883
v -0.035729 0.000000 0.061883
v -0.060213 0.007147 0.050525
v -0.060213 0.000000 0.050525
v -0.054739 0.007147 0.045932
v -0.054739 0.000000 0.045932
v -0.073862 0.007147 0.026884
v -0.073862 0.000000 0.026884
v -0.067147 0.007147 0.024440
v -0.067147 0.000000 0.024440
v -0.078603 0.007147 0.000000
v -0.078603 0.000000 0.000000
v -0.071457 0.007147 0.000000
v -0.071457 0.000000 0.000000
v -0.073862 0.007147 -0.026884
v -0.073862 0.000000 -0.026884
v -0.067147 0.007147 -0.024440
v -0.067147 0.000000 -0.024440
v -0.060213 0.007147 -0.050525
v -0.060213 0.000000 -0.050525
v -0.054739 0.007147 -0.045932
v -0.054739 0.000000 -0.045932
v -0.039301 0.007147 -0.068072
v -0.039301 0.000000 -0.068072
v -0.035729 0.007147 -0.061883
v -0.035729 0.000000 -0.061883
v -0.250774 -0.055410 0.088125
v -0.250774 -0.055410 0.077407
v 0.247403 -0.055410 0.077407
v 0.247403 -0.055410 0.088125
v -0.250774 0.318221 0.088125
v 0.247403 0.318221 0.088125
v 0.247403 0.318221 0.077407
v -0.250774 0.318221 0.077407
v -0.054739 0.000000 -0.045932
v -0.035729 0.000000 -0.061883
v -0.027052 -0.054450 -0.046856
v -0.041446 -0.054450 -0.034778
v -0.067147 0.000000 -0.024440
v -0.050842 -0.054450 -0.018504
v -0.071457 0.000000 0.000000
v -0.054104 -0.054450 0.000000
v -0.067147 0.000000 0.024440
v -0.050842 -0.054450 0.018504
v -0.054739 0.000000 0.045932
v -0.041446 -0.054450 0.034778
v -0.035729 0.000000 0.061883
v -0.027052 -0.054450 0.046856
v -0.012408 0.000000 0.070371
v -0.009396 -0.054450 0.053283
v 0.012408 0.000000 0.070371
v 0.009396 -0.054450 0.053283
v 0.035729 0.000000 0.061883
v 0.027052 -0.054450 0.046856
v 0.054739 0.000000 0.045932
v 0.041446 -0.054450 0.034778
v 0.067147 0.000000 0.024440
v 0.050842 -0.054450 0.018504
v 0.071457 0.000000 0.000000
v 0.054104 -0.054450 0.000000
v 0.067147 0.000000 -0.024440
v 0.050842 -0.054450 -0.018504
v 0.054739 0.000000 -0.045932
v 0.041446 -0.054450 -0.034778
v 0.035729 0.000000 -0.061883
v 0.027052 -0.054450 -0.046856
v 0.012408 0.000000 -0.070371
v 0.009396 -0.054450 -0.053283
v -0.012408 0.000000 -0.070371
v -0.009396 -0.054450 -0.053283
v -0.027052 -0.090729 -0.046856
v -0.041446 -0.090729 -0.034778
v -0.050842 -0.090729 -0.018504
v -0.054104 -0.090729 0.000000
v -0.050842 -0.090729 0.018504
v -0.041446 -0.090729 0.034778
v -0.027052 -0.090729 0.046856
v -0.009396 -0.090729 0.053283
v 0.009396 -0.090729 0.053283
v 0.027052 -0.090729 0.046856
v 0.041446 -0.090729 0.034778
v 0.050842 -0.090729 0.018504
v 0.054104 -0.090729 0.000000
v 0.050842 -0.090729 -0.018504
v 0.041446 -0.090729 -0.034778
v 0.027052 -0.090729 -0.046856
v 0.009396 -0.090729 -0.053283
v -0.009396 -0.090729 -0.053283
vn -0.613292 -0.299445 -0.730893
vn -0.826287 -0.299445 -0.477057
vn -0.939619 -0.299445 -0.165680
vn -0.939619 -0.299445 0.165680
vn -0.826287 -0.299445 0.477057
vn -0.613293 -0.299445 0.730893
vn -0.613292 -0.299445 0.730894
vn -0.326326 -0.299445 0.896574
vn 0.000000 -0.299445 0.954114
vn -0.000001 -0.299445 0.954114
vn 0.326326 -0.299445 0.896574
vn 0.613292 -0.299445 0.730894
vn 0.826287 -0.299445 0.477057
vn 0.826286 -0.299445 0.477057
vn 0.939619 -0.299445 0.165680
vn 0.939619 -0.299445 -0.165680
vn 0.826287 -0.299445 -0.477057
vn 0.613292 -0.299445 -0.730894
vn 0.326326 -0.299445 -0.896574
vn 0.000000 -0.299445 -0.954114
vn -0.326326 -0.299445 -0.896574
vn -0.642788 -0.000000 -0.766044
vn -0.866026 -0.000000 -0.500000
vn -0.984808 -0.000000 -0.173648
vn -0.984808 0.000000 0.173648
vn -0.866025 0.000000 0.500000
vn -0.866026 0.000000 0.500000
vn -0.642788 0.000000 0.766044
vn -0.342020 0.000000 0.939693
vn -0.342021 0.000000 0.939692
vn -0.000001 0.000000 1.000000
vn 0.342020 0.000000 0.939693
vn 0.342021 0.000000 0.939692
vn 0.642788 0.000000 0.766044
vn 0.642787 0.000000 0.766045
vn 0.866025 0.000000 0.500000
vn 0.984808 0.000000 0.173648
vn 0.984808 0.000000 -0.173648
vn 0.866025 0.000000 -0.500000
vn 0.866026 0.000000 -0.500000
vn 0.642788 0.000000 -0.766044
vn 0.642787 0.000000 -0.766045
vn 0.342020 0.000000 -0.939693
vn 0.342021 0.000000 -0.939692
vn 0.000000 0.000000 -1.000000
vn -0.342020 -0.000000 -0.939693
vt 0.549565 0.999500
vt 0.273885 0.999500
vt 0.273885 0.399965
vt 0.549565 0.399965
vt 0.828038 0.999500
vt 0.828038 0.399965
vt 1.109013 0.999500
vt 1.109013 0.399965
vt 1.390987 0.999500
vt 1.390987 0.399965
vt 1.671962 0.999500
vt 1.671962 0.399965
vt 1.950435 0.999500
vt 1.950434 0.399965
vt 2.226114 0.999500
vt 2.226114 0.399965
vt 2.500000 0.999500
vt 2.500000 0.399965
vt 2.773885 0.999500
vt 2.773885 0.399965
vt 3.049565 0.999500
vt 3.049565 0.399965
vt 3.328038 0.999500
vt 3.328038 0.399965
vt 3.609013 0.999500
vt 3.609013 0.399965
vt 3.890987 0.999500
vt 3.890987 0.399965
vt 4.171961 0.999500
vt 4.171961 0.399965
vt 4.450435 0.999500
vt 4.450435 0.399965
vt 4.726114 0.999500
vt 4.726114 0.399965
vt 5.000000 0.999500
vt 5.000000 0.399965
vt 5.273885 0.999500
vt 5.273885 0.399965
vt 0.273885 0.000500
vt 0.549565 0.000500
vt 0.828038 0.000500
vt 1.109013 0.000500
vt 1.390987 0.000500
vt 1.671962 0.000500
vt 1.950434 0.000500
vt 2.226114 0.000500
vt 2.500000 0.000500
vt 2.773885 0.000500
vt 3.049565 0.000500
vt 3.328038 0.000500
vt 3.609013 0.000500
vt 3.890987 0.000500
vt 4.171961 0.000500
vt 4.450435 0.000500
vt 4.726114 0.000500
vt 5.000000 0.000500
vt -0.000000 0.399965
vt -0.000000 0.000500
f 215/50/79 216/51/79 217/52/79
f 217/52/79 218/53/79 215/50/79
f 219/54/80 215/50/80 218/53/80
f 218/53/80 220/55/80 219/54/80
f 221/56/81 219/54/81 220/55/81
f 220/55/81 222/57/81 221/56/81
f 223/58/82 221/56/82 222/57/82
f 222/57/82 224/59/82 223/58/82
f 225/60/83 223/58/83 224/59/83
f 224/59/83 226/61/83 225/60/83
f 227/62/84 225/60/84 226/61/85
f 226/61/85 228/63/85 227/62/84
f 229/64/86 227/62/86 228/63/86
f 228/63/86 230/65/86 229/64/86
f 231/66/87 229/64/87 230/65/88
f 230/65/88 232/67/88 231/66/87
f 233/68/89 231/66/89 232/67/89
f 232/67/89 234/69/89 233/68/89
f 235/70/90 233/68/90 234/69/90
f 234/69/90 236/71/90 235/70/90
f 237/72/91 235/70/91 236/71/91
f 236/71/91 238/73/92 237/72/91
f 239/74/93 237/72/93 238/73/93
f 238/73/93 240/75/93 239/74/93
f 241/76/94 239/74/94 240/75/94
f 240/75/94 242/77/94 241/76/94
f 243/78/95 241/76/95 242/77/95
f 242/77/95 244/79/95 243/78/95
f 245/80/96 243/78/96 244/79/96
f 244/79/96 246/81/96 245/80/96
f 247/82/97 245/80/97 246/81/97
f 246/81/97 248/83/97 247/82/97
f 249/84/98 247/82/98 248/83/98
f 248/83/98 250/85/98 249/84/98
f 216/86/99 249/84/99 250/85/99
f 250/85/99 217/87/99 216/86/99
f 218/53/100 217/52/100 251/88/100
f 251/88/100 252/89/100 218/53/100
f 220/55/101 218/53/101 252/89/101
f 252/89/101 253/90/101 220/55/101
f 222/57/102 220/55/102 253/90/102
f 253/90/102 254/91/102 222/57/102
f 224/59/103 222/57/103 254/91/103
f 254/91/103 255/92/103 224/59/103
f 226/61/104 224/59/104 255/92/105
f 255/92/104 256/93/104 226/61/105
f 228/63/106 226/61/106 256/93/106
f 256/93/106 257/94/106 228/63/106
f 230/65/107 228/63/107 257/94/108
f 257/94/108 258/95/108 230/65/108
f 232/67/109 230/65/109 258/95/109
f 258/95/109 259/96/109 232/67/109
f 234/69/110 232/67/110 259/96/110
f 259/96/111 260/97/111 234/69/111
f 236/71/112 234/69/112 260/97/113
f 260/97/113 261/98/113 236/71/113
f 238/73/114 236/71/114 261/98/114
f 261/98/114 262/99/114 238/73/114
f 240/75/115 238/73/115 262/99/115
f 262/99/115 263/100/115 240/75/115
f 242/77/116 240/75/116 263/100/116
f 263/100/116 264/101/116 242/77/116
f 244/79/117 242/77/117 264/101/117
f 264/101/117 265/102/118 244/79/118
f 246/81/119 244/79/119 265/102/119
f 265/102/120 266/103/120 246/81/120
f 248/83/121 246/81/121 266/103/121
f 266/103/122 267/104/122 248/83/122
f 250/85/123 248/83/123 267/104/123
f 267/104/123 268/105/123 250/85/123
f 217/52/124 250/106/124 268/107/124
f 268/107/124 251/88/124 217/52/124
