# 3ds Max Wavefront OBJ Exporter v0.97b - (c)2007 guruware
# File Created: 23.03.2018 17:02:35

mtllib UDC_TableRound.mtl

#
# object UDC_TableRound
#

v  0.430363178253 0.269129872322 -0.000000000600
v  0.404409080744 0.269129872322 -0.147192880511
v  0.404409080744 0.284581065178 -0.147192880511
v  0.430363178253 0.284581065178 -0.000000000600
v  0.329677253962 0.269129872322 -0.276632100344
v  0.329677253962 0.284581065178 -0.276632100344
v  0.215181559324 0.269129872322 -0.372705399990
v  0.215181559324 0.284581065178 -0.372705399990
v  0.074731759727 0.269129872322 -0.423824965954
v  0.074731759727 0.284581065178 -0.423824965954
v  -0.074731819332 0.269129872322 -0.423824965954
v  -0.074731819332 0.284581065178 -0.423824965954
v  -0.215181618929 0.269129872322 -0.372705399990
v  -0.215181618929 0.284581065178 -0.372705399990
v  -0.329677313566 0.269129872322 -0.276632100344
v  -0.329677313566 0.284581065178 -0.276632100344
v  -0.404409080744 0.269129872322 -0.147192880511
v  -0.404409080744 0.284581065178 -0.147192880511
v  -0.430363178253 0.269129872322 -0.000000065588
v  -0.430363178253 0.284581065178 -0.000000065588
v  -0.404409110546 0.269129872322 0.147192806005
v  -0.404409110546 0.284581065178 0.147192806005
v  -0.329677343369 0.269129872322 0.276632010937
v  -0.329677343369 0.284581065178 0.276632010937
v  -0.215181708336 0.269129872322 0.372705370188
v  -0.215181708336 0.284581065178 0.372705370188
v  -0.074731960893 0.269129872322 0.423824906349
v  -0.074731960893 0.284581065178 0.423824906349
v  0.074731566012 0.269129872322 0.423825025558
v  0.074731566012 0.284581065178 0.423825025558
v  0.215181350708 0.269129872322 0.372705519199
v  0.215181350708 0.284581065178 0.372705519199
v  0.329677164555 0.269129872322 0.276632368565
v  0.329677164555 0.284581065178 0.276632368565
v  0.404408931732 0.269129872322 0.147193148732
v  0.404408931732 0.284581065178 0.147193148732
v  0.393002182245 0.288054674864 -0.143041104078
v  0.418224245310 0.288054674864 -0.000000000600
v  0.320378303528 0.288054674864 -0.268829345703
v  0.209112048149 0.288054674864 -0.362192839384
v  0.072623834014 0.288054674864 -0.411870449781
v  -0.072623923421 0.288054674864 -0.411870449781
v  -0.209112137556 0.288054674864 -0.362192839384
v  -0.320378333330 0.288054674864 -0.268829345703
v  -0.393002212048 0.288054674864 -0.143041104078
v  -0.418224245310 0.288054674864 -0.000000063752
v  -0.393002212048 0.288054674864 0.143041029572
v  -0.320378363132 0.288054674864 0.268829286098
v  -0.209112212062 0.288054674864 0.362192690372
v  -0.072624042630 0.288054674864 0.411870419979
v  0.072623670101 0.288054674864 0.411870479584
v  0.209111869335 0.288054674864 0.362192869186
v  0.320378154516 0.288054674864 0.268829524517
v  0.393002152443 0.288054674864 0.143041372299
v  -0.006896483246 0.009890176356 -0.275917857885
v  0.006938397884 0.009903095663 -0.275917857885
v  0.006951360032 0.002659186721 -0.275922715664
v  -0.006883520633 0.002646312118 -0.275922715664
v  -0.005315169226 0.267209231853 -0.017476104200
v  -0.005315168295 0.267209231853 -0.007489401847
v  0.004671518691 0.267222136259 -0.007489402313
v  0.004671518691 0.267222136259 -0.017476104200
v  0.005016416777 0.010056965053 -0.070434935391
v  0.005025709514 0.002863503993 -0.066107407212
v  0.004922891967 0.082453697920 -0.017531659454
v  0.004927695263 0.078735843301 -0.007547387853
v  -0.004970270675 0.010044045746 -0.070434935391
v  -0.005063795485 0.082440800965 -0.017531659454
v  -0.004960978404 0.002850607038 -0.066107407212
v  -0.005058992654 0.078722968698 -0.007547387853
v  0.276110321283 0.010154083371 -0.006745698862
v  0.276110321283 0.010154083371 0.007089201361
v  0.276128172874 0.002910174429 0.007089201361
v  0.276128172874 0.002910174429 -0.006745698862
v  0.017326116562 0.267238467932 -0.004821498413
v  0.007339422591 0.267225563526 -0.004821497947
v  0.007339423522 0.267225563526 0.005165203474
v  0.017326116562 0.267238467932 0.005165203474
v  0.070629797876 0.010141700506 0.005165204871
v  0.066311568022 0.002942673862 0.005165204871
v  0.017633046955 0.082470126450 0.005165204871
v  0.007653587498 0.078739397228 0.005165204871
v  0.070629797876 0.010141700506 -0.004821497947
v  0.017633046955 0.082470126450 -0.004821497947
v  0.066311568022 0.002942673862 -0.004821497947
v  0.007653587498 0.078739397228 -0.004821497947
v  0.006938383915 0.009903095663 0.276261389256
v  -0.006896497216 0.009890176356 0.276261389256
v  -0.006883533206 0.002646312118 0.276266247034
v  0.006951347925 0.002659186721 0.276266336441
v  0.004671524279 0.267222136259 0.017819810659
v  0.004671525210 0.267222136259 0.007833105512
v  -0.005315162707 0.267209231853 0.007833105512
v  -0.005315162707 0.267209231853 0.017819810659
v  -0.004970268346 0.010044045746 0.070778630674
v  -0.004960976075 0.002850607038 0.066451117396
v  -0.005063786171 0.082440800965 0.017875365913
v  -0.005058981944 0.078722968698 0.007891094312
v  0.005016419105 0.010056965053 0.070778630674
v  0.004922901746 0.082453697920 0.017875365913
v  0.005025711842 0.002863503993 0.066451117396
v  0.004927705973 0.078735843301 0.007891094312
v  -0.276068449020 0.009639188647 0.007089201361
v  -0.276068449020 0.009639188647 -0.006745698862
v  -0.276060342789 0.002395279706 -0.006745698862
v  -0.276060342789 0.002395279706 0.007089201361
v  -0.017969766632 0.267192900181 0.005165221635
v  -0.007983072661 0.267205774784 0.005165221170
v  -0.007983072661 0.267205774784 -0.004821480252
v  -0.017969766632 0.267192900181 -0.004821480252
v  -0.070583656430 0.009959287941 -0.004821479321
v  -0.066246837378 0.002771437168 -0.004821479321
v  -0.017773944885 0.082424394786 -0.004821479321
v  -0.007784881163 0.078719437122 -0.004821479321
v  -0.070583656430 0.009959287941 0.005165204871
v  -0.017773944885 0.082424394786 0.005165223032
v  -0.066246837378 0.002771437168 0.005165204871
v  -0.007784881163 0.078719437122 0.005165223032
# 118 vertices

vn 0.742333173752 -0.670030951500 0.000000250274
vn 0.697564899921 -0.670030951500 -0.253893077374
vn 0.770836114883 0.571923851967 -0.280561596155
vn 0.820306956768 0.571923434734 0.000000267244
vn 0.568660080433 -0.670031070709 -0.477162569761
vn 0.628391444683 0.571923613548 -0.527283191681
vn 0.371166616678 -0.670030891895 -0.642879426479
vn 0.410153567791 0.571923434734 -0.710406661034
vn 0.128904819489 -0.670031011105 -0.731055378914
vn 0.142444849014 0.571923613548 -0.807844579220
vn -0.128904849291 -0.670030891895 -0.731055498123
vn -0.142444789410 0.571923732758 -0.807844460011
vn -0.371166557074 -0.670031070709 -0.642879247665
vn -0.410153597593 0.571923375130 -0.710406720638
vn -0.568660199642 -0.670030951500 -0.477162569761
vn -0.628391504288 0.571923732758 -0.527283012867
vn -0.697564899921 -0.670031070709 -0.253892928362
vn -0.770836234093 0.571923673153 -0.280561566353
vn -0.742333173752 -0.670030951500 -0.000000085808
vn -0.820306837559 0.571923673153 -0.000000075904
vn -0.697565078735 -0.670030832291 0.253892928362
vn -0.770836114883 0.571923971176 0.280561417341
vn -0.568660259247 -0.670031011105 0.477162361145
vn -0.628391683102 0.571923613548 0.527282953262
vn -0.371166825294 -0.670030832291 0.642879366875
vn -0.410153597593 0.571923971176 0.710406243801
vn -0.128905102611 -0.670031070709 0.731055319309
vn -0.142445147038 0.571923494339 0.807844638824
vn 0.128904432058 -0.670030891895 0.731055557728
vn 0.142444342375 0.571923911572 0.807844460011
vn 0.371166050434 -0.670031011105 0.642879605293
vn 0.410152792931 0.571923971176 0.710406661034
vn 0.568660020828 -0.670030772686 0.477163016796
vn 0.628390789032 0.571924328804 0.527283191681
vn 0.697564840317 -0.670031011105 0.253893136978
vn 0.770836532116 0.571923077106 0.280561894178
vn 0.144684046507 0.988075613976 -0.052660685033
vn 0.153970032930 0.988075494766 0.000000032718
vn 0.117947936058 0.988075494766 -0.098970077932
vn 0.076985068619 0.988075494766 -0.133342310786
vn 0.026736572385 0.988075554371 -0.151630789042
vn -0.026736598462 0.988075554371 -0.151630833745
vn -0.076985262334 0.988075435162 -0.133342415094
vn -0.117947675288 0.988075554371 -0.098969869316
vn -0.144684344530 0.988075554371 -0.052660789341
vn -0.153970032930 0.988075494766 -0.000000002401
vn -0.144684031606 0.988075613976 0.052660651505
vn -0.117947831750 0.988075494766 0.098970055580
vn -0.076984725893 0.988075613976 0.133341223001
vn -0.026736676693 0.988075494766 0.151631131768
vn 0.026736486703 0.988075554371 0.151630535722
vn 0.076984725893 0.988075613976 0.133341640234
vn 0.117946907878 0.988075673580 0.098969385028
vn 0.144685253501 0.988075375557 0.052661076188
vn -0.581115305424 0.576045513153 -0.574870944023
vn 0.579556643963 0.577569782734 -0.574914991856
vn 0.581007421017 -0.576225817204 -0.574799299240
vn -0.579333782196 -0.577768445015 -0.574939966202
vn -0.578133225441 0.576664686203 -0.577251970768
vn -0.578100979328 0.576505064964 0.577443659306
vn 0.576566576958 0.578032553196 0.577450692654
vn 0.576598405838 0.578192234039 -0.577259063721
vn 0.822790205479 0.509287118912 -0.252275526524
vn 0.619999825954 -0.703000426292 0.348411619663
vn 0.783783257008 0.193755492568 -0.590036094189
vn 0.641513466835 -0.246958658099 0.726272583008
vn -0.824082970619 0.507237911224 -0.252184450626
vn -0.784266889095 0.191671863198 -0.590074002743
vn -0.618160545826 -0.704596996307 0.348454624414
vn -0.640858113766 -0.248650833964 0.726273834705
vn 0.574139058590 0.577531993389 -0.580362915993
vn 0.574089705944 0.577521204948 0.580422461033
vn 0.575625300407 -0.576263368130 0.580151736736
vn 0.575674355030 -0.576274216175 -0.580092251301
vn 0.576487421989 0.578192412853 -0.577369749546
vn -0.578213751316 0.576505243778 -0.577330589294
vn -0.578213691711 0.576505303383 0.577330589294
vn 0.576487421989 0.578192472458 0.577369689941
vn 0.251783549786 0.508565545082 0.823386967182
vn -0.347658932209 -0.704139292240 0.619129359722
vn 0.589809894562 0.193499341607 0.784016788006
vn -0.725939452648 -0.248765930533 0.641192197800
vn 0.251695573330 0.508642971516 -0.823366045952
vn 0.589809894562 0.193499341607 -0.784016788006
vn -0.347701579332 -0.704136610031 -0.619108378887
vn -0.725939512253 -0.248765930533 -0.641192138195
vn 0.579502761364 0.577576935291 0.574962079525
vn -0.581181704998 0.576028048992 0.574821293354
vn -0.579400658607 -0.577751040459 0.574890077114
vn 0.580951750278 -0.576226949692 0.574854373932
vn 0.576597869396 0.578192651272 0.577259182930
vn 0.576566159725 0.578032970428 -0.577450692654
vn -0.578100621700 0.576505482197 -0.577443599701
vn -0.578132867813 0.576664984226 0.577251970768
vn -0.824108600616 0.507152855396 0.252271682024
vn -0.618185102940 -0.704594492912 -0.348416030407
vn -0.784266769886 0.191671237350 0.590074419975
vn -0.640857875347 -0.248651251197 -0.726273894310
vn 0.822774350643 0.509356081486 0.252187997103
vn 0.783783018589 0.193754896522 0.590036571026
vn 0.619982779026 -0.702992618084 -0.348457664251
vn 0.641513347626 -0.246959000826 -0.726272583008
vn -0.575693964958 0.576088845730 0.580256938934
vn -0.575644254684 0.576077938080 -0.580317080021
vn -0.574064791203 -0.577712774277 -0.580256462097
vn -0.574114382267 -0.577723860741 0.580196380615
vn -0.578021883965 0.576665759087 0.577362358570
vn 0.576680421829 0.578031778336 0.577337801456
vn 0.576680421829 0.578031837940 -0.577337801456
vn -0.578021883965 0.576665759087 -0.577362358570
vn -0.252763211727 0.507874667645 -0.823513269424
vn 0.349168449640 -0.703455984592 -0.619056582451
vn -0.590299665928 0.191927373409 -0.784034550190
vn 0.726605713367 -0.246843844652 -0.641180336475
vn -0.252676457167 0.507951319218 0.823492586613
vn -0.590299725533 0.191927284002 0.784034550190
vn 0.349210530519 -0.703453361988 0.619035840034
vn 0.726605653763 -0.246843859553 0.641180455685
# 118 vertex normals

vt 0.537867069244 0.554353415966 0.000000000000
vt 0.622874796391 0.554353415966 0.000000000000
vt 0.622874796391 0.637300372124 0.000000000000
vt 0.537867069244 0.637300372124 0.000000000000
vt 0.562339425087 0.558095574379 0.000000000000
vt 0.576652288437 0.554353415966 0.000000000000
vt 0.591413736343 0.555613577366 0.000000000000
vt 0.604843258858 0.561724007130 0.000000000000
vt 0.615321040154 0.571947813034 0.000000000000
vt 0.621583282948 0.585051715374 0.000000000000
vt 0.622874796391 0.599455296993 0.000000000000
vt 0.619039654732 0.613421261311 0.000000000000
vt 0.610540509224 0.625265061855 0.000000000000
vt 0.598402440548 0.633558154106 0.000000000000
vt 0.584089577198 0.637300372124 0.000000000000
vt 0.569328129292 0.636040210724 0.000000000000
vt 0.555898606777 0.629929780960 0.000000000000
vt 0.545420825481 0.619705975056 0.000000000000
vt 0.539158523083 0.606602013111 0.000000000000
vt 0.537867069244 0.592198431492 0.000000000000
vt 0.541702210903 0.578232526779 0.000000000000
vt 0.550201356411 0.566388666630 0.000000000000
vt 0.621583342552 0.585051774979 0.000000000000
vt 0.622874736786 0.599455356598 0.000000000000
vt 0.584089517593 0.637300372124 0.000000000000
vt 0.555898606777 0.629929721355 0.000000000000
# 26 texture coords

g UDC_TableRound
usemtl Prop_Cobble
s 1
f 1/1/1 2/2/2 3/3/3 
f 3/3/3 4/4/4 1/1/1 
f 2/1/2 5/2/5 6/3/6 
f 6/3/6 3/4/3 2/1/2 
f 5/1/5 7/2/7 8/3/8 
f 8/3/8 6/4/6 5/1/5 
f 7/1/7 9/2/9 10/3/10 
f 10/3/10 8/4/8 7/1/7 
f 9/1/9 11/2/11 12/3/12 
f 12/3/12 10/4/10 9/1/9 
f 11/1/11 13/2/13 14/3/14 
f 14/3/14 12/4/12 11/1/11 
f 13/1/13 15/2/15 16/3/16 
f 16/3/16 14/4/14 13/1/13 
f 15/1/15 17/2/17 18/3/18 
f 18/3/18 16/4/16 15/1/15 
f 17/1/17 19/2/19 20/3/20 
f 20/3/20 18/4/18 17/1/17 
f 19/1/19 21/2/21 22/3/22 
f 22/3/22 20/4/20 19/1/19 
f 21/1/21 23/2/23 24/3/24 
f 24/3/24 22/4/22 21/1/21 
f 23/1/23 25/2/25 26/3/26 
f 26/3/26 24/4/24 23/1/23 
f 25/1/25 27/2/27 28/3/28 
f 28/3/28 26/4/26 25/1/25 
f 27/1/27 29/2/29 30/3/30 
f 30/3/30 28/4/28 27/1/27 
f 29/1/29 31/2/31 32/3/32 
f 32/3/32 30/4/30 29/1/29 
f 31/1/31 33/2/33 34/3/34 
f 34/3/34 32/4/32 31/1/31 
f 33/1/33 35/2/35 36/3/36 
f 36/3/36 34/4/34 33/1/33 
f 35/1/35 1/2/1 4/3/4 
f 4/3/4 36/4/36 35/1/35 
f 4/1/4 3/2/3 37/3/37 
f 37/3/37 38/4/38 4/1/4 
f 3/1/3 6/2/6 39/3/39 
f 39/3/39 37/4/37 3/1/3 
f 6/1/6 8/2/8 40/3/40 
f 40/3/40 39/4/39 6/1/6 
f 8/1/8 10/2/10 41/3/41 
f 41/3/41 40/4/40 8/1/8 
f 10/1/10 12/2/12 42/3/42 
f 42/3/42 41/4/41 10/1/10 
f 12/1/12 14/2/14 43/3/43 
f 43/3/43 42/4/42 12/1/12 
f 14/1/14 16/2/16 44/3/44 
f 44/3/44 43/4/43 14/1/14 
f 16/1/16 18/2/18 45/3/45 
f 45/3/45 44/4/44 16/1/16 
f 18/1/18 20/2/20 46/3/46 
f 46/3/46 45/4/45 18/1/18 
f 20/1/20 22/2/22 47/3/47 
f 47/3/47 46/4/46 20/1/20 
f 22/1/22 24/2/24 48/3/48 
f 48/3/48 47/4/47 22/1/22 
f 24/1/24 26/2/26 49/3/49 
f 49/3/49 48/4/48 24/1/24 
f 26/1/26 28/2/28 50/3/50 
f 50/3/50 49/4/49 26/1/26 
f 28/1/28 30/2/30 51/3/51 
f 51/3/51 50/4/50 28/1/28 
f 30/1/30 32/2/32 52/3/52 
f 52/3/52 51/4/51 30/1/30 
f 32/1/32 34/2/34 53/3/53 
f 53/3/53 52/4/52 32/1/32 
f 34/1/34 36/2/36 54/3/54 
f 54/3/54 53/4/53 34/1/34 
f 36/1/36 4/2/4 38/3/38 
f 38/3/38 54/4/54 36/1/36 
f 33/5/33 31/6/31 29/7/29 
f 29/7/29 27/8/27 25/9/25 
f 25/9/25 23/10/23 21/11/21 
f 29/7/29 25/9/25 21/11/21 
f 21/11/21 19/12/19 17/13/17 
f 17/13/17 15/14/15 13/15/13 
f 21/11/21 17/13/17 13/15/13 
f 13/15/13 11/16/11 9/17/9 
f 9/17/9 7/18/7 5/19/5 
f 13/15/13 9/17/9 5/19/5 
f 21/11/21 13/15/13 5/19/5 
f 29/7/29 21/11/21 5/19/5 
f 5/19/5 2/20/2 1/21/1 
f 29/7/29 5/19/5 1/21/1 
f 33/5/33 29/7/29 1/21/1 
f 35/22/35 33/5/33 1/21/1 
f 37/5/37 39/6/39 40/7/40 
f 40/7/40 41/8/41 42/9/42 
f 42/9/42 43/23/43 44/24/44 
f 40/7/40 42/9/42 44/24/44 
f 44/24/44 45/12/45 46/13/46 
f 46/13/46 47/14/47 48/25/48 
f 44/24/44 46/13/46 48/25/48 
f 48/25/48 49/16/49 50/26/50 
f 50/26/50 51/18/51 52/19/52 
f 48/25/48 50/26/50 52/19/52 
f 44/24/44 48/25/48 52/19/52 
f 40/7/40 44/24/44 52/19/52 
f 52/19/52 53/20/53 54/21/54 
f 40/7/40 52/19/52 54/21/54 
f 37/5/37 40/7/40 54/21/54 
f 38/22/38 37/5/37 54/21/54 
f 55/3/55 56/4/56 57/1/57 
f 57/1/57 58/2/58 55/3/55 
f 59/3/59 60/4/60 61/1/61 
f 61/1/61 62/2/62 59/3/59 
f 63/3/63 64/4/64 57/1/57 
f 57/1/57 56/2/56 63/3/63 
f 65/3/65 66/4/66 64/1/64 
f 64/1/64 63/2/63 65/3/65 
f 62/3/62 61/4/61 66/1/66 
f 66/1/66 65/2/65 62/3/62 
f 67/3/67 63/4/63 56/1/56 
f 56/1/56 55/2/55 67/3/67 
f 68/3/68 65/4/65 63/1/63 
f 63/1/63 67/2/67 68/3/68 
f 59/3/59 62/4/62 65/1/65 
f 65/1/65 68/2/68 59/3/59 
f 69/3/69 67/4/67 55/1/55 
f 55/1/55 58/2/58 69/3/69 
f 70/3/70 68/4/68 67/1/67 
f 67/1/67 69/2/69 70/3/70 
f 60/3/60 59/4/59 68/1/68 
f 68/1/68 70/2/70 60/3/60 
f 64/3/64 69/4/69 58/1/58 
f 58/1/58 57/2/57 64/3/64 
f 66/3/66 70/4/70 69/1/69 
f 69/1/69 64/2/64 66/3/66 
f 61/3/61 60/4/60 70/1/70 
f 70/1/70 66/2/66 61/3/61 
f 71/3/71 72/4/72 73/1/73 
f 73/1/73 74/2/74 71/3/71 
f 75/3/75 76/4/76 77/1/77 
f 77/1/77 78/2/78 75/3/75 
f 79/3/79 80/4/80 73/1/73 
f 73/1/73 72/2/72 79/3/79 
f 81/3/81 82/4/82 80/1/80 
f 80/1/80 79/2/79 81/3/81 
f 78/3/78 77/4/77 82/1/82 
f 82/1/82 81/2/81 78/3/78 
f 83/3/83 79/4/79 72/1/72 
f 72/1/72 71/2/71 83/3/83 
f 84/3/84 81/4/81 79/1/79 
f 79/1/79 83/2/83 84/3/84 
f 75/3/75 78/4/78 81/1/81 
f 81/1/81 84/2/84 75/3/75 
f 85/3/85 83/4/83 71/1/71 
f 71/1/71 74/2/74 85/3/85 
f 86/3/86 84/4/84 83/1/83 
f 83/1/83 85/2/85 86/3/86 
f 76/3/76 75/4/75 84/1/84 
f 84/1/84 86/2/86 76/3/76 
f 80/3/80 85/4/85 74/1/74 
f 74/1/74 73/2/73 80/3/80 
f 82/3/82 86/4/86 85/1/85 
f 85/1/85 80/2/80 82/3/82 
f 77/3/77 76/4/76 86/1/86 
f 86/1/86 82/2/82 77/3/77 
f 87/3/87 88/4/88 89/1/89 
f 89/1/89 90/2/90 87/3/87 
f 91/3/91 92/4/92 93/1/93 
f 93/1/93 94/2/94 91/3/91 
f 95/3/95 96/4/96 89/1/89 
f 89/1/89 88/2/88 95/3/95 
f 97/3/97 98/4/98 96/1/96 
f 96/1/96 95/2/95 97/3/97 
f 94/3/94 93/4/93 98/1/98 
f 98/1/98 97/2/97 94/3/94 
f 99/3/99 95/4/95 88/1/88 
f 88/1/88 87/2/87 99/3/99 
f 100/3/100 97/4/97 95/1/95 
f 95/1/95 99/2/99 100/3/100 
f 91/3/91 94/4/94 97/1/97 
f 97/1/97 100/2/100 91/3/91 
f 101/3/101 99/4/99 87/1/87 
f 87/1/87 90/2/90 101/3/101 
f 102/3/102 100/4/100 99/1/99 
f 99/1/99 101/2/101 102/3/102 
f 92/3/92 91/4/91 100/1/100 
f 100/1/100 102/2/102 92/3/92 
f 96/3/96 101/4/101 90/1/90 
f 90/1/90 89/2/89 96/3/96 
f 98/3/98 102/4/102 101/1/101 
f 101/1/101 96/2/96 98/3/98 
f 93/3/93 92/4/92 102/1/102 
f 102/1/102 98/2/98 93/3/93 
f 103/3/103 104/4/104 105/1/105 
f 105/1/105 106/2/106 103/3/103 
f 107/3/107 108/4/108 109/1/109 
f 109/1/109 110/2/110 107/3/107 
f 111/3/111 112/4/112 105/1/105 
f 105/1/105 104/2/104 111/3/111 
f 113/3/113 114/4/114 112/1/112 
f 112/1/112 111/2/111 113/3/113 
f 110/3/110 109/4/109 114/1/114 
f 114/1/114 113/2/113 110/3/110 
f 115/3/115 111/4/111 104/1/104 
f 104/1/104 103/2/103 115/3/115 
f 116/3/116 113/4/113 111/1/111 
f 111/1/111 115/2/115 116/3/116 
f 107/3/107 110/4/110 113/1/113 
f 113/1/113 116/2/116 107/3/107 
f 117/3/117 115/4/115 103/1/103 
f 103/1/103 106/2/106 117/3/117 
f 118/3/118 116/4/116 115/1/115 
f 115/1/115 117/2/117 118/3/118 
f 108/3/108 107/4/107 116/1/116 
f 116/1/116 118/2/118 108/3/108 
f 112/3/112 117/4/117 106/1/106 
f 106/1/106 105/2/105 112/3/112 
f 114/3/114 118/4/118 117/1/117 
f 117/1/117 112/2/112 114/3/114 
f 109/3/109 108/4/108 118/1/118 
f 118/1/118 114/2/114 109/3/109 
# 216 faces

