# 3ds Max Wavefront OBJ Exporter v0.97b - (c)2007 guruware
# File Created: 23.03.2018 17:32:54

mtllib UDC_ChairPlastic.mtl

#
# object UDC_ChairPlastic
#

v  -0.130547046661 0.000241756439 0.093641102314
v  -0.130547046661 0.000241756439 0.106245875359
v  -0.117244720459 0.000241756439 0.118850111961
v  -0.103940963745 0.000241756439 0.118850111961
v  -0.103940963745 0.000241756439 0.093641102314
v  -0.091222286224 0.131104946136 0.108477294445
v  -0.091222286224 0.131104946136 0.075983583927
v  -0.114884376526 0.131104946136 0.075983583927
v  -0.091222286224 0.159333229065 0.075983583927
v  -0.091222286224 0.159333229065 0.108477294445
v  -0.114884376526 0.159333229065 0.075983583927
v  0.000370502472 0.159333229065 0.115745365620
v  0.000370502472 0.131104946136 0.115745365620
v  0.000370502472 0.159333229065 0.075983583927
v  -0.114884376526 0.159333229065 -0.057120412588
v  -0.114884376526 0.131104946136 -0.057120412588
v  -0.091222286224 0.159333229065 -0.057120412588
v  -0.104051113129 0.000241756439 -0.096428722143
v  -0.117353439331 0.000241756439 -0.096428722143
v  -0.130657196045 0.000241756439 -0.083824306726
v  -0.130657196045 0.000241756439 -0.071219801903
v  -0.104051113129 0.000241756439 -0.071219801903
v  -0.091222286224 0.131104946136 -0.057120680809
v  -0.091222286224 0.131104946136 -0.089614212513
v  -0.091222286224 0.159333229065 -0.089614212513
v  -0.091222286224 0.190631389618 -0.089614212513
v  0.000370502472 0.159333229065 -0.066663444042
v  0.000370502472 0.190631389618 -0.099157065153
v  -0.091222286224 0.339895248413 -0.089614212513
v  0.000370502472 0.339895248413 -0.099157065153
v  0.000370502472 0.366129398346 -0.119045823812
v  -0.071738719940 0.365010738373 -0.109502792358
v  -0.087205410004 0.233832836151 0.093481779099
v  -0.116984367371 0.233824253082 0.093482673168
v  -0.091222286224 0.244191169739 -0.057120412588
v  -0.123714923859 0.244191169739 -0.057120412588
v  -0.091222286224 0.275489330292 -0.089614212513
v  -0.086990833282 0.244191169739 0.081613540649
v  -0.116625308990 0.244191169739 0.081613540649
v  0.131286621094 0.000241756439 0.093641102314
v  0.104681968689 0.000241756439 0.093641102314
v  0.104681968689 0.000241756439 0.118850111961
v  0.117984294891 0.000241756439 0.118850111961
v  0.131286621094 0.000241756439 0.106245875359
v  0.091963291168 0.131104946136 0.075983583927
v  0.091963291168 0.131104946136 0.108477294445
v  0.115623950958 0.131104946136 0.075983583927
v  0.091963291168 0.159333229065 0.075983583927
v  0.091963291168 0.159333229065 0.108477294445
v  0.115623950958 0.159333229065 0.075983583927
v  0.115623950958 0.131104946136 -0.057120412588
v  0.115623950958 0.159333229065 -0.057120412588
v  0.091963291168 0.159333229065 -0.057120412588
v  0.104792118073 0.000241756439 -0.096428722143
v  0.104792118073 0.000241756439 -0.071219801903
v  0.131396770477 0.000241756439 -0.071219801903
v  0.131396770477 0.000241756439 -0.083824306726
v  0.118094444275 0.000241756439 -0.096428722143
v  0.091963291168 0.131104946136 -0.057120680809
v  0.091963291168 0.131104946136 -0.089614212513
v  0.091963291168 0.159333229065 -0.089614212513
v  0.091963291168 0.190631389618 -0.089614212513
v  0.091963291168 0.339895248413 -0.089614212513
v  0.072478294373 0.365010738373 -0.109502792358
v  0.087946414948 0.233832836151 0.093481779099
v  0.117723941803 0.233824253082 0.093482673168
v  0.124454498291 0.244191169739 -0.057120412588
v  0.091963291168 0.244191169739 -0.057120412588
v  0.091963291168 0.275489330292 -0.089614212513
v  0.087731838226 0.244191169739 0.081613540649
v  0.117364883423 0.244191169739 0.081613540649
# 71 vertices

vn 0.000000000000 0.774913311005 0.632067561150
vn 0.000000000000 1.000000000000 -0.000000000000
vn -0.654583632946 0.755989611149 -0.000000000000
vn -0.552042543888 0.637386739254 0.537575244904
vn -0.904431462288 0.043249603361 0.424421012402
vn -0.701293051243 0.078566119075 0.708530426025
vn 0.000000000000 0.069437116385 0.997586309910
vn -0.676713466644 -0.069558747113 0.732953250408
vn -0.890340387821 0.021461173892 0.454789400101
vn 0.000000000000 -0.116106726229 0.993236720562
vn 0.000000004758 0.000000000000 1.000000000000
vn 0.000000000000 0.000000000000 1.000000000000
vn -0.707106769085 0.000000000000 -0.707106828690
vn -0.434497445822 0.050079025328 -0.899279773235
vn -1.000000000000 0.000000000000 -0.000000000000
vn 0.177879557014 0.842619657516 0.508282423019
vn 0.000000000000 0.684165000916 0.729327261448
vn -0.660394549370 0.750918805599 -0.000000000000
vn 0.000000000000 0.767213821411 -0.641391456127
vn -0.550517857075 0.630817890167 -0.546807885170
vn -0.704429268837 0.069959208369 -0.706318020821
vn -0.998767554760 0.049632526934 -0.000000000000
vn -0.829996883869 0.000002353778 -0.557767987251
vn 0.000000000000 0.918734371662 0.394876062870
vn 0.664107739925 0.299754977226 0.684914469719
vn 0.000000001988 0.382318168879 0.924030721188
vn 0.104447126389 0.230999931693 0.967331290245
vn -0.000000002464 0.325219124556 0.945638656616
vn -0.000000187062 0.597581505775 0.801808178425
vn 0.099172398448 0.569328546524 0.816106498241
vn -0.158621445298 0.322168141603 0.933298945427
vn 0.000008723979 0.306909948587 0.951738536358
vn 0.829997122288 0.000000000000 0.557767689228
vn 1.000000000000 0.000000000000 -0.000000000000
vn -0.000073064119 0.935584723949 0.353102266788
vn 0.000000000000 0.928867638111 0.370411843061
vn 0.000000000000 0.958274304867 0.285850226879
vn 0.000000000000 0.720233440399 0.693731784821
vn 0.000000000000 0.937412858009 0.348220020533
vn 0.000000000000 0.774913191795 0.632067620754
vn 0.552042424679 0.637386798859 0.537575304508
vn 0.654583573341 0.755989611149 -0.000000000000
vn 0.701293110847 0.078566096723 0.708530426025
vn 0.904431462288 0.043249610811 0.424421042204
vn 0.676713407040 -0.069558762014 0.732953310013
vn 0.890340387821 0.021461173892 0.454789400101
vn 0.000000000000 -0.116106718779 0.993236720562
vn 0.434497475624 0.050079014152 -0.899279713631
vn 0.707106769085 0.000000000000 -0.707106828690
vn -0.177879557014 0.842619597912 0.508282482624
vn 0.660394251347 0.750919103622 -0.000000000000
vn 0.550517797470 0.630817890167 -0.546807944775
vn 0.000000000000 0.767213761806 -0.641391456127
vn 0.704429268837 0.069959200919 -0.706317961216
vn 0.998767554760 0.049632526934 -0.000000000000
vn 0.829996883869 0.000002353677 -0.557768046856
vn -0.664107739925 0.299755036831 0.684914469719
vn -0.104447700083 0.230993822217 0.967332661152
vn -0.099174879491 0.569323658943 0.816109597683
vn 0.158621594310 0.322168201208 0.933298885822
vn -0.000008722157 0.306909918785 0.951738595963
vn -0.829997122288 0.000000000000 0.557767689228
vn 0.000073069074 0.935584723949 0.353102207184
vn 0.000000000000 0.958273112774 0.285854250193
# 64 vertex normals

vt 0.537867069244 0.555398941040 0.000000000000
vt 0.579196155071 0.554353415966 0.000000000000
vt 0.621699452400 0.594258606434 0.000000000000
vt 0.622874796391 0.635209262371 0.000000000000
vt 0.540217697620 0.637300372124 0.000000000000
vt 0.622874796391 0.637300372124 0.000000000000
vt 0.537867069244 0.637300372124 0.000000000000
vt 0.537867069244 0.554353415966 0.000000000000
vt 0.622874796391 0.554353415966 0.000000000000
vt 0.540010094643 0.554353415966 0.000000000000
vt 0.581978201866 0.555500209332 0.000000000000
vt 0.622874796391 0.596973538399 0.000000000000
vt 0.621803283691 0.637300372124 0.000000000000
vt 0.537867069244 0.635006725788 0.000000000000
vt 0.538938581944 0.554353415966 0.000000000000
vt 0.622874796391 0.556647062302 0.000000000000
vt 0.620731711388 0.637300372124 0.000000000000
vt 0.578763663769 0.636153519154 0.000000000000
vt 0.537867069244 0.594680607319 0.000000000000
vt 0.537867069244 0.556444823742 0.000000000000
vt 0.620523750782 0.554353415966 0.000000000000
vt 0.622874796391 0.636254668236 0.000000000000
vt 0.581546247005 0.637300372124 0.000000000000
vt 0.539042592049 0.597395420074 0.000000000000
# 24 texture coords

g UDC_ChairPlastic
usemtl Prop_Cobble
s 1
f 1/1/1 2/2/2 3/3/2 
f 1/1/1 3/3/2 4/4/3 
f 1/1/1 4/4/3 5/5/4 
f 6/6/5 7/7/6 5/8/4 
f 5/8/4 4/9/3 6/6/5 
f 7/6/6 8/7/7 1/8/1 
f 1/8/1 5/9/4 7/6/6 
f 9/6/8 7/7/6 6/8/5 
f 6/8/5 10/9/9 9/6/8 
f 11/6/10 8/7/7 7/8/6 
f 7/8/6 9/9/8 11/6/10 
f 12/6/11 10/7/9 6/8/5 
f 6/8/5 13/9/12 12/6/11 
s 2
f 9/6/2 10/7/2 12/8/2 
f 12/8/2 14/9/2 9/6/2 
s 4
f 15/6/13 16/7/14 8/8/15 
f 8/8/15 11/9/15 15/6/13 
s 2
f 11/6/2 9/7/2 17/8/16 
f 17/8/16 15/9/17 11/6/2 
s 4
f 18/10/18 19/11/2 20/12/2 
f 18/10/18 20/12/2 21/13/19 
f 18/10/18 21/13/19 22/14/20 
f 16/6/14 23/7/21 22/8/20 
f 22/8/20 21/9/19 16/6/14 
f 23/6/21 24/7/22 18/8/18 
f 18/8/18 22/9/20 23/6/21 
f 17/6/23 23/7/21 16/8/14 
f 16/8/14 15/9/13 17/6/23 
f 25/6/15 24/7/22 23/8/21 
f 23/8/21 17/9/23 25/6/15 
f 25/8/15 17/9/23 26/6/15 
s 2
f 17/6/16 9/7/2 14/8/2 
f 14/8/2 27/9/24 17/6/16 
f 26/6/25 17/7/16 27/8/24 
f 27/8/24 28/9/26 26/6/25 
f 29/6/27 26/7/25 28/8/26 
f 28/8/26 30/9/28 29/6/27 
f 31/6/29 32/7/30 29/8/27 
f 29/8/27 30/9/28 31/6/29 
s 1
f 10/6/9 33/7/31 9/8/8 
f 9/6/8 33/7/31 34/8/32 
f 34/8/32 11/9/10 9/6/8 
s 2
f 17/6/16 35/7/33 36/8/12 
f 36/8/12 15/9/17 17/6/16 
f 26/6/25 37/7/34 35/8/33 
f 35/8/33 17/9/16 26/6/25 
s 1
f 38/8/35 35/9/36 36/6/37 
f 36/6/37 35/7/36 37/8/38 
f 39/6/39 34/7/32 38/8/35 
f 34/6/32 33/7/31 38/8/35 
f 39/8/39 38/9/35 36/6/37 
f 40/15/40 41/16/41 42/17/42 
f 40/15/40 42/17/42 43/18/2 
f 40/15/40 43/18/2 44/19/2 
f 41/8/41 45/9/43 46/6/44 
f 46/6/44 42/7/42 41/8/41 
f 40/8/40 47/9/7 45/6/43 
f 45/6/43 41/7/41 40/8/40 
f 46/8/44 45/9/43 48/6/45 
f 48/6/45 49/7/46 46/8/44 
f 45/8/43 47/9/7 50/6/47 
f 50/6/47 48/7/45 45/8/43 
f 46/8/44 49/9/46 12/6/11 
f 12/6/11 13/7/12 46/8/44 
s 2
f 12/8/2 49/9/2 48/6/2 
f 48/6/2 14/7/2 12/8/2 
s 4
f 47/8/34 51/9/48 52/6/49 
f 52/6/49 50/7/34 47/8/34 
s 2
f 53/8/50 48/9/2 50/6/2 
f 50/6/2 52/7/17 53/8/50 
s 4
f 54/20/51 55/21/52 56/22/53 
f 54/20/51 56/22/53 57/23/2 
f 54/20/51 57/23/2 58/24/2 
f 55/8/52 59/9/54 51/6/48 
f 51/6/48 56/7/53 55/8/52 
f 54/8/51 60/9/55 59/6/54 
f 59/6/54 55/7/52 54/8/51 
f 51/8/48 59/9/54 53/6/56 
f 53/6/56 52/7/49 51/8/48 
f 59/8/54 60/9/55 61/6/34 
f 61/6/34 53/7/56 59/8/54 
f 61/6/34 62/7/34 53/8/56 
s 2
f 14/8/2 48/9/2 53/6/50 
f 53/6/50 27/7/24 14/8/2 
f 27/8/24 53/9/50 62/6/57 
f 62/6/57 28/7/26 27/8/24 
f 28/8/26 62/9/57 63/6/58 
f 63/6/58 30/7/28 28/8/26 
f 63/8/58 64/9/59 31/6/29 
f 31/6/29 30/7/28 63/8/58 
s 1
f 49/8/46 48/9/45 65/6/60 
f 66/8/61 65/9/60 48/6/45 
f 48/6/45 50/7/47 66/8/61 
s 2
f 67/8/12 68/9/62 53/6/50 
f 53/6/50 52/7/17 67/8/12 
f 68/8/62 69/9/15 62/6/57 
f 62/6/57 53/7/50 68/8/62 
s 1
f 70/6/63 67/7/64 68/8/36 
f 67/8/64 69/9/38 68/6/36 
f 71/8/39 70/9/63 66/6/61 
f 66/8/61 70/9/63 65/6/60 
f 71/6/39 67/7/64 70/8/63 
# 102 faces

