# 3ds Max Wavefront OBJ Exporter v0.97b - (c)2007 guruware
# File Created: 23.03.2018 17:06:02

mtllib UDC_RattanSofa.mtl

#
# object UDC_RattanSofa
#

v  -0.301419615746 -0.000300092681 0.139926612377
v  -0.305356681347 -0.000300092681 0.135989621282
v  -0.305356681347 -0.000300092681 -0.065679937601
v  -0.246257275343 -0.000300092681 -0.065679937601
v  -0.246257275343 -0.000300092681 0.139926612377
v  0.246255666018 -0.000300092681 -0.065679937601
v  0.246255666018 -0.000300092681 0.139926612377
v  0.305355072021 -0.000300092681 -0.065679937601
v  0.305355072021 -0.000300092681 0.135989621282
v  0.301418006420 -0.000300092681 0.139926612377
v  -0.305356681347 -0.000300092681 -0.131726920605
v  -0.301419615746 -0.000300092681 -0.135663926601
v  -0.246257275343 -0.000300092681 -0.135663926601
v  0.246255666018 -0.000300092681 -0.135663926601
v  0.301418006420 -0.000300092681 -0.135663926601
v  0.305355072021 -0.000300092681 -0.131726920605
v  -0.301419615746 0.235920369625 0.122485175729
v  -0.250194311142 0.235920369625 0.122485175729
v  -0.250194311142 0.235920369625 -0.065679937601
v  -0.301419615746 0.235920369625 -0.065679937601
v  -0.246257275343 0.132504016161 0.135989621282
v  0.246255666018 0.132504016161 0.135989621282
v  0.246255666018 0.132504016161 -0.065679937601
v  -0.246257275343 0.132504016161 -0.065679937601
v  0.250192672014 0.235920369625 0.122485175729
v  0.301418006420 0.235920369625 0.122485175729
v  0.301418006420 0.235920369625 -0.065679937601
v  0.250192672014 0.235920369625 -0.065679937601
v  -0.288221508265 0.301231801510 -0.083075076342
v  -0.246257275343 0.312132388353 -0.083075076342
v  -0.246257275343 0.312132388353 -0.145185053349
v  -0.288221508265 0.301231801510 -0.145185053349
v  0.246255666018 0.312132388353 -0.083075076342
v  0.246255666018 0.312132388353 -0.145185053349
v  0.288219869137 0.301231801510 -0.083075076342
v  0.288219869137 0.301231801510 -0.145185053349
v  -0.246257275343 0.128566995263 0.139926612377
v  -0.250194311142 0.132504016161 0.139926612377
v  -0.301419615746 0.132504016161 0.139926612377
v  0.246255666018 0.128566995263 0.139926612377
v  0.301418006420 0.132504016161 0.139926612377
v  0.250192672014 0.132504016161 0.139926612377
v  0.305355072021 0.132504016161 -0.065679937601
v  0.305355072021 0.132504016161 0.135989621282
v  0.305355072021 0.132504016161 -0.131726920605
v  0.246255666018 0.132504016161 -0.135663926601
v  0.301418006420 0.132504016161 -0.135663926601
v  -0.246257275343 0.132504016161 -0.135663926601
v  -0.301419615746 0.132504016161 -0.135663926601
v  -0.305356681347 0.132504016161 -0.065679937601
v  -0.305356681347 0.132504016161 -0.131726920605
v  -0.305356681347 0.132504016161 0.135989621282
v  -0.250194311142 0.204914376140 0.148446843028
v  -0.301419615746 0.204914376140 0.148446843028
v  -0.246257275343 0.231983363628 -0.065679937601
v  -0.246257275343 0.231983363628 0.120646789670
v  -0.246257275343 0.203688472509 0.144338443875
v  0.246255666018 0.231983363628 -0.065679937601
v  0.242318660021 0.235920369625 -0.065679937601
v  -0.242320284247 0.235920369625 -0.065679937601
v  0.246255666018 0.203688472509 0.144338443875
v  0.246255666018 0.231983363628 0.120646804571
v  0.301418006420 0.204914376140 0.148446843028
v  0.250192672014 0.204914376140 0.148446843028
v  0.305355072021 0.231983363628 -0.065679937601
v  0.305355072021 0.231983363628 0.120646804571
v  0.305355072021 0.203688472509 0.144338443875
v  0.305355072021 0.235920369625 -0.131726920605
v  0.305355072021 0.235920369625 -0.069616936147
v  0.246255666018 0.235920369625 -0.135663926601
v  0.301418006420 0.235920369625 -0.135663926601
v  -0.246257275343 0.235920369625 -0.135663926601
v  -0.301419615746 0.235920369625 -0.135663926601
v  -0.305356681347 0.231983363628 -0.065679937601
v  -0.305356681347 0.235920369625 -0.069616936147
v  -0.305356681347 0.235920369625 -0.131726920605
v  -0.305356681347 0.203688472509 0.144338443875
v  -0.305356681347 0.231983363628 0.120646789670
v  -0.246257275343 0.239797398448 -0.066364571452
v  -0.246257275343 0.308255344629 -0.078453429043
v  -0.284989118576 0.298064291477 -0.078460484743
v  0.246255666018 0.239797398448 -0.066364571452
v  0.246255666018 0.308255344629 -0.078453429043
v  0.284987509251 0.298064291477 -0.078460484743
v  0.246255666018 0.308255344629 -0.148437410593
v  0.284987509251 0.298064291477 -0.148444488645
v  -0.246257275343 0.308255344629 -0.148437410593
v  -0.284989118576 0.298064291477 -0.148444488645
# 88 vertices

vn 0.000000000000 -1.000000000000 -0.000000000000
vn -0.369613826275 0.841921627522 0.393133014441
vn 0.369615346193 0.841921091080 0.393132805824
vn 0.240101367235 0.621552705765 0.745669841766
vn -0.489553153515 0.701755642891 0.517568051815
vn 0.366254121065 0.700675368309 0.612300574780
vn -0.622523188591 0.589287757874 0.514980375767
vn -0.577350437641 0.577350199223 0.577350139618
vn 0.000000000000 0.707109332085 0.707104206085
vn -0.369616538286 0.841920733452 0.393132477999
vn 0.369613617659 0.841921746731 0.393132925034
vn 0.485987693071 0.704601764679 0.517061233521
vn -0.240102455020 0.621551752090 0.745670318604
vn -0.653563320637 0.685170352459 0.321553468704
vn -0.117132924497 0.936053395271 0.331789016724
vn -0.126729458570 0.991937339306 -0.000000000000
vn -0.775973260403 0.567806482315 -0.274702250957
vn 0.117645911872 0.935874044895 0.332113295794
vn 0.126729547977 0.991937279701 -0.000000000000
vn 0.653122067451 0.685503602028 0.321739614010
vn 0.776214718819 0.567384541035 -0.274891734123
vn -0.382679134607 0.000000000000 0.923881292343
vn 0.000000000000 0.000000000000 1.000000000000
vn 0.101986400783 0.289348244667 0.951775372028
vn 0.296890079975 0.047699254006 0.953719615936
vn -0.387385666370 -0.054581690580 0.920300602913
vn -0.101986743510 0.289347857237 0.951775431633
vn 0.382679045200 0.000000000000 0.923881351948
vn 0.387428283691 -0.054507173598 0.920287072659
vn -0.296852439642 0.047624707222 0.953735053539
vn 0.923877716064 0.000000000000 0.382687807083
vn 1.000000000000 0.000000000000 -0.000000000000
vn 0.928718209267 -0.021086195484 0.370186299086
vn 0.923878073692 0.000000000000 -0.382686942816
vn 0.923878073692 0.000000000000 -0.382686972618
vn 0.382679939270 0.000000000000 -0.923880994320
vn 0.000000000000 0.000000000000 -1.000000000000
vn -0.382679939270 0.000000000000 -0.923880994320
vn -0.923878073692 0.000000000000 -0.382686942816
vn -1.000000000000 0.000000000000 -0.000000000000
vn -0.923878073692 0.000000000000 -0.382687002420
vn -0.923877716064 0.000000000000 0.382687747478
vn -0.928733110428 -0.021146822721 0.370145350695
vn 0.369049936533 0.265746414661 0.890607118607
vn -0.369011849165 0.265799254179 0.890607118607
vn -0.545829653740 0.254026561975 0.798461318016
vn 0.021736236289 0.087260708213 0.995948374271
vn -0.021736403927 0.087260849774 0.995948314667
vn 0.260512173176 0.292704194784 0.920031368732
vn -0.898704528809 0.125495150685 0.420215576887
vn -0.897939383984 0.398785650730 0.186211884022
vn 0.369048386812 0.265746563673 0.890607714653
vn -0.369014739990 0.265798896551 0.890605986118
vn 0.951774060726 0.289351910353 0.101988226175
vn 0.897937476635 0.398789167404 0.186213567853
vn 0.898686468601 0.125409767032 0.420279651880
vn 0.931623458862 0.088291391730 -0.352537035942
vn 0.925625801086 0.249784067273 0.284297108650
vn 0.000000000000 -0.087281808257 -0.996183633804
vn 0.415073931217 -0.028595929965 -0.909338176250
vn 0.004024615511 -0.091824576259 -0.995767056942
vn -0.418197065592 -0.032576639205 -0.907772004604
vn -0.951774060726 0.289351940155 0.101988218725
vn -0.925525009632 0.250048398972 0.284392863512
vn -0.931730389595 0.088015444577 -0.352323353291
vn -0.898702621460 0.125496283174 0.420219331980
vn -0.897937655449 0.398789077997 0.186212927103
vn -0.000000061690 0.152335494757 0.988328814507
vn -0.064835235476 0.522201538086 0.850354015827
vn -0.331370830536 0.448952257633 0.829840481281
vn 0.004567103460 0.157118901610 0.987569153309
vn 0.069533571601 0.518446505070 0.852278292179
vn 0.321880221367 0.441531985998 0.837521731853
vn -0.013284179382 -0.183697491884 -0.982893049717
vn 0.326693147421 -0.107579939067 -0.938987851143
vn 0.020937368274 -0.173859268427 -0.984547913074
vn -0.339849352837 -0.088301964104 -0.936325371265
vn 0.741045355797 0.608395934105 0.284088283777
vn 0.736512482166 0.193415030837 0.648182034492
vn 0.163541346788 0.622856914997 -0.765051305294
vn 0.163411021233 0.621587574482 -0.766110777855
vn 0.087428405881 0.639782547951 -0.763566970825
vn 0.077181465924 0.640769779682 -0.763843655586
vn -0.088508658111 0.640164554119 -0.763122260571
vn -0.077892050147 0.640255451202 -0.764202713966
vn -0.162046238780 0.623371899128 -0.764949977398
vn -0.161753326654 0.622705459595 -0.765554547310
# 87 vertex normals

vt 10.294693946838 0.002499818802 0.000000000000
vt 10.361473083496 0.070534646511 0.000000000000
vt 10.361473083496 3.555553913116 0.000000000000
vt 9.359022140503 3.555553436279 0.000000000000
vt 9.359022140503 0.002499520779 0.000000000000
vt 1.004949808121 3.555551528931 0.000000000000
vt 1.004950761795 0.002497583628 0.000000000000
vt 0.002498030663 3.555551052094 0.000000000000
vt 0.002499222755 0.070532113314 0.000000000000
vt 0.069279074669 0.002497285604 0.000000000000
vt 10.361473083496 4.696901321411 0.000000000000
vt 10.294692993164 4.764935970306 0.000000000000
vt 9.359021186829 4.764935493469 0.000000000000
vt 1.004949569702 4.764933586121 0.000000000000
vt 0.069277882576 4.764933586121 0.000000000000
vt 0.002498030663 4.696898460388 0.000000000000
vt -5.294693946838 0.303902775049 0.000000000000
vt -4.425802230835 0.303902477026 0.000000000000
vt -4.425801753998 3.555553436279 0.000000000000
vt -5.294692993164 3.555553913116 0.000000000000
vt -4.359022140503 0.070534348488 0.000000000000
vt 3.995049238205 0.070532411337 0.000000000000
vt 3.995050191879 3.555551528931 0.000000000000
vt -4.359021663666 3.555553436279 0.000000000000
vt 4.061829566956 0.303900539875 0.000000000000
vt 4.930720806122 0.303900241852 0.000000000000
vt 4.930722236633 3.555551052094 0.000000000000
vt 4.061830520630 3.555551528931 0.000000000000
vt -5.070824146271 3.856156349182 0.000000000000
vt -4.359021186829 3.856156110764 0.000000000000
vt -4.359021186829 4.929468631744 0.000000000000
vt -5.070824146271 4.929469108582 0.000000000000
vt 3.995050191879 3.856153964996 0.000000000000
vt 3.995050430298 4.929466724396 0.000000000000
vt 4.706852436066 3.856153964996 0.000000000000
vt 4.706852436066 4.929466724396 0.000000000000
vt -5.294693946838 0.002497732639 0.000000000000
vt -4.359022140503 0.002497732639 0.000000000000
vt -4.359022140503 2.062756538391 0.000000000000
vt -4.425802230835 2.125699281693 0.000000000000
vt -5.294693946838 2.125699281693 0.000000000000
vt 3.995049238205 0.002497732639 0.000000000000
vt 3.995049238205 2.062756538391 0.000000000000
vt 4.930720806122 0.002497732639 0.000000000000
vt 4.930720806122 2.125699281693 0.000000000000
vt 4.061829566956 2.125699281693 0.000000000000
vt 0.070532113314 0.002497732639 0.000000000000
vt 3.555551052094 0.002497732639 0.000000000000
vt 3.555551052094 2.125699281693 0.000000000000
vt 0.070532113314 2.125699281693 0.000000000000
vt 4.696898460388 0.002497732639 0.000000000000
vt 4.696898460388 2.125699281693 0.000000000000
vt 0.069277882576 0.002497732639 0.000000000000
vt 1.004949569702 0.002497732639 0.000000000000
vt 1.004949569702 2.125699281693 0.000000000000
vt 0.069277882576 2.125699281693 0.000000000000
vt 9.359021186829 0.002497732639 0.000000000000
vt 9.359021186829 2.125699281693 0.000000000000
vt 10.294692993164 0.002497732639 0.000000000000
vt 10.294692993164 2.125699281693 0.000000000000
vt 0.303098857403 0.002497732639 0.000000000000
vt 1.444446086884 0.002497732639 0.000000000000
vt 1.444446086884 2.125699281693 0.000000000000
vt 0.303098857403 2.125699281693 0.000000000000
vt 4.929465293884 0.002497732639 0.000000000000
vt 4.929465293884 2.125699281693 0.000000000000
vt -4.425802230835 3.283357620239 0.000000000000
vt -5.294693946838 3.283357620239 0.000000000000
vt 0.070534348488 2.125699281693 0.000000000000
vt 3.555553436279 2.125699281693 0.000000000000
vt 3.555553436279 3.716122150421 0.000000000000
vt 0.335671305656 3.716122150421 0.000000000000
vt -0.073740184307 3.263758420944 0.000000000000
vt -4.359021663666 2.125699281693 0.000000000000
vt 3.995050191879 2.125699281693 0.000000000000
vt 3.995050191879 3.716122150421 0.000000000000
vt 3.928270339966 3.779065132141 0.000000000000
vt -4.292242050171 3.779065132141 0.000000000000
vt -4.359021663666 3.716122150421 0.000000000000
vt 1.444448471069 2.125699281693 0.000000000000
vt 4.929467201233 2.125699281693 0.000000000000
vt 5.073741912842 3.263758420944 0.000000000000
vt 4.664330959320 3.716122150421 0.000000000000
vt 1.444448471069 3.716122150421 0.000000000000
vt 4.930720806122 3.283357620239 0.000000000000
vt 4.061829566956 3.283357620239 0.000000000000
vt 3.555551052094 3.716122150421 0.000000000000
vt 0.335668921471 3.716122150421 0.000000000000
vt -0.073742270470 3.263758420944 0.000000000000
vt 4.696898460388 3.779065132141 0.000000000000
vt 3.623586177826 3.779065132141 0.000000000000
vt 1.004949569702 3.779065132141 0.000000000000
vt 0.069277882576 3.779065132141 0.000000000000
vt 9.359021186829 3.779065132141 0.000000000000
vt 10.294692993164 3.779065132141 0.000000000000
vt 1.444446086884 3.716122150421 0.000000000000
vt 1.376411318779 3.779065132141 0.000000000000
vt 0.303098857403 3.779065132141 0.000000000000
vt 5.073740005493 3.263758420944 0.000000000000
vt 4.664328575134 3.716122150421 0.000000000000
vt -5.294692993164 3.779065132141 0.000000000000
vt -4.425801753998 3.779065132141 0.000000000000
vt -4.359021663666 3.841049194336 0.000000000000
vt -4.359021186829 4.935518264771 0.000000000000
vt -5.015995979309 4.772589206696 0.000000000000
vt 3.995050191879 3.841049194336 0.000000000000
vt 3.995050191879 4.935518264771 0.000000000000
vt 4.061830520630 3.779065132141 0.000000000000
vt 4.930722236633 3.779065132141 0.000000000000
vt 4.652025222778 4.772589206696 0.000000000000
vt 4.929466724396 4.823229789734 0.000000000000
vt 3.856153964996 4.823229789734 0.000000000000
vt 1.004949569702 4.935518264771 0.000000000000
vt 0.347974896431 4.772589206696 0.000000000000
vt 9.359021186829 4.935518264771 0.000000000000
vt 10.015995025635 4.772589206696 0.000000000000
vt 1.143843531609 4.823229789734 0.000000000000
vt 0.070531070232 4.823229789734 0.000000000000
vt 4.061829566956 3.779065132141 0.000000000000
vt 4.930720806122 3.779065132141 0.000000000000
vt -5.294693946838 3.779065132141 0.000000000000
vt -4.425802230835 3.779065132141 0.000000000000
vt -4.359022140503 2.125699281693 0.000000000000
vt 3.995049238205 2.125699281693 0.000000000000
vt 4.997501850128 3.716122150421 0.000000000000
vt 4.997501850128 3.779065132141 0.000000000000
vt -5.361473560333 3.716122150421 0.000000000000
vt -5.361473560333 3.779065132141 0.000000000000
vt -5.361474037170 2.125699281693 0.000000000000
vt -5.361474037170 0.002497732639 0.000000000000
vt 4.997500896454 0.002497732639 0.000000000000
vt 4.997500896454 2.125699281693 0.000000000000
vt 0.002498030663 0.002497732639 0.000000000000
vt 0.002498030663 2.125699281693 0.000000000000
vt 10.361473083496 0.002497732639 0.000000000000
vt 10.361473083496 2.125699281693 0.000000000000
vt 0.303902477026 3.779065132141 0.000000000000
vt 3.555553436279 3.779065132141 0.000000000000
vt 1.444448471069 3.779065132141 0.000000000000
vt 4.696099281311 3.779065132141 0.000000000000
vt 0.303900241852 3.779065132141 0.000000000000
vt 3.555551052094 3.779065132141 0.000000000000
vt 1.444446086884 3.779065132141 0.000000000000
vt 4.696097373962 3.779065132141 0.000000000000
vt -5.361474037170 3.263758420944 0.000000000000
vt -4.359022140503 3.263758420944 0.000000000000
vt 3.995049238205 3.263758420944 0.000000000000
vt 4.997500896454 3.263758420944 0.000000000000
vt 0.002498030663 3.779065132141 0.000000000000
vt 10.361473083496 3.779065132141 0.000000000000
vt -5.015995979309 3.776412248611 0.000000000000
vt -4.359021186829 3.776290416718 0.000000000000
vt 3.995050191879 3.776288270950 0.000000000000
vt 4.652025222778 3.776410102844 0.000000000000
vt 0.293147563934 4.823229789734 0.000000000000
vt 1.004949569702 4.997502326965 0.000000000000
vt 9.359021186829 4.997502326965 0.000000000000
vt 10.070824623108 4.823229789734 0.000000000000
vt -5.070824146271 4.823229789734 0.000000000000
vt 4.706852436066 4.823229789734 0.000000000000
vt 5.144739151001 3.283357620239 0.000000000000
vt -0.144739151001 3.283357620239 0.000000000000
vt 5.144736766815 3.283357620239 0.000000000000
vt -0.144737064838 3.283357620239 0.000000000000
# 164 texture coords

g UDC_RattanSofa
usemtl PROP_Rattan
s 1
f 1/1/1 2/2/1 3/3/1 
f 1/1/1 3/3/1 4/4/1 
f 1/1/1 4/4/1 5/5/1 
f 5/5/1 4/4/1 6/6/1 
f 6/6/1 7/7/1 5/5/1 
f 7/7/1 6/6/1 8/8/1 
f 7/7/1 8/8/1 9/9/1 
f 7/7/1 9/9/1 10/10/1 
f 3/3/1 11/11/1 12/12/1 
f 3/3/1 12/12/1 13/13/1 
f 3/3/1 13/13/1 4/4/1 
f 4/4/1 13/13/1 14/14/1 
f 14/14/1 6/6/1 4/4/1 
f 6/6/1 14/14/1 15/15/1 
f 6/6/1 15/15/1 16/16/1 
f 6/6/1 16/16/1 8/8/1 
s 2
f 17/17/2 18/18/3 19/19/4 
f 19/19/4 20/20/5 17/17/2 
f 21/21/6 22/22/7 23/23/8 
f 23/23/8 24/24/9 21/21/6 
f 25/25/10 26/26/11 27/27/12 
f 27/27/12 28/28/13 25/25/10 
f 29/29/14 30/30/15 31/31/16 
f 31/31/16 32/32/17 29/29/14 
f 30/30/15 33/33/18 34/34/19 
f 34/34/19 31/31/16 30/30/15 
f 33/33/18 35/35/20 36/36/21 
f 36/36/21 34/34/19 33/33/18 
f 1/37/22 5/38/23 37/39/24 
f 1/37/22 37/39/24 38/40/25 
f 1/37/22 38/40/25 39/41/26 
f 5/38/23 7/42/23 40/43/27 
f 40/43/27 37/39/24 5/38/23 
f 7/42/23 10/44/28 41/45/29 
f 7/42/23 41/45/29 42/46/30 
f 7/42/23 42/46/30 40/43/27 
f 9/47/31 8/48/32 43/49/32 
f 43/49/32 44/50/33 9/47/31 
f 8/48/32 16/51/34 45/52/35 
f 45/52/35 43/49/32 8/48/32 
f 15/53/36 14/54/37 46/55/37 
f 46/55/37 47/56/36 15/53/36 
f 14/54/37 13/57/37 48/58/37 
f 48/58/37 46/55/37 14/54/37 
f 13/57/37 12/59/38 49/60/38 
f 49/60/38 48/58/37 13/57/37 
f 11/61/39 3/62/40 50/63/40 
f 50/63/40 51/64/41 11/61/39 
f 3/62/40 2/65/42 52/66/43 
f 52/66/43 50/63/40 3/62/40 
f 39/41/26 38/40/25 53/67/44 
f 53/67/44 54/68/45 39/41/26 
s 1
f 21/69/32 24/70/32 55/71/32 
f 21/69/32 55/71/32 56/72/32 
f 21/69/32 56/72/32 57/73/32 
s 2
f 24/74/9 23/75/8 58/76/46 
f 24/74/9 58/76/46 59/77/47 
f 24/74/9 59/77/47 60/78/48 
f 24/74/9 60/78/48 55/79/49 
f 23/80/8 22/81/7 61/82/50 
f 23/80/8 61/82/50 62/83/51 
f 23/80/8 62/83/51 58/84/46 
f 42/46/30 41/45/29 63/85/52 
f 63/85/52 64/86/53 42/46/30 
f 44/50/33 43/49/32 65/87/54 
f 44/50/33 65/87/54 66/88/55 
f 44/50/33 66/88/55 67/89/56 
f 43/49/32 45/52/35 68/90/57 
f 43/49/32 68/90/57 69/91/58 
f 43/49/32 69/91/58 65/87/54 
f 47/56/36 46/55/37 70/92/59 
f 70/92/59 71/93/60 47/56/36 
f 46/55/37 48/58/37 72/94/61 
f 72/94/61 70/92/59 46/55/37 
f 48/58/37 49/60/38 73/95/62 
f 73/95/62 72/94/61 48/58/37 
f 51/64/41 50/63/40 74/96/63 
f 51/64/41 74/96/63 75/97/64 
f 51/64/41 75/97/64 76/98/65 
f 50/63/40 52/66/43 77/99/66 
f 50/63/40 77/99/66 78/100/67 
f 50/63/40 78/100/67 74/96/63 
f 20/101/5 19/102/4 79/103/68 
f 20/101/5 79/103/68 80/104/69 
f 20/101/5 80/104/69 81/105/70 
f 79/103/68 60/78/48 59/77/47 
f 79/103/68 59/77/47 82/106/71 
f 79/103/68 82/106/71 83/107/72 
f 79/103/68 83/107/72 80/104/69 
f 82/106/71 28/108/13 27/109/12 
f 82/106/71 27/109/12 84/110/73 
f 82/106/71 84/110/73 83/107/72 
f 69/91/58 68/90/57 36/111/21 
f 36/111/21 35/112/20 69/91/58 
f 71/93/60 70/92/59 85/113/74 
f 85/113/74 86/114/75 71/93/60 
f 70/92/59 72/94/61 87/115/76 
f 87/115/76 85/113/74 70/92/59 
f 72/94/61 73/95/62 88/116/77 
f 88/116/77 87/115/76 72/94/61 
f 76/98/65 75/97/64 29/117/14 
f 29/117/14 32/118/17 76/98/65 
f 25/119/10 64/86/53 63/85/52 
f 63/85/52 26/120/11 25/119/10 
f 17/121/2 54/68/45 53/67/44 
f 53/67/44 18/122/3 17/121/2 
f 37/39/24 21/123/6 38/40/25 
f 40/43/27 42/46/30 22/124/7 
f 55/79/49 60/78/48 79/103/68 
f 79/103/68 19/102/4 55/79/49 
f 58/76/46 28/108/13 82/106/71 
f 82/106/71 59/77/47 58/76/46 
f 65/125/54 69/126/58 27/109/12 
f 74/127/63 20/101/5 75/128/64 
f 21/123/6 37/39/24 40/43/27 
f 40/43/27 22/124/7 21/123/6 
f 39/41/26 52/129/43 2/130/42 
f 2/130/42 1/37/22 39/41/26 
f 10/44/28 9/131/31 44/132/33 
f 44/132/33 41/45/29 10/44/28 
f 16/133/34 15/53/36 47/56/36 
f 47/56/36 45/134/35 16/133/34 
f 12/59/38 11/135/39 51/136/41 
f 51/136/41 49/60/38 12/59/38 
f 18/137/3 56/72/78 55/71/49 
f 55/71/49 19/138/4 18/137/3 
f 28/139/13 58/84/46 62/83/51 
f 62/83/51 25/140/10 28/139/13 
f 26/141/11 66/88/55 65/87/54 
f 65/87/54 27/142/12 26/141/11 
f 20/143/5 74/96/63 78/100/67 
f 78/100/67 17/144/2 20/143/5 
f 52/129/43 39/41/26 54/68/45 
f 54/68/45 77/145/66 52/129/43 
f 38/40/25 21/123/6 57/146/79 
f 57/146/79 53/67/44 38/40/25 
f 22/124/7 42/46/30 64/86/53 
f 64/86/53 61/147/50 22/124/7 
f 41/45/29 44/132/33 67/148/56 
f 67/148/56 63/85/52 41/45/29 
f 45/134/35 47/56/36 71/93/60 
f 71/93/60 68/149/57 45/134/35 
f 49/60/38 51/136/41 76/150/65 
f 76/150/65 73/95/62 49/60/38 
f 29/29/14 81/151/70 80/152/69 
f 80/152/69 30/30/15 29/29/14 
f 30/30/15 80/152/69 83/153/72 
f 83/153/72 33/33/18 30/30/15 
f 33/33/18 83/153/72 84/154/73 
f 84/154/73 35/35/20 33/33/18 
s 1
f 36/155/80 86/114/81 85/113/82 
f 85/113/82 34/156/83 36/155/80 
f 34/156/83 85/113/82 87/115/84 
f 87/115/84 31/157/85 34/156/83 
f 31/157/85 87/115/84 88/116/86 
f 88/116/86 32/158/87 31/157/85 
s 2
f 75/128/64 20/101/5 81/105/70 
f 81/105/70 29/159/14 75/128/64 
f 27/109/12 69/126/58 35/160/20 
f 35/160/20 84/110/73 27/109/12 
f 68/149/57 71/93/60 86/114/75 
f 86/114/75 36/155/21 68/149/57 
f 73/95/62 76/150/65 32/158/17 
f 32/158/17 88/116/77 73/95/62 
f 25/140/10 62/83/51 61/82/50 
f 61/82/50 64/161/53 25/140/10 
f 63/162/52 67/89/56 66/88/55 
f 66/88/55 26/141/11 63/162/52 
f 17/144/2 78/100/67 77/99/66 
f 77/99/66 54/163/45 17/144/2 
f 53/164/44 57/73/79 56/72/78 
f 56/72/78 18/137/3 53/164/44 
# 172 faces

