# 3ds Max Wavefront OBJ Exporter v0.97b - (c)2007 guruware
# File Created: 23.03.2018 17:07:10

mtllib UDC_RattanChair.mtl

#
# object UDC_RattanChair
#

v  -0.115796938539 -0.000300092681 0.133858263493
v  -0.115796938539 -0.000300092681 -0.067811280489
v  -0.056697562337 -0.000300092681 -0.067811280489
v  -0.056697562337 -0.000300092681 0.137795269489
v  -0.111859932542 -0.000300092681 0.137795269489
v  0.119583308697 -0.000300092681 -0.067811280489
v  0.119583308697 -0.000300092681 0.137795269489
v  0.178682684898 -0.000300092681 -0.067811280489
v  0.178682684898 -0.000300092681 0.133858263493
v  0.174745678902 -0.000300092681 0.137795269489
v  -0.115796938539 -0.000300092681 -0.133858263493
v  -0.111859932542 -0.000300092681 -0.137795269489
v  -0.056697562337 -0.000300092681 -0.137795269489
v  0.119583308697 -0.000300092681 -0.137795269489
v  0.174745678902 -0.000300092681 -0.137795269489
v  0.178682684898 -0.000300092681 -0.133858263493
v  -0.111859932542 0.235920369625 0.120353825390
v  -0.060634575784 0.235920369625 0.120353825390
v  -0.060634575784 0.235920369625 -0.067811280489
v  -0.111859932542 0.235920369625 -0.067811280489
v  -0.056697562337 0.132504016161 0.133858263493
v  0.119583308697 0.132504016161 0.133858263493
v  0.119583308697 0.132504016161 -0.067811280489
v  -0.056697562337 0.132504016161 -0.067811280489
v  0.123520314693 0.235920369625 0.120353825390
v  0.174745678902 0.235920369625 0.120353825390
v  0.174745678902 0.235920369625 -0.067811280489
v  0.123520314693 0.235920369625 -0.067811280489
v  -0.098661765456 0.301231801510 -0.085206426680
v  -0.056697562337 0.312132388353 -0.085206426680
v  -0.056697562337 0.312132388353 -0.147316396236
v  -0.098661765456 0.301231801510 -0.147316396236
v  0.119583308697 0.312132388353 -0.085206426680
v  0.119583308697 0.312132388353 -0.147316396236
v  0.161547482014 0.301231801510 -0.085206426680
v  0.161547482014 0.301231801510 -0.147316396236
v  -0.056697562337 0.128566995263 0.137795269489
v  -0.060634575784 0.132504016161 0.137795269489
v  -0.111859932542 0.132504016161 0.137795269489
v  0.119583308697 0.128566995263 0.137795269489
v  0.174745678902 0.132504016161 0.137795269489
v  0.123520314693 0.132504016161 0.137795269489
v  0.178682684898 0.132504016161 -0.067811280489
v  0.178682684898 0.132504016161 0.133858263493
v  0.178682684898 0.132504016161 -0.133858263493
v  0.119583308697 0.132504016161 -0.137795269489
v  0.174745678902 0.132504016161 -0.137795269489
v  -0.056697562337 0.132504016161 -0.137795269489
v  -0.111859932542 0.132504016161 -0.137795269489
v  -0.115796938539 0.132504016161 -0.067811280489
v  -0.115796938539 0.132504016161 -0.133858263493
v  -0.115796938539 0.132504016161 0.133858263493
v  -0.060634575784 0.204914376140 0.146315500140
v  -0.111859932542 0.204914376140 0.146315500140
v  -0.056697562337 0.231983363628 -0.067811280489
v  -0.056697562337 0.231983363628 0.118515446782
v  -0.056697562337 0.203688472509 0.142207086086
v  0.119583308697 0.231983363628 -0.067811280489
v  0.115646287799 0.235920369625 -0.067811280489
v  -0.052760556340 0.235920369625 -0.067811280489
v  0.119583308697 0.203688472509 0.142207086086
v  0.119583308697 0.231983363628 0.118515446782
v  0.174745678902 0.204914376140 0.146315500140
v  0.123520314693 0.204914376140 0.146315500140
v  0.178682684898 0.231983363628 -0.067811280489
v  0.178682684898 0.231983363628 0.118515446782
v  0.178682684898 0.203688472509 0.142207086086
v  0.178682684898 0.235920369625 -0.133858263493
v  0.178682684898 0.235920369625 -0.071748286486
v  0.119583308697 0.235920369625 -0.137795269489
v  0.174745678902 0.235920369625 -0.137795269489
v  -0.056697562337 0.235920369625 -0.137795269489
v  -0.111859932542 0.235920369625 -0.137795269489
v  -0.115796938539 0.231983363628 -0.067811280489
v  -0.115796938539 0.235920369625 -0.071748286486
v  -0.115796938539 0.235920369625 -0.133858263493
v  -0.115796938539 0.203688472509 0.142207086086
v  -0.115796938539 0.231983363628 0.118515446782
v  -0.056697562337 0.239797398448 -0.068495914340
v  -0.056697562337 0.308255344629 -0.080584779382
v  -0.095429420471 0.298064291477 -0.080591827631
v  0.119583308697 0.239797398448 -0.068495914340
v  0.119583308697 0.308255344629 -0.080584779382
v  0.158315137029 0.298064291477 -0.080591827631
v  0.119583308697 0.308255344629 -0.150568768382
v  0.158315137029 0.298064291477 -0.150575846434
v  -0.056697562337 0.308255344629 -0.150568768382
v  -0.095429405570 0.298064291477 -0.150575846434
# 88 vertices

vn 0.000000000000 -1.000000000000 -0.000000000000
vn -0.369616746902 0.841920614243 0.393132537603
vn 0.369616329670 0.841920793056 0.393132537603
vn 0.240102171898 0.621552050114 0.745670199394
vn -0.489557564259 0.701754093170 0.517565965652
vn 0.366255789995 0.700676202774 0.612298548222
vn -0.622523605824 0.589288353920 0.514979243279
vn -0.577350378036 0.577350378036 0.577350020409
vn 0.000000000000 0.707106828690 0.707106769085
vn -0.369616687298 0.841920614243 0.393132537603
vn 0.369616657495 0.841920614243 0.393132477999
vn 0.485588520765 0.704883098602 0.517052829266
vn -0.234724864364 0.626432001591 0.743294835091
vn -0.653563439846 0.685170829296 0.321552067995
vn -0.117133006454 0.936053335667 0.331789016724
vn -0.126729533076 0.991937279701 -0.000000000000
vn -0.775973856449 0.567806601524 -0.274700224400
vn 0.117645934224 0.935874044895 0.332113236189
vn 0.126729622483 0.991937279701 -0.000000000000
vn 0.653122186661 0.685503840446 0.321738958359
vn 0.776215195656 0.567384541035 -0.274890482426
vn 0.000000000000 0.000000000000 1.000000000000
vn 0.101986892521 0.289348542690 0.951775252819
vn 0.296892315149 0.047699756920 0.953718900681
vn -0.382683426142 0.000000000000 0.923879504204
vn -0.387390166521 -0.054581589997 0.920298695564
vn -0.101987011731 0.289348542690 0.951775252819
vn 0.382683426142 0.000000000000 0.923879504204
vn 0.387432724237 -0.054507058114 0.920285224915
vn -0.296853125095 0.047625001520 0.953734815121
vn 0.923879504204 0.000000000000 0.382683426142
vn 1.000000000000 0.000000000000 -0.000000000000
vn 0.928719878197 -0.021085947752 0.370182096958
vn 0.923879504204 0.000000000000 -0.382683426142
vn 0.923879563808 0.000000000000 -0.382683396339
vn 0.382683426142 0.000000000000 -0.923879504204
vn 0.000000000000 0.000000000000 -1.000000000000
vn 0.382683396339 0.000000000000 -0.923879563808
vn -0.382683426142 0.000000000000 -0.923879504204
vn -0.382683396339 0.000000000000 -0.923879563808
vn -0.923879504204 0.000000000000 -0.382683426142
vn -1.000000000000 0.000000000000 -0.000000000000
vn -0.923879563808 0.000000000000 -0.382683396339
vn -0.923879504204 0.000000000000 0.382683426142
vn -0.928734838963 -0.021146569401 0.370141059160
vn 0.369051575661 0.265746116638 0.890606522560
vn -0.369015425444 0.265798807144 0.890605747700
vn -0.545829653740 0.254026591778 0.798461318016
vn 0.021736133844 0.087260842323 0.995948314667
vn -0.021736154333 0.087261237204 0.995948314667
vn 0.260513126850 0.292703658342 0.920031249523
vn -0.898704946041 0.125495061278 0.420214682817
vn -0.897939503193 0.398785471916 0.186211615801
vn 0.369051933289 0.265746116638 0.890606343746
vn -0.369015425444 0.265798866749 0.890605747700
vn 0.951774954796 0.289349317551 0.101987078786
vn 0.897939503193 0.398785531521 0.186211585999
vn 0.898688793182 0.125408485532 0.420275062323
vn 0.931624591351 0.088291846216 -0.352533847094
vn 0.925626993179 0.249782875180 0.284294217825
vn 0.000000000000 -0.087281890213 -0.996183633804
vn 0.415077805519 -0.028595086187 -0.909336447716
vn 0.004024620634 -0.091824680567 -0.995767056942
vn -0.418200850487 -0.032575931400 -0.907770276070
vn -0.951774954796 0.289349377155 0.101987093687
vn -0.925526142120 0.250047266483 0.284390032291
vn -0.931731581688 0.088015854359 -0.352320134640
vn 0.000000315566 0.152335703373 0.988328814507
vn -0.064835235476 0.522201597691 0.850353956223
vn -0.331373125315 0.448952913284 0.829839229584
vn 0.000000320311 0.152335658669 0.988328814507
vn 0.069237880409 0.518885731697 0.852035045624
vn 0.322292387486 0.441584229469 0.837335646152
vn -0.013284195215 -0.183697730303 -0.982892990112
vn 0.326694756746 -0.107579566538 -0.938987314701
vn 0.020937392488 -0.173859477043 -0.984547853470
vn -0.339851796627 -0.088301166892 -0.936324536800
vn 0.741047024727 0.608394145966 0.284087687731
vn 0.736515581608 0.193414136767 0.648178815842
vn 0.163541942835 0.622858941555 -0.765049517155
vn 0.163411617279 0.621589660645 -0.766108989716
vn 0.087428689003 0.639784216881 -0.763565540314
vn 0.077181726694 0.640771448612 -0.763842225075
vn -0.088508889079 0.640166282654 -0.763120770454
vn -0.077892273664 0.640257179737 -0.764201223850
vn -0.162046968937 0.623374164104 -0.764948010445
vn -0.161754056811 0.622707724571 -0.765552520752
# 87 vertex normals

vt 4.997502326965 0.070533305407 0.000000000000
vt 4.997501373291 3.555552482605 0.000000000000
vt 3.995049953461 3.555552482605 0.000000000000
vt 3.995050907135 0.002498328686 0.000000000000
vt 4.930722236633 0.002498477697 0.000000000000
vt 1.004949808121 3.555551528931 0.000000000000
vt 1.004950761795 0.002497583628 0.000000000000
vt 0.002498030663 3.555551052094 0.000000000000
vt 0.002499222755 0.070532113314 0.000000000000
vt 0.069279074669 0.002497285604 0.000000000000
vt 4.997501373291 4.696899414063 0.000000000000
vt 4.930720806122 4.764934539795 0.000000000000
vt 3.995049476624 4.764934539795 0.000000000000
vt 1.004949569702 4.764933586121 0.000000000000
vt 0.069277882576 4.764933586121 0.000000000000
vt 0.002498030663 4.696898460388 0.000000000000
vt 0.069277882576 0.303901433945 0.000000000000
vt 0.938169240952 0.303901284933 0.000000000000
vt 0.938169956207 3.555552482605 0.000000000000
vt 0.069278627634 3.555552482605 0.000000000000
vt 1.004949331284 0.070533156395 0.000000000000
vt 3.995049238205 0.070532411337 0.000000000000
vt 3.995050191879 3.555551528931 0.000000000000
vt 1.004950046539 3.555552482605 0.000000000000
vt 4.061829566956 0.303900539875 0.000000000000
vt 4.930720806122 0.303900241852 0.000000000000
vt 4.930722236633 3.555551052094 0.000000000000
vt 4.061830520630 3.555551528931 0.000000000000
vt 0.293147712946 3.856155395508 0.000000000000
vt 1.004950284958 3.856154918671 0.000000000000
vt 1.004950404167 4.929467201233 0.000000000000
vt 0.293148010969 4.929467201233 0.000000000000
vt 3.995050191879 3.856153964996 0.000000000000
vt 3.995050430298 4.929466724396 0.000000000000
vt 4.706852436066 3.856153964996 0.000000000000
vt 4.706852436066 4.929466724396 0.000000000000
vt 1.004949331284 0.002497732639 0.000000000000
vt 1.004949331284 2.062756538391 0.000000000000
vt 0.938169240952 2.125699281693 0.000000000000
vt 0.069277733564 0.002497732639 0.000000000000
vt 0.069277733564 2.125699281693 0.000000000000
vt 3.995049238205 0.002497732639 0.000000000000
vt 3.995049238205 2.062756538391 0.000000000000
vt 4.930720806122 0.002497732639 0.000000000000
vt 4.930720806122 2.125699281693 0.000000000000
vt 4.061829566956 2.125699281693 0.000000000000
vt 0.070532113314 0.002497732639 0.000000000000
vt 3.555551052094 0.002497732639 0.000000000000
vt 3.555551052094 2.125699281693 0.000000000000
vt 0.070532113314 2.125699281693 0.000000000000
vt 4.696898460388 0.002497732639 0.000000000000
vt 4.696898460388 2.125699281693 0.000000000000
vt 0.069277882576 0.002497732639 0.000000000000
vt 1.004949569702 0.002497732639 0.000000000000
vt 1.004949569702 2.125699281693 0.000000000000
vt 0.069277882576 2.125699281693 0.000000000000
vt 3.995049476624 0.002497732639 0.000000000000
vt 3.995049476624 2.125699281693 0.000000000000
vt 0.303100347519 0.002497732639 0.000000000000
vt 1.444447636604 0.002497732639 0.000000000000
vt 1.444447636604 2.125699281693 0.000000000000
vt 0.303100347519 2.125699281693 0.000000000000
vt 4.929466724396 0.002497732639 0.000000000000
vt 4.929466724396 2.125699281693 0.000000000000
vt 0.938169062138 3.283357620239 0.000000000000
vt 0.069277733564 3.283357620239 0.000000000000
vt 0.070533156395 2.125699281693 0.000000000000
vt 3.555552482605 2.125699281693 0.000000000000
vt 3.555552482605 3.716122150421 0.000000000000
vt 0.335669964552 3.716122150421 0.000000000000
vt -0.073741376400 3.263758420944 0.000000000000
vt 3.995050191879 2.125699281693 0.000000000000
vt 3.995050191879 3.716122150421 0.000000000000
vt 3.928270339966 3.779065132141 0.000000000000
vt 1.004950046539 2.125699281693 0.000000000000
vt 1.071730256081 3.779065132141 0.000000000000
vt 1.004950046539 3.716122150421 0.000000000000
vt 4.929467201233 2.125699281693 0.000000000000
vt 5.073741912842 3.263758420944 0.000000000000
vt 4.664330959320 3.716122150421 0.000000000000
vt 1.444448471069 2.125699281693 0.000000000000
vt 1.444448471069 3.716122150421 0.000000000000
vt 4.930720806122 3.283357620239 0.000000000000
vt 4.061829566956 3.283357620239 0.000000000000
vt 3.555551052094 3.716122150421 0.000000000000
vt 0.335668921471 3.716122150421 0.000000000000
vt -0.073742270470 3.263758420944 0.000000000000
vt 4.696898460388 3.779065132141 0.000000000000
vt 3.623586177826 3.779065132141 0.000000000000
vt 1.004949569702 3.779065132141 0.000000000000
vt 0.069277882576 3.779065132141 0.000000000000
vt 3.995049476624 3.779065132141 0.000000000000
vt 4.930720806122 3.779065132141 0.000000000000
vt 1.444447636604 3.716122150421 0.000000000000
vt 1.376412510872 3.779065132141 0.000000000000
vt 0.303100347519 3.779065132141 0.000000000000
vt 5.073740959167 3.263758420944 0.000000000000
vt 4.664330005646 3.716122150421 0.000000000000
vt 0.069278627634 3.779065132141 0.000000000000
vt 0.938169956207 3.779065132141 0.000000000000
vt 1.004950046539 3.841049194336 0.000000000000
vt 1.004950046539 4.935518264771 0.000000000000
vt 0.347975194454 4.772589206696 0.000000000000
vt 3.995050191879 3.841049194336 0.000000000000
vt 3.995050191879 4.935518264771 0.000000000000
vt 4.061830520630 3.779065132141 0.000000000000
vt 4.930722236633 3.779065132141 0.000000000000
vt 4.652025222778 4.772589206696 0.000000000000
vt 4.929466724396 4.823229789734 0.000000000000
vt 3.856153964996 4.823229789734 0.000000000000
vt 1.004949569702 4.935518264771 0.000000000000
vt 0.347974896431 4.772589206696 0.000000000000
vt 3.995049476624 4.935518264771 0.000000000000
vt 4.652024269104 4.772589206696 0.000000000000
vt 1.143844723701 4.823229789734 0.000000000000
vt 0.070532560349 4.823229789734 0.000000000000
vt 4.061829566956 3.779065132141 0.000000000000
vt 0.938169240952 3.779065132141 0.000000000000
vt 1.004949331284 2.125699281693 0.000000000000
vt 3.995049238205 2.125699281693 0.000000000000
vt 4.997501850128 3.716122150421 0.000000000000
vt 4.997501850128 3.779065132141 0.000000000000
vt 0.002498477697 3.716122150421 0.000000000000
vt 0.002498477697 3.779065132141 0.000000000000
vt 0.002497583628 2.125699281693 0.000000000000
vt 0.002497583628 0.002497732639 0.000000000000
vt 4.997500896454 0.002497732639 0.000000000000
vt 4.997500896454 2.125699281693 0.000000000000
vt 0.002498030663 0.002497732639 0.000000000000
vt 0.002498030663 2.125699281693 0.000000000000
vt 4.997501373291 0.002497732639 0.000000000000
vt 4.997501373291 2.125699281693 0.000000000000
vt 0.303901284933 3.779065132141 0.000000000000
vt 3.555552482605 3.779065132141 0.000000000000
vt 1.444448471069 3.779065132141 0.000000000000
vt 4.696099281311 3.779065132141 0.000000000000
vt 0.303900241852 3.779065132141 0.000000000000
vt 3.555551052094 3.779065132141 0.000000000000
vt 1.444447636604 3.779065132141 0.000000000000
vt 4.696098327637 3.779065132141 0.000000000000
vt 0.002497583628 3.263758420944 0.000000000000
vt 1.004949212074 3.263758420944 0.000000000000
vt 3.995049238205 3.263758420944 0.000000000000
vt 4.997500896454 3.263758420944 0.000000000000
vt 0.002498030663 3.779065132141 0.000000000000
vt 4.997501373291 3.779065132141 0.000000000000
vt 0.347975194454 3.776411056519 0.000000000000
vt 1.004950046539 3.776289224625 0.000000000000
vt 3.995050191879 3.776288270950 0.000000000000
vt 4.652025222778 3.776410102844 0.000000000000
vt 0.293147563934 4.823229789734 0.000000000000
vt 1.004949569702 4.997502326965 0.000000000000
vt 3.995049476624 4.997502326965 0.000000000000
vt 4.706851959229 4.823229789734 0.000000000000
vt 0.293147712946 4.823229789734 0.000000000000
vt 4.706852436066 4.823229789734 0.000000000000
vt 5.144739151001 3.283357620239 0.000000000000
vt -0.144739151001 3.283357620239 0.000000000000
vt 5.144738197327 3.283357620239 0.000000000000
vt -0.144738256931 3.283357620239 0.000000000000
# 160 texture coords

g UDC_RattanChair
usemtl PROP_Rattan
s 1
f 1/1/1 2/2/1 3/3/1 
f 1/1/1 3/3/1 4/4/1 
f 5/5/1 1/1/1 4/4/1 
f 4/4/1 3/3/1 6/6/1 
f 6/6/1 7/7/1 4/4/1 
f 7/7/1 6/6/1 8/8/1 
f 8/8/1 9/9/1 10/10/1 
f 7/7/1 8/8/1 10/10/1 
f 2/2/1 11/11/1 12/12/1 
f 2/2/1 12/12/1 13/13/1 
f 2/2/1 13/13/1 3/3/1 
f 3/3/1 13/13/1 14/14/1 
f 14/14/1 6/6/1 3/3/1 
f 14/14/1 15/15/1 16/16/1 
f 6/6/1 14/14/1 16/16/1 
f 6/6/1 16/16/1 8/8/1 
s 2
f 17/17/2 18/18/3 19/19/4 
f 19/19/4 20/20/5 17/17/2 
f 21/21/6 22/22/7 23/23/8 
f 23/23/8 24/24/9 21/21/6 
f 25/25/10 26/26/11 27/27/12 
f 27/27/12 28/28/13 25/25/10 
f 29/29/14 30/30/15 31/31/16 
f 31/31/16 32/32/17 29/29/14 
f 30/30/15 33/33/18 34/34/19 
f 34/34/19 31/31/16 30/30/15 
f 33/33/18 35/35/20 36/36/21 
f 36/36/21 34/34/19 33/33/18 
f 4/37/22 37/38/23 38/39/24 
f 5/40/25 4/37/22 38/39/24 
f 5/40/25 38/39/24 39/41/26 
f 4/37/22 7/42/22 40/43/27 
f 40/43/27 37/38/23 4/37/22 
f 7/42/22 10/44/28 41/45/29 
f 41/45/29 42/46/30 40/43/27 
f 7/42/22 41/45/29 40/43/27 
f 9/47/31 8/48/32 43/49/32 
f 43/49/32 44/50/33 9/47/31 
f 8/48/32 16/51/34 45/52/35 
f 45/52/35 43/49/32 8/48/32 
f 15/53/36 14/54/37 46/55/37 
f 46/55/37 47/56/38 15/53/36 
f 14/54/37 13/57/37 48/58/37 
f 48/58/37 46/55/37 14/54/37 
f 13/57/37 12/44/39 49/45/40 
f 49/45/40 48/58/37 13/57/37 
f 11/59/41 2/60/42 50/61/42 
f 50/61/42 51/62/43 11/59/41 
f 2/60/42 1/63/44 52/64/45 
f 52/64/45 50/61/42 2/60/42 
f 39/41/26 38/39/24 53/65/46 
f 53/65/46 54/66/47 39/41/26 
s 1
f 21/67/32 24/68/32 55/69/32 
f 55/69/32 56/70/32 57/71/32 
f 21/67/32 55/69/32 57/71/32 
s 2
f 23/72/8 58/73/48 59/74/49 
f 24/75/9 23/72/8 59/74/49 
f 59/74/49 60/76/50 55/77/51 
f 24/75/9 59/74/49 55/77/51 
f 22/78/7 61/79/52 62/80/53 
f 23/81/8 22/78/7 62/80/53 
f 23/81/8 62/80/53 58/82/48 
f 42/46/30 41/45/29 63/83/54 
f 63/83/54 64/84/55 42/46/30 
f 44/50/33 43/49/32 65/85/56 
f 65/85/56 66/86/57 67/87/58 
f 44/50/33 65/85/56 67/87/58 
f 43/49/32 45/52/35 68/88/59 
f 68/88/59 69/89/60 65/85/56 
f 43/49/32 68/88/59 65/85/56 
f 47/56/38 46/55/37 70/90/61 
f 70/90/61 71/91/62 47/56/38 
f 46/55/37 48/58/37 72/92/63 
f 72/92/63 70/90/61 46/55/37 
f 48/58/37 49/45/40 73/93/64 
f 73/93/64 72/92/63 48/58/37 
f 50/61/42 74/94/65 75/95/66 
f 51/62/43 50/61/42 75/95/66 
f 51/62/43 75/95/66 76/96/67 
f 52/64/45 77/97/52 78/98/53 
f 50/61/42 52/64/45 78/98/53 
f 50/61/42 78/98/53 74/94/65 
f 20/99/5 19/100/4 79/101/68 
f 20/99/5 79/101/68 80/102/69 
f 20/99/5 80/102/69 81/103/70 
f 60/76/50 59/74/49 82/104/71 
f 60/76/50 82/104/71 83/105/72 
f 60/76/50 83/105/72 80/102/69 
f 79/101/68 60/76/50 80/102/69 
f 28/106/13 27/107/12 84/108/73 
f 28/106/13 84/108/73 83/105/72 
f 82/104/71 28/106/13 83/105/72 
f 69/89/60 68/88/59 36/109/21 
f 36/109/21 35/110/20 69/89/60 
f 71/91/62 70/90/61 85/111/74 
f 85/111/74 86/112/75 71/91/62 
f 70/90/61 72/92/63 87/113/76 
f 87/113/76 85/111/74 70/90/61 
f 72/92/63 73/93/64 88/114/77 
f 88/114/77 87/113/76 72/92/63 
f 76/96/67 75/95/66 29/115/14 
f 29/115/14 32/116/17 76/96/67 
f 25/117/10 64/84/55 63/83/54 
f 63/83/54 26/93/11 25/117/10 
f 17/91/2 54/66/47 53/65/46 
f 53/65/46 18/118/3 17/91/2 
f 37/38/23 21/119/6 38/39/24 
f 40/43/27 42/46/30 22/120/7 
f 55/77/51 60/76/50 79/101/68 
f 79/101/68 19/100/4 55/77/51 
f 58/73/48 28/106/13 82/104/71 
f 82/104/71 59/74/49 58/73/48 
f 65/121/56 69/122/60 27/107/12 
f 74/123/65 20/99/5 75/124/66 
f 21/119/6 37/38/23 40/43/27 
f 40/43/27 22/120/7 21/119/6 
f 39/41/26 52/125/45 1/126/44 
f 1/126/44 5/40/25 39/41/26 
f 10/44/28 9/127/31 44/128/33 
f 44/128/33 41/45/29 10/44/28 
f 16/129/34 15/53/36 47/56/38 
f 47/56/38 45/130/35 16/129/34 
f 12/44/39 11/131/41 51/132/43 
f 51/132/43 49/45/40 12/44/39 
f 18/133/3 56/70/78 55/69/51 
f 55/69/51 19/134/4 18/133/3 
f 28/135/13 58/82/48 62/80/53 
f 62/80/53 25/136/10 28/135/13 
f 26/137/11 66/86/57 65/85/56 
f 65/85/56 27/138/12 26/137/11 
f 20/139/5 74/94/65 78/98/53 
f 78/98/53 17/140/2 20/139/5 
f 52/125/45 39/41/26 54/66/47 
f 54/66/47 77/141/52 52/125/45 
f 38/39/24 21/119/6 57/142/79 
f 57/142/79 53/65/46 38/39/24 
f 22/120/7 42/46/30 64/84/55 
f 64/84/55 61/143/52 22/120/7 
f 41/45/29 44/128/33 67/144/58 
f 67/144/58 63/83/54 41/45/29 
f 45/130/35 47/56/38 71/91/62 
f 71/91/62 68/145/59 45/130/35 
f 49/45/40 51/132/43 76/146/67 
f 76/146/67 73/93/64 49/45/40 
f 29/29/14 81/147/70 80/148/69 
f 80/148/69 30/30/15 29/29/14 
f 30/30/15 80/148/69 83/149/72 
f 83/149/72 33/33/18 30/30/15 
f 33/33/18 83/149/72 84/150/73 
f 84/150/73 35/35/20 33/33/18 
s 1
f 36/151/80 86/112/81 85/111/82 
f 85/111/82 34/152/83 36/151/80 
f 34/152/83 85/111/82 87/113/84 
f 87/113/84 31/153/85 34/152/83 
f 31/153/85 87/113/84 88/114/86 
f 88/114/86 32/154/87 31/153/85 
s 2
f 75/124/66 20/99/5 81/103/70 
f 81/103/70 29/155/14 75/124/66 
f 27/107/12 69/122/60 35/156/20 
f 35/156/20 84/108/73 27/107/12 
f 68/145/59 71/91/62 86/112/75 
f 86/112/75 36/151/21 68/145/59 
f 73/93/64 76/146/67 32/154/17 
f 32/154/17 88/114/77 73/93/64 
f 25/136/10 62/80/53 61/79/52 
f 61/79/52 64/157/55 25/136/10 
f 63/158/54 67/87/58 66/86/57 
f 66/86/57 26/137/11 63/158/54 
f 17/140/2 78/98/53 77/97/52 
f 77/97/52 54/159/47 17/140/2 
f 53/160/46 57/71/79 56/70/78 
f 56/70/78 18/133/3 53/160/46 
# 172 faces

