# Created with Anim8or 0.98
# Object "UDC_TableGlass":

mtllib UDC_TableGlass.mtl

# Shape "mesh01":
g mesh01
# No. points 76:
v -0.00656 0 0.24890
v -0.00656 0 0.23577
v 0.00656 0 0.23577
v 0.00656 0 0.24890
v 0.00656 0.24758 0.24933
v -0.00656 0.24758 0.24933
v 0.00656 0.24758 0.02805
v -0.00656 0.24758 0.02805
v 0.00656 0.22912 -0.00011
v -0.00656 0.22912 -0.00011
v 0.00656 0.23446 0.23604
v 0.00656 0.23446 0.03383
v 0.00656 0.21599 -0.00011
v -0.00656 0.23446 0.23604
v -0.00656 0.23446 0.03383
v -0.00656 0.21599 -0.00011
v -0.00656 0 -0.24912
v 0.00656 0 -0.24912
v 0.00656 0 -0.23600
v -0.00656 0 -0.23600
v -0.00656 0.24758 -0.24956
v 0.00656 0.24758 -0.24956
v -0.00656 0.24758 -0.02828
v 0.00656 0.24758 -0.02828
v 0.00656 0.23446 -0.23627
v 0.00656 0.23446 -0.03406
v -0.00656 0.23446 -0.23627
v -0.00656 0.23446 -0.03406
v 0.24901 0 0.00645
v 0.23589 0 0.00645
v 0.23589 0 -0.00667
v 0.24901 0 -0.00667
v 0.24944 0.24758 -0.00667
v 0.24944 0.24758 0.00645
v 0.23616 0.23446 -0.00667
v 0.23616 0.23446 0.00645
v -0.24901 0 0.00645
v -0.24901 0 -0.00667
v -0.23589 0 -0.00667
v -0.23589 0 0.00645
v -0.24944 0.24758 0.00645
v -0.24944 0.24758 -0.00667
v -0.23616 0.23446 -0.00667
v -0.23616 0.23446 0.00645
v 0.16404 0.24803 0.26235
v -0.16405 0.24803 0.26235
v -0.16812 0.24803 0.27220
v 0.16812 0.24803 0.27220
v 0.16404 0.23819 0.26235
v -0.16405 0.23819 0.26235
v 0.16812 0.23819 0.27220
v -0.16812 0.23819 0.27220
v 0.26246 0.24803 0.16393
v 0.27231 0.24803 0.16801
v 0.26246 0.23819 0.16393
v 0.27231 0.23819 0.16801
v 0.26246 0.24803 -0.16415
v 0.27231 0.24803 -0.16823
v 0.26246 0.23819 -0.16415
v 0.27231 0.23819 -0.16823
v 0.16404 0.24803 -0.26258
v 0.16812 0.24803 -0.27242
v 0.16404 0.23819 -0.26258
v 0.16812 0.23819 -0.27242
v -0.16405 0.24803 -0.26258
v -0.16812 0.24803 -0.27242
v -0.16405 0.23819 -0.26258
v -0.16812 0.23819 -0.27242
v -0.26247 0.24803 -0.16415
v -0.27231 0.24803 -0.16823
v -0.26247 0.23819 -0.16415
v -0.27231 0.23819 -0.16823
v -0.26247 0.24803 0.16393
v -0.27231 0.24803 0.16801
v -0.26247 0.23819 0.16393
v -0.27231 0.23819 0.16801

# No. normals 366:
vn 0 -1 0
vn 0 -1 0
vn 0 -0.00175 0.999998
vn 0 -0.00175 0.999998
vn 0 1 0
vn 0 1 0
vn 0 0.83634 -0.54822
vn 0 0.83634 -0.54822
vn 1 0 0
vn 1 0 0
vn 1 0 0
vn 1 0 0
vn 1 0 0
vn 1 0 0
vn 0 0.00116 -0.999999
vn 0 0.00116 -0.999999
vn 0 -1 0
vn 0 -1 0
vn 0 -0.87845 0.47783
vn 0 -0.87845 0.47783
vn -1 0 0
vn -1 0 0
vn -1 0 0
vn -1 0 0
vn -1 0 0
vn -1 0 0
vn 0 -1 0
vn 0 -1 0
vn 0 -0.00175 -0.999998
vn 0 -0.00175 -0.999998
vn 0 1 0
vn 0 1 0
vn 0 0.83636 0.54819
vn 0 0.83636 0.54819
vn 1 0 0
vn 1 0 0
vn 1 0 0
vn 1 0 0
vn 1 0 0
vn 1 0 0
vn 0 0.00116 0.999999
vn 0 0.00116 0.999999
vn 0 -1 0
vn 0 -1 0
vn 0 -0.87847 -0.47780
vn 0 -0.87847 -0.47780
vn -1 0 0
vn -1 0 0
vn -1 0 0
vn -1 0 0
vn -1 0 0
vn -1 0 0
vn 0 -1 0
vn 0 -1 0
vn 0.999998 -0.00175 0
vn 0.999998 -0.00175 0
vn 0 0 -1
vn 0 0 -1
vn -0.999999 0.00116 0
vn -0.999999 0.00116 0
vn 0 0 1
vn 0 0 1
vn 0 -1 0
vn 0 -1 0
vn -0.999998 -0.00175 0
vn -0.999998 -0.00175 0
vn 0 1 0
vn 0 1 0
vn 0 0 -1
vn 0 0 -1
vn 0 0 -1
vn 0 0 -1
vn 0.999999 0.00116 0
vn 0.999999 0.00116 0
vn 0 -1 0
vn 0 -1 0
vn 0 0 1
vn 0 0 1
vn 0 0 1
vn 0 0 1
vn 0 1 0
vn 0 1 0
vn 0 0 -1
vn 0 0 -1
vn 0 -1 0
vn 0 -1 0
vn 0 0 1
vn 0 0 1
vn 0 1 0
vn 0 1 0
vn -0.70711 0 -0.70711
vn -0.70711 0 -0.70711
vn 0 -1 0
vn 0 -1 0
vn 0.70711 0 0.70711
vn 0.70711 0 0.70711
vn 0 1 0
vn 0 1 0
vn -1 0 0
vn -1 0 0
vn 0 -1 0
vn 0 -1 0
vn 1 0 0
vn 1 0 0
vn 0 1 0
vn 0 1 0
vn -0.70711 0 0.70711
vn -0.70711 0 0.70711
vn 0 -1 0
vn 0 -1 0
vn 0.70711 0 -0.70711
vn 0.70711 0 -0.70711
vn 0 1 0
vn 0 1 0
vn 0 0 1
vn 0 0 1
vn 0 -1 0
vn 0 -1 0
vn 0 0 -1
vn 0 0 -1
vn 0 1 0
vn 0 1 0
vn 0.70711 0 0.70711
vn 0.70711 0 0.70711
vn 0 -1 0
vn 0 -1 0
vn -0.70711 0 -0.70711
vn -0.70711 0 -0.70711
vn 0 1 0
vn 0 1 0
vn 1 0 0
vn 1 0 0
vn 0 -1 0
vn 0 -1 0
vn -1 0 0
vn -1 0 0
vn 0 1 0
vn 0 1 0
vn 0.70711 0 -0.70711
vn 0.70711 0 -0.70711
vn 0 -1 0
vn 0 -1 0
vn -0.70711 0 0.70711
vn -0.70711 0 0.70711
vn 0 1 0
vn 0 1 0
vn 0 1 0
vn 0 1 0
vn 0 1 0
vn 0 1 0
vn 0 -1 0
vn -1 0 0
vn 0 -0.00175 0.999998
vn 0 -1 0
vn -1 0 0
vn 0 0.00116 -0.999999
vn 0 -1 0
vn 0 0.00116 -0.999999
vn 1 0 0
vn 0 -1 0
vn 1 0 0
vn 0 -0.00175 0.999998
vn 0 -0.00175 0.999998
vn 1 0 0
vn 0 1 0
vn 0 -0.00175 0.999998
vn -1 0 0
vn 0 1 0
vn 0 0.98183 -0.18977
vn 1 0 0
vn 0 0.92517 -0.37954
vn -1 0 0
vn 0 0.83634 -0.54822
vn 1 0 0
vn 0 0.83636 0.54819
vn 0 0.83634 -0.54822
vn -1 0 0
vn 0 0.83636 0.54819
vn 1 0 0
vn 0 -1 0
vn 0 0.00116 -0.999999
vn 1 0 0
vn 0 -0.94484 0.32752
vn 1 0 0
vn 0 -0.87847 -0.47780
vn 0 -0.87845 0.47783
vn 0 0.00116 -0.999999
vn -1 0 0
vn 0 -1 0
vn 0 -0.98650 0.16376
vn -1 0 0
vn 0 -0.87845 0.47783
vn -1 0 0
vn 0 -0.87847 -0.47780
vn 0 -1 0
vn -1 0 0
vn 0 -0.00175 -0.999998
vn 0 -1 0
vn 1 0 0
vn 0 -0.00175 -0.999998
vn 0 -1 0
vn 0 0.00116 0.999999
vn 1 0 0
vn 0 -1 0
vn -1 0 0
vn 0 0.00116 0.999999
vn 0 -0.00175 -0.999998
vn -1 0 0
vn 0 1 0
vn 0 -0.00175 -0.999998
vn 1 0 0
vn 0 1 0
vn 0 0.92518 0.37952
vn -1 0 0
vn 0 0.98183 0.18976
vn 1 0 0
vn 1 0 0
vn 0 -1 0
vn 0 0.00116 0.999999
vn 1 0 0
vn 0 -0.94485 -0.32750
vn 0 0.00116 0.999999
vn -1 0 0
vn 0 -1 0
vn 0 -0.98650 -0.16375
vn -1 0 0
vn 0 -1 0
vn 0 0 1
vn 0.999998 -0.00175 0
vn 0 -1 0
vn 0 0 1
vn -0.999999 0.00116 0
vn 0 -1 0
vn -0.999999 0.00116 0
vn 0 0 -1
vn 0 -1 0
vn 0 0 -1
vn 0.999998 -0.00175 0
vn 0.999998 -0.00175 0
vn 0 0 -1
vn 0 1 0
vn 0.999998 -0.00175 0
vn 0 0 1
vn 0 1 0
vn 0 0 -1
vn 0 -1 0
vn -0.999999 0.00116 0
vn -0.999999 0.00116 0
vn 0 0 1
vn 0 -1 0
vn 0 -1 0
vn 0 0 1
vn -0.999998 -0.00175 0
vn 0 -1 0
vn 0 0 -1
vn -0.999998 -0.00175 0
vn 0 -1 0
vn 0.999999 0.00116 0
vn 0 0 -1
vn 0 -1 0
vn 0 0 1
vn 0.999999 0.00116 0
vn -0.999998 -0.00175 0
vn 0 0 1
vn 0 1 0
vn -0.999998 -0.00175 0
vn 0 0 -1
vn 0 1 0
vn 0 0 -1
vn 0 -1 0
vn 0.999999 0.00116 0
vn 0.999999 0.00116 0
vn 0 0 1
vn 0 -1 0
vn 0 1 0
vn 0 1 0
vn -0.70711 0 -0.70711
vn 0 0 -1
vn 0 1 0
vn 0 1 0
vn 0.70711 0 -0.70711
vn 0 0 -1
vn 0 1 0
vn -0.50545 0 0.86286
vn 0 1 0
vn 0.70711 0 0.70711
vn 0 0 1
vn 0 0 -1
vn 0 -1 0
vn -0.70711 0 -0.70711
vn 0 0 -1
vn 0 -1 0
vn 0.70711 0 -0.70711
vn 0 -1 0
vn 0.70711 0 0.70711
vn 0 0 1
vn 0 -1 0
vn -0.25272 0 0.96754
vn 0 1 0
vn 0 1 0
vn -0.96754 0 -0.25272
vn 0 1 0
vn 0.86286 0 0.50545
vn -0.86286 0 -0.50545
vn 0 -1 0
vn 0 -1 0
vn 0.96754 0 0.25272
vn 0 1 0
vn 0 1 0
vn -0.86286 0 0.50545
vn 0 1 0
vn 0.70711 0 -0.70711
vn 1 0 0
vn -0.96754 0 0.25272
vn 0 -1 0
vn 0 -1 0
vn 0.70711 0 -0.70711
vn 1 0 0
vn 0 1 0
vn 0 1 0
vn 0 0 1
vn -0.70711 0 0.70711
vn 0 1 0
vn 0.50545 0 -0.86286
vn -0.70711 0 0.70711
vn 0 -1 0
vn 0 0 1
vn 0 -1 0
vn 0.25272 0 -0.96754
vn 0 1 0
vn 0 1 0
vn 0.70711 0 0.70711
vn 0 0 1
vn 0 1 0
vn -0.70711 0 -0.70711
vn 0 0 -1
vn 0 0 1
vn 0 -1 0
vn 0.70711 0 0.70711
vn 0 -1 0
vn -0.70711 0 -0.70711
vn 0 0 -1
vn 0 1 0
vn 0 1 0
vn 0.96754 0 0.25272
vn 0 1 0
vn -1 0 0
vn -0.70711 0 -0.70711
vn 0.86286 0 0.50545
vn 0 -1 0
vn 0 -1 0
vn -1 0 0
vn -0.70711 0 -0.70711
vn 0 1 0
vn 0 1 0
vn 0.70711 0 -0.70711
vn 1 0 0
vn 0 1 0
vn -0.70711 0 0.70711
vn -1 0 0
vn 1 0 0
vn 0 -1 0
vn 0.70711 0 -0.70711
vn 0 -1 0
vn -0.70711 0 0.70711
vn -1 0 0

# No. texture coordinates 12:
vt 0.70273 0.74601
vt 0.72591 0.74601
vt 0.72591 0.99639
vt 0.70273 0.99639
vt 0.66836 0.26016
vt 0.88187 0.26016
vt 0.94592 0.32228
vt 0.94592 0.52934
vt 0.88187 0.59146
vt 0.66836 0.59146
vt 0.60431 0.52934
vt 0.60431 0.32228

# No. faces 150:

usemtl PROP_BusStation

f 1/1/151 2/2/154 3/3/157
f 3/3/157 4/4/160 1/1/151
f 1/1/153 4/2/162 5/3/163
f 5/3/163 6/4/166 1/1/153
f 6/1/168 5/2/165 7/3/169
f 7/3/169 8/4/171 6/1/168
f 8/1/171 7/2/169 9/3/173
f 9/3/173 10/4/176 8/1/171
f 4/1/161 3/2/159 11/3/179
f 11/3/179 5/4/164 4/1/161
f 5/1/164 11/2/179 12/3/182
f 12/3/182 7/4/170 5/1/164
f 7/1/170 12/2/182 13/3/184
f 13/3/184 9/4/174 7/1/170
f 3/1/158 2/2/156 14/3/187
f 14/3/187 11/4/181 3/1/158
f 11/1/180 14/2/189 15/3/190
f 15/3/190 12/4/183 11/1/180
f 12/1/183 15/2/190 16/3/192
f 16/3/192 13/4/186 12/1/183
f 2/1/155 1/2/152 6/3/167
f 6/3/167 14/4/188 2/1/155
f 14/1/188 6/2/167 8/3/172
f 8/3/172 15/4/191 14/1/188
f 15/1/191 8/2/172 10/3/177
f 10/3/177 16/4/193 15/1/191
f 17/1/195 18/2/198 19/3/201
f 19/3/201 20/4/204 17/1/195
f 17/1/197 21/2/207 22/3/210
f 22/3/210 18/4/200 17/1/197
f 21/1/209 23/2/213 24/3/215
f 24/3/215 22/4/212 21/1/209
f 23/1/213 10/2/178 9/3/175
f 9/3/175 24/4/215 23/1/213
f 18/1/199 22/2/211 25/3/217
f 25/3/217 19/4/203 18/1/199
f 22/1/211 24/2/216 26/3/220
f 26/3/220 25/4/217 22/1/211
f 24/1/216 9/2/174 13/3/184
f 13/3/184 26/4/220 24/1/216
f 19/1/202 25/2/219 27/3/222
f 27/3/222 20/4/206 19/1/202
f 25/1/218 26/2/221 28/3/225
f 28/3/225 27/4/224 25/1/218
f 26/1/221 13/2/185 16/3/194
f 16/3/194 28/4/225 26/1/221
f 20/1/205 27/2/223 21/3/208
f 21/3/208 17/4/196 20/1/205
f 27/1/223 28/2/226 23/3/214
f 23/3/214 21/4/208 27/1/223
f 28/1/226 16/2/193 10/3/177
f 10/3/177 23/4/214 28/1/226
f 29/1/227 30/2/230 31/3/233
f 31/3/233 32/4/236 29/1/227
f 29/1/229 32/2/238 33/3/239
f 33/3/239 34/4/242 29/1/229
f 32/1/237 31/2/235 35/3/245
f 35/3/245 33/4/240 32/1/237
f 31/1/234 30/2/232 36/3/248
f 36/3/248 35/4/247 31/1/234
f 30/1/231 29/2/228 34/3/243
f 34/3/243 36/4/249 30/1/231
f 37/1/251 38/2/254 39/3/257
f 39/3/257 40/4/260 37/1/251
f 37/1/253 41/2/263 42/3/266
f 42/3/266 38/4/256 37/1/253
f 41/1/265 34/2/244 33/3/241
f 33/3/241 42/4/268 41/1/265
f 38/1/255 42/2/267 43/3/269
f 43/3/269 39/4/259 38/1/255
f 42/1/267 33/2/240 35/3/245
f 35/3/245 43/4/269 42/1/267
f 39/1/258 43/2/271 44/3/272
f 44/3/272 40/4/262 39/1/258
f 43/1/270 35/2/246 36/3/250
f 36/3/250 44/4/274 43/1/270
f 40/1/261 44/2/273 41/3/264
f 41/3/264 37/4/252 40/1/261
f 44/1/273 36/2/249 34/3/243
f 34/3/243 41/4/264 44/1/273
f 45/3/275 46/4/279 47/1/283
f 47/1/283 48/2/285 45/3/275
f 49/3/288 50/4/291 46/1/282
f 46/1/282 45/2/278 49/3/288
f 51/3/294 52/4/297 50/1/292
f 50/1/292 49/2/289 51/3/294
f 48/3/287 47/4/284 52/1/298
f 52/1/298 51/2/296 48/3/287
f 53/3/299 45/4/275 48/1/285
f 48/1/285 54/2/302 53/3/299
f 55/3/304 49/4/290 45/1/277
f 45/1/277 53/2/301 55/3/304
f 56/3/306 51/4/294 49/1/289
f 49/1/289 55/2/305 56/3/306
f 54/3/303 48/4/286 51/1/295
f 51/1/295 56/2/307 54/3/303
f 57/3/308 53/4/299 54/1/302
f 54/1/302 58/2/311 57/3/308
f 59/3/314 55/4/304 53/1/301
f 53/1/301 57/2/310 59/3/314
f 60/3/316 56/4/306 55/1/305
f 55/1/305 59/2/315 60/3/316
f 58/3/313 54/4/303 56/1/307
f 56/1/307 60/2/318 58/3/313
f 61/3/319 57/4/308 58/1/311
f 58/1/311 62/2/323 61/3/319
f 63/3/325 59/4/314 57/1/310
f 57/1/310 61/2/322 63/3/325
f 64/3/328 60/4/316 59/1/315
f 59/1/315 63/2/326 64/3/328
f 62/3/324 58/4/312 60/1/317
f 60/1/317 64/2/329 62/3/324
f 65/3/330 61/4/319 62/1/323
f 62/1/323 66/2/334 65/3/330
f 67/3/337 63/4/327 61/1/321
f 61/1/321 65/2/333 67/3/337
f 68/3/340 64/4/328 63/1/326
f 63/1/326 67/2/338 68/3/340
f 66/3/336 62/4/324 64/1/329
f 64/1/329 68/2/342 66/3/336
f 69/3/343 65/4/330 66/1/334
f 66/1/334 70/2/346 69/3/343
f 71/3/349 67/4/339 65/1/332
f 65/1/332 69/2/345 71/3/349
f 72/3/351 68/4/340 67/1/338
f 67/1/338 71/2/350 72/3/351
f 70/3/348 66/4/335 68/1/341
f 68/1/341 72/2/353 70/3/348
f 73/3/354 69/4/343 70/1/346
f 70/1/346 74/2/358 73/3/354
f 75/3/361 71/4/349 69/1/345
f 69/1/345 73/2/357 75/3/361
f 76/3/364 72/4/351 71/1/350
f 71/1/350 75/2/362 76/3/364
f 74/3/360 70/4/347 72/1/352
f 72/1/352 76/2/366 74/3/360
f 46/3/279 73/4/354 74/1/358
f 74/1/358 47/2/283 46/3/279
f 50/3/293 75/4/363 73/1/356
f 73/1/356 46/2/281 50/3/293
f 52/3/297 76/4/364 75/1/362
f 75/1/362 50/2/292 52/3/297
f 47/3/284 74/4/359 76/1/365
f 76/1/365 52/2/298 47/3/284
f 46/5/280 45/6/276 53/7/300
f 53/7/300 57/8/309 61/9/320
f 46/5/280 53/7/300 61/9/320
f 61/9/320 65/10/331 69/11/344
f 46/5/280 61/9/320 69/11/344
f 73/12/355 46/5/280 69/11/344

# End of Object "UDC_TableGlass"
